%TF.GenerationSoftware,KiCad,Pcbnew,7.0.10*%
%TF.CreationDate,2024-03-23T17:35:10-04:00*%
%TF.ProjectId,blue-bike-air-pollution-monitor 3-23,626c7565-2d62-4696-9b65-2d6169722d70,rev?*%
%TF.SameCoordinates,Original*%
%TF.FileFunction,Legend,Top*%
%TF.FilePolarity,Positive*%
%FSLAX46Y46*%
G04 Gerber Fmt 4.6, Leading zero omitted, Abs format (unit mm)*
G04 Created by KiCad (PCBNEW 7.0.10) date 2024-03-23 17:35:10*
%MOMM*%
%LPD*%
G01*
G04 APERTURE LIST*
%ADD10C,0.254000*%
%ADD11C,0.150000*%
%ADD12C,0.127000*%
%ADD13C,0.100000*%
%ADD14C,0.120000*%
G04 APERTURE END LIST*
D10*
X76609009Y-59086544D02*
X78060438Y-59086544D01*
X77334724Y-61626544D02*
X77334724Y-59086544D01*
X79874723Y-61505592D02*
X79632819Y-61626544D01*
X79632819Y-61626544D02*
X79149009Y-61626544D01*
X79149009Y-61626544D02*
X78907104Y-61505592D01*
X78907104Y-61505592D02*
X78786152Y-61263687D01*
X78786152Y-61263687D02*
X78786152Y-60296068D01*
X78786152Y-60296068D02*
X78907104Y-60054163D01*
X78907104Y-60054163D02*
X79149009Y-59933211D01*
X79149009Y-59933211D02*
X79632819Y-59933211D01*
X79632819Y-59933211D02*
X79874723Y-60054163D01*
X79874723Y-60054163D02*
X79995676Y-60296068D01*
X79995676Y-60296068D02*
X79995676Y-60537972D01*
X79995676Y-60537972D02*
X78786152Y-60779877D01*
X82172819Y-61626544D02*
X82172819Y-60296068D01*
X82172819Y-60296068D02*
X82051866Y-60054163D01*
X82051866Y-60054163D02*
X81809962Y-59933211D01*
X81809962Y-59933211D02*
X81326152Y-59933211D01*
X81326152Y-59933211D02*
X81084247Y-60054163D01*
X82172819Y-61505592D02*
X81930914Y-61626544D01*
X81930914Y-61626544D02*
X81326152Y-61626544D01*
X81326152Y-61626544D02*
X81084247Y-61505592D01*
X81084247Y-61505592D02*
X80963295Y-61263687D01*
X80963295Y-61263687D02*
X80963295Y-61021782D01*
X80963295Y-61021782D02*
X81084247Y-60779877D01*
X81084247Y-60779877D02*
X81326152Y-60658925D01*
X81326152Y-60658925D02*
X81930914Y-60658925D01*
X81930914Y-60658925D02*
X82172819Y-60537972D01*
X83382342Y-61626544D02*
X83382342Y-59933211D01*
X83382342Y-60175115D02*
X83503295Y-60054163D01*
X83503295Y-60054163D02*
X83745200Y-59933211D01*
X83745200Y-59933211D02*
X84108057Y-59933211D01*
X84108057Y-59933211D02*
X84349961Y-60054163D01*
X84349961Y-60054163D02*
X84470914Y-60296068D01*
X84470914Y-60296068D02*
X84470914Y-61626544D01*
X84470914Y-60296068D02*
X84591866Y-60054163D01*
X84591866Y-60054163D02*
X84833771Y-59933211D01*
X84833771Y-59933211D02*
X85196628Y-59933211D01*
X85196628Y-59933211D02*
X85438533Y-60054163D01*
X85438533Y-60054163D02*
X85559485Y-60296068D01*
X85559485Y-60296068D02*
X85559485Y-61626544D01*
X88825200Y-61626544D02*
X89309009Y-61626544D01*
X89309009Y-61626544D02*
X89550914Y-61505592D01*
X89550914Y-61505592D02*
X89671866Y-61384639D01*
X89671866Y-61384639D02*
X89913771Y-61021782D01*
X89913771Y-61021782D02*
X90034724Y-60537972D01*
X90034724Y-60537972D02*
X90034724Y-59570353D01*
X90034724Y-59570353D02*
X89913771Y-59328449D01*
X89913771Y-59328449D02*
X89792819Y-59207496D01*
X89792819Y-59207496D02*
X89550914Y-59086544D01*
X89550914Y-59086544D02*
X89067105Y-59086544D01*
X89067105Y-59086544D02*
X88825200Y-59207496D01*
X88825200Y-59207496D02*
X88704247Y-59328449D01*
X88704247Y-59328449D02*
X88583295Y-59570353D01*
X88583295Y-59570353D02*
X88583295Y-60175115D01*
X88583295Y-60175115D02*
X88704247Y-60417020D01*
X88704247Y-60417020D02*
X88825200Y-60537972D01*
X88825200Y-60537972D02*
X89067105Y-60658925D01*
X89067105Y-60658925D02*
X89550914Y-60658925D01*
X89550914Y-60658925D02*
X89792819Y-60537972D01*
X89792819Y-60537972D02*
X89913771Y-60417020D01*
X89913771Y-60417020D02*
X90034724Y-60175115D01*
X76609009Y-63175944D02*
X77455676Y-65715944D01*
X77455676Y-65715944D02*
X78302343Y-63175944D01*
X79028057Y-63417849D02*
X79149009Y-63296896D01*
X79149009Y-63296896D02*
X79390914Y-63175944D01*
X79390914Y-63175944D02*
X79995676Y-63175944D01*
X79995676Y-63175944D02*
X80237581Y-63296896D01*
X80237581Y-63296896D02*
X80358533Y-63417849D01*
X80358533Y-63417849D02*
X80479486Y-63659753D01*
X80479486Y-63659753D02*
X80479486Y-63901658D01*
X80479486Y-63901658D02*
X80358533Y-64264515D01*
X80358533Y-64264515D02*
X78907105Y-65715944D01*
X78907105Y-65715944D02*
X80479486Y-65715944D01*
X83261391Y-63175944D02*
X84833772Y-63175944D01*
X84833772Y-63175944D02*
X83987105Y-64143563D01*
X83987105Y-64143563D02*
X84349962Y-64143563D01*
X84349962Y-64143563D02*
X84591867Y-64264515D01*
X84591867Y-64264515D02*
X84712819Y-64385468D01*
X84712819Y-64385468D02*
X84833772Y-64627372D01*
X84833772Y-64627372D02*
X84833772Y-65232134D01*
X84833772Y-65232134D02*
X84712819Y-65474039D01*
X84712819Y-65474039D02*
X84591867Y-65594992D01*
X84591867Y-65594992D02*
X84349962Y-65715944D01*
X84349962Y-65715944D02*
X83624248Y-65715944D01*
X83624248Y-65715944D02*
X83382343Y-65594992D01*
X83382343Y-65594992D02*
X83261391Y-65474039D01*
X87736629Y-63054992D02*
X85559486Y-66320706D01*
X88462343Y-63417849D02*
X88583295Y-63296896D01*
X88583295Y-63296896D02*
X88825200Y-63175944D01*
X88825200Y-63175944D02*
X89429962Y-63175944D01*
X89429962Y-63175944D02*
X89671867Y-63296896D01*
X89671867Y-63296896D02*
X89792819Y-63417849D01*
X89792819Y-63417849D02*
X89913772Y-63659753D01*
X89913772Y-63659753D02*
X89913772Y-63901658D01*
X89913772Y-63901658D02*
X89792819Y-64264515D01*
X89792819Y-64264515D02*
X88341391Y-65715944D01*
X88341391Y-65715944D02*
X89913772Y-65715944D01*
X90760439Y-63175944D02*
X92332820Y-63175944D01*
X92332820Y-63175944D02*
X91486153Y-64143563D01*
X91486153Y-64143563D02*
X91849010Y-64143563D01*
X91849010Y-64143563D02*
X92090915Y-64264515D01*
X92090915Y-64264515D02*
X92211867Y-64385468D01*
X92211867Y-64385468D02*
X92332820Y-64627372D01*
X92332820Y-64627372D02*
X92332820Y-65232134D01*
X92332820Y-65232134D02*
X92211867Y-65474039D01*
X92211867Y-65474039D02*
X92090915Y-65594992D01*
X92090915Y-65594992D02*
X91849010Y-65715944D01*
X91849010Y-65715944D02*
X91123296Y-65715944D01*
X91123296Y-65715944D02*
X90881391Y-65594992D01*
X90881391Y-65594992D02*
X90760439Y-65474039D01*
X95235677Y-63054992D02*
X93058534Y-66320706D01*
X95961391Y-63417849D02*
X96082343Y-63296896D01*
X96082343Y-63296896D02*
X96324248Y-63175944D01*
X96324248Y-63175944D02*
X96929010Y-63175944D01*
X96929010Y-63175944D02*
X97170915Y-63296896D01*
X97170915Y-63296896D02*
X97291867Y-63417849D01*
X97291867Y-63417849D02*
X97412820Y-63659753D01*
X97412820Y-63659753D02*
X97412820Y-63901658D01*
X97412820Y-63901658D02*
X97291867Y-64264515D01*
X97291867Y-64264515D02*
X95840439Y-65715944D01*
X95840439Y-65715944D02*
X97412820Y-65715944D01*
X99589963Y-64022611D02*
X99589963Y-65715944D01*
X98985201Y-63054992D02*
X98380439Y-64869277D01*
X98380439Y-64869277D02*
X99952820Y-64869277D01*
X160095914Y-68265230D02*
X161305438Y-68265230D01*
X159854009Y-68990944D02*
X160700676Y-66450944D01*
X160700676Y-66450944D02*
X161547343Y-68990944D01*
X163482581Y-68869992D02*
X163240676Y-68990944D01*
X163240676Y-68990944D02*
X162756867Y-68990944D01*
X162756867Y-68990944D02*
X162514962Y-68869992D01*
X162514962Y-68869992D02*
X162394009Y-68749039D01*
X162394009Y-68749039D02*
X162273057Y-68507134D01*
X162273057Y-68507134D02*
X162273057Y-67781420D01*
X162273057Y-67781420D02*
X162394009Y-67539515D01*
X162394009Y-67539515D02*
X162514962Y-67418563D01*
X162514962Y-67418563D02*
X162756867Y-67297611D01*
X162756867Y-67297611D02*
X163240676Y-67297611D01*
X163240676Y-67297611D02*
X163482581Y-67418563D01*
X165659724Y-68869992D02*
X165417819Y-68990944D01*
X165417819Y-68990944D02*
X164934010Y-68990944D01*
X164934010Y-68990944D02*
X164692105Y-68869992D01*
X164692105Y-68869992D02*
X164571152Y-68749039D01*
X164571152Y-68749039D02*
X164450200Y-68507134D01*
X164450200Y-68507134D02*
X164450200Y-67781420D01*
X164450200Y-67781420D02*
X164571152Y-67539515D01*
X164571152Y-67539515D02*
X164692105Y-67418563D01*
X164692105Y-67418563D02*
X164934010Y-67297611D01*
X164934010Y-67297611D02*
X165417819Y-67297611D01*
X165417819Y-67297611D02*
X165659724Y-67418563D01*
X167715914Y-68869992D02*
X167474010Y-68990944D01*
X167474010Y-68990944D02*
X166990200Y-68990944D01*
X166990200Y-68990944D02*
X166748295Y-68869992D01*
X166748295Y-68869992D02*
X166627343Y-68628087D01*
X166627343Y-68628087D02*
X166627343Y-67660468D01*
X166627343Y-67660468D02*
X166748295Y-67418563D01*
X166748295Y-67418563D02*
X166990200Y-67297611D01*
X166990200Y-67297611D02*
X167474010Y-67297611D01*
X167474010Y-67297611D02*
X167715914Y-67418563D01*
X167715914Y-67418563D02*
X167836867Y-67660468D01*
X167836867Y-67660468D02*
X167836867Y-67902372D01*
X167836867Y-67902372D02*
X166627343Y-68144277D01*
X169288296Y-68990944D02*
X169046391Y-68869992D01*
X169046391Y-68869992D02*
X168925438Y-68628087D01*
X168925438Y-68628087D02*
X168925438Y-66450944D01*
X90211514Y-71857692D02*
X90574371Y-71978644D01*
X90574371Y-71978644D02*
X91179133Y-71978644D01*
X91179133Y-71978644D02*
X91421038Y-71857692D01*
X91421038Y-71857692D02*
X91541990Y-71736739D01*
X91541990Y-71736739D02*
X91662943Y-71494834D01*
X91662943Y-71494834D02*
X91662943Y-71252930D01*
X91662943Y-71252930D02*
X91541990Y-71011025D01*
X91541990Y-71011025D02*
X91421038Y-70890072D01*
X91421038Y-70890072D02*
X91179133Y-70769120D01*
X91179133Y-70769120D02*
X90695324Y-70648168D01*
X90695324Y-70648168D02*
X90453419Y-70527215D01*
X90453419Y-70527215D02*
X90332466Y-70406263D01*
X90332466Y-70406263D02*
X90211514Y-70164358D01*
X90211514Y-70164358D02*
X90211514Y-69922453D01*
X90211514Y-69922453D02*
X90332466Y-69680549D01*
X90332466Y-69680549D02*
X90453419Y-69559596D01*
X90453419Y-69559596D02*
X90695324Y-69438644D01*
X90695324Y-69438644D02*
X91300085Y-69438644D01*
X91300085Y-69438644D02*
X91662943Y-69559596D01*
X92751514Y-70648168D02*
X93598181Y-70648168D01*
X93961038Y-71978644D02*
X92751514Y-71978644D01*
X92751514Y-71978644D02*
X92751514Y-69438644D01*
X92751514Y-69438644D02*
X93961038Y-69438644D01*
X95049609Y-71978644D02*
X95049609Y-69438644D01*
X95049609Y-69438644D02*
X96501038Y-71978644D01*
X96501038Y-71978644D02*
X96501038Y-69438644D01*
X98920085Y-69438644D02*
X97710561Y-69438644D01*
X97710561Y-69438644D02*
X97589609Y-70648168D01*
X97589609Y-70648168D02*
X97710561Y-70527215D01*
X97710561Y-70527215D02*
X97952466Y-70406263D01*
X97952466Y-70406263D02*
X98557228Y-70406263D01*
X98557228Y-70406263D02*
X98799133Y-70527215D01*
X98799133Y-70527215D02*
X98920085Y-70648168D01*
X98920085Y-70648168D02*
X99041038Y-70890072D01*
X99041038Y-70890072D02*
X99041038Y-71494834D01*
X99041038Y-71494834D02*
X98920085Y-71736739D01*
X98920085Y-71736739D02*
X98799133Y-71857692D01*
X98799133Y-71857692D02*
X98557228Y-71978644D01*
X98557228Y-71978644D02*
X97952466Y-71978644D01*
X97952466Y-71978644D02*
X97710561Y-71857692D01*
X97710561Y-71857692D02*
X97589609Y-71736739D01*
X101339133Y-69438644D02*
X100129609Y-69438644D01*
X100129609Y-69438644D02*
X100008657Y-70648168D01*
X100008657Y-70648168D02*
X100129609Y-70527215D01*
X100129609Y-70527215D02*
X100371514Y-70406263D01*
X100371514Y-70406263D02*
X100976276Y-70406263D01*
X100976276Y-70406263D02*
X101218181Y-70527215D01*
X101218181Y-70527215D02*
X101339133Y-70648168D01*
X101339133Y-70648168D02*
X101460086Y-70890072D01*
X101460086Y-70890072D02*
X101460086Y-71494834D01*
X101460086Y-71494834D02*
X101339133Y-71736739D01*
X101339133Y-71736739D02*
X101218181Y-71857692D01*
X101218181Y-71857692D02*
X100976276Y-71978644D01*
X100976276Y-71978644D02*
X100371514Y-71978644D01*
X100371514Y-71978644D02*
X100129609Y-71857692D01*
X100129609Y-71857692D02*
X100008657Y-71736739D01*
D11*
X108921009Y-148105714D02*
X108968628Y-147962857D01*
X108968628Y-147962857D02*
X109016247Y-147915238D01*
X109016247Y-147915238D02*
X109111485Y-147867619D01*
X109111485Y-147867619D02*
X109254342Y-147867619D01*
X109254342Y-147867619D02*
X109349580Y-147915238D01*
X109349580Y-147915238D02*
X109397200Y-147962857D01*
X109397200Y-147962857D02*
X109444819Y-148058095D01*
X109444819Y-148058095D02*
X109444819Y-148439047D01*
X109444819Y-148439047D02*
X108444819Y-148439047D01*
X108444819Y-148439047D02*
X108444819Y-148105714D01*
X108444819Y-148105714D02*
X108492438Y-148010476D01*
X108492438Y-148010476D02*
X108540057Y-147962857D01*
X108540057Y-147962857D02*
X108635295Y-147915238D01*
X108635295Y-147915238D02*
X108730533Y-147915238D01*
X108730533Y-147915238D02*
X108825771Y-147962857D01*
X108825771Y-147962857D02*
X108873390Y-148010476D01*
X108873390Y-148010476D02*
X108921009Y-148105714D01*
X108921009Y-148105714D02*
X108921009Y-148439047D01*
X108444819Y-147581904D02*
X108444819Y-147010476D01*
X109444819Y-147296190D02*
X108444819Y-147296190D01*
X109444819Y-146153333D02*
X109444819Y-146724761D01*
X109444819Y-146439047D02*
X108444819Y-146439047D01*
X108444819Y-146439047D02*
X108587676Y-146534285D01*
X108587676Y-146534285D02*
X108682914Y-146629523D01*
X108682914Y-146629523D02*
X108730533Y-146724761D01*
X71031195Y-149679819D02*
X71031195Y-148679819D01*
X71031195Y-149156009D02*
X71602623Y-149156009D01*
X71602623Y-149679819D02*
X71602623Y-148679819D01*
X72507385Y-148679819D02*
X72316909Y-148679819D01*
X72316909Y-148679819D02*
X72221671Y-148727438D01*
X72221671Y-148727438D02*
X72174052Y-148775057D01*
X72174052Y-148775057D02*
X72078814Y-148917914D01*
X72078814Y-148917914D02*
X72031195Y-149108390D01*
X72031195Y-149108390D02*
X72031195Y-149489342D01*
X72031195Y-149489342D02*
X72078814Y-149584580D01*
X72078814Y-149584580D02*
X72126433Y-149632200D01*
X72126433Y-149632200D02*
X72221671Y-149679819D01*
X72221671Y-149679819D02*
X72412147Y-149679819D01*
X72412147Y-149679819D02*
X72507385Y-149632200D01*
X72507385Y-149632200D02*
X72555004Y-149584580D01*
X72555004Y-149584580D02*
X72602623Y-149489342D01*
X72602623Y-149489342D02*
X72602623Y-149251247D01*
X72602623Y-149251247D02*
X72555004Y-149156009D01*
X72555004Y-149156009D02*
X72507385Y-149108390D01*
X72507385Y-149108390D02*
X72412147Y-149060771D01*
X72412147Y-149060771D02*
X72221671Y-149060771D01*
X72221671Y-149060771D02*
X72126433Y-149108390D01*
X72126433Y-149108390D02*
X72078814Y-149156009D01*
X72078814Y-149156009D02*
X72031195Y-149251247D01*
D12*
X115134922Y-124036666D02*
X114530160Y-124460000D01*
X115134922Y-124762381D02*
X113864922Y-124762381D01*
X113864922Y-124762381D02*
X113864922Y-124278571D01*
X113864922Y-124278571D02*
X113925398Y-124157619D01*
X113925398Y-124157619D02*
X113985874Y-124097142D01*
X113985874Y-124097142D02*
X114106826Y-124036666D01*
X114106826Y-124036666D02*
X114288255Y-124036666D01*
X114288255Y-124036666D02*
X114409207Y-124097142D01*
X114409207Y-124097142D02*
X114469684Y-124157619D01*
X114469684Y-124157619D02*
X114530160Y-124278571D01*
X114530160Y-124278571D02*
X114530160Y-124762381D01*
X115134922Y-122827142D02*
X115134922Y-123552857D01*
X115134922Y-123190000D02*
X113864922Y-123190000D01*
X113864922Y-123190000D02*
X114046350Y-123310952D01*
X114046350Y-123310952D02*
X114167303Y-123431904D01*
X114167303Y-123431904D02*
X114227779Y-123552857D01*
D11*
X117834580Y-133516666D02*
X117882200Y-133564285D01*
X117882200Y-133564285D02*
X117929819Y-133707142D01*
X117929819Y-133707142D02*
X117929819Y-133802380D01*
X117929819Y-133802380D02*
X117882200Y-133945237D01*
X117882200Y-133945237D02*
X117786961Y-134040475D01*
X117786961Y-134040475D02*
X117691723Y-134088094D01*
X117691723Y-134088094D02*
X117501247Y-134135713D01*
X117501247Y-134135713D02*
X117358390Y-134135713D01*
X117358390Y-134135713D02*
X117167914Y-134088094D01*
X117167914Y-134088094D02*
X117072676Y-134040475D01*
X117072676Y-134040475D02*
X116977438Y-133945237D01*
X116977438Y-133945237D02*
X116929819Y-133802380D01*
X116929819Y-133802380D02*
X116929819Y-133707142D01*
X116929819Y-133707142D02*
X116977438Y-133564285D01*
X116977438Y-133564285D02*
X117025057Y-133516666D01*
X117025057Y-133135713D02*
X116977438Y-133088094D01*
X116977438Y-133088094D02*
X116929819Y-132992856D01*
X116929819Y-132992856D02*
X116929819Y-132754761D01*
X116929819Y-132754761D02*
X116977438Y-132659523D01*
X116977438Y-132659523D02*
X117025057Y-132611904D01*
X117025057Y-132611904D02*
X117120295Y-132564285D01*
X117120295Y-132564285D02*
X117215533Y-132564285D01*
X117215533Y-132564285D02*
X117358390Y-132611904D01*
X117358390Y-132611904D02*
X117929819Y-133183332D01*
X117929819Y-133183332D02*
X117929819Y-132564285D01*
X57035795Y-149679819D02*
X57035795Y-148679819D01*
X57035795Y-149156009D02*
X57607223Y-149156009D01*
X57607223Y-149679819D02*
X57607223Y-148679819D01*
X57988176Y-148679819D02*
X58607223Y-148679819D01*
X58607223Y-148679819D02*
X58273890Y-149060771D01*
X58273890Y-149060771D02*
X58416747Y-149060771D01*
X58416747Y-149060771D02*
X58511985Y-149108390D01*
X58511985Y-149108390D02*
X58559604Y-149156009D01*
X58559604Y-149156009D02*
X58607223Y-149251247D01*
X58607223Y-149251247D02*
X58607223Y-149489342D01*
X58607223Y-149489342D02*
X58559604Y-149584580D01*
X58559604Y-149584580D02*
X58511985Y-149632200D01*
X58511985Y-149632200D02*
X58416747Y-149679819D01*
X58416747Y-149679819D02*
X58131033Y-149679819D01*
X58131033Y-149679819D02*
X58035795Y-149632200D01*
X58035795Y-149632200D02*
X57988176Y-149584580D01*
D12*
X110054922Y-124163666D02*
X109450160Y-124587000D01*
X110054922Y-124889381D02*
X108784922Y-124889381D01*
X108784922Y-124889381D02*
X108784922Y-124405571D01*
X108784922Y-124405571D02*
X108845398Y-124284619D01*
X108845398Y-124284619D02*
X108905874Y-124224142D01*
X108905874Y-124224142D02*
X109026826Y-124163666D01*
X109026826Y-124163666D02*
X109208255Y-124163666D01*
X109208255Y-124163666D02*
X109329207Y-124224142D01*
X109329207Y-124224142D02*
X109389684Y-124284619D01*
X109389684Y-124284619D02*
X109450160Y-124405571D01*
X109450160Y-124405571D02*
X109450160Y-124889381D01*
X108905874Y-123679857D02*
X108845398Y-123619381D01*
X108845398Y-123619381D02*
X108784922Y-123498428D01*
X108784922Y-123498428D02*
X108784922Y-123196047D01*
X108784922Y-123196047D02*
X108845398Y-123075095D01*
X108845398Y-123075095D02*
X108905874Y-123014619D01*
X108905874Y-123014619D02*
X109026826Y-122954142D01*
X109026826Y-122954142D02*
X109147779Y-122954142D01*
X109147779Y-122954142D02*
X109329207Y-123014619D01*
X109329207Y-123014619D02*
X110054922Y-123740333D01*
X110054922Y-123740333D02*
X110054922Y-122954142D01*
D11*
X109869580Y-133536666D02*
X109917200Y-133584285D01*
X109917200Y-133584285D02*
X109964819Y-133727142D01*
X109964819Y-133727142D02*
X109964819Y-133822380D01*
X109964819Y-133822380D02*
X109917200Y-133965237D01*
X109917200Y-133965237D02*
X109821961Y-134060475D01*
X109821961Y-134060475D02*
X109726723Y-134108094D01*
X109726723Y-134108094D02*
X109536247Y-134155713D01*
X109536247Y-134155713D02*
X109393390Y-134155713D01*
X109393390Y-134155713D02*
X109202914Y-134108094D01*
X109202914Y-134108094D02*
X109107676Y-134060475D01*
X109107676Y-134060475D02*
X109012438Y-133965237D01*
X109012438Y-133965237D02*
X108964819Y-133822380D01*
X108964819Y-133822380D02*
X108964819Y-133727142D01*
X108964819Y-133727142D02*
X109012438Y-133584285D01*
X109012438Y-133584285D02*
X109060057Y-133536666D01*
X109964819Y-132584285D02*
X109964819Y-133155713D01*
X109964819Y-132869999D02*
X108964819Y-132869999D01*
X108964819Y-132869999D02*
X109107676Y-132965237D01*
X109107676Y-132965237D02*
X109202914Y-133060475D01*
X109202914Y-133060475D02*
X109250533Y-133155713D01*
X189103095Y-67764819D02*
X189103095Y-66764819D01*
X189103095Y-67241009D02*
X189674523Y-67241009D01*
X189674523Y-67764819D02*
X189674523Y-66764819D01*
X190103095Y-66860057D02*
X190150714Y-66812438D01*
X190150714Y-66812438D02*
X190245952Y-66764819D01*
X190245952Y-66764819D02*
X190484047Y-66764819D01*
X190484047Y-66764819D02*
X190579285Y-66812438D01*
X190579285Y-66812438D02*
X190626904Y-66860057D01*
X190626904Y-66860057D02*
X190674523Y-66955295D01*
X190674523Y-66955295D02*
X190674523Y-67050533D01*
X190674523Y-67050533D02*
X190626904Y-67193390D01*
X190626904Y-67193390D02*
X190055476Y-67764819D01*
X190055476Y-67764819D02*
X190674523Y-67764819D01*
D10*
X129727666Y-150745468D02*
X130574333Y-150745468D01*
X130937190Y-152075944D02*
X129727666Y-152075944D01*
X129727666Y-152075944D02*
X129727666Y-149535944D01*
X129727666Y-149535944D02*
X130937190Y-149535944D01*
X131904809Y-151954992D02*
X132267666Y-152075944D01*
X132267666Y-152075944D02*
X132872428Y-152075944D01*
X132872428Y-152075944D02*
X133114333Y-151954992D01*
X133114333Y-151954992D02*
X133235285Y-151834039D01*
X133235285Y-151834039D02*
X133356238Y-151592134D01*
X133356238Y-151592134D02*
X133356238Y-151350230D01*
X133356238Y-151350230D02*
X133235285Y-151108325D01*
X133235285Y-151108325D02*
X133114333Y-150987372D01*
X133114333Y-150987372D02*
X132872428Y-150866420D01*
X132872428Y-150866420D02*
X132388619Y-150745468D01*
X132388619Y-150745468D02*
X132146714Y-150624515D01*
X132146714Y-150624515D02*
X132025761Y-150503563D01*
X132025761Y-150503563D02*
X131904809Y-150261658D01*
X131904809Y-150261658D02*
X131904809Y-150019753D01*
X131904809Y-150019753D02*
X132025761Y-149777849D01*
X132025761Y-149777849D02*
X132146714Y-149656896D01*
X132146714Y-149656896D02*
X132388619Y-149535944D01*
X132388619Y-149535944D02*
X132993380Y-149535944D01*
X132993380Y-149535944D02*
X133356238Y-149656896D01*
X134444809Y-152075944D02*
X134444809Y-149535944D01*
X134444809Y-149535944D02*
X135412428Y-149535944D01*
X135412428Y-149535944D02*
X135654333Y-149656896D01*
X135654333Y-149656896D02*
X135775286Y-149777849D01*
X135775286Y-149777849D02*
X135896238Y-150019753D01*
X135896238Y-150019753D02*
X135896238Y-150382611D01*
X135896238Y-150382611D02*
X135775286Y-150624515D01*
X135775286Y-150624515D02*
X135654333Y-150745468D01*
X135654333Y-150745468D02*
X135412428Y-150866420D01*
X135412428Y-150866420D02*
X134444809Y-150866420D01*
X136742905Y-149535944D02*
X138315286Y-149535944D01*
X138315286Y-149535944D02*
X137468619Y-150503563D01*
X137468619Y-150503563D02*
X137831476Y-150503563D01*
X137831476Y-150503563D02*
X138073381Y-150624515D01*
X138073381Y-150624515D02*
X138194333Y-150745468D01*
X138194333Y-150745468D02*
X138315286Y-150987372D01*
X138315286Y-150987372D02*
X138315286Y-151592134D01*
X138315286Y-151592134D02*
X138194333Y-151834039D01*
X138194333Y-151834039D02*
X138073381Y-151954992D01*
X138073381Y-151954992D02*
X137831476Y-152075944D01*
X137831476Y-152075944D02*
X137105762Y-152075944D01*
X137105762Y-152075944D02*
X136863857Y-151954992D01*
X136863857Y-151954992D02*
X136742905Y-151834039D01*
X139282905Y-149777849D02*
X139403857Y-149656896D01*
X139403857Y-149656896D02*
X139645762Y-149535944D01*
X139645762Y-149535944D02*
X140250524Y-149535944D01*
X140250524Y-149535944D02*
X140492429Y-149656896D01*
X140492429Y-149656896D02*
X140613381Y-149777849D01*
X140613381Y-149777849D02*
X140734334Y-150019753D01*
X140734334Y-150019753D02*
X140734334Y-150261658D01*
X140734334Y-150261658D02*
X140613381Y-150624515D01*
X140613381Y-150624515D02*
X139161953Y-152075944D01*
X139161953Y-152075944D02*
X140734334Y-152075944D01*
X76641666Y-146524444D02*
X76641666Y-143984444D01*
X76641666Y-143984444D02*
X77488333Y-145798730D01*
X77488333Y-145798730D02*
X78335000Y-143984444D01*
X78335000Y-143984444D02*
X78335000Y-146524444D01*
X80512142Y-146403492D02*
X80270238Y-146524444D01*
X80270238Y-146524444D02*
X79786428Y-146524444D01*
X79786428Y-146524444D02*
X79544523Y-146403492D01*
X79544523Y-146403492D02*
X79423571Y-146161587D01*
X79423571Y-146161587D02*
X79423571Y-145193968D01*
X79423571Y-145193968D02*
X79544523Y-144952063D01*
X79544523Y-144952063D02*
X79786428Y-144831111D01*
X79786428Y-144831111D02*
X80270238Y-144831111D01*
X80270238Y-144831111D02*
X80512142Y-144952063D01*
X80512142Y-144952063D02*
X80633095Y-145193968D01*
X80633095Y-145193968D02*
X80633095Y-145435872D01*
X80633095Y-145435872D02*
X79423571Y-145677777D01*
X81358809Y-144831111D02*
X82326428Y-144831111D01*
X81721666Y-143984444D02*
X81721666Y-146161587D01*
X81721666Y-146161587D02*
X81842619Y-146403492D01*
X81842619Y-146403492D02*
X82084524Y-146524444D01*
X82084524Y-146524444D02*
X82326428Y-146524444D01*
X83173095Y-146524444D02*
X83173095Y-143984444D01*
X84261667Y-146524444D02*
X84261667Y-145193968D01*
X84261667Y-145193968D02*
X84140714Y-144952063D01*
X84140714Y-144952063D02*
X83898810Y-144831111D01*
X83898810Y-144831111D02*
X83535953Y-144831111D01*
X83535953Y-144831111D02*
X83294048Y-144952063D01*
X83294048Y-144952063D02*
X83173095Y-145073015D01*
X86559762Y-146524444D02*
X86559762Y-145193968D01*
X86559762Y-145193968D02*
X86438809Y-144952063D01*
X86438809Y-144952063D02*
X86196905Y-144831111D01*
X86196905Y-144831111D02*
X85713095Y-144831111D01*
X85713095Y-144831111D02*
X85471190Y-144952063D01*
X86559762Y-146403492D02*
X86317857Y-146524444D01*
X86317857Y-146524444D02*
X85713095Y-146524444D01*
X85713095Y-146524444D02*
X85471190Y-146403492D01*
X85471190Y-146403492D02*
X85350238Y-146161587D01*
X85350238Y-146161587D02*
X85350238Y-145919682D01*
X85350238Y-145919682D02*
X85471190Y-145677777D01*
X85471190Y-145677777D02*
X85713095Y-145556825D01*
X85713095Y-145556825D02*
X86317857Y-145556825D01*
X86317857Y-145556825D02*
X86559762Y-145435872D01*
X87769285Y-144831111D02*
X87769285Y-146524444D01*
X87769285Y-145073015D02*
X87890238Y-144952063D01*
X87890238Y-144952063D02*
X88132143Y-144831111D01*
X88132143Y-144831111D02*
X88495000Y-144831111D01*
X88495000Y-144831111D02*
X88736904Y-144952063D01*
X88736904Y-144952063D02*
X88857857Y-145193968D01*
X88857857Y-145193968D02*
X88857857Y-146524444D01*
X91034999Y-146403492D02*
X90793095Y-146524444D01*
X90793095Y-146524444D02*
X90309285Y-146524444D01*
X90309285Y-146524444D02*
X90067380Y-146403492D01*
X90067380Y-146403492D02*
X89946428Y-146161587D01*
X89946428Y-146161587D02*
X89946428Y-145193968D01*
X89946428Y-145193968D02*
X90067380Y-144952063D01*
X90067380Y-144952063D02*
X90309285Y-144831111D01*
X90309285Y-144831111D02*
X90793095Y-144831111D01*
X90793095Y-144831111D02*
X91034999Y-144952063D01*
X91034999Y-144952063D02*
X91155952Y-145193968D01*
X91155952Y-145193968D02*
X91155952Y-145435872D01*
X91155952Y-145435872D02*
X89946428Y-145677777D01*
D11*
X113538095Y-137424819D02*
X113538095Y-138234342D01*
X113538095Y-138234342D02*
X113585714Y-138329580D01*
X113585714Y-138329580D02*
X113633333Y-138377200D01*
X113633333Y-138377200D02*
X113728571Y-138424819D01*
X113728571Y-138424819D02*
X113919047Y-138424819D01*
X113919047Y-138424819D02*
X114014285Y-138377200D01*
X114014285Y-138377200D02*
X114061904Y-138329580D01*
X114061904Y-138329580D02*
X114109523Y-138234342D01*
X114109523Y-138234342D02*
X114109523Y-137424819D01*
X115109523Y-138424819D02*
X114538095Y-138424819D01*
X114823809Y-138424819D02*
X114823809Y-137424819D01*
X114823809Y-137424819D02*
X114728571Y-137567676D01*
X114728571Y-137567676D02*
X114633333Y-137662914D01*
X114633333Y-137662914D02*
X114538095Y-137710533D01*
X156813333Y-155029819D02*
X156337143Y-155029819D01*
X156337143Y-155029819D02*
X156289524Y-155506009D01*
X156289524Y-155506009D02*
X156337143Y-155458390D01*
X156337143Y-155458390D02*
X156432381Y-155410771D01*
X156432381Y-155410771D02*
X156670476Y-155410771D01*
X156670476Y-155410771D02*
X156765714Y-155458390D01*
X156765714Y-155458390D02*
X156813333Y-155506009D01*
X156813333Y-155506009D02*
X156860952Y-155601247D01*
X156860952Y-155601247D02*
X156860952Y-155839342D01*
X156860952Y-155839342D02*
X156813333Y-155934580D01*
X156813333Y-155934580D02*
X156765714Y-155982200D01*
X156765714Y-155982200D02*
X156670476Y-156029819D01*
X156670476Y-156029819D02*
X156432381Y-156029819D01*
X156432381Y-156029819D02*
X156337143Y-155982200D01*
X156337143Y-155982200D02*
X156289524Y-155934580D01*
X157146667Y-155029819D02*
X157480000Y-156029819D01*
X157480000Y-156029819D02*
X157813333Y-155029819D01*
X158670476Y-156029819D02*
X158099048Y-156029819D01*
X158384762Y-156029819D02*
X158384762Y-155029819D01*
X158384762Y-155029819D02*
X158289524Y-155172676D01*
X158289524Y-155172676D02*
X158194286Y-155267914D01*
X158194286Y-155267914D02*
X158099048Y-155315533D01*
X70993095Y-67764819D02*
X70993095Y-66764819D01*
X70993095Y-67241009D02*
X71564523Y-67241009D01*
X71564523Y-67764819D02*
X71564523Y-66764819D01*
X72516904Y-66764819D02*
X72040714Y-66764819D01*
X72040714Y-66764819D02*
X71993095Y-67241009D01*
X71993095Y-67241009D02*
X72040714Y-67193390D01*
X72040714Y-67193390D02*
X72135952Y-67145771D01*
X72135952Y-67145771D02*
X72374047Y-67145771D01*
X72374047Y-67145771D02*
X72469285Y-67193390D01*
X72469285Y-67193390D02*
X72516904Y-67241009D01*
X72516904Y-67241009D02*
X72564523Y-67336247D01*
X72564523Y-67336247D02*
X72564523Y-67574342D01*
X72564523Y-67574342D02*
X72516904Y-67669580D01*
X72516904Y-67669580D02*
X72469285Y-67717200D01*
X72469285Y-67717200D02*
X72374047Y-67764819D01*
X72374047Y-67764819D02*
X72135952Y-67764819D01*
X72135952Y-67764819D02*
X72040714Y-67717200D01*
X72040714Y-67717200D02*
X71993095Y-67669580D01*
D10*
X163927343Y-147216896D02*
X163685438Y-147095944D01*
X163685438Y-147095944D02*
X163322581Y-147095944D01*
X163322581Y-147095944D02*
X162959724Y-147216896D01*
X162959724Y-147216896D02*
X162717819Y-147458801D01*
X162717819Y-147458801D02*
X162596866Y-147700706D01*
X162596866Y-147700706D02*
X162475914Y-148184515D01*
X162475914Y-148184515D02*
X162475914Y-148547372D01*
X162475914Y-148547372D02*
X162596866Y-149031182D01*
X162596866Y-149031182D02*
X162717819Y-149273087D01*
X162717819Y-149273087D02*
X162959724Y-149514992D01*
X162959724Y-149514992D02*
X163322581Y-149635944D01*
X163322581Y-149635944D02*
X163564485Y-149635944D01*
X163564485Y-149635944D02*
X163927343Y-149514992D01*
X163927343Y-149514992D02*
X164048295Y-149394039D01*
X164048295Y-149394039D02*
X164048295Y-148547372D01*
X164048295Y-148547372D02*
X163564485Y-148547372D01*
X165136866Y-149635944D02*
X165136866Y-147095944D01*
X165136866Y-147095944D02*
X166104485Y-147095944D01*
X166104485Y-147095944D02*
X166346390Y-147216896D01*
X166346390Y-147216896D02*
X166467343Y-147337849D01*
X166467343Y-147337849D02*
X166588295Y-147579753D01*
X166588295Y-147579753D02*
X166588295Y-147942611D01*
X166588295Y-147942611D02*
X166467343Y-148184515D01*
X166467343Y-148184515D02*
X166346390Y-148305468D01*
X166346390Y-148305468D02*
X166104485Y-148426420D01*
X166104485Y-148426420D02*
X165136866Y-148426420D01*
X167555914Y-149514992D02*
X167918771Y-149635944D01*
X167918771Y-149635944D02*
X168523533Y-149635944D01*
X168523533Y-149635944D02*
X168765438Y-149514992D01*
X168765438Y-149514992D02*
X168886390Y-149394039D01*
X168886390Y-149394039D02*
X169007343Y-149152134D01*
X169007343Y-149152134D02*
X169007343Y-148910230D01*
X169007343Y-148910230D02*
X168886390Y-148668325D01*
X168886390Y-148668325D02*
X168765438Y-148547372D01*
X168765438Y-148547372D02*
X168523533Y-148426420D01*
X168523533Y-148426420D02*
X168039724Y-148305468D01*
X168039724Y-148305468D02*
X167797819Y-148184515D01*
X167797819Y-148184515D02*
X167676866Y-148063563D01*
X167676866Y-148063563D02*
X167555914Y-147821658D01*
X167555914Y-147821658D02*
X167555914Y-147579753D01*
X167555914Y-147579753D02*
X167676866Y-147337849D01*
X167676866Y-147337849D02*
X167797819Y-147216896D01*
X167797819Y-147216896D02*
X168039724Y-147095944D01*
X168039724Y-147095944D02*
X168644485Y-147095944D01*
X168644485Y-147095944D02*
X169007343Y-147216896D01*
X165149390Y-91215944D02*
X163939866Y-91215944D01*
X163939866Y-91215944D02*
X163939866Y-88675944D01*
X166358914Y-91215944D02*
X166117009Y-91094992D01*
X166117009Y-91094992D02*
X165996056Y-90974039D01*
X165996056Y-90974039D02*
X165875104Y-90732134D01*
X165875104Y-90732134D02*
X165875104Y-90006420D01*
X165875104Y-90006420D02*
X165996056Y-89764515D01*
X165996056Y-89764515D02*
X166117009Y-89643563D01*
X166117009Y-89643563D02*
X166358914Y-89522611D01*
X166358914Y-89522611D02*
X166721771Y-89522611D01*
X166721771Y-89522611D02*
X166963675Y-89643563D01*
X166963675Y-89643563D02*
X167084628Y-89764515D01*
X167084628Y-89764515D02*
X167205580Y-90006420D01*
X167205580Y-90006420D02*
X167205580Y-90732134D01*
X167205580Y-90732134D02*
X167084628Y-90974039D01*
X167084628Y-90974039D02*
X166963675Y-91094992D01*
X166963675Y-91094992D02*
X166721771Y-91215944D01*
X166721771Y-91215944D02*
X166358914Y-91215944D01*
X168294151Y-91215944D02*
X168294151Y-89522611D01*
X168294151Y-90006420D02*
X168415104Y-89764515D01*
X168415104Y-89764515D02*
X168536056Y-89643563D01*
X168536056Y-89643563D02*
X168777961Y-89522611D01*
X168777961Y-89522611D02*
X169019866Y-89522611D01*
X170955104Y-91215944D02*
X170955104Y-89885468D01*
X170955104Y-89885468D02*
X170834151Y-89643563D01*
X170834151Y-89643563D02*
X170592247Y-89522611D01*
X170592247Y-89522611D02*
X170108437Y-89522611D01*
X170108437Y-89522611D02*
X169866532Y-89643563D01*
X170955104Y-91094992D02*
X170713199Y-91215944D01*
X170713199Y-91215944D02*
X170108437Y-91215944D01*
X170108437Y-91215944D02*
X169866532Y-91094992D01*
X169866532Y-91094992D02*
X169745580Y-90853087D01*
X169745580Y-90853087D02*
X169745580Y-90611182D01*
X169745580Y-90611182D02*
X169866532Y-90369277D01*
X169866532Y-90369277D02*
X170108437Y-90248325D01*
X170108437Y-90248325D02*
X170713199Y-90248325D01*
X170713199Y-90248325D02*
X170955104Y-90127372D01*
X171922723Y-88675944D02*
X172527485Y-91215944D01*
X172527485Y-91215944D02*
X173011294Y-89401658D01*
X173011294Y-89401658D02*
X173495104Y-91215944D01*
X173495104Y-91215944D02*
X174099866Y-88675944D01*
X174946532Y-90490230D02*
X176156056Y-90490230D01*
X174704627Y-91215944D02*
X175551294Y-88675944D01*
X175551294Y-88675944D02*
X176397961Y-91215944D01*
X177244627Y-91215944D02*
X177244627Y-88675944D01*
X177244627Y-88675944D02*
X178696056Y-91215944D01*
X178696056Y-91215944D02*
X178696056Y-88675944D01*
D11*
X189039595Y-149679819D02*
X189039595Y-148679819D01*
X189039595Y-149156009D02*
X189611023Y-149156009D01*
X189611023Y-149679819D02*
X189611023Y-148679819D01*
X190515785Y-149013152D02*
X190515785Y-149679819D01*
X190277690Y-148632200D02*
X190039595Y-149346485D01*
X190039595Y-149346485D02*
X190658642Y-149346485D01*
X145367619Y-155029819D02*
X145986666Y-155029819D01*
X145986666Y-155029819D02*
X145653333Y-155410771D01*
X145653333Y-155410771D02*
X145796190Y-155410771D01*
X145796190Y-155410771D02*
X145891428Y-155458390D01*
X145891428Y-155458390D02*
X145939047Y-155506009D01*
X145939047Y-155506009D02*
X145986666Y-155601247D01*
X145986666Y-155601247D02*
X145986666Y-155839342D01*
X145986666Y-155839342D02*
X145939047Y-155934580D01*
X145939047Y-155934580D02*
X145891428Y-155982200D01*
X145891428Y-155982200D02*
X145796190Y-156029819D01*
X145796190Y-156029819D02*
X145510476Y-156029819D01*
X145510476Y-156029819D02*
X145415238Y-155982200D01*
X145415238Y-155982200D02*
X145367619Y-155934580D01*
X146415238Y-155934580D02*
X146462857Y-155982200D01*
X146462857Y-155982200D02*
X146415238Y-156029819D01*
X146415238Y-156029819D02*
X146367619Y-155982200D01*
X146367619Y-155982200D02*
X146415238Y-155934580D01*
X146415238Y-155934580D02*
X146415238Y-156029819D01*
X146796190Y-155029819D02*
X147415237Y-155029819D01*
X147415237Y-155029819D02*
X147081904Y-155410771D01*
X147081904Y-155410771D02*
X147224761Y-155410771D01*
X147224761Y-155410771D02*
X147319999Y-155458390D01*
X147319999Y-155458390D02*
X147367618Y-155506009D01*
X147367618Y-155506009D02*
X147415237Y-155601247D01*
X147415237Y-155601247D02*
X147415237Y-155839342D01*
X147415237Y-155839342D02*
X147367618Y-155934580D01*
X147367618Y-155934580D02*
X147319999Y-155982200D01*
X147319999Y-155982200D02*
X147224761Y-156029819D01*
X147224761Y-156029819D02*
X146939047Y-156029819D01*
X146939047Y-156029819D02*
X146843809Y-155982200D01*
X146843809Y-155982200D02*
X146796190Y-155934580D01*
X147700952Y-155029819D02*
X148034285Y-156029819D01*
X148034285Y-156029819D02*
X148367618Y-155029819D01*
X149224761Y-156029819D02*
X148653333Y-156029819D01*
X148939047Y-156029819D02*
X148939047Y-155029819D01*
X148939047Y-155029819D02*
X148843809Y-155172676D01*
X148843809Y-155172676D02*
X148748571Y-155267914D01*
X148748571Y-155267914D02*
X148653333Y-155315533D01*
D10*
X130376190Y-61628939D02*
X130255238Y-61749892D01*
X130255238Y-61749892D02*
X129892380Y-61870844D01*
X129892380Y-61870844D02*
X129650476Y-61870844D01*
X129650476Y-61870844D02*
X129287619Y-61749892D01*
X129287619Y-61749892D02*
X129045714Y-61507987D01*
X129045714Y-61507987D02*
X128924761Y-61266082D01*
X128924761Y-61266082D02*
X128803809Y-60782272D01*
X128803809Y-60782272D02*
X128803809Y-60419415D01*
X128803809Y-60419415D02*
X128924761Y-59935606D01*
X128924761Y-59935606D02*
X129045714Y-59693701D01*
X129045714Y-59693701D02*
X129287619Y-59451796D01*
X129287619Y-59451796D02*
X129650476Y-59330844D01*
X129650476Y-59330844D02*
X129892380Y-59330844D01*
X129892380Y-59330844D02*
X130255238Y-59451796D01*
X130255238Y-59451796D02*
X130376190Y-59572749D01*
X131948571Y-59330844D02*
X132432380Y-59330844D01*
X132432380Y-59330844D02*
X132674285Y-59451796D01*
X132674285Y-59451796D02*
X132916190Y-59693701D01*
X132916190Y-59693701D02*
X133037142Y-60177511D01*
X133037142Y-60177511D02*
X133037142Y-61024177D01*
X133037142Y-61024177D02*
X132916190Y-61507987D01*
X132916190Y-61507987D02*
X132674285Y-61749892D01*
X132674285Y-61749892D02*
X132432380Y-61870844D01*
X132432380Y-61870844D02*
X131948571Y-61870844D01*
X131948571Y-61870844D02*
X131706666Y-61749892D01*
X131706666Y-61749892D02*
X131464761Y-61507987D01*
X131464761Y-61507987D02*
X131343809Y-61024177D01*
X131343809Y-61024177D02*
X131343809Y-60177511D01*
X131343809Y-60177511D02*
X131464761Y-59693701D01*
X131464761Y-59693701D02*
X131706666Y-59451796D01*
X131706666Y-59451796D02*
X131948571Y-59330844D01*
X134004761Y-59572749D02*
X134125713Y-59451796D01*
X134125713Y-59451796D02*
X134367618Y-59330844D01*
X134367618Y-59330844D02*
X134972380Y-59330844D01*
X134972380Y-59330844D02*
X135214285Y-59451796D01*
X135214285Y-59451796D02*
X135335237Y-59572749D01*
X135335237Y-59572749D02*
X135456190Y-59814653D01*
X135456190Y-59814653D02*
X135456190Y-60056558D01*
X135456190Y-60056558D02*
X135335237Y-60419415D01*
X135335237Y-60419415D02*
X133883809Y-61870844D01*
X133883809Y-61870844D02*
X135456190Y-61870844D01*
D11*
X151161904Y-152537438D02*
X151066666Y-152489819D01*
X151066666Y-152489819D02*
X150923809Y-152489819D01*
X150923809Y-152489819D02*
X150780952Y-152537438D01*
X150780952Y-152537438D02*
X150685714Y-152632676D01*
X150685714Y-152632676D02*
X150638095Y-152727914D01*
X150638095Y-152727914D02*
X150590476Y-152918390D01*
X150590476Y-152918390D02*
X150590476Y-153061247D01*
X150590476Y-153061247D02*
X150638095Y-153251723D01*
X150638095Y-153251723D02*
X150685714Y-153346961D01*
X150685714Y-153346961D02*
X150780952Y-153442200D01*
X150780952Y-153442200D02*
X150923809Y-153489819D01*
X150923809Y-153489819D02*
X151019047Y-153489819D01*
X151019047Y-153489819D02*
X151161904Y-153442200D01*
X151161904Y-153442200D02*
X151209523Y-153394580D01*
X151209523Y-153394580D02*
X151209523Y-153061247D01*
X151209523Y-153061247D02*
X151019047Y-153061247D01*
X151638095Y-153489819D02*
X151638095Y-152489819D01*
X151638095Y-152489819D02*
X152209523Y-153489819D01*
X152209523Y-153489819D02*
X152209523Y-152489819D01*
X152685714Y-153489819D02*
X152685714Y-152489819D01*
X152685714Y-152489819D02*
X152923809Y-152489819D01*
X152923809Y-152489819D02*
X153066666Y-152537438D01*
X153066666Y-152537438D02*
X153161904Y-152632676D01*
X153161904Y-152632676D02*
X153209523Y-152727914D01*
X153209523Y-152727914D02*
X153257142Y-152918390D01*
X153257142Y-152918390D02*
X153257142Y-153061247D01*
X153257142Y-153061247D02*
X153209523Y-153251723D01*
X153209523Y-153251723D02*
X153161904Y-153346961D01*
X153161904Y-153346961D02*
X153066666Y-153442200D01*
X153066666Y-153442200D02*
X152923809Y-153489819D01*
X152923809Y-153489819D02*
X152685714Y-153489819D01*
X154209523Y-153489819D02*
X153638095Y-153489819D01*
X153923809Y-153489819D02*
X153923809Y-152489819D01*
X153923809Y-152489819D02*
X153828571Y-152632676D01*
X153828571Y-152632676D02*
X153733333Y-152727914D01*
X153733333Y-152727914D02*
X153638095Y-152775533D01*
D13*
%TO.C,Accelerometer1*%
X169445000Y-69315000D02*
X150395000Y-69315000D01*
X150395000Y-69315000D02*
X150395000Y-88365000D01*
X150395000Y-88365000D02*
X169445000Y-88365000D01*
X169445000Y-88365000D02*
X169445000Y-69315000D01*
%TO.C,SEN55*%
X113615800Y-115266800D02*
X61444200Y-115266800D01*
X61444200Y-115266800D02*
X61444200Y-72493200D01*
X61444200Y-72493200D02*
X113615800Y-72493200D01*
X113615800Y-72493200D02*
X113615800Y-115266800D01*
D14*
%TO.C,BT1*%
X113030000Y-148650000D02*
X115630000Y-148650000D01*
X113030000Y-148650000D02*
X113030000Y-145990000D01*
X115630000Y-148650000D02*
X115630000Y-145990000D01*
X110430000Y-147320000D02*
X110430000Y-145990000D01*
X110430000Y-145990000D02*
X111760000Y-145990000D01*
X113030000Y-145990000D02*
X115630000Y-145990000D01*
%TO.C,R1*%
X115470000Y-125190000D02*
X115470000Y-118650000D01*
X115800000Y-125190000D02*
X115470000Y-125190000D01*
X117880000Y-125190000D02*
X118210000Y-125190000D01*
X118210000Y-125190000D02*
X118210000Y-118650000D01*
X115470000Y-118650000D02*
X115800000Y-118650000D01*
X118210000Y-118650000D02*
X117880000Y-118650000D01*
%TO.C,C2*%
X114450000Y-134950000D02*
X114515000Y-134950000D01*
X114450000Y-134950000D02*
X114450000Y-131710000D01*
X116625000Y-134950000D02*
X116690000Y-134950000D01*
X116690000Y-134950000D02*
X116690000Y-131710000D01*
X114450000Y-131710000D02*
X114515000Y-131710000D01*
X116625000Y-131710000D02*
X116690000Y-131710000D01*
%TO.C,R2*%
X110390000Y-125190000D02*
X110390000Y-118650000D01*
X110720000Y-125190000D02*
X110390000Y-125190000D01*
X112800000Y-125190000D02*
X113130000Y-125190000D01*
X113130000Y-125190000D02*
X113130000Y-118650000D01*
X110390000Y-118650000D02*
X110720000Y-118650000D01*
X113130000Y-118650000D02*
X112800000Y-118650000D01*
%TO.C,C1*%
X110640000Y-134990000D02*
X110705000Y-134990000D01*
X110640000Y-134990000D02*
X110640000Y-131750000D01*
X112815000Y-134990000D02*
X112880000Y-134990000D01*
X112880000Y-134990000D02*
X112880000Y-131750000D01*
X110640000Y-131750000D02*
X110705000Y-131750000D01*
X112815000Y-131750000D02*
X112880000Y-131750000D01*
D13*
%TO.C,ESP32-WROOM-32E1*%
X122605800Y-88900000D02*
X145465800Y-88900000D01*
X145465800Y-88900000D02*
X145465800Y-148844000D01*
X145465800Y-148844000D02*
X122605800Y-148844000D01*
X122605800Y-148844000D02*
X122605800Y-88900000D01*
%TO.C,Methane1*%
X65709800Y-116368500D02*
X102463600Y-116368500D01*
X102463600Y-116368500D02*
X102463600Y-142911500D01*
X102463600Y-142911500D02*
X65709800Y-142911500D01*
X65709800Y-142911500D02*
X65709800Y-116368500D01*
D14*
%TO.C,U1*%
X109180000Y-138970000D02*
X109180000Y-143611000D01*
X109180000Y-138970000D02*
X119420000Y-138970000D01*
X109180000Y-140480000D02*
X119420000Y-140480000D01*
X109180000Y-143611000D02*
X119420000Y-143611000D01*
X112450000Y-138970000D02*
X112450000Y-140480000D01*
X116151000Y-138970000D02*
X116151000Y-140480000D01*
X119420000Y-138970000D02*
X119420000Y-143611000D01*
%TO.C,5V1*%
X159180000Y-152400000D02*
G75*
G03*
X155780000Y-152400000I-1700000J0D01*
G01*
X155780000Y-152400000D02*
G75*
G03*
X159180000Y-152400000I1700000J0D01*
G01*
D13*
%TO.C,GPS1*%
X178335000Y-118210000D02*
X151665000Y-118210000D01*
X151665000Y-118210000D02*
X151665000Y-146150000D01*
X151665000Y-146150000D02*
X178335000Y-146150000D01*
X178335000Y-146150000D02*
X178335000Y-118210000D01*
%TO.C,LoraWAN1*%
X150468000Y-91540000D02*
X179932000Y-91540000D01*
X179932000Y-91540000D02*
X179932000Y-116940000D01*
X179932000Y-116940000D02*
X150468000Y-116940000D01*
X150468000Y-116940000D02*
X150468000Y-91540000D01*
D14*
%TO.C,3.3V1*%
X149020000Y-152400000D02*
G75*
G03*
X145620000Y-152400000I-1700000J0D01*
G01*
X145620000Y-152400000D02*
G75*
G03*
X149020000Y-152400000I1700000J0D01*
G01*
D13*
%TO.C,CO2*%
X119430000Y-62360000D02*
X144930000Y-62360000D01*
X144930000Y-62360000D02*
X144930000Y-85160000D01*
X144930000Y-85160000D02*
X119430000Y-85160000D01*
X119430000Y-85160000D02*
X119430000Y-62360000D01*
D14*
%TO.C,GND1*%
X154100000Y-149860000D02*
G75*
G03*
X150700000Y-149860000I-1700000J0D01*
G01*
X150700000Y-149860000D02*
G75*
G03*
X154100000Y-149860000I1700000J0D01*
G01*
%TD*%
M02*
