M48
; DRILL file {KiCad 7.0.10} date Sat Mar 23 17:35:19 2024
; FORMAT={-:-/ absolute / inch / decimal}
; #@! TF.CreationDate,2024-03-23T17:35:19-04:00
; #@! TF.GenerationSoftware,Kicad,Pcbnew,7.0.10
; #@! TF.FileFunction,Plated,1,2,PTH
FMAT,2
INCH
; #@! TA.AperFunction,Plated,PTH,ViaDrill
T1C0.0157
; #@! TA.AperFunction,Plated,PTH,ComponentDrill
T2C0.0315
; #@! TA.AperFunction,Plated,PTH,ComponentDrill
T3C0.0394
; #@! TA.AperFunction,Plated,PTH,ComponentDrill
T4C0.0430
; #@! TA.AperFunction,Plated,PTH,ComponentDrill
T5C0.0433
; #@! TA.AperFunction,Plated,PTH,ComponentDrill
T6C0.0591
; #@! TA.AperFunction,Plated,PTH,ComponentDrill
T7C0.0800
; #@! TA.AperFunction,Plated,PTH,ComponentDrill
T8C0.1150
; #@! TA.AperFunction,Plated,PTH,ComponentDrill
T9C0.1170
; #@! TA.AperFunction,Plated,PTH,ComponentDrill
T10C0.1220
; #@! TA.AperFunction,Plated,PTH,ComponentDrill
T11C0.1772
%
G90
G05
T1
X4.75Y-3.8903
X4.8Y-3.8
X5.45Y-5.1
X5.525Y-4.4
X5.6Y-5.0478
T2
X4.4Y-5.2016
X4.4Y-5.3
X4.55Y-5.2
X4.55Y-5.2984
X4.6Y-4.65
T3
X4.4Y-5.8
X4.5Y-5.8
T4
X4.187Y-4.8814
X4.187Y-4.9814
X4.187Y-5.0814
X4.4Y-4.65
X4.4Y-4.95
X4.6Y-4.95
X4.6731Y-3.5381
X4.6731Y-3.6381
X4.6731Y-3.7381
X4.6731Y-3.8381
X4.6731Y-3.9381
X4.6731Y-4.0381
X4.877Y-3.8
X4.877Y-3.9
X4.877Y-4.0
X4.877Y-4.1
X4.877Y-4.2
X4.877Y-4.3
X4.877Y-4.4
X4.877Y-4.5
X4.877Y-4.6
X4.877Y-4.7
X4.877Y-4.8
X4.877Y-4.9
X5.002Y-3.2551
X5.102Y-3.2551
X5.202Y-3.2551
X5.302Y-3.2551
X5.402Y-3.2551
X5.677Y-3.8
X5.677Y-3.9
X5.677Y-4.0
X5.677Y-4.1
X5.677Y-4.2
X5.677Y-4.3
X5.677Y-4.4
X5.677Y-4.5
X5.677Y-4.6
X5.677Y-4.7
X5.677Y-4.8
X5.677Y-4.9
X5.677Y-5.0
X5.677Y-5.1
X5.677Y-5.2
X5.677Y-5.3
X6.0211Y-2.8039
X6.0211Y-2.9039
X6.0211Y-3.0039
X6.0211Y-3.1039
X6.0211Y-3.2039
X6.0211Y-3.3039
X6.0211Y-3.4039
X6.0239Y-3.7039
X6.0239Y-3.8039
X6.0239Y-3.9039
X6.0239Y-4.0039
X6.0239Y-4.1039
X6.0239Y-4.2039
X6.0239Y-4.3039
X6.0239Y-4.4039
X6.0239Y-4.5039
X6.0261Y-5.0039
X6.0261Y-5.1039
X6.0261Y-5.2039
X6.0261Y-5.3039
X6.0261Y-5.4039
X7.0239Y-3.7039
X7.0239Y-3.8039
X7.0239Y-3.9039
X7.0239Y-4.0039
X7.0239Y-4.1039
T5
X4.4Y-5.6
X4.5Y-5.6
X4.6Y-5.6
T6
X5.8Y-6.0
X6.0Y-5.9
X6.2Y-6.0
T7
X6.5711Y-2.8289
X6.5711Y-3.3789
T8
X4.81Y-2.5631
X4.81Y-3.2447
X5.5979Y-2.5631
X5.5979Y-3.2447
X6.8746Y-5.5634
T9
X4.9385Y-5.7485
X5.6155Y-5.7485
T10
X2.721Y-4.7154
X2.721Y-5.4924
X3.9Y-4.7154
X3.9Y-5.4924
T11
X2.2755Y-2.4725
X2.2755Y-6.0555
X2.8265Y-2.4725
X2.8265Y-6.0555
X7.4725Y-2.4725
X7.4725Y-6.0555
M30
