%TF.GenerationSoftware,KiCad,Pcbnew,7.0.10*%
%TF.CreationDate,2024-03-23T17:35:10-04:00*%
%TF.ProjectId,blue-bike-air-pollution-monitor 3-23,626c7565-2d62-4696-9b65-2d6169722d70,rev?*%
%TF.SameCoordinates,Original*%
%TF.FileFunction,Soldermask,Bot*%
%TF.FilePolarity,Negative*%
%FSLAX46Y46*%
G04 Gerber Fmt 4.6, Leading zero omitted, Abs format (unit mm)*
G04 Created by KiCad (PCBNEW 7.0.10) date 2024-03-23 17:35:10*
%MOMM*%
%LPD*%
G01*
G04 APERTURE LIST*
%ADD10C,2.540000*%
%ADD11C,1.778000*%
%ADD12C,6.350000*%
%ADD13R,1.700000X1.700000*%
%ADD14O,1.700000X1.700000*%
%ADD15O,1.600000X1.600000*%
%ADD16C,1.600000*%
%ADD17C,3.810000*%
%ADD18R,1.905000X2.000000*%
%ADD19O,1.905000X2.000000*%
%ADD20C,3.000000*%
G04 APERTURE END LIST*
D10*
%TO.C,Accelerometer1*%
X166905000Y-85825000D03*
X166905000Y-71855000D03*
D11*
X152935000Y-86460000D03*
X152935000Y-83920000D03*
X152935000Y-81380000D03*
X152935000Y-78840000D03*
X152935000Y-76300000D03*
X152935000Y-73760000D03*
X152935000Y-71220000D03*
%TD*%
D12*
%TO.C,H1*%
X57797700Y-62801500D03*
%TD*%
D11*
%TO.C,SEN55*%
X118695800Y-102566800D03*
X118695800Y-100026800D03*
X118695800Y-97486800D03*
X118695800Y-94946800D03*
X118695800Y-92406800D03*
X118695800Y-89866800D03*
%TD*%
D13*
%TO.C,BT1*%
X111760000Y-147320000D03*
D14*
X114300000Y-147320000D03*
%TD*%
D12*
%TO.C,H6*%
X71793100Y-153809700D03*
%TD*%
D11*
%TO.C,R1*%
X116840000Y-125730000D03*
D15*
X116840000Y-118110000D03*
%TD*%
D16*
%TO.C,C2*%
X115570000Y-134580000D03*
X115570000Y-132080000D03*
%TD*%
D12*
%TO.C,H3*%
X57797700Y-153809700D03*
%TD*%
D11*
%TO.C,R2*%
X111760000Y-125730000D03*
X111760000Y-118110000D03*
%TD*%
D16*
%TO.C,C1*%
X111760000Y-134620000D03*
X111760000Y-132120000D03*
%TD*%
D12*
%TO.C,H2*%
X189801500Y-62801500D03*
%TD*%
D11*
%TO.C,ESP32-WROOM-32E1*%
X123875800Y-96520000D03*
X123875800Y-99060000D03*
X123875800Y-101600000D03*
X123875800Y-104140000D03*
X123875800Y-106680000D03*
X123875800Y-109220000D03*
X123875800Y-111760000D03*
X123875800Y-114300000D03*
X123875800Y-116840000D03*
X123875800Y-119380000D03*
X123875800Y-121920000D03*
X123875800Y-124460000D03*
X144195800Y-134620000D03*
X144195800Y-132080000D03*
X144195800Y-129540000D03*
X144195800Y-127000000D03*
X144195800Y-124460000D03*
X144195800Y-121920000D03*
X144195800Y-119380000D03*
X144195800Y-116840000D03*
X144195800Y-114300000D03*
X144195800Y-111760000D03*
X144195800Y-109220000D03*
X144195800Y-106680000D03*
X144195800Y-104140000D03*
X144195800Y-101600000D03*
X144195800Y-99060000D03*
X144195800Y-96520000D03*
D17*
X125437900Y-146011900D03*
X142633700Y-146011900D03*
%TD*%
%TO.C,Methane1*%
X99060000Y-139507900D03*
X69113400Y-139507900D03*
X99060000Y-119772100D03*
X69113400Y-119772100D03*
D11*
X106349800Y-129068500D03*
X106349800Y-126528500D03*
X106349800Y-123988500D03*
%TD*%
D18*
%TO.C,U1*%
X111760000Y-142240000D03*
D19*
X114300000Y-142240000D03*
X116840000Y-142240000D03*
%TD*%
D20*
%TO.C,5V1*%
X157480000Y-152400000D03*
%TD*%
D12*
%TO.C,H5*%
X71793100Y-62801500D03*
%TD*%
D11*
%TO.C,GPS1*%
X153062000Y-127100000D03*
X153062000Y-129640000D03*
X153062000Y-132180000D03*
X153062000Y-134720000D03*
X153062000Y-137260000D03*
D17*
X174613900Y-141311300D03*
%TD*%
D11*
%TO.C,LoraWAN1*%
X178408000Y-94080000D03*
X178408000Y-96620000D03*
X178408000Y-99160000D03*
X178408000Y-101700000D03*
X178408000Y-104240000D03*
X153008000Y-114400000D03*
X153008000Y-111860000D03*
X153008000Y-109320000D03*
X153008000Y-106780000D03*
X153008000Y-104240000D03*
X153008000Y-101700000D03*
X153008000Y-99160000D03*
X153008000Y-96620000D03*
X153008000Y-94080000D03*
%TD*%
D12*
%TO.C,H4*%
X189801500Y-153809700D03*
%TD*%
D20*
%TO.C,3.3V1*%
X147320000Y-152400000D03*
%TD*%
D11*
%TO.C,CO2*%
X127050000Y-82680000D03*
X129590000Y-82680000D03*
X132130000Y-82680000D03*
X134670000Y-82680000D03*
X137210000Y-82680000D03*
D17*
X122173200Y-65103200D03*
X142185860Y-65103200D03*
X122173200Y-82415840D03*
X142185860Y-82415840D03*
%TD*%
D20*
%TO.C,GND1*%
X152400000Y-149860000D03*
%TD*%
M02*
