%TF.GenerationSoftware,KiCad,Pcbnew,7.0.10*%
%TF.CreationDate,2024-03-23T17:35:10-04:00*%
%TF.ProjectId,blue-bike-air-pollution-monitor 3-23,626c7565-2d62-4696-9b65-2d6169722d70,rev?*%
%TF.SameCoordinates,Original*%
%TF.FileFunction,Copper,L2,Bot*%
%TF.FilePolarity,Positive*%
%FSLAX46Y46*%
G04 Gerber Fmt 4.6, Leading zero omitted, Abs format (unit mm)*
G04 Created by KiCad (PCBNEW 7.0.10) date 2024-03-23 17:35:10*
%MOMM*%
%LPD*%
G01*
G04 APERTURE LIST*
%TA.AperFunction,ComponentPad*%
%ADD10C,2.540000*%
%TD*%
%TA.AperFunction,ComponentPad*%
%ADD11C,1.778000*%
%TD*%
%TA.AperFunction,ComponentPad*%
%ADD12C,6.350000*%
%TD*%
%TA.AperFunction,ComponentPad*%
%ADD13R,1.700000X1.700000*%
%TD*%
%TA.AperFunction,ComponentPad*%
%ADD14O,1.700000X1.700000*%
%TD*%
%TA.AperFunction,ComponentPad*%
%ADD15O,1.600000X1.600000*%
%TD*%
%TA.AperFunction,ComponentPad*%
%ADD16C,1.600000*%
%TD*%
%TA.AperFunction,ComponentPad*%
%ADD17C,3.810000*%
%TD*%
%TA.AperFunction,ComponentPad*%
%ADD18R,1.905000X2.000000*%
%TD*%
%TA.AperFunction,ComponentPad*%
%ADD19O,1.905000X2.000000*%
%TD*%
%TA.AperFunction,ComponentPad*%
%ADD20C,3.000000*%
%TD*%
%TA.AperFunction,ViaPad*%
%ADD21C,0.800000*%
%TD*%
%TA.AperFunction,Conductor*%
%ADD22C,0.250000*%
%TD*%
%TA.AperFunction,Conductor*%
%ADD23C,1.270000*%
%TD*%
G04 APERTURE END LIST*
D10*
%TO.P,Accelerometer1,9*%
%TO.N,N/C*%
X166905000Y-85825000D03*
%TO.P,Accelerometer1,8*%
X166905000Y-71855000D03*
D11*
%TO.P,Accelerometer1,7,Test*%
%TO.N,unconnected-(Accelerometer1-Test-Pad7)*%
X152935000Y-86460000D03*
%TO.P,Accelerometer1,6,Xout*%
%TO.N,Net-(Accelerometer1-Xout)*%
X152935000Y-83920000D03*
%TO.P,Accelerometer1,5,Yout*%
%TO.N,Net-(Accelerometer1-Yout)*%
X152935000Y-81380000D03*
%TO.P,Accelerometer1,4,Zout*%
%TO.N,Net-(Accelerometer1-Zout)*%
X152935000Y-78840000D03*
%TO.P,Accelerometer1,3,GND*%
%TO.N,GND*%
X152935000Y-76300000D03*
%TO.P,Accelerometer1,2,3Vo*%
%TO.N,unconnected-(Accelerometer1-3Vo-Pad2)*%
X152935000Y-73760000D03*
%TO.P,Accelerometer1,1,5V*%
%TO.N,+5V*%
X152935000Y-71220000D03*
%TD*%
D12*
%TO.P,H1,1*%
%TO.N,N/C*%
X57797700Y-62801500D03*
%TD*%
D11*
%TO.P,SEN55,1,VDD*%
%TO.N,+5V*%
X118695800Y-102566800D03*
%TO.P,SEN55,2,GND*%
%TO.N,GND*%
X118695800Y-100026800D03*
%TO.P,SEN55,3,SDA*%
%TO.N,Net-(CO2-SDA)*%
X118695800Y-97486800D03*
%TO.P,SEN55,4,SCL*%
%TO.N,Net-(CO2-SCL)*%
X118695800Y-94946800D03*
%TO.P,SEN55,5,SEL*%
%TO.N,GND*%
X118695800Y-92406800D03*
%TO.P,SEN55,6,NC*%
%TO.N,unconnected-(SEN55-NC-Pad6)*%
X118695800Y-89866800D03*
%TD*%
D13*
%TO.P,BT1,1,+*%
%TO.N,Net-(BT1-+)*%
X111760000Y-147320000D03*
D14*
%TO.P,BT1,2,-*%
%TO.N,GND*%
X114300000Y-147320000D03*
%TD*%
D12*
%TO.P,H6,6*%
%TO.N,N/C*%
X71793100Y-153809700D03*
%TD*%
D11*
%TO.P,R1,1*%
%TO.N,+5V*%
X116840000Y-125730000D03*
D15*
%TO.P,R1,2*%
%TO.N,Net-(CO2-SCL)*%
X116840000Y-118110000D03*
%TD*%
D16*
%TO.P,C2,1*%
%TO.N,+5V*%
X115570000Y-134580000D03*
%TO.P,C2,2*%
%TO.N,GND*%
X115570000Y-132080000D03*
%TD*%
D12*
%TO.P,H3,3*%
%TO.N,N/C*%
X57797700Y-153809700D03*
%TD*%
D11*
%TO.P,R2,1*%
%TO.N,+5V*%
X111760000Y-125730000D03*
%TO.P,R2,2*%
%TO.N,Net-(CO2-SDA)*%
X111760000Y-118110000D03*
%TD*%
D16*
%TO.P,C1,1*%
%TO.N,Net-(BT1-+)*%
X111760000Y-134620000D03*
%TO.P,C1,2*%
%TO.N,GND*%
X111760000Y-132120000D03*
%TD*%
D12*
%TO.P,H2,2*%
%TO.N,N/C*%
X189801500Y-62801500D03*
%TD*%
D11*
%TO.P,ESP32-WROOM-32E1,1,SDA*%
%TO.N,Net-(CO2-SDA)*%
X123875800Y-96520000D03*
%TO.P,ESP32-WROOM-32E1,2,SCL*%
%TO.N,Net-(CO2-SCL)*%
X123875800Y-99060000D03*
%TO.P,ESP32-WROOM-32E1,3,D04*%
%TO.N,Net-(ESP32-WROOM-32E1-D04)*%
X123875800Y-101600000D03*
%TO.P,ESP32-WROOM-32E1,4,D06*%
%TO.N,Net-(ESP32-WROOM-32E1-D06)*%
X123875800Y-104140000D03*
%TO.P,ESP32-WROOM-32E1,5,D08*%
%TO.N,unconnected-(ESP32-WROOM-32E1-D08-Pad5)*%
X123875800Y-106680000D03*
%TO.P,ESP32-WROOM-32E1,6,D10*%
%TO.N,unconnected-(ESP32-WROOM-32E1-D10-Pad6)*%
X123875800Y-109220000D03*
%TO.P,ESP32-WROOM-32E1,7,D11*%
%TO.N,unconnected-(ESP32-WROOM-32E1-D11-Pad7)*%
X123875800Y-111760000D03*
%TO.P,ESP32-WROOM-32E1,8,D12*%
%TO.N,unconnected-(ESP32-WROOM-32E1-D12-Pad8)*%
X123875800Y-114300000D03*
%TO.P,ESP32-WROOM-32E1,9,LED*%
%TO.N,unconnected-(ESP32-WROOM-32E1-LED-Pad9)*%
X123875800Y-116840000D03*
%TO.P,ESP32-WROOM-32E1,10,VBUS/LED*%
%TO.N,+5V*%
X123875800Y-119380000D03*
%TO.P,ESP32-WROOM-32E1,11,3.3V/EN*%
%TO.N,unconnected-(ESP32-WROOM-32E1-3.3V{slash}EN-Pad11)*%
X123875800Y-121920000D03*
%TO.P,ESP32-WROOM-32E1,12,VBAT*%
%TO.N,unconnected-(ESP32-WROOM-32E1-VBAT-Pad12)*%
X123875800Y-124460000D03*
%TO.P,ESP32-WROOM-32E1,13,RESET*%
%TO.N,unconnected-(ESP32-WROOM-32E1-RESET-Pad13)*%
X144195800Y-134620000D03*
%TO.P,ESP32-WROOM-32E1,14,Vin*%
%TO.N,+3.3V*%
X144195800Y-132080000D03*
%TO.P,ESP32-WROOM-32E1,15,NC*%
%TO.N,unconnected-(ESP32-WROOM-32E1-NC-Pad15)*%
X144195800Y-129540000D03*
%TO.P,ESP32-WROOM-32E1,16,GND*%
%TO.N,GND*%
X144195800Y-127000000D03*
%TO.P,ESP32-WROOM-32E1,17,A0*%
%TO.N,Net-(ESP32-WROOM-32E1-A0)*%
X144195800Y-124460000D03*
%TO.P,ESP32-WROOM-32E1,18,A1*%
%TO.N,Net-(ESP32-WROOM-32E1-A1)*%
X144195800Y-121920000D03*
%TO.P,ESP32-WROOM-32E1,19,A2*%
%TO.N,Net-(ESP32-WROOM-32E1-A2)*%
X144195800Y-119380000D03*
%TO.P,ESP32-WROOM-32E1,20,A3*%
%TO.N,Net-(Accelerometer1-Xout)*%
X144195800Y-116840000D03*
%TO.P,ESP32-WROOM-32E1,21,A4*%
%TO.N,Net-(Accelerometer1-Yout)*%
X144195800Y-114300000D03*
%TO.P,ESP32-WROOM-32E1,22,A5*%
%TO.N,Net-(Accelerometer1-Zout)*%
X144195800Y-111760000D03*
%TO.P,ESP32-WROOM-32E1,23,SCK*%
%TO.N,Net-(ESP32-WROOM-32E1-SCK)*%
X144195800Y-109220000D03*
%TO.P,ESP32-WROOM-32E1,24,MOSI*%
%TO.N,Net-(ESP32-WROOM-32E1-MOSI)*%
X144195800Y-106680000D03*
%TO.P,ESP32-WROOM-32E1,25,MISO*%
%TO.N,Net-(ESP32-WROOM-32E1-MISO)*%
X144195800Y-104140000D03*
%TO.P,ESP32-WROOM-32E1,26,RX*%
%TO.N,Net-(ESP32-WROOM-32E1-RX)*%
X144195800Y-101600000D03*
%TO.P,ESP32-WROOM-32E1,27,TX*%
%TO.N,Net-(ESP32-WROOM-32E1-TX)*%
X144195800Y-99060000D03*
%TO.P,ESP32-WROOM-32E1,28,FREE/ADC*%
%TO.N,unconnected-(ESP32-WROOM-32E1-FREE{slash}ADC-Pad28)*%
X144195800Y-96520000D03*
D17*
%TO.P,ESP32-WROOM-32E1,29*%
%TO.N,N/C*%
X125437900Y-146011900D03*
%TO.P,ESP32-WROOM-32E1,30*%
X142633700Y-146011900D03*
%TD*%
%TO.P,Methane1,7*%
%TO.N,N/C*%
X99060000Y-139507900D03*
%TO.P,Methane1,6*%
X69113400Y-139507900D03*
%TO.P,Methane1,5*%
X99060000Y-119772100D03*
%TO.P,Methane1,4*%
X69113400Y-119772100D03*
D11*
%TO.P,Methane1,3,GND*%
%TO.N,GND*%
X106349800Y-129068500D03*
%TO.P,Methane1,2,5V*%
%TO.N,+5V*%
X106349800Y-126528500D03*
%TO.P,Methane1,1,Out*%
%TO.N,Net-(ESP32-WROOM-32E1-A2)*%
X106349800Y-123988500D03*
%TD*%
D18*
%TO.P,U1,1,IN*%
%TO.N,Net-(BT1-+)*%
X111760000Y-142240000D03*
D19*
%TO.P,U1,2,GND*%
%TO.N,GND*%
X114300000Y-142240000D03*
%TO.P,U1,3,OUT*%
%TO.N,+5V*%
X116840000Y-142240000D03*
%TD*%
D20*
%TO.P,5V1,1,1*%
%TO.N,+5V*%
X157480000Y-152400000D03*
%TD*%
D12*
%TO.P,H5,5*%
%TO.N,N/C*%
X71793100Y-62801500D03*
%TD*%
D11*
%TO.P,GPS1,1,1PPS*%
%TO.N,unconnected-(GPS1-1PPS-Pad1)*%
X153062000Y-127100000D03*
%TO.P,GPS1,2,TX*%
%TO.N,Net-(ESP32-WROOM-32E1-RX)*%
X153062000Y-129640000D03*
%TO.P,GPS1,3,RX*%
%TO.N,Net-(ESP32-WROOM-32E1-TX)*%
X153062000Y-132180000D03*
%TO.P,GPS1,4,GND*%
%TO.N,GND*%
X153062000Y-134720000D03*
%TO.P,GPS1,5,Vin*%
%TO.N,+3.3V*%
X153062000Y-137260000D03*
D17*
%TO.P,GPS1,6*%
%TO.N,N/C*%
X174613900Y-141311300D03*
%TD*%
D11*
%TO.P,LoraWAN1,14,G1*%
%TO.N,Net-(ESP32-WROOM-32E1-A1)*%
X178408000Y-94080000D03*
%TO.P,LoraWAN1,13,G2*%
%TO.N,unconnected-(LoraWAN1-G2-Pad13)*%
X178408000Y-96620000D03*
%TO.P,LoraWAN1,12,G3*%
%TO.N,unconnected-(LoraWAN1-G3-Pad12)*%
X178408000Y-99160000D03*
%TO.P,LoraWAN1,11,G4*%
%TO.N,unconnected-(LoraWAN1-G4-Pad11)*%
X178408000Y-101700000D03*
%TO.P,LoraWAN1,10,G5*%
%TO.N,unconnected-(LoraWAN1-G5-Pad10)*%
X178408000Y-104240000D03*
%TO.P,LoraWAN1,9,RST*%
%TO.N,Net-(ESP32-WROOM-32E1-D06)*%
X153008000Y-114400000D03*
%TO.P,LoraWAN1,8,CS*%
%TO.N,Net-(ESP32-WROOM-32E1-D04)*%
X153008000Y-111860000D03*
%TO.P,LoraWAN1,7,MOSI*%
%TO.N,Net-(ESP32-WROOM-32E1-MOSI)*%
X153008000Y-109320000D03*
%TO.P,LoraWAN1,6,MISO*%
%TO.N,Net-(ESP32-WROOM-32E1-MISO)*%
X153008000Y-106780000D03*
%TO.P,LoraWAN1,5,SCK*%
%TO.N,Net-(ESP32-WROOM-32E1-SCK)*%
X153008000Y-104240000D03*
%TO.P,LoraWAN1,4,G0*%
%TO.N,Net-(ESP32-WROOM-32E1-A0)*%
X153008000Y-101700000D03*
%TO.P,LoraWAN1,3,EN*%
%TO.N,unconnected-(LoraWAN1-EN-Pad3)*%
X153008000Y-99160000D03*
%TO.P,LoraWAN1,2,GND*%
%TO.N,GND*%
X153008000Y-96620000D03*
%TO.P,LoraWAN1,1,Vin*%
%TO.N,+3.3V*%
X153008000Y-94080000D03*
%TD*%
D12*
%TO.P,H4,4*%
%TO.N,N/C*%
X189801500Y-153809700D03*
%TD*%
D20*
%TO.P,3.3V1,1,1*%
%TO.N,+3.3V*%
X147320000Y-152400000D03*
%TD*%
D11*
%TO.P,CO2,1,Vin*%
%TO.N,+5V*%
X127050000Y-82680000D03*
%TO.P,CO2,2,3Vo*%
%TO.N,unconnected-(CO2-3Vo-Pad2)*%
X129590000Y-82680000D03*
%TO.P,CO2,3,Ground*%
%TO.N,GND*%
X132130000Y-82680000D03*
%TO.P,CO2,4,SCL*%
%TO.N,Net-(CO2-SCL)*%
X134670000Y-82680000D03*
%TO.P,CO2,5,SDA*%
%TO.N,Net-(CO2-SDA)*%
X137210000Y-82680000D03*
D17*
%TO.P,CO2,6*%
%TO.N,N/C*%
X122173200Y-65103200D03*
%TO.P,CO2,7*%
X142185860Y-65103200D03*
%TO.P,CO2,8*%
X122173200Y-82415840D03*
%TO.P,CO2,9*%
X142185860Y-82415840D03*
%TD*%
D20*
%TO.P,GND1,1,1*%
%TO.N,GND*%
X152400000Y-149860000D03*
%TD*%
D21*
%TO.N,Net-(CO2-SDA)*%
X121920000Y-96520000D03*
%TO.N,Net-(CO2-SCL)*%
X120650000Y-98812800D03*
%TO.N,Net-(ESP32-WROOM-32E1-RX)*%
X142240000Y-128214000D03*
%TO.N,Net-(ESP32-WROOM-32E1-TX)*%
X138430000Y-129540000D03*
%TO.N,+3.3V*%
X140335000Y-111760000D03*
%TD*%
D22*
%TO.N,Net-(CO2-SDA)*%
X121920000Y-96520000D02*
X119662600Y-96520000D01*
X123875800Y-96520000D02*
X121920000Y-96520000D01*
%TO.N,Net-(CO2-SCL)*%
X120650000Y-98812800D02*
X117227800Y-98812800D01*
X123628600Y-98812800D02*
X120650000Y-98812800D01*
%TO.N,Net-(ESP32-WROOM-32E1-A2)*%
X107148300Y-123190000D02*
X106349800Y-123988500D01*
X140385800Y-123190000D02*
X107148300Y-123190000D01*
X144195800Y-119380000D02*
X140385800Y-123190000D01*
%TO.N,Net-(CO2-SCL)*%
X116840000Y-96802600D02*
X118695800Y-94946800D01*
X116840000Y-98425000D02*
X116840000Y-96802600D01*
X123875800Y-99060000D02*
X123628600Y-98812800D01*
X117227800Y-98812800D02*
X116840000Y-98425000D01*
%TO.N,Net-(CO2-SDA)*%
X119662600Y-96520000D02*
X118695800Y-97486800D01*
D23*
%TO.N,+3.3V*%
X151230000Y-137260000D02*
X146050000Y-132080000D01*
X146050000Y-132080000D02*
X144195800Y-132080000D01*
X153062000Y-137260000D02*
X151230000Y-137260000D01*
D22*
%TO.N,Net-(ESP32-WROOM-32E1-RX)*%
X146785000Y-129640000D02*
X153062000Y-129640000D01*
X142240000Y-128214000D02*
X145359000Y-128214000D01*
X145359000Y-128214000D02*
X146785000Y-129640000D01*
%TO.N,Net-(ESP32-WROOM-32E1-TX)*%
X139644000Y-130754000D02*
X138430000Y-129540000D01*
X151636000Y-130754000D02*
X139644000Y-130754000D01*
X153062000Y-132180000D02*
X151636000Y-130754000D01*
%TO.N,Net-(ESP32-WROOM-32E1-A0)*%
X144780000Y-124460000D02*
X144195800Y-124460000D01*
X154222000Y-115018000D02*
X144780000Y-124460000D01*
X153008000Y-101700000D02*
X154222000Y-102914000D01*
X154222000Y-102914000D02*
X154222000Y-115018000D01*
%TO.N,+3.3V*%
X140335000Y-97790000D02*
X140335000Y-111760000D01*
X144045000Y-94080000D02*
X140335000Y-97790000D01*
X153008000Y-94080000D02*
X144045000Y-94080000D01*
%TO.N,Net-(ESP32-WROOM-32E1-SCK)*%
X142240000Y-107264200D02*
X144195800Y-109220000D01*
X142819000Y-102926000D02*
X142240000Y-103505000D01*
X142240000Y-103505000D02*
X142240000Y-107264200D01*
X151694000Y-102926000D02*
X142819000Y-102926000D01*
X153008000Y-104240000D02*
X151694000Y-102926000D01*
%TO.N,Net-(ESP32-WROOM-32E1-MISO)*%
X146835800Y-106780000D02*
X144195800Y-104140000D01*
X153008000Y-106780000D02*
X146835800Y-106780000D01*
%TO.N,Net-(ESP32-WROOM-32E1-MOSI)*%
X146835800Y-109320000D02*
X144195800Y-106680000D01*
X153008000Y-109320000D02*
X146835800Y-109320000D01*
%TO.N,Net-(ESP32-WROOM-32E1-D04)*%
X127000000Y-104724200D02*
X123875800Y-101600000D01*
X127000000Y-112395000D02*
X127000000Y-104724200D01*
X127691000Y-113086000D02*
X127000000Y-112395000D01*
X151782000Y-113086000D02*
X127691000Y-113086000D01*
X153008000Y-111860000D02*
X151782000Y-113086000D01*
%TO.N,Net-(ESP32-WROOM-32E1-D06)*%
X125730000Y-114300000D02*
X125730000Y-105994200D01*
X127000000Y-115570000D02*
X125730000Y-114300000D01*
X125730000Y-105994200D02*
X123875800Y-104140000D01*
X151838000Y-115570000D02*
X127000000Y-115570000D01*
X153008000Y-114400000D02*
X151838000Y-115570000D01*
%TD*%
%TA.AperFunction,Conductor*%
%TO.N,+5V*%
G36*
X125332222Y-114791399D02*
G01*
X125354439Y-114809029D01*
X125933991Y-115388582D01*
X126499197Y-115953788D01*
X126509022Y-115966051D01*
X126509243Y-115965869D01*
X126514211Y-115971874D01*
X126514213Y-115971876D01*
X126514214Y-115971877D01*
X126535043Y-115991437D01*
X126563222Y-116017899D01*
X126566021Y-116020612D01*
X126585522Y-116040114D01*
X126585526Y-116040117D01*
X126585529Y-116040120D01*
X126588702Y-116042581D01*
X126597574Y-116050159D01*
X126629418Y-116080062D01*
X126646976Y-116089714D01*
X126663235Y-116100395D01*
X126679064Y-116112673D01*
X126719155Y-116130021D01*
X126729626Y-116135151D01*
X126752180Y-116147550D01*
X126767902Y-116156194D01*
X126767904Y-116156195D01*
X126767908Y-116156197D01*
X126787316Y-116161180D01*
X126805719Y-116167481D01*
X126824101Y-116175436D01*
X126824102Y-116175436D01*
X126824104Y-116175437D01*
X126867250Y-116182270D01*
X126878672Y-116184636D01*
X126920981Y-116195500D01*
X126941016Y-116195500D01*
X126960414Y-116197026D01*
X126980194Y-116200159D01*
X126980195Y-116200160D01*
X126980195Y-116200159D01*
X126980196Y-116200160D01*
X127023675Y-116196050D01*
X127035344Y-116195500D01*
X142771411Y-116195500D01*
X142838450Y-116215185D01*
X142884205Y-116267989D01*
X142894149Y-116337147D01*
X142884968Y-116369308D01*
X142877082Y-116387286D01*
X142820553Y-116610515D01*
X142801538Y-116839994D01*
X142801538Y-116840005D01*
X142820553Y-117069484D01*
X142877082Y-117292714D01*
X142969582Y-117503594D01*
X143095528Y-117696370D01*
X143095531Y-117696373D01*
X143251492Y-117865792D01*
X143368391Y-117956778D01*
X143437259Y-118010380D01*
X143436276Y-118011641D01*
X143476983Y-118059349D01*
X143486400Y-118128581D01*
X143456892Y-118191914D01*
X143436936Y-118209205D01*
X143437259Y-118209620D01*
X143251494Y-118354206D01*
X143251489Y-118354211D01*
X143095528Y-118523629D01*
X142969582Y-118716405D01*
X142877082Y-118927285D01*
X142820553Y-119150515D01*
X142801538Y-119379994D01*
X142801538Y-119380005D01*
X142820553Y-119609484D01*
X142856030Y-119749581D01*
X142853405Y-119819401D01*
X142823505Y-119867702D01*
X140163028Y-122528181D01*
X140101705Y-122561666D01*
X140075347Y-122564500D01*
X125300189Y-122564500D01*
X125233150Y-122544815D01*
X125187395Y-122492011D01*
X125177451Y-122422853D01*
X125186632Y-122390692D01*
X125194517Y-122372716D01*
X125251046Y-122149488D01*
X125267330Y-121952968D01*
X125270062Y-121920005D01*
X125270062Y-121919994D01*
X125251046Y-121690515D01*
X125251046Y-121690512D01*
X125194517Y-121467284D01*
X125102017Y-121256405D01*
X125057854Y-121188808D01*
X124976071Y-121063629D01*
X124856053Y-120933255D01*
X124820108Y-120894208D01*
X124638389Y-120752771D01*
X124638390Y-120752771D01*
X124634341Y-120749620D01*
X124635228Y-120748480D01*
X124594163Y-120700366D01*
X124584738Y-120631135D01*
X124614237Y-120567798D01*
X124634371Y-120550352D01*
X124634066Y-120549960D01*
X124666758Y-120524513D01*
X124666759Y-120524511D01*
X124044404Y-119902156D01*
X124162212Y-119850985D01*
X124278662Y-119756246D01*
X124365233Y-119633603D01*
X124396100Y-119546747D01*
X125019038Y-120169685D01*
X125101572Y-120043359D01*
X125101577Y-120043351D01*
X125194042Y-119832553D01*
X125250550Y-119609408D01*
X125250552Y-119609396D01*
X125269560Y-119380005D01*
X125269560Y-119379994D01*
X125250552Y-119150603D01*
X125250550Y-119150591D01*
X125194042Y-118927446D01*
X125101574Y-118716642D01*
X125019038Y-118590313D01*
X124398430Y-119210921D01*
X124395206Y-119195403D01*
X124326142Y-119062114D01*
X124223677Y-118952402D01*
X124095412Y-118874402D01*
X124042632Y-118859613D01*
X124666758Y-118235486D01*
X124666758Y-118235484D01*
X124634067Y-118210040D01*
X124635009Y-118208829D01*
X124594155Y-118160947D01*
X124584741Y-118091714D01*
X124614250Y-118028382D01*
X124634620Y-118010738D01*
X124634341Y-118010380D01*
X124670974Y-117981866D01*
X124820108Y-117865792D01*
X124976069Y-117696373D01*
X125102017Y-117503595D01*
X125194517Y-117292716D01*
X125251046Y-117069488D01*
X125261546Y-116942771D01*
X125270062Y-116840005D01*
X125270062Y-116839994D01*
X125251046Y-116610515D01*
X125251046Y-116610512D01*
X125194517Y-116387284D01*
X125102017Y-116176405D01*
X125092068Y-116161177D01*
X124976071Y-115983629D01*
X124948600Y-115953788D01*
X124820108Y-115814208D01*
X124638389Y-115672771D01*
X124638390Y-115672771D01*
X124634341Y-115669620D01*
X124635325Y-115668354D01*
X124594624Y-115620670D01*
X124585196Y-115551439D01*
X124614693Y-115488102D01*
X124634665Y-115470796D01*
X124634341Y-115470380D01*
X124698537Y-115420414D01*
X124820108Y-115325792D01*
X124976069Y-115156373D01*
X125102017Y-114963595D01*
X125153203Y-114846901D01*
X125198158Y-114793416D01*
X125264894Y-114772725D01*
X125332222Y-114791399D01*
G37*
%TD.AperFunction*%
%TA.AperFunction,Conductor*%
G36*
X194252539Y-57805185D02*
G01*
X194298294Y-57857989D01*
X194309500Y-57909500D01*
X194309500Y-158625500D01*
X194289815Y-158692539D01*
X194237011Y-158738294D01*
X194185500Y-158749500D01*
X53464500Y-158749500D01*
X53397461Y-158729815D01*
X53351706Y-158677011D01*
X53340500Y-158625500D01*
X53340500Y-153809700D01*
X54117156Y-153809700D01*
X54137318Y-154194423D01*
X54197584Y-154574922D01*
X54197584Y-154574924D01*
X54297297Y-154947058D01*
X54435357Y-155306715D01*
X54610257Y-155649976D01*
X54820071Y-155973062D01*
X54820073Y-155973064D01*
X54820076Y-155973068D01*
X54820077Y-155973069D01*
X55062523Y-156272465D01*
X55334935Y-156544877D01*
X55334939Y-156544880D01*
X55634335Y-156787326D01*
X55634337Y-156787328D01*
X55957423Y-156997142D01*
X55957428Y-156997145D01*
X56300688Y-157172044D01*
X56660349Y-157310105D01*
X57032472Y-157409815D01*
X57412978Y-157470082D01*
X57776421Y-157489128D01*
X57797699Y-157490244D01*
X57797700Y-157490244D01*
X57797701Y-157490244D01*
X57817863Y-157489187D01*
X58182422Y-157470082D01*
X58562928Y-157409815D01*
X58935051Y-157310105D01*
X59294712Y-157172044D01*
X59637972Y-156997145D01*
X59789754Y-156898576D01*
X59961062Y-156787328D01*
X59961064Y-156787326D01*
X59961069Y-156787323D01*
X60260465Y-156544877D01*
X60532877Y-156272465D01*
X60775323Y-155973069D01*
X60985145Y-155649972D01*
X61160044Y-155306712D01*
X61298105Y-154947051D01*
X61397815Y-154574928D01*
X61458082Y-154194422D01*
X61478244Y-153809700D01*
X68112556Y-153809700D01*
X68132718Y-154194423D01*
X68192984Y-154574922D01*
X68192984Y-154574924D01*
X68292697Y-154947058D01*
X68430757Y-155306715D01*
X68605657Y-155649976D01*
X68815471Y-155973062D01*
X68815473Y-155973064D01*
X68815476Y-155973068D01*
X68815477Y-155973069D01*
X69057923Y-156272465D01*
X69330335Y-156544877D01*
X69330339Y-156544880D01*
X69629735Y-156787326D01*
X69629737Y-156787328D01*
X69952823Y-156997142D01*
X69952828Y-156997145D01*
X70296088Y-157172044D01*
X70655749Y-157310105D01*
X71027872Y-157409815D01*
X71408378Y-157470082D01*
X71771821Y-157489128D01*
X71793099Y-157490244D01*
X71793100Y-157490244D01*
X71793101Y-157490244D01*
X71813263Y-157489187D01*
X72177822Y-157470082D01*
X72558328Y-157409815D01*
X72930451Y-157310105D01*
X73290112Y-157172044D01*
X73633372Y-156997145D01*
X73785154Y-156898576D01*
X73956462Y-156787328D01*
X73956464Y-156787326D01*
X73956469Y-156787323D01*
X74255865Y-156544877D01*
X74528277Y-156272465D01*
X74770723Y-155973069D01*
X74980545Y-155649972D01*
X75155444Y-155306712D01*
X75293505Y-154947051D01*
X75393215Y-154574928D01*
X75453482Y-154194422D01*
X75473644Y-153809700D01*
X75453482Y-153424978D01*
X75393215Y-153044472D01*
X75293505Y-152672349D01*
X75188960Y-152400001D01*
X145314390Y-152400001D01*
X145334804Y-152685433D01*
X145395628Y-152965037D01*
X145395630Y-152965043D01*
X145395631Y-152965046D01*
X145495557Y-153232958D01*
X145495635Y-153233166D01*
X145632770Y-153484309D01*
X145632775Y-153484317D01*
X145804254Y-153713387D01*
X145804270Y-153713405D01*
X146006594Y-153915729D01*
X146006612Y-153915745D01*
X146235682Y-154087224D01*
X146235690Y-154087229D01*
X146486833Y-154224364D01*
X146486832Y-154224364D01*
X146486836Y-154224365D01*
X146486839Y-154224367D01*
X146754954Y-154324369D01*
X146754960Y-154324370D01*
X146754962Y-154324371D01*
X147034566Y-154385195D01*
X147034568Y-154385195D01*
X147034572Y-154385196D01*
X147288220Y-154403337D01*
X147319999Y-154405610D01*
X147320000Y-154405610D01*
X147320001Y-154405610D01*
X147348595Y-154403564D01*
X147605428Y-154385196D01*
X147885046Y-154324369D01*
X148153161Y-154224367D01*
X148404315Y-154087226D01*
X148633395Y-153915739D01*
X148835739Y-153713395D01*
X149007226Y-153484315D01*
X149144367Y-153233161D01*
X149244369Y-152965046D01*
X149269196Y-152850918D01*
X149305195Y-152685433D01*
X149305195Y-152685432D01*
X149305196Y-152685428D01*
X149325610Y-152400001D01*
X155474891Y-152400001D01*
X155495300Y-152685362D01*
X155556109Y-152964895D01*
X155656091Y-153232958D01*
X155793191Y-153484038D01*
X155793196Y-153484046D01*
X155899882Y-153626561D01*
X155899883Y-153626562D01*
X156802803Y-152723641D01*
X156826059Y-152777553D01*
X156930756Y-152918185D01*
X157065062Y-153030882D01*
X157156665Y-153076886D01*
X156253436Y-153980115D01*
X156395960Y-154086807D01*
X156395961Y-154086808D01*
X156647042Y-154223908D01*
X156647041Y-154223908D01*
X156915104Y-154323890D01*
X157194637Y-154384699D01*
X157479999Y-154405109D01*
X157480001Y-154405109D01*
X157765362Y-154384699D01*
X158044895Y-154323890D01*
X158312958Y-154223908D01*
X158564047Y-154086803D01*
X158706561Y-153980116D01*
X158706562Y-153980115D01*
X158536147Y-153809700D01*
X186120956Y-153809700D01*
X186141118Y-154194423D01*
X186201384Y-154574922D01*
X186201384Y-154574924D01*
X186301097Y-154947058D01*
X186439157Y-155306715D01*
X186614057Y-155649976D01*
X186823871Y-155973062D01*
X186823873Y-155973064D01*
X186823876Y-155973068D01*
X186823877Y-155973069D01*
X187066323Y-156272465D01*
X187338735Y-156544877D01*
X187338739Y-156544880D01*
X187638135Y-156787326D01*
X187638137Y-156787328D01*
X187961223Y-156997142D01*
X187961228Y-156997145D01*
X188304488Y-157172044D01*
X188664149Y-157310105D01*
X189036272Y-157409815D01*
X189416778Y-157470082D01*
X189780221Y-157489128D01*
X189801499Y-157490244D01*
X189801500Y-157490244D01*
X189801501Y-157490244D01*
X189821663Y-157489187D01*
X190186222Y-157470082D01*
X190566728Y-157409815D01*
X190938851Y-157310105D01*
X191298512Y-157172044D01*
X191641772Y-156997145D01*
X191793554Y-156898576D01*
X191964862Y-156787328D01*
X191964864Y-156787326D01*
X191964869Y-156787323D01*
X192264265Y-156544877D01*
X192536677Y-156272465D01*
X192779123Y-155973069D01*
X192988945Y-155649972D01*
X193163844Y-155306712D01*
X193301905Y-154947051D01*
X193401615Y-154574928D01*
X193461882Y-154194422D01*
X193482044Y-153809700D01*
X193461882Y-153424978D01*
X193401615Y-153044472D01*
X193301905Y-152672349D01*
X193163844Y-152312688D01*
X192988945Y-151969428D01*
X192975732Y-151949082D01*
X192779128Y-151646337D01*
X192779126Y-151646335D01*
X192714752Y-151566839D01*
X192536677Y-151346935D01*
X192264265Y-151074523D01*
X191964869Y-150832077D01*
X191964868Y-150832076D01*
X191964864Y-150832073D01*
X191964862Y-150832071D01*
X191641776Y-150622257D01*
X191298515Y-150447357D01*
X190938858Y-150309297D01*
X190938851Y-150309295D01*
X190566728Y-150209585D01*
X190566724Y-150209584D01*
X190566723Y-150209584D01*
X190186223Y-150149318D01*
X189801501Y-150129156D01*
X189801499Y-150129156D01*
X189416776Y-150149318D01*
X189036277Y-150209584D01*
X189036275Y-150209584D01*
X188664141Y-150309297D01*
X188304484Y-150447357D01*
X187961223Y-150622257D01*
X187638137Y-150832071D01*
X187638135Y-150832073D01*
X187338739Y-151074519D01*
X187338731Y-151074526D01*
X187066326Y-151346931D01*
X187066319Y-151346939D01*
X186823873Y-151646335D01*
X186823871Y-151646337D01*
X186614057Y-151969423D01*
X186439157Y-152312684D01*
X186301097Y-152672341D01*
X186201384Y-153044475D01*
X186201384Y-153044477D01*
X186141118Y-153424976D01*
X186120956Y-153809699D01*
X186120956Y-153809700D01*
X158536147Y-153809700D01*
X157805946Y-153079498D01*
X157818891Y-153074787D01*
X157965373Y-152978445D01*
X158085688Y-152850918D01*
X158158447Y-152724894D01*
X159060115Y-153626562D01*
X159060116Y-153626561D01*
X159166803Y-153484047D01*
X159303908Y-153232958D01*
X159403890Y-152964895D01*
X159464699Y-152685362D01*
X159485109Y-152400001D01*
X159485109Y-152399998D01*
X159464699Y-152114637D01*
X159403890Y-151835104D01*
X159303908Y-151567041D01*
X159166808Y-151315961D01*
X159166807Y-151315960D01*
X159060115Y-151173436D01*
X158157195Y-152076356D01*
X158133941Y-152022447D01*
X158029244Y-151881815D01*
X157894938Y-151769118D01*
X157803333Y-151723112D01*
X158706562Y-150819883D01*
X158706561Y-150819882D01*
X158564046Y-150713196D01*
X158564038Y-150713191D01*
X158312957Y-150576091D01*
X158312958Y-150576091D01*
X158044895Y-150476109D01*
X157765362Y-150415300D01*
X157480001Y-150394891D01*
X157479999Y-150394891D01*
X157194637Y-150415300D01*
X156915104Y-150476109D01*
X156647041Y-150576091D01*
X156395961Y-150713191D01*
X156395953Y-150713196D01*
X156253437Y-150819882D01*
X156253436Y-150819883D01*
X157154054Y-151720501D01*
X157141109Y-151725213D01*
X156994627Y-151821555D01*
X156874312Y-151949082D01*
X156801552Y-152075105D01*
X155899883Y-151173436D01*
X155899882Y-151173437D01*
X155793196Y-151315953D01*
X155793191Y-151315961D01*
X155656091Y-151567041D01*
X155556109Y-151835104D01*
X155495300Y-152114637D01*
X155474891Y-152399998D01*
X155474891Y-152400001D01*
X149325610Y-152400001D01*
X149325610Y-152400000D01*
X149305196Y-152114572D01*
X149285155Y-152022447D01*
X149244371Y-151834962D01*
X149244370Y-151834960D01*
X149244369Y-151834954D01*
X149144367Y-151566839D01*
X149133657Y-151547226D01*
X149007229Y-151315690D01*
X149007224Y-151315682D01*
X148835745Y-151086612D01*
X148835729Y-151086594D01*
X148633405Y-150884270D01*
X148633387Y-150884254D01*
X148404317Y-150712775D01*
X148404309Y-150712770D01*
X148153166Y-150575635D01*
X148153167Y-150575635D01*
X148045915Y-150535632D01*
X147885046Y-150475631D01*
X147885043Y-150475630D01*
X147885037Y-150475628D01*
X147605433Y-150414804D01*
X147320001Y-150394390D01*
X147319999Y-150394390D01*
X147034566Y-150414804D01*
X146754962Y-150475628D01*
X146486833Y-150575635D01*
X146235690Y-150712770D01*
X146235682Y-150712775D01*
X146006612Y-150884254D01*
X146006594Y-150884270D01*
X145804270Y-151086594D01*
X145804254Y-151086612D01*
X145632775Y-151315682D01*
X145632770Y-151315690D01*
X145495635Y-151566833D01*
X145395628Y-151834962D01*
X145334804Y-152114566D01*
X145314390Y-152399998D01*
X145314390Y-152400001D01*
X75188960Y-152400001D01*
X75155444Y-152312688D01*
X74980545Y-151969428D01*
X74967332Y-151949082D01*
X74770728Y-151646337D01*
X74770726Y-151646335D01*
X74706352Y-151566839D01*
X74528277Y-151346935D01*
X74255865Y-151074523D01*
X73956469Y-150832077D01*
X73956468Y-150832076D01*
X73956464Y-150832073D01*
X73956462Y-150832071D01*
X73633376Y-150622257D01*
X73290115Y-150447357D01*
X72930458Y-150309297D01*
X72930451Y-150309295D01*
X72558328Y-150209585D01*
X72558324Y-150209584D01*
X72558323Y-150209584D01*
X72177823Y-150149318D01*
X71793101Y-150129156D01*
X71793099Y-150129156D01*
X71408376Y-150149318D01*
X71027877Y-150209584D01*
X71027875Y-150209584D01*
X70655741Y-150309297D01*
X70296084Y-150447357D01*
X69952823Y-150622257D01*
X69629737Y-150832071D01*
X69629735Y-150832073D01*
X69330339Y-151074519D01*
X69330331Y-151074526D01*
X69057926Y-151346931D01*
X69057919Y-151346939D01*
X68815473Y-151646335D01*
X68815471Y-151646337D01*
X68605657Y-151969423D01*
X68430757Y-152312684D01*
X68292697Y-152672341D01*
X68192984Y-153044475D01*
X68192984Y-153044477D01*
X68132718Y-153424976D01*
X68112556Y-153809699D01*
X68112556Y-153809700D01*
X61478244Y-153809700D01*
X61458082Y-153424978D01*
X61397815Y-153044472D01*
X61298105Y-152672349D01*
X61160044Y-152312688D01*
X60985145Y-151969428D01*
X60971932Y-151949082D01*
X60775328Y-151646337D01*
X60775326Y-151646335D01*
X60710952Y-151566839D01*
X60532877Y-151346935D01*
X60260465Y-151074523D01*
X59961069Y-150832077D01*
X59961068Y-150832076D01*
X59961064Y-150832073D01*
X59961062Y-150832071D01*
X59637976Y-150622257D01*
X59294715Y-150447357D01*
X58935058Y-150309297D01*
X58935051Y-150309295D01*
X58562928Y-150209585D01*
X58562924Y-150209584D01*
X58562923Y-150209584D01*
X58182423Y-150149318D01*
X57797701Y-150129156D01*
X57797699Y-150129156D01*
X57412976Y-150149318D01*
X57032477Y-150209584D01*
X57032475Y-150209584D01*
X56660341Y-150309297D01*
X56300684Y-150447357D01*
X55957423Y-150622257D01*
X55634337Y-150832071D01*
X55634335Y-150832073D01*
X55334939Y-151074519D01*
X55334931Y-151074526D01*
X55062526Y-151346931D01*
X55062519Y-151346939D01*
X54820073Y-151646335D01*
X54820071Y-151646337D01*
X54610257Y-151969423D01*
X54435357Y-152312684D01*
X54297297Y-152672341D01*
X54197584Y-153044475D01*
X54197584Y-153044477D01*
X54137318Y-153424976D01*
X54117156Y-153809699D01*
X54117156Y-153809700D01*
X53340500Y-153809700D01*
X53340500Y-149860001D01*
X150394390Y-149860001D01*
X150414804Y-150145433D01*
X150475628Y-150425037D01*
X150475630Y-150425043D01*
X150475631Y-150425046D01*
X150549187Y-150622257D01*
X150575635Y-150693166D01*
X150712770Y-150944309D01*
X150712775Y-150944317D01*
X150884254Y-151173387D01*
X150884270Y-151173405D01*
X151086594Y-151375729D01*
X151086612Y-151375745D01*
X151315682Y-151547224D01*
X151315690Y-151547229D01*
X151566833Y-151684364D01*
X151566832Y-151684364D01*
X151566836Y-151684365D01*
X151566839Y-151684367D01*
X151834954Y-151784369D01*
X151834960Y-151784370D01*
X151834962Y-151784371D01*
X152114566Y-151845195D01*
X152114568Y-151845195D01*
X152114572Y-151845196D01*
X152368220Y-151863337D01*
X152399999Y-151865610D01*
X152400000Y-151865610D01*
X152400001Y-151865610D01*
X152428595Y-151863564D01*
X152685428Y-151845196D01*
X152731821Y-151835104D01*
X152965037Y-151784371D01*
X152965037Y-151784370D01*
X152965046Y-151784369D01*
X153233161Y-151684367D01*
X153484315Y-151547226D01*
X153713395Y-151375739D01*
X153915739Y-151173395D01*
X154087226Y-150944315D01*
X154224367Y-150693161D01*
X154324369Y-150425046D01*
X154385196Y-150145428D01*
X154405610Y-149860000D01*
X154385196Y-149574572D01*
X154324369Y-149294954D01*
X154224367Y-149026839D01*
X154087226Y-148775685D01*
X154008485Y-148670499D01*
X153915745Y-148546612D01*
X153915729Y-148546594D01*
X153713405Y-148344270D01*
X153713387Y-148344254D01*
X153484317Y-148172775D01*
X153484309Y-148172770D01*
X153233166Y-148035635D01*
X153233167Y-148035635D01*
X153042886Y-147964664D01*
X152965046Y-147935631D01*
X152965043Y-147935630D01*
X152965037Y-147935628D01*
X152685433Y-147874804D01*
X152400001Y-147854390D01*
X152399999Y-147854390D01*
X152114566Y-147874804D01*
X151834962Y-147935628D01*
X151566833Y-148035635D01*
X151315690Y-148172770D01*
X151315682Y-148172775D01*
X151086612Y-148344254D01*
X151086594Y-148344270D01*
X150884270Y-148546594D01*
X150884254Y-148546612D01*
X150712775Y-148775682D01*
X150712770Y-148775690D01*
X150575635Y-149026833D01*
X150475628Y-149294962D01*
X150414804Y-149574566D01*
X150394390Y-149859998D01*
X150394390Y-149860001D01*
X53340500Y-149860001D01*
X53340500Y-148217870D01*
X110409500Y-148217870D01*
X110409501Y-148217876D01*
X110415908Y-148277483D01*
X110466202Y-148412328D01*
X110466206Y-148412335D01*
X110552452Y-148527544D01*
X110552455Y-148527547D01*
X110667664Y-148613793D01*
X110667671Y-148613797D01*
X110802517Y-148664091D01*
X110802516Y-148664091D01*
X110809444Y-148664835D01*
X110862127Y-148670500D01*
X112657872Y-148670499D01*
X112717483Y-148664091D01*
X112852331Y-148613796D01*
X112967546Y-148527546D01*
X113053796Y-148412331D01*
X113102810Y-148280916D01*
X113144681Y-148224984D01*
X113210145Y-148200566D01*
X113278418Y-148215417D01*
X113306673Y-148236569D01*
X113428599Y-148358495D01*
X113512723Y-148417399D01*
X113622165Y-148494032D01*
X113622167Y-148494033D01*
X113622170Y-148494035D01*
X113836337Y-148593903D01*
X114064592Y-148655063D01*
X114241034Y-148670500D01*
X114299999Y-148675659D01*
X114300000Y-148675659D01*
X114300001Y-148675659D01*
X114358966Y-148670500D01*
X114535408Y-148655063D01*
X114763663Y-148593903D01*
X114977830Y-148494035D01*
X115171401Y-148358495D01*
X115338495Y-148191401D01*
X115474035Y-147997830D01*
X115573903Y-147783663D01*
X115635063Y-147555408D01*
X115655659Y-147320000D01*
X115635063Y-147084592D01*
X115573903Y-146856337D01*
X115474035Y-146642171D01*
X115452424Y-146611306D01*
X115338494Y-146448597D01*
X115171402Y-146281506D01*
X115171395Y-146281501D01*
X114977834Y-146145967D01*
X114977830Y-146145965D01*
X114977828Y-146145964D01*
X114763663Y-146046097D01*
X114763659Y-146046096D01*
X114763655Y-146046094D01*
X114636057Y-146011905D01*
X123027644Y-146011905D01*
X123046648Y-146313974D01*
X123046649Y-146313981D01*
X123103368Y-146611310D01*
X123124172Y-146675337D01*
X123196901Y-146899174D01*
X123325777Y-147173050D01*
X123325779Y-147173053D01*
X123325780Y-147173055D01*
X123487958Y-147428608D01*
X123487961Y-147428612D01*
X123487962Y-147428613D01*
X123680899Y-147661834D01*
X123810634Y-147783663D01*
X123901543Y-147869032D01*
X123901553Y-147869040D01*
X124146408Y-148046938D01*
X124146413Y-148046940D01*
X124146420Y-148046946D01*
X124411663Y-148192765D01*
X124411668Y-148192767D01*
X124411670Y-148192768D01*
X124411671Y-148192769D01*
X124693086Y-148304189D01*
X124693089Y-148304190D01*
X124986259Y-148379463D01*
X124986263Y-148379464D01*
X125049260Y-148387422D01*
X125286547Y-148417399D01*
X125286556Y-148417399D01*
X125286559Y-148417400D01*
X125286561Y-148417400D01*
X125589239Y-148417400D01*
X125589241Y-148417400D01*
X125589244Y-148417399D01*
X125589252Y-148417399D01*
X125768439Y-148394762D01*
X125889537Y-148379464D01*
X126182710Y-148304190D01*
X126241491Y-148280917D01*
X126464128Y-148192769D01*
X126464129Y-148192768D01*
X126464127Y-148192768D01*
X126464137Y-148192765D01*
X126729380Y-148046946D01*
X126974255Y-147869034D01*
X127194901Y-147661834D01*
X127387838Y-147428613D01*
X127550023Y-147173050D01*
X127678899Y-146899174D01*
X127772433Y-146611306D01*
X127829150Y-146313985D01*
X127829151Y-146313974D01*
X127848156Y-146011905D01*
X140223444Y-146011905D01*
X140242448Y-146313974D01*
X140242449Y-146313981D01*
X140299168Y-146611310D01*
X140319972Y-146675337D01*
X140392701Y-146899174D01*
X140521577Y-147173050D01*
X140521579Y-147173053D01*
X140521580Y-147173055D01*
X140683758Y-147428608D01*
X140683761Y-147428612D01*
X140683762Y-147428613D01*
X140876699Y-147661834D01*
X141006434Y-147783663D01*
X141097343Y-147869032D01*
X141097353Y-147869040D01*
X141342208Y-148046938D01*
X141342213Y-148046940D01*
X141342220Y-148046946D01*
X141607463Y-148192765D01*
X141607468Y-148192767D01*
X141607470Y-148192768D01*
X141607471Y-148192769D01*
X141888886Y-148304189D01*
X141888889Y-148304190D01*
X142182059Y-148379463D01*
X142182063Y-148379464D01*
X142245060Y-148387422D01*
X142482347Y-148417399D01*
X142482356Y-148417399D01*
X142482359Y-148417400D01*
X142482361Y-148417400D01*
X142785039Y-148417400D01*
X142785041Y-148417400D01*
X142785044Y-148417399D01*
X142785052Y-148417399D01*
X142964239Y-148394762D01*
X143085337Y-148379464D01*
X143378510Y-148304190D01*
X143437291Y-148280917D01*
X143659928Y-148192769D01*
X143659929Y-148192768D01*
X143659927Y-148192768D01*
X143659937Y-148192765D01*
X143925180Y-148046946D01*
X144170055Y-147869034D01*
X144390701Y-147661834D01*
X144583638Y-147428613D01*
X144745823Y-147173050D01*
X144874699Y-146899174D01*
X144968233Y-146611306D01*
X145024950Y-146313985D01*
X145024951Y-146313974D01*
X145043956Y-146011905D01*
X145043956Y-146011894D01*
X145024951Y-145709825D01*
X145024950Y-145709818D01*
X145024950Y-145709815D01*
X144968233Y-145412494D01*
X144874699Y-145124626D01*
X144745823Y-144850750D01*
X144583638Y-144595187D01*
X144390701Y-144361966D01*
X144170055Y-144154766D01*
X144170052Y-144154764D01*
X144170046Y-144154759D01*
X143925191Y-143976861D01*
X143925184Y-143976856D01*
X143925180Y-143976854D01*
X143659937Y-143831035D01*
X143659934Y-143831033D01*
X143659929Y-143831031D01*
X143659928Y-143831030D01*
X143378513Y-143719610D01*
X143378510Y-143719609D01*
X143085340Y-143644336D01*
X143085327Y-143644334D01*
X142785052Y-143606400D01*
X142785041Y-143606400D01*
X142482359Y-143606400D01*
X142482347Y-143606400D01*
X142182072Y-143644334D01*
X142182059Y-143644336D01*
X141888889Y-143719609D01*
X141888886Y-143719610D01*
X141607471Y-143831030D01*
X141607470Y-143831031D01*
X141342220Y-143976854D01*
X141342208Y-143976861D01*
X141097353Y-144154759D01*
X141097343Y-144154767D01*
X140876701Y-144361964D01*
X140683758Y-144595191D01*
X140521580Y-144850744D01*
X140392700Y-145124628D01*
X140299168Y-145412489D01*
X140242449Y-145709818D01*
X140242448Y-145709825D01*
X140223444Y-146011894D01*
X140223444Y-146011905D01*
X127848156Y-146011905D01*
X127848156Y-146011894D01*
X127829151Y-145709825D01*
X127829150Y-145709818D01*
X127829150Y-145709815D01*
X127772433Y-145412494D01*
X127678899Y-145124626D01*
X127550023Y-144850750D01*
X127387838Y-144595187D01*
X127194901Y-144361966D01*
X126974255Y-144154766D01*
X126974252Y-144154764D01*
X126974246Y-144154759D01*
X126729391Y-143976861D01*
X126729384Y-143976856D01*
X126729380Y-143976854D01*
X126464137Y-143831035D01*
X126464134Y-143831033D01*
X126464129Y-143831031D01*
X126464128Y-143831030D01*
X126182713Y-143719610D01*
X126182710Y-143719609D01*
X125889540Y-143644336D01*
X125889527Y-143644334D01*
X125589252Y-143606400D01*
X125589241Y-143606400D01*
X125286559Y-143606400D01*
X125286547Y-143606400D01*
X124986272Y-143644334D01*
X124986259Y-143644336D01*
X124693089Y-143719609D01*
X124693086Y-143719610D01*
X124411671Y-143831030D01*
X124411670Y-143831031D01*
X124146420Y-143976854D01*
X124146408Y-143976861D01*
X123901553Y-144154759D01*
X123901543Y-144154767D01*
X123680901Y-144361964D01*
X123487958Y-144595191D01*
X123325780Y-144850744D01*
X123196900Y-145124628D01*
X123103368Y-145412489D01*
X123046649Y-145709818D01*
X123046648Y-145709825D01*
X123027644Y-146011894D01*
X123027644Y-146011905D01*
X114636057Y-146011905D01*
X114535413Y-145984938D01*
X114535403Y-145984936D01*
X114300001Y-145964341D01*
X114299999Y-145964341D01*
X114064596Y-145984936D01*
X114064586Y-145984938D01*
X113836344Y-146046094D01*
X113836335Y-146046098D01*
X113622171Y-146145964D01*
X113622169Y-146145965D01*
X113428600Y-146281503D01*
X113306673Y-146403430D01*
X113245350Y-146436914D01*
X113175658Y-146431930D01*
X113119725Y-146390058D01*
X113102810Y-146359081D01*
X113053797Y-146227671D01*
X113053793Y-146227664D01*
X112967547Y-146112455D01*
X112967544Y-146112452D01*
X112852335Y-146026206D01*
X112852328Y-146026202D01*
X112717482Y-145975908D01*
X112717483Y-145975908D01*
X112657883Y-145969501D01*
X112657881Y-145969500D01*
X112657873Y-145969500D01*
X112657864Y-145969500D01*
X110862129Y-145969500D01*
X110862123Y-145969501D01*
X110802516Y-145975908D01*
X110667671Y-146026202D01*
X110667664Y-146026206D01*
X110552455Y-146112452D01*
X110552452Y-146112455D01*
X110466206Y-146227664D01*
X110466202Y-146227671D01*
X110415908Y-146362517D01*
X110409501Y-146422116D01*
X110409500Y-146422135D01*
X110409500Y-148217870D01*
X53340500Y-148217870D01*
X53340500Y-143287870D01*
X110307000Y-143287870D01*
X110307001Y-143287876D01*
X110313408Y-143347483D01*
X110363702Y-143482328D01*
X110363706Y-143482335D01*
X110449952Y-143597544D01*
X110449955Y-143597547D01*
X110565164Y-143683793D01*
X110565171Y-143683797D01*
X110700017Y-143734091D01*
X110700016Y-143734091D01*
X110706944Y-143734835D01*
X110759627Y-143740500D01*
X112760372Y-143740499D01*
X112819983Y-143734091D01*
X112954831Y-143683796D01*
X113070046Y-143597546D01*
X113156296Y-143482331D01*
X113167725Y-143451687D01*
X113209594Y-143395755D01*
X113275058Y-143371336D01*
X113343331Y-143386186D01*
X113360069Y-143397167D01*
X113502552Y-143508066D01*
X113502558Y-143508070D01*
X113502561Y-143508072D01*
X113667891Y-143597544D01*
X113713478Y-143622215D01*
X113714336Y-143622679D01*
X113777415Y-143644334D01*
X113942083Y-143700865D01*
X113942085Y-143700865D01*
X113942087Y-143700866D01*
X114179601Y-143740500D01*
X114179602Y-143740500D01*
X114420398Y-143740500D01*
X114420399Y-143740500D01*
X114657913Y-143700866D01*
X114885664Y-143622679D01*
X115097439Y-143508072D01*
X115287463Y-143360171D01*
X115450551Y-143183010D01*
X115466489Y-143158613D01*
X115519631Y-143113258D01*
X115588862Y-143103831D01*
X115652199Y-143133330D01*
X115674106Y-143158611D01*
X115689847Y-143182704D01*
X115689851Y-143182710D01*
X115852873Y-143359797D01*
X115852883Y-143359806D01*
X116042831Y-143507649D01*
X116042840Y-143507655D01*
X116254531Y-143622215D01*
X116254545Y-143622221D01*
X116482207Y-143700379D01*
X116590000Y-143718366D01*
X116590000Y-142731683D01*
X116618819Y-142749209D01*
X116764404Y-142790000D01*
X116877622Y-142790000D01*
X116989783Y-142774584D01*
X117090000Y-142731053D01*
X117090000Y-143718365D01*
X117197792Y-143700379D01*
X117425454Y-143622221D01*
X117425468Y-143622215D01*
X117637159Y-143507655D01*
X117637168Y-143507649D01*
X117827116Y-143359806D01*
X117827126Y-143359797D01*
X117990148Y-143182710D01*
X117990156Y-143182699D01*
X118121813Y-142981184D01*
X118218508Y-142760740D01*
X118277599Y-142527395D01*
X118277599Y-142527394D01*
X118280697Y-142490000D01*
X117334852Y-142490000D01*
X117383559Y-142352953D01*
X117393877Y-142202114D01*
X117363116Y-142054085D01*
X117329910Y-141990000D01*
X118280697Y-141990000D01*
X118277599Y-141952605D01*
X118277599Y-141952604D01*
X118218508Y-141719259D01*
X118121813Y-141498815D01*
X117999306Y-141311305D01*
X172203644Y-141311305D01*
X172222648Y-141613374D01*
X172222649Y-141613381D01*
X172245046Y-141730791D01*
X172279367Y-141910706D01*
X172372901Y-142198574D01*
X172501777Y-142472450D01*
X172501779Y-142472453D01*
X172501780Y-142472455D01*
X172663958Y-142728008D01*
X172663961Y-142728012D01*
X172663962Y-142728013D01*
X172856899Y-142961234D01*
X173040163Y-143133330D01*
X173077543Y-143168432D01*
X173077553Y-143168440D01*
X173322408Y-143346338D01*
X173322413Y-143346340D01*
X173322420Y-143346346D01*
X173587663Y-143492165D01*
X173587668Y-143492167D01*
X173587670Y-143492168D01*
X173587671Y-143492169D01*
X173869086Y-143603589D01*
X173869089Y-143603590D01*
X174027777Y-143644334D01*
X174162263Y-143678864D01*
X174201304Y-143683796D01*
X174462547Y-143716799D01*
X174462556Y-143716799D01*
X174462559Y-143716800D01*
X174462561Y-143716800D01*
X174765239Y-143716800D01*
X174765241Y-143716800D01*
X174765244Y-143716799D01*
X174765252Y-143716799D01*
X174944439Y-143694162D01*
X175065537Y-143678864D01*
X175358710Y-143603590D01*
X175373973Y-143597547D01*
X175640128Y-143492169D01*
X175640129Y-143492168D01*
X175640127Y-143492168D01*
X175640137Y-143492165D01*
X175905380Y-143346346D01*
X176150255Y-143168434D01*
X176370901Y-142961234D01*
X176563838Y-142728013D01*
X176726023Y-142472450D01*
X176854899Y-142198574D01*
X176948433Y-141910706D01*
X177005150Y-141613385D01*
X177009582Y-141542945D01*
X177024156Y-141311305D01*
X177024156Y-141311294D01*
X177005151Y-141009225D01*
X177005150Y-141009218D01*
X177005150Y-141009215D01*
X176948433Y-140711894D01*
X176854899Y-140424026D01*
X176726023Y-140150150D01*
X176563838Y-139894587D01*
X176370901Y-139661366D01*
X176150255Y-139454166D01*
X176150252Y-139454164D01*
X176150246Y-139454159D01*
X175905391Y-139276261D01*
X175905384Y-139276256D01*
X175905380Y-139276254D01*
X175640137Y-139130435D01*
X175640134Y-139130433D01*
X175640129Y-139130431D01*
X175640128Y-139130430D01*
X175358713Y-139019010D01*
X175358710Y-139019009D01*
X175065540Y-138943736D01*
X175065527Y-138943734D01*
X174765252Y-138905800D01*
X174765241Y-138905800D01*
X174462559Y-138905800D01*
X174462547Y-138905800D01*
X174162272Y-138943734D01*
X174162259Y-138943736D01*
X173869089Y-139019009D01*
X173869086Y-139019010D01*
X173587671Y-139130430D01*
X173587670Y-139130431D01*
X173322420Y-139276254D01*
X173322408Y-139276261D01*
X173077553Y-139454159D01*
X173077543Y-139454167D01*
X172856901Y-139661364D01*
X172663958Y-139894591D01*
X172501780Y-140150144D01*
X172372900Y-140424028D01*
X172279368Y-140711889D01*
X172222649Y-141009218D01*
X172222648Y-141009225D01*
X172203644Y-141311294D01*
X172203644Y-141311305D01*
X117999306Y-141311305D01*
X117990156Y-141297300D01*
X117990148Y-141297289D01*
X117827126Y-141120202D01*
X117827116Y-141120193D01*
X117637168Y-140972350D01*
X117637159Y-140972344D01*
X117425468Y-140857784D01*
X117425454Y-140857778D01*
X117197791Y-140779619D01*
X117090000Y-140761633D01*
X117090000Y-141748316D01*
X117061181Y-141730791D01*
X116915596Y-141690000D01*
X116802378Y-141690000D01*
X116690217Y-141705416D01*
X116590000Y-141748946D01*
X116590000Y-140761633D01*
X116589999Y-140761633D01*
X116482208Y-140779619D01*
X116254545Y-140857778D01*
X116254531Y-140857784D01*
X116042840Y-140972344D01*
X116042831Y-140972350D01*
X115852883Y-141120193D01*
X115852873Y-141120202D01*
X115689851Y-141297289D01*
X115689846Y-141297297D01*
X115674104Y-141321390D01*
X115620955Y-141366745D01*
X115551724Y-141376165D01*
X115488389Y-141346660D01*
X115466489Y-141321384D01*
X115450555Y-141296994D01*
X115354018Y-141192127D01*
X115287463Y-141119829D01*
X115145346Y-141009215D01*
X115097441Y-140971929D01*
X114885665Y-140857321D01*
X114885656Y-140857318D01*
X114657916Y-140779134D01*
X114458800Y-140745908D01*
X114420399Y-140739500D01*
X114179601Y-140739500D01*
X114141200Y-140745908D01*
X113942083Y-140779134D01*
X113714343Y-140857318D01*
X113714334Y-140857321D01*
X113502559Y-140971929D01*
X113360069Y-141082833D01*
X113295075Y-141108475D01*
X113226535Y-141094908D01*
X113176210Y-141046440D01*
X113167725Y-141028311D01*
X113156298Y-140997673D01*
X113156293Y-140997664D01*
X113070047Y-140882455D01*
X113070044Y-140882452D01*
X112954835Y-140796206D01*
X112954828Y-140796202D01*
X112819982Y-140745908D01*
X112819983Y-140745908D01*
X112760383Y-140739501D01*
X112760381Y-140739500D01*
X112760373Y-140739500D01*
X112760364Y-140739500D01*
X110759629Y-140739500D01*
X110759623Y-140739501D01*
X110700016Y-140745908D01*
X110565171Y-140796202D01*
X110565164Y-140796206D01*
X110449955Y-140882452D01*
X110449952Y-140882455D01*
X110363706Y-140997664D01*
X110363702Y-140997671D01*
X110313408Y-141132517D01*
X110307001Y-141192116D01*
X110307000Y-141192135D01*
X110307000Y-143287870D01*
X53340500Y-143287870D01*
X53340500Y-139507905D01*
X66703144Y-139507905D01*
X66722148Y-139809974D01*
X66722149Y-139809981D01*
X66722150Y-139809985D01*
X66778867Y-140107306D01*
X66872401Y-140395174D01*
X67001277Y-140669050D01*
X67001279Y-140669053D01*
X67001280Y-140669055D01*
X67163458Y-140924608D01*
X67163461Y-140924612D01*
X67163462Y-140924613D01*
X67356399Y-141157834D01*
X67530569Y-141321390D01*
X67577043Y-141365032D01*
X67577053Y-141365040D01*
X67821908Y-141542938D01*
X67821913Y-141542940D01*
X67821920Y-141542946D01*
X68087163Y-141688765D01*
X68087168Y-141688767D01*
X68087170Y-141688768D01*
X68087171Y-141688769D01*
X68368586Y-141800189D01*
X68368589Y-141800190D01*
X68605686Y-141861066D01*
X68661763Y-141875464D01*
X68724760Y-141883422D01*
X68962047Y-141913399D01*
X68962056Y-141913399D01*
X68962059Y-141913400D01*
X68962061Y-141913400D01*
X69264739Y-141913400D01*
X69264741Y-141913400D01*
X69264744Y-141913399D01*
X69264752Y-141913399D01*
X69443939Y-141890762D01*
X69565037Y-141875464D01*
X69858210Y-141800190D01*
X69858213Y-141800189D01*
X70139628Y-141688769D01*
X70139629Y-141688768D01*
X70139627Y-141688768D01*
X70139637Y-141688765D01*
X70404880Y-141542946D01*
X70649755Y-141365034D01*
X70870401Y-141157834D01*
X71063338Y-140924613D01*
X71225523Y-140669050D01*
X71354399Y-140395174D01*
X71447933Y-140107306D01*
X71504650Y-139809985D01*
X71523656Y-139507905D01*
X96649744Y-139507905D01*
X96668748Y-139809974D01*
X96668749Y-139809981D01*
X96668750Y-139809985D01*
X96725467Y-140107306D01*
X96819001Y-140395174D01*
X96947877Y-140669050D01*
X96947879Y-140669053D01*
X96947880Y-140669055D01*
X97110058Y-140924608D01*
X97110061Y-140924612D01*
X97110062Y-140924613D01*
X97302999Y-141157834D01*
X97477169Y-141321390D01*
X97523643Y-141365032D01*
X97523653Y-141365040D01*
X97768508Y-141542938D01*
X97768513Y-141542940D01*
X97768520Y-141542946D01*
X98033763Y-141688765D01*
X98033768Y-141688767D01*
X98033770Y-141688768D01*
X98033771Y-141688769D01*
X98315186Y-141800189D01*
X98315189Y-141800190D01*
X98552286Y-141861066D01*
X98608363Y-141875464D01*
X98671360Y-141883422D01*
X98908647Y-141913399D01*
X98908656Y-141913399D01*
X98908659Y-141913400D01*
X98908661Y-141913400D01*
X99211339Y-141913400D01*
X99211341Y-141913400D01*
X99211344Y-141913399D01*
X99211352Y-141913399D01*
X99390539Y-141890762D01*
X99511637Y-141875464D01*
X99804810Y-141800190D01*
X99804813Y-141800189D01*
X100086228Y-141688769D01*
X100086229Y-141688768D01*
X100086227Y-141688768D01*
X100086237Y-141688765D01*
X100351480Y-141542946D01*
X100596355Y-141365034D01*
X100817001Y-141157834D01*
X101009938Y-140924613D01*
X101172123Y-140669050D01*
X101300999Y-140395174D01*
X101394533Y-140107306D01*
X101451250Y-139809985D01*
X101470256Y-139507900D01*
X101466875Y-139454167D01*
X101451251Y-139205825D01*
X101451250Y-139205818D01*
X101451250Y-139205815D01*
X101394533Y-138908494D01*
X101300999Y-138620626D01*
X101172123Y-138346750D01*
X101065456Y-138178669D01*
X101009941Y-138091191D01*
X100995321Y-138073518D01*
X100817001Y-137857966D01*
X100596355Y-137650766D01*
X100596352Y-137650764D01*
X100596346Y-137650759D01*
X100351491Y-137472861D01*
X100351484Y-137472856D01*
X100351480Y-137472854D01*
X100086237Y-137327035D01*
X100086234Y-137327033D01*
X100086229Y-137327031D01*
X100086228Y-137327030D01*
X99804813Y-137215610D01*
X99804810Y-137215609D01*
X99511640Y-137140336D01*
X99511627Y-137140334D01*
X99211352Y-137102400D01*
X99211341Y-137102400D01*
X98908659Y-137102400D01*
X98908647Y-137102400D01*
X98608372Y-137140334D01*
X98608359Y-137140336D01*
X98315189Y-137215609D01*
X98315186Y-137215610D01*
X98033771Y-137327030D01*
X98033770Y-137327031D01*
X97768520Y-137472854D01*
X97768508Y-137472861D01*
X97523653Y-137650759D01*
X97523643Y-137650767D01*
X97303001Y-137857964D01*
X97110058Y-138091191D01*
X96947880Y-138346744D01*
X96947877Y-138346748D01*
X96947877Y-138346750D01*
X96910007Y-138427229D01*
X96819000Y-138620628D01*
X96725468Y-138908489D01*
X96668749Y-139205818D01*
X96668748Y-139205825D01*
X96649744Y-139507894D01*
X96649744Y-139507905D01*
X71523656Y-139507905D01*
X71523656Y-139507900D01*
X71520275Y-139454167D01*
X71504651Y-139205825D01*
X71504650Y-139205818D01*
X71504650Y-139205815D01*
X71447933Y-138908494D01*
X71354399Y-138620626D01*
X71225523Y-138346750D01*
X71118856Y-138178669D01*
X71063341Y-138091191D01*
X71048721Y-138073518D01*
X70870401Y-137857966D01*
X70649755Y-137650766D01*
X70649752Y-137650764D01*
X70649746Y-137650759D01*
X70404891Y-137472861D01*
X70404884Y-137472856D01*
X70404880Y-137472854D01*
X70139637Y-137327035D01*
X70139634Y-137327033D01*
X70139629Y-137327031D01*
X70139628Y-137327030D01*
X69858213Y-137215610D01*
X69858210Y-137215609D01*
X69565040Y-137140336D01*
X69565027Y-137140334D01*
X69264752Y-137102400D01*
X69264741Y-137102400D01*
X68962059Y-137102400D01*
X68962047Y-137102400D01*
X68661772Y-137140334D01*
X68661759Y-137140336D01*
X68368589Y-137215609D01*
X68368586Y-137215610D01*
X68087171Y-137327030D01*
X68087170Y-137327031D01*
X67821920Y-137472854D01*
X67821908Y-137472861D01*
X67577053Y-137650759D01*
X67577043Y-137650767D01*
X67356401Y-137857964D01*
X67163458Y-138091191D01*
X67001280Y-138346744D01*
X67001277Y-138346748D01*
X67001277Y-138346750D01*
X66963407Y-138427229D01*
X66872400Y-138620628D01*
X66778868Y-138908489D01*
X66722149Y-139205818D01*
X66722148Y-139205825D01*
X66703144Y-139507894D01*
X66703144Y-139507905D01*
X53340500Y-139507905D01*
X53340500Y-134620001D01*
X110454532Y-134620001D01*
X110474364Y-134846686D01*
X110474366Y-134846697D01*
X110533258Y-135066488D01*
X110533261Y-135066497D01*
X110629431Y-135272732D01*
X110629432Y-135272734D01*
X110759954Y-135459141D01*
X110920858Y-135620045D01*
X110920861Y-135620047D01*
X111107266Y-135750568D01*
X111313504Y-135846739D01*
X111533308Y-135905635D01*
X111695230Y-135919801D01*
X111759998Y-135925468D01*
X111760000Y-135925468D01*
X111760002Y-135925468D01*
X111816673Y-135920509D01*
X111986692Y-135905635D01*
X112206496Y-135846739D01*
X112412734Y-135750568D01*
X112599139Y-135620047D01*
X112760047Y-135459139D01*
X112890568Y-135272734D01*
X112986739Y-135066496D01*
X113045635Y-134846692D01*
X113065468Y-134620000D01*
X113065467Y-134619994D01*
X113059801Y-134555230D01*
X113045635Y-134393308D01*
X112986739Y-134173504D01*
X112890568Y-133967266D01*
X112760047Y-133780861D01*
X112760045Y-133780858D01*
X112599141Y-133619954D01*
X112412734Y-133489432D01*
X112397614Y-133482381D01*
X112345176Y-133436211D01*
X112326023Y-133369018D01*
X112346238Y-133302136D01*
X112397614Y-133257618D01*
X112412734Y-133250568D01*
X112599139Y-133120047D01*
X112760047Y-132959139D01*
X112890568Y-132772734D01*
X112986739Y-132566496D01*
X113045635Y-132346692D01*
X113065468Y-132120000D01*
X113061968Y-132080001D01*
X114264532Y-132080001D01*
X114284364Y-132306686D01*
X114284366Y-132306697D01*
X114343258Y-132526488D01*
X114343261Y-132526497D01*
X114439431Y-132732732D01*
X114439432Y-132732734D01*
X114569954Y-132919141D01*
X114730858Y-133080045D01*
X114730861Y-133080047D01*
X114917266Y-133210568D01*
X114932975Y-133217893D01*
X114985414Y-133264064D01*
X115004567Y-133331257D01*
X114984352Y-133398138D01*
X114932979Y-133442656D01*
X114917514Y-133449867D01*
X114917512Y-133449868D01*
X114844526Y-133500973D01*
X114844526Y-133500974D01*
X115525599Y-134182046D01*
X115444852Y-134194835D01*
X115331955Y-134252359D01*
X115242359Y-134341955D01*
X115184835Y-134454852D01*
X115172046Y-134535598D01*
X114490974Y-133854526D01*
X114490973Y-133854526D01*
X114439868Y-133927512D01*
X114439866Y-133927516D01*
X114343734Y-134133673D01*
X114343730Y-134133682D01*
X114284860Y-134353389D01*
X114284858Y-134353400D01*
X114265034Y-134579997D01*
X114265034Y-134580002D01*
X114284858Y-134806599D01*
X114284860Y-134806610D01*
X114343730Y-135026317D01*
X114343735Y-135026331D01*
X114439863Y-135232478D01*
X114490974Y-135305472D01*
X115172046Y-134624400D01*
X115184835Y-134705148D01*
X115242359Y-134818045D01*
X115331955Y-134907641D01*
X115444852Y-134965165D01*
X115525599Y-134977953D01*
X114844526Y-135659025D01*
X114917513Y-135710132D01*
X114917521Y-135710136D01*
X115123668Y-135806264D01*
X115123682Y-135806269D01*
X115343389Y-135865139D01*
X115343400Y-135865141D01*
X115569998Y-135884966D01*
X115570002Y-135884966D01*
X115796599Y-135865141D01*
X115796610Y-135865139D01*
X116016317Y-135806269D01*
X116016331Y-135806264D01*
X116222478Y-135710136D01*
X116295471Y-135659024D01*
X115614400Y-134977953D01*
X115695148Y-134965165D01*
X115808045Y-134907641D01*
X115897641Y-134818045D01*
X115955165Y-134705148D01*
X115967953Y-134624400D01*
X116649024Y-135305471D01*
X116700136Y-135232478D01*
X116796264Y-135026331D01*
X116796269Y-135026317D01*
X116855139Y-134806610D01*
X116855141Y-134806599D01*
X116874966Y-134580002D01*
X116874966Y-134579997D01*
X116855141Y-134353400D01*
X116855139Y-134353389D01*
X116796269Y-134133682D01*
X116796264Y-134133668D01*
X116700136Y-133927521D01*
X116700132Y-133927513D01*
X116649025Y-133854526D01*
X115967953Y-134535598D01*
X115955165Y-134454852D01*
X115897641Y-134341955D01*
X115808045Y-134252359D01*
X115695148Y-134194835D01*
X115614401Y-134182046D01*
X116295472Y-133500974D01*
X116222480Y-133449864D01*
X116207024Y-133442657D01*
X116154585Y-133396484D01*
X116135433Y-133329290D01*
X116155649Y-133262409D01*
X116207023Y-133217893D01*
X116222734Y-133210568D01*
X116409139Y-133080047D01*
X116570047Y-132919139D01*
X116700568Y-132732734D01*
X116796739Y-132526496D01*
X116855635Y-132306692D01*
X116875468Y-132080000D01*
X116875467Y-132079994D01*
X116869801Y-132015230D01*
X116855635Y-131853308D01*
X116796739Y-131633504D01*
X116700568Y-131427266D01*
X116570047Y-131240861D01*
X116570045Y-131240858D01*
X116409141Y-131079954D01*
X116222734Y-130949432D01*
X116222732Y-130949431D01*
X116016497Y-130853261D01*
X116016488Y-130853258D01*
X115796697Y-130794366D01*
X115796693Y-130794365D01*
X115796692Y-130794365D01*
X115796691Y-130794364D01*
X115796686Y-130794364D01*
X115570002Y-130774532D01*
X115569998Y-130774532D01*
X115343313Y-130794364D01*
X115343302Y-130794366D01*
X115123511Y-130853258D01*
X115123502Y-130853261D01*
X114917267Y-130949431D01*
X114917265Y-130949432D01*
X114730858Y-131079954D01*
X114569954Y-131240858D01*
X114439432Y-131427265D01*
X114439431Y-131427267D01*
X114343261Y-131633502D01*
X114343258Y-131633511D01*
X114284366Y-131853302D01*
X114284364Y-131853313D01*
X114264532Y-132079998D01*
X114264532Y-132080001D01*
X113061968Y-132080001D01*
X113061968Y-132080000D01*
X113050640Y-131950513D01*
X113045635Y-131893308D01*
X112986739Y-131673504D01*
X112890568Y-131467266D01*
X112760047Y-131280861D01*
X112760045Y-131280858D01*
X112599141Y-131119954D01*
X112412734Y-130989432D01*
X112412732Y-130989431D01*
X112206497Y-130893261D01*
X112206488Y-130893258D01*
X111986697Y-130834366D01*
X111986693Y-130834365D01*
X111986692Y-130834365D01*
X111986691Y-130834364D01*
X111986686Y-130834364D01*
X111760002Y-130814532D01*
X111759998Y-130814532D01*
X111533313Y-130834364D01*
X111533302Y-130834366D01*
X111313511Y-130893258D01*
X111313502Y-130893261D01*
X111107267Y-130989431D01*
X111107265Y-130989432D01*
X110920858Y-131119954D01*
X110759954Y-131280858D01*
X110629432Y-131467265D01*
X110629431Y-131467267D01*
X110533261Y-131673502D01*
X110533258Y-131673511D01*
X110474366Y-131893302D01*
X110474364Y-131893313D01*
X110454532Y-132119998D01*
X110454532Y-132120001D01*
X110474364Y-132346686D01*
X110474366Y-132346697D01*
X110533258Y-132566488D01*
X110533261Y-132566497D01*
X110629431Y-132772732D01*
X110629432Y-132772734D01*
X110759954Y-132959141D01*
X110920858Y-133120045D01*
X110920861Y-133120047D01*
X111107266Y-133250568D01*
X111122387Y-133257619D01*
X111174825Y-133303791D01*
X111193976Y-133370985D01*
X111173760Y-133437866D01*
X111122387Y-133482380D01*
X111107266Y-133489432D01*
X111107264Y-133489433D01*
X110920858Y-133619954D01*
X110759954Y-133780858D01*
X110629432Y-133967265D01*
X110629431Y-133967267D01*
X110533261Y-134173502D01*
X110533258Y-134173511D01*
X110474366Y-134393302D01*
X110474364Y-134393313D01*
X110454532Y-134619998D01*
X110454532Y-134620001D01*
X53340500Y-134620001D01*
X53340500Y-129068505D01*
X104955538Y-129068505D01*
X104974553Y-129297984D01*
X105031082Y-129521214D01*
X105123582Y-129732094D01*
X105249528Y-129924870D01*
X105249531Y-129924873D01*
X105405492Y-130094292D01*
X105587211Y-130235729D01*
X105789731Y-130345328D01*
X105902825Y-130384153D01*
X106007525Y-130420097D01*
X106007527Y-130420097D01*
X106007529Y-130420098D01*
X106234663Y-130458000D01*
X106234664Y-130458000D01*
X106464936Y-130458000D01*
X106464937Y-130458000D01*
X106692071Y-130420098D01*
X106909869Y-130345328D01*
X107112389Y-130235729D01*
X107294108Y-130094292D01*
X107450069Y-129924873D01*
X107576017Y-129732095D01*
X107668517Y-129521216D01*
X107725046Y-129297988D01*
X107737978Y-129141926D01*
X107744062Y-129068505D01*
X107744062Y-129068494D01*
X107725046Y-128839015D01*
X107725046Y-128839012D01*
X107668517Y-128615784D01*
X107576017Y-128404905D01*
X107565352Y-128388581D01*
X107450071Y-128212129D01*
X107370588Y-128125788D01*
X107294108Y-128042708D01*
X107183184Y-127956373D01*
X107108341Y-127898120D01*
X107109228Y-127896980D01*
X107068163Y-127848866D01*
X107058738Y-127779635D01*
X107088237Y-127716298D01*
X107108371Y-127698852D01*
X107108066Y-127698460D01*
X107140758Y-127673013D01*
X107140759Y-127673011D01*
X106518404Y-127050656D01*
X106636212Y-126999485D01*
X106752662Y-126904746D01*
X106839233Y-126782103D01*
X106870100Y-126695247D01*
X107493038Y-127318185D01*
X107575572Y-127191859D01*
X107575577Y-127191851D01*
X107668042Y-126981053D01*
X107724550Y-126757908D01*
X107724552Y-126757896D01*
X107743560Y-126528505D01*
X107743560Y-126528494D01*
X107724552Y-126299103D01*
X107724550Y-126299091D01*
X107668042Y-126075946D01*
X107575574Y-125865142D01*
X107493038Y-125738813D01*
X106872430Y-126359421D01*
X106869206Y-126343903D01*
X106800142Y-126210614D01*
X106697677Y-126100902D01*
X106569412Y-126022902D01*
X106516632Y-126008113D01*
X106794740Y-125730005D01*
X110366240Y-125730005D01*
X110385247Y-125959396D01*
X110385249Y-125959408D01*
X110441757Y-126182553D01*
X110534223Y-126393352D01*
X110616760Y-126519685D01*
X111237368Y-125899076D01*
X111240594Y-125914597D01*
X111309658Y-126047886D01*
X111412123Y-126157598D01*
X111540388Y-126235598D01*
X111593166Y-126250386D01*
X110969040Y-126874512D01*
X110969040Y-126874514D01*
X110997677Y-126896803D01*
X110997683Y-126896807D01*
X111200131Y-127006367D01*
X111200140Y-127006370D01*
X111417849Y-127081110D01*
X111644905Y-127119000D01*
X111875095Y-127119000D01*
X112102150Y-127081110D01*
X112319859Y-127006370D01*
X112319868Y-127006367D01*
X112522315Y-126896807D01*
X112522316Y-126896806D01*
X112550958Y-126874513D01*
X112550959Y-126874511D01*
X111928604Y-126252156D01*
X112046412Y-126200985D01*
X112162862Y-126106246D01*
X112249433Y-125983603D01*
X112280300Y-125896747D01*
X112903238Y-126519685D01*
X112985772Y-126393359D01*
X112985777Y-126393351D01*
X113078242Y-126182553D01*
X113134750Y-125959408D01*
X113134752Y-125959396D01*
X113153760Y-125730005D01*
X115446240Y-125730005D01*
X115465247Y-125959396D01*
X115465249Y-125959408D01*
X115521757Y-126182553D01*
X115614223Y-126393352D01*
X115696760Y-126519685D01*
X116317368Y-125899076D01*
X116320594Y-125914597D01*
X116389658Y-126047886D01*
X116492123Y-126157598D01*
X116620388Y-126235598D01*
X116673166Y-126250386D01*
X116049040Y-126874512D01*
X116049040Y-126874514D01*
X116077677Y-126896803D01*
X116077683Y-126896807D01*
X116280131Y-127006367D01*
X116280140Y-127006370D01*
X116497849Y-127081110D01*
X116724905Y-127119000D01*
X116955095Y-127119000D01*
X117182150Y-127081110D01*
X117399859Y-127006370D01*
X117399868Y-127006367D01*
X117602315Y-126896807D01*
X117602316Y-126896806D01*
X117630958Y-126874513D01*
X117630959Y-126874511D01*
X117008604Y-126252156D01*
X117126412Y-126200985D01*
X117242862Y-126106246D01*
X117329433Y-125983603D01*
X117360300Y-125896747D01*
X117983238Y-126519685D01*
X118065772Y-126393359D01*
X118065777Y-126393351D01*
X118158242Y-126182553D01*
X118214750Y-125959408D01*
X118214752Y-125959396D01*
X118233760Y-125730005D01*
X118233760Y-125729994D01*
X118214752Y-125500603D01*
X118214750Y-125500591D01*
X118158242Y-125277446D01*
X118065774Y-125066642D01*
X117983238Y-124940313D01*
X117362630Y-125560921D01*
X117359406Y-125545403D01*
X117290342Y-125412114D01*
X117187877Y-125302402D01*
X117059612Y-125224402D01*
X117006832Y-125209613D01*
X117630958Y-124585486D01*
X117630958Y-124585484D01*
X117602322Y-124563196D01*
X117602316Y-124563192D01*
X117399868Y-124453632D01*
X117399859Y-124453629D01*
X117182150Y-124378889D01*
X116955095Y-124341000D01*
X116724905Y-124341000D01*
X116497849Y-124378889D01*
X116280140Y-124453629D01*
X116280132Y-124453632D01*
X116077681Y-124563194D01*
X116049040Y-124585485D01*
X116049040Y-124585487D01*
X116671396Y-125207843D01*
X116553588Y-125259015D01*
X116437138Y-125353754D01*
X116350567Y-125476397D01*
X116319698Y-125563252D01*
X115696759Y-124940313D01*
X115614224Y-125066644D01*
X115521757Y-125277446D01*
X115465249Y-125500591D01*
X115465247Y-125500603D01*
X115446240Y-125729994D01*
X115446240Y-125730005D01*
X113153760Y-125730005D01*
X113153760Y-125729994D01*
X113134752Y-125500603D01*
X113134750Y-125500591D01*
X113078242Y-125277446D01*
X112985774Y-125066642D01*
X112903238Y-124940313D01*
X112282630Y-125560921D01*
X112279406Y-125545403D01*
X112210342Y-125412114D01*
X112107877Y-125302402D01*
X111979612Y-125224402D01*
X111926832Y-125209613D01*
X112550958Y-124585486D01*
X112550958Y-124585484D01*
X112522322Y-124563196D01*
X112522316Y-124563192D01*
X112319868Y-124453632D01*
X112319859Y-124453629D01*
X112102150Y-124378889D01*
X111875095Y-124341000D01*
X111644905Y-124341000D01*
X111417849Y-124378889D01*
X111200140Y-124453629D01*
X111200132Y-124453632D01*
X110997681Y-124563194D01*
X110969040Y-124585485D01*
X110969040Y-124585487D01*
X111591396Y-125207843D01*
X111473588Y-125259015D01*
X111357138Y-125353754D01*
X111270567Y-125476397D01*
X111239698Y-125563252D01*
X110616759Y-124940313D01*
X110534224Y-125066644D01*
X110441757Y-125277446D01*
X110385249Y-125500591D01*
X110385247Y-125500603D01*
X110366240Y-125729994D01*
X110366240Y-125730005D01*
X106794740Y-125730005D01*
X107140758Y-125383986D01*
X107140758Y-125383984D01*
X107108067Y-125358540D01*
X107109009Y-125357329D01*
X107068155Y-125309447D01*
X107058741Y-125240214D01*
X107088250Y-125176882D01*
X107108620Y-125159238D01*
X107108341Y-125158880D01*
X107153676Y-125123594D01*
X107294108Y-125014292D01*
X107450069Y-124844873D01*
X107576017Y-124652095D01*
X107668517Y-124441216D01*
X107725046Y-124217988D01*
X107733497Y-124115993D01*
X107744062Y-123988505D01*
X107744062Y-123988504D01*
X107744061Y-123988494D01*
X107740850Y-123949738D01*
X107754932Y-123881303D01*
X107803778Y-123831344D01*
X107864427Y-123815500D01*
X122451411Y-123815500D01*
X122518450Y-123835185D01*
X122564205Y-123887989D01*
X122574149Y-123957147D01*
X122564968Y-123989308D01*
X122557082Y-124007286D01*
X122500553Y-124230515D01*
X122481538Y-124459994D01*
X122481538Y-124460005D01*
X122500553Y-124689484D01*
X122557082Y-124912714D01*
X122649582Y-125123594D01*
X122775528Y-125316370D01*
X122775531Y-125316373D01*
X122931492Y-125485792D01*
X123113211Y-125627229D01*
X123315731Y-125736828D01*
X123428825Y-125775653D01*
X123533525Y-125811597D01*
X123533527Y-125811597D01*
X123533529Y-125811598D01*
X123760663Y-125849500D01*
X123760664Y-125849500D01*
X123990936Y-125849500D01*
X123990937Y-125849500D01*
X124218071Y-125811598D01*
X124435869Y-125736828D01*
X124638389Y-125627229D01*
X124820108Y-125485792D01*
X124976069Y-125316373D01*
X125102017Y-125123595D01*
X125194517Y-124912716D01*
X125251046Y-124689488D01*
X125261511Y-124563192D01*
X125270062Y-124460005D01*
X125270062Y-124459994D01*
X125251046Y-124230515D01*
X125251046Y-124230512D01*
X125194517Y-124007284D01*
X125186631Y-123989307D01*
X125177731Y-123920008D01*
X125207708Y-123856896D01*
X125267048Y-123820011D01*
X125300189Y-123815500D01*
X140303057Y-123815500D01*
X140318677Y-123817224D01*
X140318704Y-123816939D01*
X140326460Y-123817671D01*
X140326467Y-123817673D01*
X140393673Y-123815561D01*
X140397568Y-123815500D01*
X140425146Y-123815500D01*
X140425150Y-123815500D01*
X140429124Y-123814997D01*
X140440763Y-123814080D01*
X140484427Y-123812709D01*
X140503669Y-123807117D01*
X140522712Y-123803174D01*
X140542592Y-123800664D01*
X140583201Y-123784585D01*
X140594244Y-123780803D01*
X140636190Y-123768618D01*
X140653429Y-123758422D01*
X140670903Y-123749862D01*
X140689527Y-123742488D01*
X140689527Y-123742487D01*
X140689532Y-123742486D01*
X140724883Y-123716800D01*
X140734614Y-123710408D01*
X140772220Y-123688170D01*
X140786389Y-123673999D01*
X140801179Y-123661368D01*
X140817387Y-123649594D01*
X140845238Y-123615926D01*
X140853079Y-123607309D01*
X142592390Y-121867998D01*
X142653711Y-121834515D01*
X142723403Y-121839499D01*
X142779336Y-121881371D01*
X142803645Y-121945441D01*
X142820553Y-122149484D01*
X142877082Y-122372714D01*
X142969582Y-122583594D01*
X143095528Y-122776370D01*
X143095531Y-122776373D01*
X143251492Y-122945792D01*
X143273226Y-122962708D01*
X143437259Y-123090380D01*
X143436276Y-123091641D01*
X143476983Y-123139349D01*
X143486400Y-123208581D01*
X143456892Y-123271914D01*
X143436936Y-123289205D01*
X143437259Y-123289620D01*
X143251494Y-123434206D01*
X143251489Y-123434211D01*
X143095528Y-123603629D01*
X142969582Y-123796405D01*
X142877082Y-124007285D01*
X142820553Y-124230515D01*
X142801538Y-124459994D01*
X142801538Y-124460005D01*
X142820553Y-124689484D01*
X142877082Y-124912714D01*
X142969582Y-125123594D01*
X143095528Y-125316370D01*
X143095531Y-125316373D01*
X143251492Y-125485792D01*
X143328081Y-125545403D01*
X143437259Y-125630380D01*
X143436276Y-125631641D01*
X143476983Y-125679349D01*
X143486400Y-125748581D01*
X143456892Y-125811914D01*
X143436936Y-125829205D01*
X143437259Y-125829620D01*
X143251494Y-125974206D01*
X143251489Y-125974211D01*
X143095528Y-126143629D01*
X142969582Y-126336405D01*
X142877082Y-126547285D01*
X142820553Y-126770515D01*
X142801538Y-126999994D01*
X142801538Y-127000005D01*
X142820553Y-127229486D01*
X142831279Y-127271842D01*
X142828653Y-127341662D01*
X142788697Y-127398979D01*
X142724096Y-127425595D01*
X142660637Y-127415560D01*
X142519807Y-127352857D01*
X142519802Y-127352855D01*
X142356687Y-127318185D01*
X142334646Y-127313500D01*
X142145354Y-127313500D01*
X142123313Y-127318185D01*
X141960197Y-127352855D01*
X141960192Y-127352857D01*
X141787270Y-127429848D01*
X141787265Y-127429851D01*
X141634129Y-127541111D01*
X141507466Y-127681785D01*
X141412821Y-127845715D01*
X141412818Y-127845722D01*
X141376867Y-127956370D01*
X141354326Y-128025744D01*
X141334540Y-128214000D01*
X141354326Y-128402256D01*
X141354327Y-128402259D01*
X141412818Y-128582277D01*
X141412821Y-128582284D01*
X141507467Y-128746216D01*
X141591021Y-128839012D01*
X141634129Y-128886888D01*
X141787265Y-128998148D01*
X141787270Y-128998151D01*
X141960192Y-129075142D01*
X141960197Y-129075144D01*
X142145354Y-129114500D01*
X142145355Y-129114500D01*
X142334644Y-129114500D01*
X142334646Y-129114500D01*
X142519803Y-129075144D01*
X142692604Y-128998206D01*
X142761852Y-128988922D01*
X142825129Y-129018550D01*
X142862343Y-129077684D01*
X142863245Y-129141926D01*
X142820553Y-129310515D01*
X142801538Y-129539994D01*
X142801538Y-129540005D01*
X142820553Y-129769484D01*
X142820553Y-129769487D01*
X142820554Y-129769488D01*
X142857863Y-129916819D01*
X142872359Y-129974060D01*
X142869734Y-130043880D01*
X142829778Y-130101197D01*
X142765176Y-130127814D01*
X142752153Y-130128500D01*
X139954453Y-130128500D01*
X139887414Y-130108815D01*
X139866772Y-130092181D01*
X139368960Y-129594369D01*
X139335475Y-129533046D01*
X139333323Y-129519668D01*
X139315674Y-129351744D01*
X139257179Y-129171716D01*
X139162533Y-129007784D01*
X139035871Y-128867112D01*
X139035870Y-128867111D01*
X138882734Y-128755851D01*
X138882729Y-128755848D01*
X138709807Y-128678857D01*
X138709802Y-128678855D01*
X138564001Y-128647865D01*
X138524646Y-128639500D01*
X138335354Y-128639500D01*
X138302897Y-128646398D01*
X138150197Y-128678855D01*
X138150192Y-128678857D01*
X137977270Y-128755848D01*
X137977265Y-128755851D01*
X137824129Y-128867111D01*
X137697466Y-129007785D01*
X137602821Y-129171715D01*
X137602818Y-129171722D01*
X137561792Y-129297988D01*
X137544326Y-129351744D01*
X137524540Y-129540000D01*
X137544326Y-129728256D01*
X137544327Y-129728259D01*
X137602818Y-129908277D01*
X137602821Y-129908284D01*
X137697467Y-130072216D01*
X137824129Y-130212888D01*
X137977265Y-130324148D01*
X137977270Y-130324151D01*
X138150192Y-130401142D01*
X138150197Y-130401144D01*
X138335354Y-130440500D01*
X138394548Y-130440500D01*
X138461587Y-130460185D01*
X138482228Y-130476818D01*
X138815789Y-130810380D01*
X139143197Y-131137788D01*
X139153022Y-131150051D01*
X139153243Y-131149869D01*
X139158211Y-131155874D01*
X139207222Y-131201899D01*
X139210021Y-131204612D01*
X139229522Y-131224114D01*
X139229526Y-131224117D01*
X139229529Y-131224120D01*
X139232702Y-131226581D01*
X139241574Y-131234159D01*
X139273418Y-131264062D01*
X139290976Y-131273714D01*
X139307235Y-131284395D01*
X139323064Y-131296673D01*
X139363155Y-131314021D01*
X139373626Y-131319151D01*
X139396180Y-131331550D01*
X139411902Y-131340194D01*
X139411904Y-131340195D01*
X139411908Y-131340197D01*
X139431316Y-131345180D01*
X139449719Y-131351481D01*
X139468101Y-131359436D01*
X139468102Y-131359436D01*
X139468104Y-131359437D01*
X139511250Y-131366270D01*
X139522672Y-131368636D01*
X139564981Y-131379500D01*
X139585016Y-131379500D01*
X139604414Y-131381026D01*
X139624194Y-131384159D01*
X139624195Y-131384160D01*
X139624195Y-131384159D01*
X139624196Y-131384160D01*
X139667675Y-131380050D01*
X139679344Y-131379500D01*
X142795975Y-131379500D01*
X142863014Y-131399185D01*
X142908769Y-131451989D01*
X142918713Y-131521147D01*
X142909531Y-131553310D01*
X142877082Y-131627285D01*
X142820553Y-131850515D01*
X142801538Y-132079994D01*
X142801538Y-132080005D01*
X142820553Y-132309484D01*
X142877082Y-132532714D01*
X142969582Y-132743594D01*
X143095528Y-132936370D01*
X143116490Y-132959141D01*
X143251492Y-133105792D01*
X143368391Y-133196778D01*
X143437259Y-133250380D01*
X143436276Y-133251641D01*
X143476983Y-133299349D01*
X143486400Y-133368581D01*
X143456892Y-133431914D01*
X143436936Y-133449205D01*
X143437259Y-133449620D01*
X143251494Y-133594206D01*
X143251489Y-133594211D01*
X143095528Y-133763629D01*
X142969582Y-133956405D01*
X142877082Y-134167285D01*
X142820553Y-134390515D01*
X142801538Y-134619994D01*
X142801538Y-134620005D01*
X142820553Y-134849484D01*
X142877082Y-135072714D01*
X142969582Y-135283594D01*
X143095528Y-135476370D01*
X143095531Y-135476373D01*
X143251492Y-135645792D01*
X143334162Y-135710136D01*
X143379972Y-135745792D01*
X143433211Y-135787229D01*
X143635731Y-135896828D01*
X143719157Y-135925468D01*
X143853525Y-135971597D01*
X143853527Y-135971597D01*
X143853529Y-135971598D01*
X144080663Y-136009500D01*
X144080664Y-136009500D01*
X144310936Y-136009500D01*
X144310937Y-136009500D01*
X144538071Y-135971598D01*
X144755869Y-135896828D01*
X144958389Y-135787229D01*
X145140108Y-135645792D01*
X145296069Y-135476373D01*
X145422017Y-135283595D01*
X145514517Y-135072716D01*
X145571046Y-134849488D01*
X145581776Y-134719994D01*
X145590062Y-134620005D01*
X145590062Y-134619994D01*
X145571278Y-134393313D01*
X145571046Y-134390512D01*
X145514517Y-134167284D01*
X145422017Y-133956405D01*
X145403140Y-133927512D01*
X145296071Y-133763629D01*
X145232164Y-133694208D01*
X145140108Y-133594208D01*
X145046236Y-133521144D01*
X144954341Y-133449620D01*
X144955325Y-133448354D01*
X144914624Y-133400670D01*
X144905196Y-133331439D01*
X144934693Y-133268102D01*
X144954665Y-133250796D01*
X144954341Y-133250380D01*
X144965561Y-133241647D01*
X145030555Y-133216004D01*
X145041724Y-133215500D01*
X145528299Y-133215500D01*
X145595338Y-133235185D01*
X145615980Y-133251819D01*
X150352718Y-137988557D01*
X150366050Y-138004319D01*
X150367943Y-138006978D01*
X150435565Y-138071455D01*
X150437637Y-138073477D01*
X150455347Y-138091187D01*
X150465327Y-138101167D01*
X150465340Y-138101178D01*
X150472350Y-138106966D01*
X150478977Y-138112847D01*
X150524888Y-138156623D01*
X150552986Y-138174680D01*
X150564875Y-138183361D01*
X150590648Y-138204641D01*
X150590652Y-138204644D01*
X150626413Y-138224170D01*
X150646348Y-138235055D01*
X150653942Y-138239561D01*
X150707317Y-138273863D01*
X150738318Y-138286273D01*
X150751660Y-138292560D01*
X150780973Y-138308567D01*
X150780972Y-138308567D01*
X150799528Y-138314498D01*
X150841432Y-138327893D01*
X150849726Y-138330875D01*
X150908638Y-138354460D01*
X150941434Y-138360780D01*
X150955721Y-138364427D01*
X150987534Y-138374597D01*
X150987536Y-138374597D01*
X150987539Y-138374598D01*
X151016408Y-138378049D01*
X151050534Y-138382129D01*
X151059244Y-138383486D01*
X151121573Y-138395500D01*
X151154972Y-138395500D01*
X151169692Y-138396377D01*
X151174032Y-138396895D01*
X151202855Y-138400342D01*
X151266138Y-138395816D01*
X151274983Y-138395500D01*
X152216076Y-138395500D01*
X152283115Y-138415185D01*
X152292239Y-138421647D01*
X152299411Y-138427229D01*
X152501931Y-138536828D01*
X152615025Y-138575653D01*
X152719725Y-138611597D01*
X152719727Y-138611597D01*
X152719729Y-138611598D01*
X152946863Y-138649500D01*
X152946864Y-138649500D01*
X153177136Y-138649500D01*
X153177137Y-138649500D01*
X153404271Y-138611598D01*
X153622069Y-138536828D01*
X153824589Y-138427229D01*
X154006308Y-138285792D01*
X154162269Y-138116373D01*
X154288217Y-137923595D01*
X154380717Y-137712716D01*
X154437246Y-137489488D01*
X154456262Y-137260000D01*
X154437246Y-137030512D01*
X154380717Y-136807284D01*
X154288217Y-136596405D01*
X154162271Y-136403629D01*
X154135355Y-136374390D01*
X154006308Y-136234208D01*
X153864707Y-136123996D01*
X153820541Y-136089620D01*
X153821525Y-136088354D01*
X153780824Y-136040670D01*
X153771396Y-135971439D01*
X153800893Y-135908102D01*
X153820865Y-135890796D01*
X153820541Y-135890380D01*
X153876612Y-135846738D01*
X154006308Y-135745792D01*
X154162269Y-135576373D01*
X154288217Y-135383595D01*
X154380717Y-135172716D01*
X154437246Y-134949488D01*
X154456262Y-134720000D01*
X154455031Y-134705148D01*
X154437246Y-134490515D01*
X154437246Y-134490512D01*
X154380717Y-134267284D01*
X154288217Y-134056405D01*
X154162271Y-133863629D01*
X154135355Y-133834390D01*
X154006308Y-133694208D01*
X153877831Y-133594211D01*
X153820541Y-133549620D01*
X153821525Y-133548354D01*
X153780824Y-133500670D01*
X153771396Y-133431439D01*
X153800893Y-133368102D01*
X153820865Y-133350796D01*
X153820541Y-133350380D01*
X153880398Y-133303791D01*
X154006308Y-133205792D01*
X154162269Y-133036373D01*
X154288217Y-132843595D01*
X154380717Y-132632716D01*
X154437246Y-132409488D01*
X154456262Y-132180000D01*
X154451290Y-132120001D01*
X154437246Y-131950515D01*
X154437246Y-131950512D01*
X154380717Y-131727284D01*
X154288217Y-131516405D01*
X154246132Y-131451989D01*
X154162271Y-131323629D01*
X154122897Y-131280858D01*
X154006308Y-131154208D01*
X153824589Y-131012771D01*
X153824590Y-131012771D01*
X153820541Y-131009620D01*
X153821525Y-131008354D01*
X153780824Y-130960670D01*
X153771396Y-130891439D01*
X153800893Y-130828102D01*
X153820865Y-130810796D01*
X153820541Y-130810380D01*
X153866598Y-130774532D01*
X154006308Y-130665792D01*
X154162269Y-130496373D01*
X154288217Y-130303595D01*
X154380717Y-130092716D01*
X154437246Y-129869488D01*
X154456262Y-129640000D01*
X154453971Y-129612355D01*
X154437246Y-129410515D01*
X154437246Y-129410512D01*
X154380717Y-129187284D01*
X154288217Y-128976405D01*
X154222884Y-128876405D01*
X154162271Y-128783629D01*
X154127828Y-128746214D01*
X154006308Y-128614208D01*
X153824589Y-128472771D01*
X153824590Y-128472771D01*
X153820541Y-128469620D01*
X153821525Y-128468354D01*
X153780824Y-128420670D01*
X153771396Y-128351439D01*
X153800893Y-128288102D01*
X153820865Y-128270796D01*
X153820541Y-128270380D01*
X153857174Y-128241866D01*
X154006308Y-128125792D01*
X154162269Y-127956373D01*
X154288217Y-127763595D01*
X154380717Y-127552716D01*
X154437246Y-127329488D01*
X154456262Y-127100000D01*
X154454157Y-127074600D01*
X154439425Y-126896806D01*
X154437246Y-126870512D01*
X154380717Y-126647284D01*
X154288217Y-126436405D01*
X154260089Y-126393352D01*
X154162271Y-126243629D01*
X154070214Y-126143629D01*
X154006308Y-126074208D01*
X153908019Y-125997707D01*
X153824591Y-125932772D01*
X153622069Y-125823172D01*
X153622061Y-125823169D01*
X153404274Y-125748402D01*
X153233920Y-125719975D01*
X153177137Y-125710500D01*
X152946863Y-125710500D01*
X152901436Y-125718080D01*
X152719725Y-125748402D01*
X152501938Y-125823169D01*
X152501930Y-125823172D01*
X152299408Y-125932772D01*
X152117694Y-126074206D01*
X152117689Y-126074211D01*
X151961728Y-126243629D01*
X151835782Y-126436405D01*
X151743282Y-126647285D01*
X151686753Y-126870515D01*
X151667738Y-127099994D01*
X151667738Y-127100005D01*
X151686753Y-127329484D01*
X151743282Y-127552714D01*
X151835782Y-127763594D01*
X151961728Y-127956370D01*
X151961731Y-127956373D01*
X152117692Y-128125792D01*
X152228616Y-128212127D01*
X152303459Y-128270380D01*
X152302476Y-128271641D01*
X152343183Y-128319349D01*
X152352600Y-128388581D01*
X152323092Y-128451914D01*
X152303136Y-128469205D01*
X152303459Y-128469620D01*
X152117694Y-128614206D01*
X152117689Y-128614211D01*
X151961728Y-128783629D01*
X151847598Y-128958321D01*
X151794452Y-129003678D01*
X151743789Y-129014500D01*
X147095452Y-129014500D01*
X147028413Y-128994815D01*
X147007771Y-128978181D01*
X146434495Y-128404905D01*
X145859803Y-127830212D01*
X145849980Y-127817950D01*
X145849759Y-127818134D01*
X145844786Y-127812122D01*
X145795776Y-127766099D01*
X145792977Y-127763386D01*
X145773477Y-127743885D01*
X145773471Y-127743880D01*
X145770286Y-127741409D01*
X145761434Y-127733848D01*
X145729582Y-127703938D01*
X145729580Y-127703936D01*
X145729577Y-127703935D01*
X145712029Y-127694288D01*
X145695763Y-127683604D01*
X145682109Y-127673013D01*
X145679936Y-127671327D01*
X145679935Y-127671326D01*
X145679932Y-127671324D01*
X145639849Y-127653978D01*
X145629363Y-127648841D01*
X145591094Y-127627803D01*
X145583841Y-127624932D01*
X145584680Y-127622811D01*
X145534522Y-127592943D01*
X145503346Y-127530414D01*
X145510926Y-127460957D01*
X145511806Y-127458895D01*
X145514517Y-127452716D01*
X145571046Y-127229488D01*
X145583341Y-127081110D01*
X145590062Y-127000005D01*
X145590062Y-126999994D01*
X145571046Y-126770515D01*
X145571046Y-126770512D01*
X145514517Y-126547284D01*
X145422017Y-126336405D01*
X145296071Y-126143629D01*
X145232164Y-126074208D01*
X145140108Y-125974208D01*
X144999982Y-125865144D01*
X144954341Y-125829620D01*
X144955325Y-125828354D01*
X144914624Y-125780670D01*
X144905196Y-125711439D01*
X144934693Y-125648102D01*
X144954665Y-125630796D01*
X144954341Y-125630380D01*
X145063519Y-125545403D01*
X145140108Y-125485792D01*
X145296069Y-125316373D01*
X145422017Y-125123595D01*
X145514517Y-124912716D01*
X145571046Y-124689488D01*
X145579574Y-124586558D01*
X145604728Y-124521375D01*
X145615462Y-124509126D01*
X154605788Y-115518801D01*
X154618042Y-115508986D01*
X154617859Y-115508764D01*
X154623868Y-115503791D01*
X154623877Y-115503786D01*
X154669949Y-115454722D01*
X154672566Y-115452023D01*
X154692120Y-115432471D01*
X154694576Y-115429303D01*
X154702156Y-115420427D01*
X154732062Y-115388582D01*
X154741713Y-115371024D01*
X154752396Y-115354761D01*
X154764673Y-115338936D01*
X154782021Y-115298844D01*
X154787151Y-115288371D01*
X154808197Y-115250092D01*
X154813180Y-115230680D01*
X154819481Y-115212280D01*
X154827437Y-115193896D01*
X154834270Y-115150748D01*
X154836633Y-115139338D01*
X154847500Y-115097019D01*
X154847500Y-115076983D01*
X154849027Y-115057582D01*
X154852160Y-115037804D01*
X154848050Y-114994324D01*
X154847500Y-114982655D01*
X154847500Y-104240005D01*
X177013738Y-104240005D01*
X177032753Y-104469484D01*
X177089282Y-104692714D01*
X177181782Y-104903594D01*
X177307728Y-105096370D01*
X177307731Y-105096373D01*
X177463692Y-105265792D01*
X177520979Y-105310380D01*
X177583894Y-105359349D01*
X177645411Y-105407229D01*
X177847931Y-105516828D01*
X177937599Y-105547611D01*
X178065725Y-105591597D01*
X178065727Y-105591597D01*
X178065729Y-105591598D01*
X178292863Y-105629500D01*
X178292864Y-105629500D01*
X178523136Y-105629500D01*
X178523137Y-105629500D01*
X178750271Y-105591598D01*
X178968069Y-105516828D01*
X179170589Y-105407229D01*
X179352308Y-105265792D01*
X179508269Y-105096373D01*
X179634217Y-104903595D01*
X179726717Y-104692716D01*
X179783246Y-104469488D01*
X179791697Y-104367493D01*
X179802262Y-104240005D01*
X179802262Y-104239994D01*
X179789584Y-104087008D01*
X179783246Y-104010512D01*
X179726717Y-103787284D01*
X179634217Y-103576405D01*
X179603033Y-103528674D01*
X179508271Y-103383629D01*
X179416214Y-103283629D01*
X179352308Y-103214208D01*
X179223831Y-103114211D01*
X179166541Y-103069620D01*
X179167525Y-103068354D01*
X179126824Y-103020670D01*
X179117396Y-102951439D01*
X179146893Y-102888102D01*
X179166865Y-102870796D01*
X179166541Y-102870380D01*
X179232105Y-102819349D01*
X179352308Y-102725792D01*
X179508269Y-102556373D01*
X179634217Y-102363595D01*
X179726717Y-102152716D01*
X179783246Y-101929488D01*
X179802262Y-101700000D01*
X179783246Y-101470512D01*
X179726717Y-101247284D01*
X179634217Y-101036405D01*
X179534104Y-100883170D01*
X179508271Y-100843629D01*
X179416214Y-100743629D01*
X179352308Y-100674208D01*
X179223831Y-100574211D01*
X179166541Y-100529620D01*
X179167525Y-100528354D01*
X179126824Y-100480670D01*
X179117396Y-100411439D01*
X179146893Y-100348102D01*
X179166865Y-100330796D01*
X179166541Y-100330380D01*
X179261734Y-100256288D01*
X179352308Y-100185792D01*
X179508269Y-100016373D01*
X179634217Y-99823595D01*
X179726717Y-99612716D01*
X179783246Y-99389488D01*
X179793918Y-99260700D01*
X179802262Y-99160005D01*
X179802262Y-99159994D01*
X179783246Y-98930515D01*
X179783246Y-98930512D01*
X179726717Y-98707284D01*
X179634217Y-98496405D01*
X179613279Y-98464357D01*
X179508271Y-98303629D01*
X179416214Y-98203629D01*
X179352308Y-98134208D01*
X179223831Y-98034211D01*
X179166541Y-97989620D01*
X179167525Y-97988354D01*
X179126824Y-97940670D01*
X179117396Y-97871439D01*
X179146893Y-97808102D01*
X179166865Y-97790796D01*
X179166541Y-97790380D01*
X179232105Y-97739349D01*
X179352308Y-97645792D01*
X179508269Y-97476373D01*
X179634217Y-97283595D01*
X179726717Y-97072716D01*
X179783246Y-96849488D01*
X179797185Y-96681274D01*
X179802262Y-96620005D01*
X179802262Y-96619994D01*
X179783694Y-96395919D01*
X179783246Y-96390512D01*
X179726717Y-96167284D01*
X179634217Y-95956405D01*
X179508271Y-95763629D01*
X179481355Y-95734390D01*
X179352308Y-95594208D01*
X179223831Y-95494211D01*
X179166541Y-95449620D01*
X179167525Y-95448354D01*
X179126824Y-95400670D01*
X179117396Y-95331439D01*
X179146893Y-95268102D01*
X179166865Y-95250796D01*
X179166541Y-95250380D01*
X179261734Y-95176288D01*
X179352308Y-95105792D01*
X179508269Y-94936373D01*
X179634217Y-94743595D01*
X179726717Y-94532716D01*
X179783246Y-94309488D01*
X179802262Y-94080000D01*
X179783246Y-93850512D01*
X179726717Y-93627284D01*
X179634217Y-93416405D01*
X179534104Y-93263170D01*
X179508271Y-93223629D01*
X179481355Y-93194390D01*
X179352308Y-93054208D01*
X179284036Y-93001070D01*
X179170591Y-92912772D01*
X178968069Y-92803172D01*
X178968061Y-92803169D01*
X178750274Y-92728402D01*
X178579920Y-92699975D01*
X178523137Y-92690500D01*
X178292863Y-92690500D01*
X178247436Y-92698080D01*
X178065725Y-92728402D01*
X177847938Y-92803169D01*
X177847930Y-92803172D01*
X177645408Y-92912772D01*
X177463694Y-93054206D01*
X177463689Y-93054211D01*
X177307728Y-93223629D01*
X177181782Y-93416405D01*
X177089282Y-93627285D01*
X177032753Y-93850515D01*
X177013738Y-94079994D01*
X177013738Y-94080005D01*
X177032753Y-94309484D01*
X177089282Y-94532714D01*
X177181782Y-94743594D01*
X177307728Y-94936370D01*
X177307731Y-94936373D01*
X177463692Y-95105792D01*
X177554266Y-95176288D01*
X177649459Y-95250380D01*
X177648476Y-95251641D01*
X177689183Y-95299349D01*
X177698600Y-95368581D01*
X177669092Y-95431914D01*
X177649136Y-95449205D01*
X177649459Y-95449620D01*
X177463694Y-95594206D01*
X177463689Y-95594211D01*
X177307728Y-95763629D01*
X177181782Y-95956405D01*
X177089282Y-96167285D01*
X177032753Y-96390515D01*
X177013738Y-96619994D01*
X177013738Y-96620005D01*
X177032753Y-96849484D01*
X177089282Y-97072714D01*
X177181782Y-97283594D01*
X177307728Y-97476370D01*
X177307731Y-97476373D01*
X177463692Y-97645792D01*
X177554258Y-97716282D01*
X177649459Y-97790380D01*
X177648476Y-97791641D01*
X177689183Y-97839349D01*
X177698600Y-97908581D01*
X177669092Y-97971914D01*
X177649136Y-97989205D01*
X177649459Y-97989620D01*
X177463694Y-98134206D01*
X177463689Y-98134211D01*
X177307728Y-98303629D01*
X177181782Y-98496405D01*
X177089282Y-98707285D01*
X177032753Y-98930515D01*
X177013738Y-99159994D01*
X177013738Y-99160005D01*
X177032753Y-99389484D01*
X177089282Y-99612714D01*
X177181782Y-99823594D01*
X177307728Y-100016370D01*
X177307731Y-100016373D01*
X177463692Y-100185792D01*
X177554266Y-100256288D01*
X177649459Y-100330380D01*
X177648476Y-100331641D01*
X177689183Y-100379349D01*
X177698600Y-100448581D01*
X177669092Y-100511914D01*
X177649136Y-100529205D01*
X177649459Y-100529620D01*
X177463694Y-100674206D01*
X177463689Y-100674211D01*
X177307728Y-100843629D01*
X177181782Y-101036405D01*
X177089282Y-101247285D01*
X177032753Y-101470515D01*
X177013738Y-101699994D01*
X177013738Y-101700005D01*
X177032753Y-101929484D01*
X177089282Y-102152714D01*
X177181782Y-102363594D01*
X177307728Y-102556370D01*
X177348102Y-102600227D01*
X177463692Y-102725792D01*
X177554163Y-102796208D01*
X177649459Y-102870380D01*
X177648476Y-102871641D01*
X177689183Y-102919349D01*
X177698600Y-102988581D01*
X177669092Y-103051914D01*
X177649136Y-103069205D01*
X177649459Y-103069620D01*
X177463694Y-103214206D01*
X177463689Y-103214211D01*
X177307728Y-103383629D01*
X177181782Y-103576405D01*
X177089282Y-103787285D01*
X177032753Y-104010515D01*
X177013738Y-104239994D01*
X177013738Y-104240005D01*
X154847500Y-104240005D01*
X154847500Y-102996737D01*
X154849224Y-102981123D01*
X154848938Y-102981096D01*
X154849672Y-102973333D01*
X154847561Y-102906144D01*
X154847500Y-102902250D01*
X154847500Y-102874651D01*
X154847500Y-102874650D01*
X154846997Y-102870670D01*
X154846080Y-102859021D01*
X154844709Y-102815373D01*
X154840068Y-102799401D01*
X154839122Y-102796144D01*
X154835174Y-102777084D01*
X154832664Y-102757208D01*
X154816585Y-102716597D01*
X154812804Y-102705552D01*
X154800619Y-102663612D01*
X154790418Y-102646363D01*
X154781860Y-102628894D01*
X154774486Y-102610268D01*
X154774483Y-102610264D01*
X154774483Y-102610263D01*
X154748816Y-102574935D01*
X154742403Y-102565172D01*
X154720172Y-102527583D01*
X154720170Y-102527579D01*
X154720166Y-102527575D01*
X154720163Y-102527571D01*
X154706005Y-102513413D01*
X154693370Y-102498620D01*
X154681593Y-102482412D01*
X154647945Y-102454576D01*
X154639304Y-102446713D01*
X154380294Y-102187703D01*
X154346809Y-102126380D01*
X154347769Y-102069581D01*
X154352040Y-102052716D01*
X154383246Y-101929488D01*
X154385404Y-101903444D01*
X154402262Y-101700005D01*
X154402262Y-101699994D01*
X154383246Y-101470515D01*
X154383246Y-101470512D01*
X154326717Y-101247284D01*
X154234217Y-101036405D01*
X154134104Y-100883170D01*
X154108271Y-100843629D01*
X154016214Y-100743629D01*
X153952308Y-100674208D01*
X153823831Y-100574211D01*
X153766541Y-100529620D01*
X153767525Y-100528354D01*
X153726824Y-100480670D01*
X153717396Y-100411439D01*
X153746893Y-100348102D01*
X153766865Y-100330796D01*
X153766541Y-100330380D01*
X153861734Y-100256288D01*
X153952308Y-100185792D01*
X154108269Y-100016373D01*
X154234217Y-99823595D01*
X154326717Y-99612716D01*
X154383246Y-99389488D01*
X154393918Y-99260700D01*
X154402262Y-99160005D01*
X154402262Y-99159994D01*
X154383246Y-98930515D01*
X154383246Y-98930512D01*
X154326717Y-98707284D01*
X154234217Y-98496405D01*
X154213279Y-98464357D01*
X154108271Y-98303629D01*
X154016214Y-98203629D01*
X153952308Y-98134208D01*
X153823831Y-98034211D01*
X153766541Y-97989620D01*
X153767525Y-97988354D01*
X153726824Y-97940670D01*
X153717396Y-97871439D01*
X153746893Y-97808102D01*
X153766865Y-97790796D01*
X153766541Y-97790380D01*
X153832105Y-97739349D01*
X153952308Y-97645792D01*
X154108269Y-97476373D01*
X154234217Y-97283595D01*
X154326717Y-97072716D01*
X154383246Y-96849488D01*
X154397185Y-96681274D01*
X154402262Y-96620005D01*
X154402262Y-96619994D01*
X154383694Y-96395919D01*
X154383246Y-96390512D01*
X154326717Y-96167284D01*
X154234217Y-95956405D01*
X154108271Y-95763629D01*
X154081355Y-95734390D01*
X153952308Y-95594208D01*
X153823831Y-95494211D01*
X153766541Y-95449620D01*
X153767525Y-95448354D01*
X153726824Y-95400670D01*
X153717396Y-95331439D01*
X153746893Y-95268102D01*
X153766865Y-95250796D01*
X153766541Y-95250380D01*
X153861734Y-95176288D01*
X153952308Y-95105792D01*
X154108269Y-94936373D01*
X154234217Y-94743595D01*
X154326717Y-94532716D01*
X154383246Y-94309488D01*
X154402262Y-94080000D01*
X154383246Y-93850512D01*
X154326717Y-93627284D01*
X154234217Y-93416405D01*
X154134104Y-93263170D01*
X154108271Y-93223629D01*
X154081355Y-93194390D01*
X153952308Y-93054208D01*
X153884036Y-93001070D01*
X153770591Y-92912772D01*
X153568069Y-92803172D01*
X153568061Y-92803169D01*
X153350274Y-92728402D01*
X153179920Y-92699975D01*
X153123137Y-92690500D01*
X152892863Y-92690500D01*
X152847436Y-92698080D01*
X152665725Y-92728402D01*
X152447938Y-92803169D01*
X152447930Y-92803172D01*
X152245408Y-92912772D01*
X152063694Y-93054206D01*
X152063689Y-93054211D01*
X151907728Y-93223629D01*
X151793598Y-93398321D01*
X151740452Y-93443678D01*
X151689789Y-93454500D01*
X144127737Y-93454500D01*
X144112120Y-93452776D01*
X144112093Y-93453062D01*
X144104331Y-93452327D01*
X144037144Y-93454439D01*
X144033250Y-93454500D01*
X144005650Y-93454500D01*
X144001962Y-93454965D01*
X144001649Y-93455005D01*
X143990031Y-93455918D01*
X143946377Y-93457290D01*
X143946367Y-93457292D01*
X143927134Y-93462879D01*
X143908094Y-93466822D01*
X143888217Y-93469334D01*
X143888210Y-93469335D01*
X143888208Y-93469336D01*
X143888206Y-93469336D01*
X143888205Y-93469337D01*
X143847584Y-93485419D01*
X143836537Y-93489201D01*
X143794611Y-93501382D01*
X143794608Y-93501383D01*
X143777363Y-93511581D01*
X143759901Y-93520135D01*
X143741272Y-93527511D01*
X143741267Y-93527514D01*
X143705926Y-93553189D01*
X143696168Y-93559599D01*
X143658580Y-93581828D01*
X143644408Y-93596000D01*
X143629623Y-93608628D01*
X143613412Y-93620407D01*
X143585571Y-93654059D01*
X143577711Y-93662696D01*
X139951208Y-97289199D01*
X139938951Y-97299020D01*
X139939134Y-97299241D01*
X139933122Y-97304214D01*
X139887098Y-97353223D01*
X139884391Y-97356016D01*
X139864889Y-97375517D01*
X139864875Y-97375534D01*
X139862407Y-97378715D01*
X139854843Y-97387570D01*
X139824937Y-97419418D01*
X139824936Y-97419420D01*
X139815284Y-97436976D01*
X139804610Y-97453226D01*
X139792329Y-97469061D01*
X139792324Y-97469068D01*
X139774975Y-97509158D01*
X139769838Y-97519644D01*
X139748803Y-97557906D01*
X139743822Y-97577307D01*
X139737521Y-97595710D01*
X139729562Y-97614102D01*
X139729561Y-97614105D01*
X139722728Y-97657243D01*
X139720360Y-97668674D01*
X139709501Y-97710971D01*
X139709500Y-97710982D01*
X139709500Y-97731016D01*
X139707973Y-97750415D01*
X139704840Y-97770194D01*
X139704840Y-97770195D01*
X139708950Y-97813674D01*
X139709500Y-97825343D01*
X139709500Y-111061312D01*
X139689815Y-111128351D01*
X139677650Y-111144284D01*
X139602466Y-111227784D01*
X139507821Y-111391715D01*
X139507818Y-111391722D01*
X139462723Y-111530512D01*
X139449326Y-111571744D01*
X139429540Y-111760000D01*
X139449326Y-111948256D01*
X139449327Y-111948259D01*
X139507818Y-112128277D01*
X139507820Y-112128281D01*
X139507821Y-112128284D01*
X139533192Y-112172228D01*
X139592239Y-112274501D01*
X139608711Y-112342401D01*
X139585858Y-112408428D01*
X139530936Y-112451618D01*
X139484851Y-112460500D01*
X128001452Y-112460500D01*
X127934413Y-112440815D01*
X127913771Y-112424181D01*
X127661819Y-112172228D01*
X127628334Y-112110905D01*
X127625500Y-112084547D01*
X127625500Y-104806942D01*
X127627224Y-104791322D01*
X127626939Y-104791296D01*
X127627671Y-104783540D01*
X127627673Y-104783533D01*
X127625561Y-104716326D01*
X127625500Y-104712431D01*
X127625500Y-104684854D01*
X127625500Y-104684850D01*
X127624996Y-104680865D01*
X127624080Y-104669221D01*
X127622709Y-104625573D01*
X127617122Y-104606344D01*
X127613174Y-104587284D01*
X127610664Y-104567408D01*
X127610663Y-104567406D01*
X127610663Y-104567404D01*
X127594588Y-104526804D01*
X127590804Y-104515752D01*
X127578618Y-104473809D01*
X127578616Y-104473806D01*
X127568423Y-104456571D01*
X127559861Y-104439094D01*
X127552487Y-104420469D01*
X127526816Y-104385137D01*
X127520405Y-104375377D01*
X127498170Y-104337780D01*
X127498168Y-104337778D01*
X127498165Y-104337774D01*
X127484006Y-104323615D01*
X127471368Y-104308819D01*
X127459594Y-104292613D01*
X127425940Y-104264772D01*
X127417299Y-104256909D01*
X125248094Y-102087703D01*
X125214609Y-102026380D01*
X125215569Y-101969581D01*
X125225723Y-101929484D01*
X125251046Y-101829488D01*
X125255386Y-101777113D01*
X125270062Y-101600005D01*
X125270062Y-101599994D01*
X125253228Y-101396841D01*
X125251046Y-101370512D01*
X125194517Y-101147284D01*
X125102017Y-100936405D01*
X125067237Y-100883170D01*
X124976071Y-100743629D01*
X124949155Y-100714390D01*
X124820108Y-100574208D01*
X124638389Y-100432771D01*
X124638390Y-100432771D01*
X124634341Y-100429620D01*
X124635325Y-100428354D01*
X124594624Y-100380670D01*
X124585196Y-100311439D01*
X124614693Y-100248102D01*
X124634665Y-100230796D01*
X124634341Y-100230380D01*
X124691627Y-100185792D01*
X124820108Y-100085792D01*
X124976069Y-99916373D01*
X125102017Y-99723595D01*
X125194517Y-99512716D01*
X125251046Y-99289488D01*
X125270062Y-99060000D01*
X125251046Y-98830512D01*
X125194517Y-98607284D01*
X125102017Y-98396405D01*
X125066639Y-98342255D01*
X124976071Y-98203629D01*
X124941347Y-98165909D01*
X124820108Y-98034208D01*
X124714045Y-97951656D01*
X124634341Y-97889620D01*
X124635325Y-97888354D01*
X124594624Y-97840670D01*
X124585196Y-97771439D01*
X124614693Y-97708102D01*
X124634665Y-97690796D01*
X124634341Y-97690380D01*
X124691627Y-97645792D01*
X124820108Y-97545792D01*
X124976069Y-97376373D01*
X125102017Y-97183595D01*
X125194517Y-96972716D01*
X125251046Y-96749488D01*
X125261776Y-96619994D01*
X125270062Y-96520005D01*
X125270062Y-96519994D01*
X125251046Y-96290515D01*
X125251046Y-96290512D01*
X125194517Y-96067284D01*
X125102017Y-95856405D01*
X125100102Y-95853474D01*
X124976071Y-95663629D01*
X124935447Y-95619500D01*
X124820108Y-95494208D01*
X124699930Y-95400670D01*
X124638391Y-95352772D01*
X124435869Y-95243172D01*
X124435861Y-95243169D01*
X124218074Y-95168402D01*
X124047720Y-95139975D01*
X123990937Y-95130500D01*
X123760663Y-95130500D01*
X123715236Y-95138080D01*
X123533525Y-95168402D01*
X123315738Y-95243169D01*
X123315730Y-95243172D01*
X123113208Y-95352772D01*
X122931494Y-95494206D01*
X122931489Y-95494211D01*
X122775531Y-95663627D01*
X122685151Y-95801964D01*
X122632004Y-95847320D01*
X122562773Y-95856744D01*
X122508457Y-95834460D01*
X122372734Y-95735851D01*
X122372729Y-95735848D01*
X122199807Y-95658857D01*
X122199802Y-95658855D01*
X122054001Y-95627865D01*
X122014646Y-95619500D01*
X121825354Y-95619500D01*
X121792897Y-95626398D01*
X121640197Y-95658855D01*
X121640192Y-95658857D01*
X121467270Y-95735848D01*
X121467265Y-95735851D01*
X121314130Y-95847110D01*
X121314126Y-95847114D01*
X121308400Y-95853474D01*
X121248913Y-95890121D01*
X121216252Y-95894500D01*
X119965534Y-95894500D01*
X119898495Y-95874815D01*
X119852740Y-95822011D01*
X119842796Y-95752853D01*
X119861724Y-95702680D01*
X119922017Y-95610395D01*
X120014517Y-95399516D01*
X120071046Y-95176288D01*
X120080847Y-95058011D01*
X120090062Y-94946805D01*
X120090062Y-94946794D01*
X120071046Y-94717315D01*
X120071046Y-94717312D01*
X120014517Y-94494084D01*
X119922017Y-94283205D01*
X119796071Y-94090429D01*
X119769155Y-94061190D01*
X119640108Y-93921008D01*
X119458389Y-93779571D01*
X119458390Y-93779571D01*
X119454341Y-93776420D01*
X119455325Y-93775154D01*
X119414624Y-93727470D01*
X119405196Y-93658239D01*
X119434693Y-93594902D01*
X119454665Y-93577596D01*
X119454341Y-93577180D01*
X119490974Y-93548666D01*
X119640108Y-93432592D01*
X119796069Y-93263173D01*
X119922017Y-93070395D01*
X120014517Y-92859516D01*
X120071046Y-92636288D01*
X120090062Y-92406800D01*
X120071046Y-92177312D01*
X120014517Y-91954084D01*
X119922017Y-91743205D01*
X119796071Y-91550429D01*
X119769155Y-91521190D01*
X119640108Y-91381008D01*
X119458389Y-91239571D01*
X119458390Y-91239571D01*
X119454341Y-91236420D01*
X119455325Y-91235154D01*
X119414624Y-91187470D01*
X119405196Y-91118239D01*
X119434693Y-91054902D01*
X119454665Y-91037596D01*
X119454341Y-91037180D01*
X119490974Y-91008666D01*
X119640108Y-90892592D01*
X119796069Y-90723173D01*
X119922017Y-90530395D01*
X120014517Y-90319516D01*
X120071046Y-90096288D01*
X120090062Y-89866800D01*
X120071046Y-89637312D01*
X120014517Y-89414084D01*
X119922017Y-89203205D01*
X119796071Y-89010429D01*
X119769155Y-88981190D01*
X119640108Y-88841008D01*
X119571836Y-88787870D01*
X119458391Y-88699572D01*
X119255869Y-88589972D01*
X119255861Y-88589969D01*
X119038074Y-88515202D01*
X118867720Y-88486775D01*
X118810937Y-88477300D01*
X118580663Y-88477300D01*
X118535236Y-88484880D01*
X118353525Y-88515202D01*
X118135738Y-88589969D01*
X118135730Y-88589972D01*
X117933208Y-88699572D01*
X117751494Y-88841006D01*
X117751489Y-88841011D01*
X117595528Y-89010429D01*
X117469582Y-89203205D01*
X117377082Y-89414085D01*
X117320553Y-89637315D01*
X117301538Y-89866794D01*
X117301538Y-89866805D01*
X117320553Y-90096284D01*
X117377082Y-90319514D01*
X117469582Y-90530394D01*
X117595528Y-90723170D01*
X117595531Y-90723173D01*
X117751492Y-90892592D01*
X117868391Y-90983578D01*
X117937259Y-91037180D01*
X117936276Y-91038441D01*
X117976983Y-91086149D01*
X117986400Y-91155381D01*
X117956892Y-91218714D01*
X117936936Y-91236005D01*
X117937259Y-91236420D01*
X117751494Y-91381006D01*
X117751489Y-91381011D01*
X117595528Y-91550429D01*
X117469582Y-91743205D01*
X117377082Y-91954085D01*
X117320553Y-92177315D01*
X117301538Y-92406794D01*
X117301538Y-92406805D01*
X117320553Y-92636284D01*
X117377082Y-92859514D01*
X117469582Y-93070394D01*
X117595528Y-93263170D01*
X117595531Y-93263173D01*
X117751492Y-93432592D01*
X117859355Y-93516545D01*
X117937259Y-93577180D01*
X117936276Y-93578441D01*
X117976983Y-93626149D01*
X117986400Y-93695381D01*
X117956892Y-93758714D01*
X117936936Y-93776005D01*
X117937259Y-93776420D01*
X117751494Y-93921006D01*
X117751489Y-93921011D01*
X117595528Y-94090429D01*
X117469582Y-94283205D01*
X117377082Y-94494085D01*
X117320553Y-94717315D01*
X117301538Y-94946794D01*
X117301538Y-94946805D01*
X117320553Y-95176284D01*
X117356030Y-95316381D01*
X117353405Y-95386201D01*
X117323505Y-95434502D01*
X116456208Y-96301799D01*
X116443951Y-96311620D01*
X116444134Y-96311841D01*
X116438122Y-96316814D01*
X116392098Y-96365823D01*
X116389391Y-96368616D01*
X116369889Y-96388117D01*
X116369875Y-96388134D01*
X116367407Y-96391315D01*
X116359843Y-96400170D01*
X116329937Y-96432018D01*
X116329936Y-96432020D01*
X116320284Y-96449576D01*
X116309610Y-96465826D01*
X116297329Y-96481661D01*
X116297324Y-96481668D01*
X116279975Y-96521758D01*
X116274838Y-96532244D01*
X116253803Y-96570506D01*
X116248822Y-96589907D01*
X116242521Y-96608310D01*
X116234562Y-96626702D01*
X116234561Y-96626705D01*
X116227728Y-96669843D01*
X116225360Y-96681274D01*
X116214501Y-96723571D01*
X116214500Y-96723582D01*
X116214500Y-96743616D01*
X116212973Y-96763015D01*
X116209840Y-96782794D01*
X116209840Y-96782795D01*
X116213950Y-96826274D01*
X116214500Y-96837943D01*
X116214500Y-98342255D01*
X116212775Y-98357872D01*
X116213061Y-98357899D01*
X116212326Y-98365665D01*
X116214439Y-98432872D01*
X116214500Y-98436767D01*
X116214500Y-98464357D01*
X116215003Y-98468335D01*
X116215918Y-98479967D01*
X116217290Y-98523624D01*
X116217291Y-98523627D01*
X116222880Y-98542867D01*
X116226824Y-98561911D01*
X116229336Y-98581792D01*
X116245414Y-98622403D01*
X116249197Y-98633452D01*
X116261381Y-98675388D01*
X116271580Y-98692634D01*
X116280138Y-98710103D01*
X116287514Y-98728732D01*
X116313181Y-98764060D01*
X116319593Y-98773821D01*
X116341828Y-98811417D01*
X116341833Y-98811424D01*
X116355990Y-98825580D01*
X116368627Y-98840375D01*
X116380406Y-98856587D01*
X116414056Y-98884425D01*
X116422696Y-98892287D01*
X116726994Y-99196584D01*
X116736817Y-99208845D01*
X116737039Y-99208663D01*
X116742011Y-99214673D01*
X116742014Y-99214677D01*
X116791023Y-99260700D01*
X116793821Y-99263412D01*
X116813322Y-99282914D01*
X116813326Y-99282917D01*
X116813329Y-99282920D01*
X116816502Y-99285381D01*
X116825374Y-99292959D01*
X116857218Y-99322862D01*
X116874776Y-99332514D01*
X116891033Y-99343193D01*
X116906864Y-99355473D01*
X116936603Y-99368342D01*
X116946952Y-99372821D01*
X116957441Y-99377960D01*
X116978404Y-99389484D01*
X116995708Y-99398997D01*
X117008323Y-99402235D01*
X117015105Y-99403977D01*
X117033519Y-99410281D01*
X117051904Y-99418238D01*
X117095061Y-99425073D01*
X117106456Y-99427432D01*
X117148781Y-99438300D01*
X117168816Y-99438300D01*
X117188213Y-99439826D01*
X117207996Y-99442960D01*
X117240214Y-99439914D01*
X117308807Y-99453202D01*
X117359329Y-99501465D01*
X117375737Y-99569381D01*
X117372089Y-99593804D01*
X117320553Y-99797315D01*
X117301538Y-100026794D01*
X117301538Y-100026805D01*
X117320553Y-100256284D01*
X117377082Y-100479514D01*
X117469582Y-100690394D01*
X117595528Y-100883170D01*
X117595531Y-100883173D01*
X117751492Y-101052592D01*
X117868391Y-101143578D01*
X117937259Y-101197180D01*
X117936370Y-101198321D01*
X117977432Y-101246424D01*
X117986863Y-101315655D01*
X117957368Y-101378994D01*
X117937229Y-101396451D01*
X117937533Y-101396841D01*
X117904840Y-101422285D01*
X117904840Y-101422287D01*
X118527196Y-102044643D01*
X118409388Y-102095815D01*
X118292938Y-102190554D01*
X118206367Y-102313197D01*
X118175498Y-102400052D01*
X117552559Y-101777113D01*
X117470024Y-101903444D01*
X117377557Y-102114246D01*
X117321049Y-102337391D01*
X117321047Y-102337403D01*
X117302040Y-102566794D01*
X117302040Y-102566805D01*
X117321047Y-102796196D01*
X117321049Y-102796208D01*
X117377557Y-103019353D01*
X117470023Y-103230152D01*
X117552560Y-103356485D01*
X118173168Y-102735876D01*
X118176394Y-102751397D01*
X118245458Y-102884686D01*
X118347923Y-102994398D01*
X118476188Y-103072398D01*
X118528966Y-103087186D01*
X117904840Y-103711312D01*
X117904840Y-103711314D01*
X117933477Y-103733603D01*
X117933483Y-103733607D01*
X118135931Y-103843167D01*
X118135940Y-103843170D01*
X118353649Y-103917910D01*
X118580705Y-103955800D01*
X118810895Y-103955800D01*
X119037950Y-103917910D01*
X119255659Y-103843170D01*
X119255668Y-103843167D01*
X119458115Y-103733607D01*
X119458116Y-103733606D01*
X119486758Y-103711313D01*
X119486759Y-103711311D01*
X118864404Y-103088956D01*
X118982212Y-103037785D01*
X119098662Y-102943046D01*
X119185233Y-102820403D01*
X119216100Y-102733547D01*
X119839038Y-103356485D01*
X119921572Y-103230159D01*
X119921577Y-103230151D01*
X120014042Y-103019353D01*
X120070550Y-102796208D01*
X120070552Y-102796196D01*
X120089560Y-102566805D01*
X120089560Y-102566794D01*
X120070552Y-102337403D01*
X120070550Y-102337391D01*
X120014042Y-102114246D01*
X119921574Y-101903442D01*
X119839038Y-101777113D01*
X119218430Y-102397721D01*
X119215206Y-102382203D01*
X119146142Y-102248914D01*
X119043677Y-102139202D01*
X118915412Y-102061202D01*
X118862632Y-102046413D01*
X119486758Y-101422286D01*
X119486758Y-101422284D01*
X119454067Y-101396840D01*
X119455009Y-101395629D01*
X119414155Y-101347747D01*
X119404741Y-101278514D01*
X119434250Y-101215182D01*
X119454620Y-101197538D01*
X119454341Y-101197180D01*
X119518447Y-101147284D01*
X119640108Y-101052592D01*
X119796069Y-100883173D01*
X119922017Y-100690395D01*
X120014517Y-100479516D01*
X120071046Y-100256288D01*
X120090062Y-100026800D01*
X120080911Y-99916370D01*
X120071046Y-99797313D01*
X120060524Y-99755763D01*
X120063148Y-99685943D01*
X120103103Y-99628625D01*
X120167704Y-99602007D01*
X120231164Y-99612041D01*
X120370197Y-99673944D01*
X120555354Y-99713300D01*
X120555355Y-99713300D01*
X120744644Y-99713300D01*
X120744646Y-99713300D01*
X120929803Y-99673944D01*
X121102730Y-99596951D01*
X121255871Y-99485688D01*
X121258788Y-99482447D01*
X121261600Y-99479326D01*
X121321087Y-99442679D01*
X121353748Y-99438300D01*
X122443428Y-99438300D01*
X122510467Y-99457985D01*
X122556222Y-99510789D01*
X122556984Y-99512490D01*
X122649582Y-99723594D01*
X122775528Y-99916370D01*
X122775531Y-99916373D01*
X122931492Y-100085792D01*
X123048391Y-100176778D01*
X123117259Y-100230380D01*
X123116276Y-100231641D01*
X123156983Y-100279349D01*
X123166400Y-100348581D01*
X123136892Y-100411914D01*
X123116936Y-100429205D01*
X123117259Y-100429620D01*
X122931494Y-100574206D01*
X122931489Y-100574211D01*
X122775528Y-100743629D01*
X122649582Y-100936405D01*
X122557082Y-101147285D01*
X122500553Y-101370515D01*
X122481538Y-101599994D01*
X122481538Y-101600005D01*
X122500553Y-101829484D01*
X122557082Y-102052714D01*
X122649582Y-102263594D01*
X122775528Y-102456370D01*
X122799502Y-102482413D01*
X122931492Y-102625792D01*
X123033968Y-102705552D01*
X123117259Y-102770380D01*
X123116276Y-102771641D01*
X123156983Y-102819349D01*
X123166400Y-102888581D01*
X123136892Y-102951914D01*
X123116936Y-102969205D01*
X123117259Y-102969620D01*
X122931494Y-103114206D01*
X122931489Y-103114211D01*
X122775528Y-103283629D01*
X122649582Y-103476405D01*
X122557082Y-103687285D01*
X122500553Y-103910515D01*
X122481538Y-104139994D01*
X122481538Y-104140005D01*
X122500553Y-104369484D01*
X122557082Y-104592714D01*
X122649582Y-104803594D01*
X122775528Y-104996370D01*
X122775531Y-104996373D01*
X122931492Y-105165792D01*
X123048391Y-105256778D01*
X123117259Y-105310380D01*
X123116276Y-105311641D01*
X123156983Y-105359349D01*
X123166400Y-105428581D01*
X123136892Y-105491914D01*
X123116936Y-105509205D01*
X123117259Y-105509620D01*
X122931494Y-105654206D01*
X122931489Y-105654211D01*
X122775528Y-105823629D01*
X122649582Y-106016405D01*
X122557082Y-106227285D01*
X122500553Y-106450515D01*
X122481538Y-106679994D01*
X122481538Y-106680005D01*
X122500553Y-106909484D01*
X122557082Y-107132714D01*
X122649582Y-107343594D01*
X122775528Y-107536370D01*
X122775531Y-107536373D01*
X122931492Y-107705792D01*
X123048391Y-107796778D01*
X123117259Y-107850380D01*
X123116276Y-107851641D01*
X123156983Y-107899349D01*
X123166400Y-107968581D01*
X123136892Y-108031914D01*
X123116936Y-108049205D01*
X123117259Y-108049620D01*
X122931494Y-108194206D01*
X122931489Y-108194211D01*
X122775528Y-108363629D01*
X122649582Y-108556405D01*
X122557082Y-108767285D01*
X122500553Y-108990515D01*
X122481538Y-109219994D01*
X122481538Y-109220005D01*
X122500553Y-109449484D01*
X122557082Y-109672714D01*
X122649582Y-109883594D01*
X122775528Y-110076370D01*
X122775531Y-110076373D01*
X122931492Y-110245792D01*
X123048391Y-110336778D01*
X123117259Y-110390380D01*
X123116276Y-110391641D01*
X123156983Y-110439349D01*
X123166400Y-110508581D01*
X123136892Y-110571914D01*
X123116936Y-110589205D01*
X123117259Y-110589620D01*
X122931494Y-110734206D01*
X122931489Y-110734211D01*
X122775528Y-110903629D01*
X122649582Y-111096405D01*
X122557082Y-111307285D01*
X122500553Y-111530515D01*
X122481538Y-111759994D01*
X122481538Y-111760005D01*
X122500553Y-111989484D01*
X122557082Y-112212714D01*
X122649582Y-112423594D01*
X122775528Y-112616370D01*
X122775531Y-112616373D01*
X122931492Y-112785792D01*
X123039802Y-112870093D01*
X123117259Y-112930380D01*
X123116276Y-112931641D01*
X123156983Y-112979349D01*
X123166400Y-113048581D01*
X123136892Y-113111914D01*
X123116936Y-113129205D01*
X123117259Y-113129620D01*
X122931494Y-113274206D01*
X122931489Y-113274211D01*
X122775528Y-113443629D01*
X122649582Y-113636405D01*
X122557082Y-113847285D01*
X122500553Y-114070515D01*
X122481538Y-114299994D01*
X122481538Y-114300005D01*
X122500553Y-114529484D01*
X122557082Y-114752714D01*
X122649582Y-114963594D01*
X122775528Y-115156370D01*
X122775531Y-115156373D01*
X122931492Y-115325792D01*
X122989614Y-115371030D01*
X123117259Y-115470380D01*
X123116276Y-115471641D01*
X123156983Y-115519349D01*
X123166400Y-115588581D01*
X123136892Y-115651914D01*
X123116936Y-115669205D01*
X123117259Y-115669620D01*
X122931494Y-115814206D01*
X122931489Y-115814211D01*
X122775528Y-115983629D01*
X122649582Y-116176405D01*
X122557082Y-116387285D01*
X122500553Y-116610515D01*
X122481538Y-116839994D01*
X122481538Y-116840005D01*
X122500553Y-117069484D01*
X122557082Y-117292714D01*
X122649582Y-117503594D01*
X122775528Y-117696370D01*
X122775531Y-117696373D01*
X122931492Y-117865792D01*
X123048391Y-117956778D01*
X123117259Y-118010380D01*
X123116370Y-118011521D01*
X123157432Y-118059624D01*
X123166863Y-118128855D01*
X123137368Y-118192194D01*
X123117229Y-118209651D01*
X123117533Y-118210041D01*
X123084840Y-118235485D01*
X123084840Y-118235487D01*
X123707196Y-118857843D01*
X123589388Y-118909015D01*
X123472938Y-119003754D01*
X123386367Y-119126397D01*
X123355498Y-119213252D01*
X122732559Y-118590313D01*
X122650024Y-118716644D01*
X122557557Y-118927446D01*
X122501049Y-119150591D01*
X122501047Y-119150603D01*
X122482040Y-119379994D01*
X122482040Y-119380005D01*
X122501047Y-119609396D01*
X122501049Y-119609408D01*
X122557557Y-119832553D01*
X122650023Y-120043352D01*
X122732560Y-120169685D01*
X123353168Y-119549076D01*
X123356394Y-119564597D01*
X123425458Y-119697886D01*
X123527923Y-119807598D01*
X123656188Y-119885598D01*
X123708966Y-119900386D01*
X123084840Y-120524512D01*
X123084840Y-120524514D01*
X123117533Y-120549960D01*
X123116589Y-120551172D01*
X123157439Y-120599043D01*
X123166860Y-120668274D01*
X123137356Y-120731609D01*
X123116981Y-120749263D01*
X123117259Y-120749620D01*
X122931494Y-120894206D01*
X122931489Y-120894211D01*
X122775528Y-121063629D01*
X122649582Y-121256405D01*
X122557082Y-121467285D01*
X122500553Y-121690515D01*
X122481538Y-121919994D01*
X122481538Y-121920005D01*
X122500553Y-122149484D01*
X122557082Y-122372713D01*
X122564968Y-122390692D01*
X122573869Y-122459992D01*
X122543892Y-122523104D01*
X122484552Y-122559989D01*
X122451411Y-122564500D01*
X107231043Y-122564500D01*
X107215422Y-122562775D01*
X107215395Y-122563061D01*
X107207633Y-122562326D01*
X107140413Y-122564439D01*
X107136519Y-122564500D01*
X107108950Y-122564500D01*
X107104973Y-122565002D01*
X107093342Y-122565917D01*
X107049674Y-122567289D01*
X107049668Y-122567290D01*
X107030426Y-122572880D01*
X107011387Y-122576823D01*
X106991517Y-122579334D01*
X106991503Y-122579337D01*
X106950898Y-122595413D01*
X106939854Y-122599194D01*
X106897914Y-122611379D01*
X106897910Y-122611381D01*
X106880666Y-122621579D01*
X106863205Y-122630133D01*
X106844574Y-122637510D01*
X106837731Y-122641273D01*
X106836481Y-122639000D01*
X106782518Y-122658233D01*
X106735221Y-122651715D01*
X106692071Y-122636901D01*
X106497417Y-122604420D01*
X106464937Y-122599000D01*
X106234663Y-122599000D01*
X106189236Y-122606580D01*
X106007525Y-122636902D01*
X105789738Y-122711669D01*
X105789730Y-122711672D01*
X105587208Y-122821272D01*
X105405494Y-122962706D01*
X105405489Y-122962711D01*
X105249528Y-123132129D01*
X105123582Y-123324905D01*
X105031082Y-123535785D01*
X104974553Y-123759015D01*
X104955538Y-123988494D01*
X104955538Y-123988505D01*
X104974553Y-124217984D01*
X105031082Y-124441214D01*
X105123582Y-124652094D01*
X105249528Y-124844870D01*
X105249531Y-124844873D01*
X105405492Y-125014292D01*
X105472752Y-125066642D01*
X105591259Y-125158880D01*
X105590370Y-125160021D01*
X105631432Y-125208124D01*
X105640863Y-125277355D01*
X105611368Y-125340694D01*
X105591229Y-125358151D01*
X105591533Y-125358541D01*
X105558840Y-125383985D01*
X105558840Y-125383987D01*
X106181196Y-126006343D01*
X106063388Y-126057515D01*
X105946938Y-126152254D01*
X105860367Y-126274897D01*
X105829498Y-126361752D01*
X105206559Y-125738813D01*
X105124024Y-125865144D01*
X105031557Y-126075946D01*
X104975049Y-126299091D01*
X104975047Y-126299103D01*
X104956040Y-126528494D01*
X104956040Y-126528505D01*
X104975047Y-126757896D01*
X104975049Y-126757908D01*
X105031557Y-126981053D01*
X105124023Y-127191852D01*
X105206560Y-127318185D01*
X105827168Y-126697576D01*
X105830394Y-126713097D01*
X105899458Y-126846386D01*
X106001923Y-126956098D01*
X106130188Y-127034098D01*
X106182966Y-127048886D01*
X105558840Y-127673012D01*
X105558840Y-127673014D01*
X105591533Y-127698460D01*
X105590589Y-127699672D01*
X105631439Y-127747543D01*
X105640860Y-127816774D01*
X105611356Y-127880109D01*
X105590981Y-127897763D01*
X105591259Y-127898120D01*
X105405494Y-128042706D01*
X105405489Y-128042711D01*
X105249528Y-128212129D01*
X105123582Y-128404905D01*
X105031082Y-128615785D01*
X104974553Y-128839015D01*
X104955538Y-129068494D01*
X104955538Y-129068505D01*
X53340500Y-129068505D01*
X53340500Y-119772105D01*
X66703144Y-119772105D01*
X66722148Y-120074174D01*
X66722149Y-120074181D01*
X66778868Y-120371510D01*
X66836987Y-120550380D01*
X66872401Y-120659374D01*
X67001277Y-120933250D01*
X67001279Y-120933253D01*
X67001280Y-120933255D01*
X67163458Y-121188808D01*
X67163461Y-121188812D01*
X67163462Y-121188813D01*
X67356399Y-121422034D01*
X67404587Y-121467285D01*
X67577043Y-121629232D01*
X67577053Y-121629240D01*
X67821908Y-121807138D01*
X67821913Y-121807140D01*
X67821920Y-121807146D01*
X68087163Y-121952965D01*
X68087168Y-121952967D01*
X68087170Y-121952968D01*
X68087171Y-121952969D01*
X68368586Y-122064389D01*
X68368589Y-122064390D01*
X68661759Y-122139663D01*
X68661763Y-122139664D01*
X68724760Y-122147622D01*
X68962047Y-122177599D01*
X68962056Y-122177599D01*
X68962059Y-122177600D01*
X68962061Y-122177600D01*
X69264739Y-122177600D01*
X69264741Y-122177600D01*
X69264744Y-122177599D01*
X69264752Y-122177599D01*
X69443939Y-122154962D01*
X69565037Y-122139664D01*
X69858210Y-122064390D01*
X69858213Y-122064389D01*
X70139628Y-121952969D01*
X70139629Y-121952968D01*
X70139627Y-121952968D01*
X70139637Y-121952965D01*
X70404880Y-121807146D01*
X70649755Y-121629234D01*
X70870401Y-121422034D01*
X71063338Y-121188813D01*
X71225523Y-120933250D01*
X71354399Y-120659374D01*
X71447933Y-120371506D01*
X71504650Y-120074185D01*
X71506575Y-120043594D01*
X71523656Y-119772105D01*
X96649744Y-119772105D01*
X96668748Y-120074174D01*
X96668749Y-120074181D01*
X96725468Y-120371510D01*
X96783587Y-120550380D01*
X96819001Y-120659374D01*
X96947877Y-120933250D01*
X96947879Y-120933253D01*
X96947880Y-120933255D01*
X97110058Y-121188808D01*
X97110061Y-121188812D01*
X97110062Y-121188813D01*
X97302999Y-121422034D01*
X97351187Y-121467285D01*
X97523643Y-121629232D01*
X97523653Y-121629240D01*
X97768508Y-121807138D01*
X97768513Y-121807140D01*
X97768520Y-121807146D01*
X98033763Y-121952965D01*
X98033768Y-121952967D01*
X98033770Y-121952968D01*
X98033771Y-121952969D01*
X98315186Y-122064389D01*
X98315189Y-122064390D01*
X98608359Y-122139663D01*
X98608363Y-122139664D01*
X98671360Y-122147622D01*
X98908647Y-122177599D01*
X98908656Y-122177599D01*
X98908659Y-122177600D01*
X98908661Y-122177600D01*
X99211339Y-122177600D01*
X99211341Y-122177600D01*
X99211344Y-122177599D01*
X99211352Y-122177599D01*
X99390539Y-122154962D01*
X99511637Y-122139664D01*
X99804810Y-122064390D01*
X99804813Y-122064389D01*
X100086228Y-121952969D01*
X100086229Y-121952968D01*
X100086227Y-121952968D01*
X100086237Y-121952965D01*
X100351480Y-121807146D01*
X100596355Y-121629234D01*
X100817001Y-121422034D01*
X101009938Y-121188813D01*
X101172123Y-120933250D01*
X101300999Y-120659374D01*
X101394533Y-120371506D01*
X101451250Y-120074185D01*
X101453175Y-120043594D01*
X101470256Y-119772105D01*
X101470256Y-119772094D01*
X101451251Y-119470025D01*
X101451250Y-119470018D01*
X101451250Y-119470015D01*
X101394533Y-119172694D01*
X101300999Y-118884826D01*
X101172123Y-118610950D01*
X101124421Y-118535785D01*
X101009941Y-118355391D01*
X101008965Y-118354211D01*
X100817001Y-118122166D01*
X100804051Y-118110005D01*
X110365738Y-118110005D01*
X110384753Y-118339484D01*
X110441282Y-118562714D01*
X110533782Y-118773594D01*
X110659728Y-118966370D01*
X110659731Y-118966373D01*
X110815692Y-119135792D01*
X110997411Y-119277229D01*
X111199931Y-119386828D01*
X111313025Y-119425653D01*
X111417725Y-119461597D01*
X111417727Y-119461597D01*
X111417729Y-119461598D01*
X111644863Y-119499500D01*
X111644864Y-119499500D01*
X111875136Y-119499500D01*
X111875137Y-119499500D01*
X112102271Y-119461598D01*
X112320069Y-119386828D01*
X112522589Y-119277229D01*
X112704308Y-119135792D01*
X112860269Y-118966373D01*
X112986217Y-118773595D01*
X113078717Y-118562716D01*
X113135246Y-118339488D01*
X113145972Y-118210041D01*
X113154262Y-118110005D01*
X113154262Y-118110001D01*
X115534532Y-118110001D01*
X115554364Y-118336686D01*
X115554366Y-118336697D01*
X115613258Y-118556488D01*
X115613261Y-118556497D01*
X115709431Y-118762732D01*
X115709432Y-118762734D01*
X115839954Y-118949141D01*
X116000858Y-119110045D01*
X116000861Y-119110047D01*
X116187266Y-119240568D01*
X116393504Y-119336739D01*
X116613308Y-119395635D01*
X116775230Y-119409801D01*
X116839998Y-119415468D01*
X116840000Y-119415468D01*
X116840002Y-119415468D01*
X116896673Y-119410509D01*
X117066692Y-119395635D01*
X117286496Y-119336739D01*
X117492734Y-119240568D01*
X117679139Y-119110047D01*
X117840047Y-118949139D01*
X117970568Y-118762734D01*
X118066739Y-118556496D01*
X118125635Y-118336692D01*
X118145468Y-118110000D01*
X118145467Y-118109994D01*
X118136477Y-118007229D01*
X118125635Y-117883308D01*
X118066739Y-117663504D01*
X117970568Y-117457266D01*
X117855350Y-117292716D01*
X117840045Y-117270858D01*
X117679141Y-117109954D01*
X117492734Y-116979432D01*
X117492732Y-116979431D01*
X117286497Y-116883261D01*
X117286488Y-116883258D01*
X117066697Y-116824366D01*
X117066693Y-116824365D01*
X117066692Y-116824365D01*
X117066691Y-116824364D01*
X117066686Y-116824364D01*
X116840002Y-116804532D01*
X116839998Y-116804532D01*
X116613313Y-116824364D01*
X116613302Y-116824366D01*
X116393511Y-116883258D01*
X116393502Y-116883261D01*
X116187267Y-116979431D01*
X116187265Y-116979432D01*
X116000858Y-117109954D01*
X115839954Y-117270858D01*
X115709432Y-117457265D01*
X115709431Y-117457267D01*
X115613261Y-117663502D01*
X115613258Y-117663511D01*
X115554366Y-117883302D01*
X115554364Y-117883313D01*
X115534532Y-118109998D01*
X115534532Y-118110001D01*
X113154262Y-118110001D01*
X113154262Y-118109994D01*
X113135478Y-117883313D01*
X113135246Y-117880512D01*
X113078717Y-117657284D01*
X112986217Y-117446405D01*
X112934078Y-117366600D01*
X112860271Y-117253629D01*
X112833355Y-117224390D01*
X112704308Y-117084208D01*
X112636036Y-117031070D01*
X112522591Y-116942772D01*
X112320069Y-116833172D01*
X112320061Y-116833169D01*
X112102274Y-116758402D01*
X111931920Y-116729975D01*
X111875137Y-116720500D01*
X111644863Y-116720500D01*
X111599436Y-116728080D01*
X111417725Y-116758402D01*
X111199938Y-116833169D01*
X111199930Y-116833172D01*
X110997408Y-116942772D01*
X110815694Y-117084206D01*
X110815689Y-117084211D01*
X110659728Y-117253629D01*
X110533782Y-117446405D01*
X110441282Y-117657285D01*
X110384753Y-117880515D01*
X110365738Y-118109994D01*
X110365738Y-118110005D01*
X100804051Y-118110005D01*
X100596355Y-117914966D01*
X100596352Y-117914964D01*
X100596346Y-117914959D01*
X100351491Y-117737061D01*
X100351484Y-117737056D01*
X100351480Y-117737054D01*
X100086237Y-117591235D01*
X100086234Y-117591233D01*
X100086229Y-117591231D01*
X100086228Y-117591230D01*
X99804813Y-117479810D01*
X99804810Y-117479809D01*
X99511640Y-117404536D01*
X99511627Y-117404534D01*
X99211352Y-117366600D01*
X99211341Y-117366600D01*
X98908659Y-117366600D01*
X98908647Y-117366600D01*
X98608372Y-117404534D01*
X98608359Y-117404536D01*
X98315189Y-117479809D01*
X98315186Y-117479810D01*
X98033771Y-117591230D01*
X98033770Y-117591231D01*
X97768520Y-117737054D01*
X97768508Y-117737061D01*
X97523653Y-117914959D01*
X97523643Y-117914967D01*
X97315954Y-118110000D01*
X97302999Y-118122166D01*
X97245067Y-118192194D01*
X97110058Y-118355391D01*
X96947880Y-118610944D01*
X96819000Y-118884828D01*
X96725468Y-119172689D01*
X96668749Y-119470018D01*
X96668748Y-119470025D01*
X96649744Y-119772094D01*
X96649744Y-119772105D01*
X71523656Y-119772105D01*
X71523656Y-119772094D01*
X71504651Y-119470025D01*
X71504650Y-119470018D01*
X71504650Y-119470015D01*
X71447933Y-119172694D01*
X71354399Y-118884826D01*
X71225523Y-118610950D01*
X71177821Y-118535785D01*
X71063341Y-118355391D01*
X71062365Y-118354211D01*
X70870401Y-118122166D01*
X70649755Y-117914966D01*
X70649752Y-117914964D01*
X70649746Y-117914959D01*
X70404891Y-117737061D01*
X70404884Y-117737056D01*
X70404880Y-117737054D01*
X70139637Y-117591235D01*
X70139634Y-117591233D01*
X70139629Y-117591231D01*
X70139628Y-117591230D01*
X69858213Y-117479810D01*
X69858210Y-117479809D01*
X69565040Y-117404536D01*
X69565027Y-117404534D01*
X69264752Y-117366600D01*
X69264741Y-117366600D01*
X68962059Y-117366600D01*
X68962047Y-117366600D01*
X68661772Y-117404534D01*
X68661759Y-117404536D01*
X68368589Y-117479809D01*
X68368586Y-117479810D01*
X68087171Y-117591230D01*
X68087170Y-117591231D01*
X67821920Y-117737054D01*
X67821908Y-117737061D01*
X67577053Y-117914959D01*
X67577043Y-117914967D01*
X67369354Y-118110000D01*
X67356399Y-118122166D01*
X67298467Y-118192194D01*
X67163458Y-118355391D01*
X67001280Y-118610944D01*
X66872400Y-118884828D01*
X66778868Y-119172689D01*
X66722149Y-119470018D01*
X66722148Y-119470025D01*
X66703144Y-119772094D01*
X66703144Y-119772105D01*
X53340500Y-119772105D01*
X53340500Y-86460005D01*
X151540738Y-86460005D01*
X151559753Y-86689484D01*
X151616282Y-86912714D01*
X151708782Y-87123594D01*
X151834728Y-87316370D01*
X151834731Y-87316373D01*
X151990692Y-87485792D01*
X152172411Y-87627229D01*
X152374931Y-87736828D01*
X152488025Y-87775653D01*
X152592725Y-87811597D01*
X152592727Y-87811597D01*
X152592729Y-87811598D01*
X152819863Y-87849500D01*
X152819864Y-87849500D01*
X153050136Y-87849500D01*
X153050137Y-87849500D01*
X153277271Y-87811598D01*
X153495069Y-87736828D01*
X153697589Y-87627229D01*
X153879308Y-87485792D01*
X154035269Y-87316373D01*
X154161217Y-87123595D01*
X154253717Y-86912716D01*
X154310246Y-86689488D01*
X154329262Y-86460000D01*
X154320008Y-86348327D01*
X154310246Y-86230515D01*
X154310246Y-86230512D01*
X154253717Y-86007284D01*
X154173762Y-85825004D01*
X165129535Y-85825004D01*
X165149363Y-86089609D01*
X165149364Y-86089614D01*
X165208410Y-86348313D01*
X165208412Y-86348322D01*
X165208414Y-86348327D01*
X165305361Y-86595345D01*
X165438042Y-86825155D01*
X165603492Y-87032623D01*
X165798016Y-87213114D01*
X166017268Y-87362598D01*
X166256350Y-87477734D01*
X166509922Y-87555950D01*
X166509923Y-87555950D01*
X166509926Y-87555951D01*
X166772311Y-87595499D01*
X166772316Y-87595499D01*
X166772319Y-87595500D01*
X166772320Y-87595500D01*
X167037680Y-87595500D01*
X167037681Y-87595500D01*
X167037688Y-87595499D01*
X167300073Y-87555951D01*
X167300074Y-87555950D01*
X167300078Y-87555950D01*
X167553650Y-87477734D01*
X167792733Y-87362598D01*
X168011984Y-87213114D01*
X168206508Y-87032623D01*
X168371958Y-86825155D01*
X168504639Y-86595345D01*
X168601586Y-86348327D01*
X168660635Y-86089619D01*
X168680465Y-85825000D01*
X168678322Y-85796405D01*
X168660636Y-85560390D01*
X168660635Y-85560385D01*
X168660635Y-85560381D01*
X168601586Y-85301673D01*
X168504639Y-85054655D01*
X168371958Y-84824845D01*
X168206508Y-84617377D01*
X168011984Y-84436886D01*
X167792733Y-84287402D01*
X167792732Y-84287401D01*
X167792725Y-84287397D01*
X167553655Y-84172268D01*
X167553636Y-84172261D01*
X167300083Y-84094051D01*
X167300073Y-84094048D01*
X167037688Y-84054500D01*
X167037681Y-84054500D01*
X166772319Y-84054500D01*
X166772311Y-84054500D01*
X166509926Y-84094048D01*
X166509916Y-84094051D01*
X166256363Y-84172261D01*
X166256344Y-84172268D01*
X166017276Y-84287397D01*
X166017274Y-84287398D01*
X165798015Y-84436886D01*
X165603494Y-84617375D01*
X165603492Y-84617377D01*
X165438042Y-84824845D01*
X165305361Y-85054654D01*
X165208416Y-85301667D01*
X165208410Y-85301686D01*
X165149364Y-85560385D01*
X165149363Y-85560390D01*
X165129535Y-85824995D01*
X165129535Y-85825004D01*
X154173762Y-85825004D01*
X154161217Y-85796405D01*
X154035271Y-85603629D01*
X153995458Y-85560381D01*
X153879308Y-85434208D01*
X153709043Y-85301686D01*
X153693541Y-85289620D01*
X153694525Y-85288354D01*
X153653824Y-85240670D01*
X153644396Y-85171439D01*
X153673893Y-85108102D01*
X153693865Y-85090796D01*
X153693541Y-85090380D01*
X153739440Y-85054655D01*
X153879308Y-84945792D01*
X154035269Y-84776373D01*
X154161217Y-84583595D01*
X154253717Y-84372716D01*
X154310246Y-84149488D01*
X154326210Y-83956830D01*
X154329262Y-83920005D01*
X154329262Y-83919994D01*
X154310246Y-83690515D01*
X154310246Y-83690512D01*
X154253717Y-83467284D01*
X154161217Y-83256405D01*
X154063997Y-83107598D01*
X154035271Y-83063629D01*
X153974750Y-82997886D01*
X153879308Y-82894208D01*
X153697589Y-82752771D01*
X153697590Y-82752771D01*
X153693541Y-82749620D01*
X153694525Y-82748354D01*
X153653824Y-82700670D01*
X153644396Y-82631439D01*
X153673893Y-82568102D01*
X153693865Y-82550796D01*
X153693541Y-82550380D01*
X153764175Y-82495403D01*
X153879308Y-82405792D01*
X154035269Y-82236373D01*
X154161217Y-82043595D01*
X154253717Y-81832716D01*
X154310246Y-81609488D01*
X154329262Y-81380000D01*
X154324986Y-81328402D01*
X154310246Y-81150515D01*
X154310246Y-81150512D01*
X154253717Y-80927284D01*
X154161217Y-80716405D01*
X154058188Y-80558707D01*
X154035271Y-80523629D01*
X154008355Y-80494390D01*
X153879308Y-80354208D01*
X153726112Y-80234971D01*
X153693541Y-80209620D01*
X153694525Y-80208354D01*
X153653824Y-80160670D01*
X153644396Y-80091439D01*
X153673893Y-80028102D01*
X153693865Y-80010796D01*
X153693541Y-80010380D01*
X153730174Y-79981866D01*
X153879308Y-79865792D01*
X154035269Y-79696373D01*
X154161217Y-79503595D01*
X154253717Y-79292716D01*
X154310246Y-79069488D01*
X154329262Y-78840000D01*
X154310246Y-78610512D01*
X154253717Y-78387284D01*
X154161217Y-78176405D01*
X154035271Y-77983629D01*
X154008355Y-77954390D01*
X153879308Y-77814208D01*
X153697589Y-77672771D01*
X153697590Y-77672771D01*
X153693541Y-77669620D01*
X153694525Y-77668354D01*
X153653824Y-77620670D01*
X153644396Y-77551439D01*
X153673893Y-77488102D01*
X153693865Y-77470796D01*
X153693541Y-77470380D01*
X153730174Y-77441866D01*
X153879308Y-77325792D01*
X154035269Y-77156373D01*
X154161217Y-76963595D01*
X154253717Y-76752716D01*
X154310246Y-76529488D01*
X154329262Y-76300000D01*
X154310246Y-76070512D01*
X154253717Y-75847284D01*
X154161217Y-75636405D01*
X154035271Y-75443629D01*
X154008355Y-75414390D01*
X153879308Y-75274208D01*
X153697589Y-75132771D01*
X153697590Y-75132771D01*
X153693541Y-75129620D01*
X153694525Y-75128354D01*
X153653824Y-75080670D01*
X153644396Y-75011439D01*
X153673893Y-74948102D01*
X153693865Y-74930796D01*
X153693541Y-74930380D01*
X153730174Y-74901866D01*
X153879308Y-74785792D01*
X154035269Y-74616373D01*
X154161217Y-74423595D01*
X154253717Y-74212716D01*
X154310246Y-73989488D01*
X154329262Y-73760000D01*
X154310246Y-73530512D01*
X154253717Y-73307284D01*
X154161217Y-73096405D01*
X154139146Y-73062623D01*
X154035271Y-72903629D01*
X153990647Y-72855155D01*
X153879308Y-72734208D01*
X153697589Y-72592771D01*
X153697590Y-72592771D01*
X153693541Y-72589620D01*
X153694428Y-72588480D01*
X153653363Y-72540366D01*
X153643938Y-72471135D01*
X153673437Y-72407798D01*
X153693571Y-72390352D01*
X153693266Y-72389960D01*
X153725958Y-72364513D01*
X153725959Y-72364511D01*
X153103604Y-71742156D01*
X153221412Y-71690985D01*
X153337862Y-71596246D01*
X153424433Y-71473603D01*
X153455300Y-71386747D01*
X154078238Y-72009685D01*
X154160772Y-71883359D01*
X154160777Y-71883351D01*
X154173211Y-71855004D01*
X165129535Y-71855004D01*
X165149363Y-72119609D01*
X165149364Y-72119614D01*
X165208410Y-72378313D01*
X165208412Y-72378322D01*
X165208414Y-72378327D01*
X165305361Y-72625345D01*
X165438042Y-72855155D01*
X165603492Y-73062623D01*
X165798016Y-73243114D01*
X166017268Y-73392598D01*
X166256350Y-73507734D01*
X166509922Y-73585950D01*
X166509923Y-73585950D01*
X166509926Y-73585951D01*
X166772311Y-73625499D01*
X166772316Y-73625499D01*
X166772319Y-73625500D01*
X166772320Y-73625500D01*
X167037680Y-73625500D01*
X167037681Y-73625500D01*
X167037688Y-73625499D01*
X167300073Y-73585951D01*
X167300074Y-73585950D01*
X167300078Y-73585950D01*
X167553650Y-73507734D01*
X167792733Y-73392598D01*
X168011984Y-73243114D01*
X168206508Y-73062623D01*
X168371958Y-72855155D01*
X168504639Y-72625345D01*
X168601586Y-72378327D01*
X168660635Y-72119619D01*
X168678340Y-71883359D01*
X168680465Y-71855004D01*
X168680465Y-71854995D01*
X168660636Y-71590390D01*
X168660635Y-71590385D01*
X168660635Y-71590381D01*
X168601586Y-71331673D01*
X168504639Y-71084655D01*
X168371958Y-70854845D01*
X168206508Y-70647377D01*
X168011984Y-70466886D01*
X167792733Y-70317402D01*
X167792732Y-70317401D01*
X167792725Y-70317397D01*
X167553655Y-70202268D01*
X167553636Y-70202261D01*
X167300083Y-70124051D01*
X167300073Y-70124048D01*
X167037688Y-70084500D01*
X167037681Y-70084500D01*
X166772319Y-70084500D01*
X166772311Y-70084500D01*
X166509926Y-70124048D01*
X166509916Y-70124051D01*
X166256363Y-70202261D01*
X166256344Y-70202268D01*
X166017276Y-70317397D01*
X166017274Y-70317398D01*
X165798015Y-70466886D01*
X165603494Y-70647375D01*
X165603492Y-70647377D01*
X165438042Y-70854845D01*
X165305361Y-71084654D01*
X165208416Y-71331667D01*
X165208410Y-71331686D01*
X165149364Y-71590385D01*
X165149363Y-71590390D01*
X165129535Y-71854995D01*
X165129535Y-71855004D01*
X154173211Y-71855004D01*
X154253242Y-71672553D01*
X154309750Y-71449408D01*
X154309752Y-71449396D01*
X154328760Y-71220005D01*
X154328760Y-71219994D01*
X154309752Y-70990603D01*
X154309750Y-70990591D01*
X154253242Y-70767446D01*
X154160774Y-70556642D01*
X154078238Y-70430313D01*
X153457630Y-71050921D01*
X153454406Y-71035403D01*
X153385342Y-70902114D01*
X153282877Y-70792402D01*
X153154612Y-70714402D01*
X153101832Y-70699613D01*
X153725958Y-70075486D01*
X153725958Y-70075484D01*
X153697322Y-70053196D01*
X153697316Y-70053192D01*
X153494868Y-69943632D01*
X153494859Y-69943629D01*
X153277150Y-69868889D01*
X153050095Y-69831000D01*
X152819905Y-69831000D01*
X152592849Y-69868889D01*
X152375140Y-69943629D01*
X152375132Y-69943632D01*
X152172681Y-70053194D01*
X152144040Y-70075485D01*
X152144040Y-70075487D01*
X152766396Y-70697843D01*
X152648588Y-70749015D01*
X152532138Y-70843754D01*
X152445567Y-70966397D01*
X152414698Y-71053252D01*
X151791759Y-70430313D01*
X151709224Y-70556644D01*
X151616757Y-70767446D01*
X151560249Y-70990591D01*
X151560247Y-70990603D01*
X151541240Y-71219994D01*
X151541240Y-71220005D01*
X151560247Y-71449396D01*
X151560249Y-71449408D01*
X151616757Y-71672553D01*
X151709223Y-71883352D01*
X151791760Y-72009685D01*
X152412368Y-71389076D01*
X152415594Y-71404597D01*
X152484658Y-71537886D01*
X152587123Y-71647598D01*
X152715388Y-71725598D01*
X152768166Y-71740386D01*
X152144040Y-72364512D01*
X152144040Y-72364514D01*
X152176733Y-72389960D01*
X152175789Y-72391172D01*
X152216639Y-72439043D01*
X152226060Y-72508274D01*
X152196556Y-72571609D01*
X152176181Y-72589263D01*
X152176459Y-72589620D01*
X151990694Y-72734206D01*
X151990689Y-72734211D01*
X151834728Y-72903629D01*
X151708782Y-73096405D01*
X151616282Y-73307285D01*
X151559753Y-73530515D01*
X151540738Y-73759994D01*
X151540738Y-73760005D01*
X151559753Y-73989484D01*
X151616282Y-74212714D01*
X151708782Y-74423594D01*
X151834728Y-74616370D01*
X151834731Y-74616373D01*
X151990692Y-74785792D01*
X152107591Y-74876778D01*
X152176459Y-74930380D01*
X152175476Y-74931641D01*
X152216183Y-74979349D01*
X152225600Y-75048581D01*
X152196092Y-75111914D01*
X152176136Y-75129205D01*
X152176459Y-75129620D01*
X151990694Y-75274206D01*
X151990689Y-75274211D01*
X151834728Y-75443629D01*
X151708782Y-75636405D01*
X151616282Y-75847285D01*
X151559753Y-76070515D01*
X151540738Y-76299994D01*
X151540738Y-76300005D01*
X151559753Y-76529484D01*
X151616282Y-76752714D01*
X151708782Y-76963594D01*
X151834728Y-77156370D01*
X151834731Y-77156373D01*
X151990692Y-77325792D01*
X152107591Y-77416778D01*
X152176459Y-77470380D01*
X152175476Y-77471641D01*
X152216183Y-77519349D01*
X152225600Y-77588581D01*
X152196092Y-77651914D01*
X152176136Y-77669205D01*
X152176459Y-77669620D01*
X151990694Y-77814206D01*
X151990689Y-77814211D01*
X151834728Y-77983629D01*
X151708782Y-78176405D01*
X151616282Y-78387285D01*
X151559753Y-78610515D01*
X151540738Y-78839994D01*
X151540738Y-78840005D01*
X151559753Y-79069484D01*
X151616282Y-79292714D01*
X151708782Y-79503594D01*
X151834728Y-79696370D01*
X151834731Y-79696373D01*
X151990692Y-79865792D01*
X152107591Y-79956778D01*
X152176459Y-80010380D01*
X152175476Y-80011641D01*
X152216183Y-80059349D01*
X152225600Y-80128581D01*
X152196092Y-80191914D01*
X152176136Y-80209205D01*
X152176459Y-80209620D01*
X151990694Y-80354206D01*
X151990689Y-80354211D01*
X151834728Y-80523629D01*
X151708782Y-80716405D01*
X151616282Y-80927285D01*
X151559753Y-81150515D01*
X151540738Y-81379994D01*
X151540738Y-81380005D01*
X151559753Y-81609484D01*
X151616282Y-81832714D01*
X151708782Y-82043594D01*
X151834728Y-82236370D01*
X151834731Y-82236373D01*
X151990692Y-82405792D01*
X152105825Y-82495403D01*
X152176459Y-82550380D01*
X152175476Y-82551641D01*
X152216183Y-82599349D01*
X152225600Y-82668581D01*
X152196092Y-82731914D01*
X152176136Y-82749205D01*
X152176459Y-82749620D01*
X151990694Y-82894206D01*
X151990689Y-82894211D01*
X151834728Y-83063629D01*
X151708782Y-83256405D01*
X151616282Y-83467285D01*
X151559753Y-83690515D01*
X151540738Y-83919994D01*
X151540738Y-83920005D01*
X151559753Y-84149484D01*
X151616282Y-84372714D01*
X151708782Y-84583594D01*
X151834728Y-84776370D01*
X151841203Y-84783404D01*
X151990692Y-84945792D01*
X152107591Y-85036778D01*
X152176459Y-85090380D01*
X152175476Y-85091641D01*
X152216183Y-85139349D01*
X152225600Y-85208581D01*
X152196092Y-85271914D01*
X152176136Y-85289205D01*
X152176459Y-85289620D01*
X151990694Y-85434206D01*
X151990689Y-85434211D01*
X151834728Y-85603629D01*
X151708782Y-85796405D01*
X151616282Y-86007285D01*
X151559753Y-86230515D01*
X151540738Y-86459994D01*
X151540738Y-86460005D01*
X53340500Y-86460005D01*
X53340500Y-82415845D01*
X119762944Y-82415845D01*
X119781948Y-82717914D01*
X119781949Y-82717921D01*
X119809929Y-82864597D01*
X119835355Y-82997886D01*
X119838668Y-83015250D01*
X119876835Y-83132716D01*
X119932201Y-83303114D01*
X120061077Y-83576990D01*
X120061079Y-83576993D01*
X120061080Y-83576995D01*
X120223258Y-83832548D01*
X120223261Y-83832552D01*
X120223262Y-83832553D01*
X120416199Y-84065774D01*
X120529602Y-84172266D01*
X120636843Y-84272972D01*
X120636853Y-84272980D01*
X120881708Y-84450878D01*
X120881713Y-84450880D01*
X120881720Y-84450886D01*
X121146963Y-84596705D01*
X121146968Y-84596707D01*
X121146970Y-84596708D01*
X121146971Y-84596709D01*
X121428386Y-84708129D01*
X121428389Y-84708130D01*
X121694167Y-84776370D01*
X121721563Y-84783404D01*
X121784560Y-84791362D01*
X122021847Y-84821339D01*
X122021856Y-84821339D01*
X122021859Y-84821340D01*
X122021861Y-84821340D01*
X122324539Y-84821340D01*
X122324541Y-84821340D01*
X122324544Y-84821339D01*
X122324552Y-84821339D01*
X122503739Y-84798702D01*
X122624837Y-84783404D01*
X122918010Y-84708130D01*
X122918013Y-84708129D01*
X123199428Y-84596709D01*
X123199429Y-84596708D01*
X123199427Y-84596708D01*
X123199437Y-84596705D01*
X123464680Y-84450886D01*
X123709555Y-84272974D01*
X123930201Y-84065774D01*
X124123138Y-83832553D01*
X124285323Y-83576990D01*
X124414199Y-83303114D01*
X124507733Y-83015246D01*
X124564450Y-82717925D01*
X124564451Y-82717914D01*
X124566836Y-82680005D01*
X125656240Y-82680005D01*
X125675247Y-82909396D01*
X125675249Y-82909408D01*
X125731757Y-83132553D01*
X125824223Y-83343352D01*
X125906760Y-83469685D01*
X126527368Y-82849076D01*
X126530594Y-82864597D01*
X126599658Y-82997886D01*
X126702123Y-83107598D01*
X126830388Y-83185598D01*
X126883166Y-83200386D01*
X126259040Y-83824512D01*
X126259040Y-83824514D01*
X126287677Y-83846803D01*
X126287683Y-83846807D01*
X126490131Y-83956367D01*
X126490140Y-83956370D01*
X126707849Y-84031110D01*
X126934905Y-84069000D01*
X127165095Y-84069000D01*
X127392150Y-84031110D01*
X127609859Y-83956370D01*
X127609868Y-83956367D01*
X127812315Y-83846807D01*
X127812316Y-83846806D01*
X127840958Y-83824513D01*
X127840959Y-83824511D01*
X127218604Y-83202156D01*
X127336412Y-83150985D01*
X127452862Y-83056246D01*
X127539433Y-82933603D01*
X127570300Y-82846747D01*
X128193238Y-83469685D01*
X128215892Y-83435012D01*
X128269038Y-83389656D01*
X128338269Y-83380232D01*
X128401605Y-83409734D01*
X128423509Y-83435013D01*
X128489728Y-83536370D01*
X128489731Y-83536373D01*
X128645692Y-83705792D01*
X128759139Y-83794091D01*
X128826868Y-83846807D01*
X128827411Y-83847229D01*
X129029931Y-83956828D01*
X129143025Y-83995653D01*
X129247725Y-84031597D01*
X129247727Y-84031597D01*
X129247729Y-84031598D01*
X129474863Y-84069500D01*
X129474864Y-84069500D01*
X129705136Y-84069500D01*
X129705137Y-84069500D01*
X129932271Y-84031598D01*
X129933693Y-84031110D01*
X129940662Y-84028717D01*
X130150069Y-83956828D01*
X130352589Y-83847229D01*
X130534308Y-83705792D01*
X130690269Y-83536373D01*
X130690271Y-83536370D01*
X130756191Y-83435472D01*
X130809337Y-83390115D01*
X130878569Y-83380691D01*
X130941905Y-83410193D01*
X130963809Y-83435472D01*
X131029728Y-83536370D01*
X131029731Y-83536373D01*
X131185692Y-83705792D01*
X131299139Y-83794091D01*
X131366868Y-83846807D01*
X131367411Y-83847229D01*
X131569931Y-83956828D01*
X131683025Y-83995653D01*
X131787725Y-84031597D01*
X131787727Y-84031597D01*
X131787729Y-84031598D01*
X132014863Y-84069500D01*
X132014864Y-84069500D01*
X132245136Y-84069500D01*
X132245137Y-84069500D01*
X132472271Y-84031598D01*
X132473693Y-84031110D01*
X132480662Y-84028717D01*
X132690069Y-83956828D01*
X132892589Y-83847229D01*
X133074308Y-83705792D01*
X133230269Y-83536373D01*
X133230271Y-83536370D01*
X133296191Y-83435472D01*
X133349337Y-83390115D01*
X133418569Y-83380691D01*
X133481905Y-83410193D01*
X133503809Y-83435472D01*
X133569728Y-83536370D01*
X133569731Y-83536373D01*
X133725692Y-83705792D01*
X133839139Y-83794091D01*
X133906868Y-83846807D01*
X133907411Y-83847229D01*
X134109931Y-83956828D01*
X134223025Y-83995653D01*
X134327725Y-84031597D01*
X134327727Y-84031597D01*
X134327729Y-84031598D01*
X134554863Y-84069500D01*
X134554864Y-84069500D01*
X134785136Y-84069500D01*
X134785137Y-84069500D01*
X135012271Y-84031598D01*
X135013693Y-84031110D01*
X135020662Y-84028717D01*
X135230069Y-83956828D01*
X135432589Y-83847229D01*
X135614308Y-83705792D01*
X135770269Y-83536373D01*
X135770271Y-83536370D01*
X135836191Y-83435472D01*
X135889337Y-83390115D01*
X135958569Y-83380691D01*
X136021905Y-83410193D01*
X136043809Y-83435472D01*
X136109728Y-83536370D01*
X136109731Y-83536373D01*
X136265692Y-83705792D01*
X136379139Y-83794091D01*
X136446868Y-83846807D01*
X136447411Y-83847229D01*
X136649931Y-83956828D01*
X136763025Y-83995653D01*
X136867725Y-84031597D01*
X136867727Y-84031597D01*
X136867729Y-84031598D01*
X137094863Y-84069500D01*
X137094864Y-84069500D01*
X137325136Y-84069500D01*
X137325137Y-84069500D01*
X137552271Y-84031598D01*
X137553693Y-84031110D01*
X137560662Y-84028717D01*
X137770069Y-83956828D01*
X137972589Y-83847229D01*
X138154308Y-83705792D01*
X138310269Y-83536373D01*
X138436217Y-83343595D01*
X138528717Y-83132716D01*
X138585246Y-82909488D01*
X138598493Y-82749620D01*
X138604262Y-82680005D01*
X138604262Y-82679994D01*
X138588966Y-82495403D01*
X138585246Y-82450512D01*
X138576467Y-82415845D01*
X139775604Y-82415845D01*
X139794608Y-82717914D01*
X139794609Y-82717921D01*
X139822589Y-82864597D01*
X139848015Y-82997886D01*
X139851328Y-83015250D01*
X139889495Y-83132716D01*
X139944861Y-83303114D01*
X140073737Y-83576990D01*
X140073739Y-83576993D01*
X140073740Y-83576995D01*
X140235918Y-83832548D01*
X140235921Y-83832552D01*
X140235922Y-83832553D01*
X140428859Y-84065774D01*
X140542262Y-84172266D01*
X140649503Y-84272972D01*
X140649513Y-84272980D01*
X140894368Y-84450878D01*
X140894373Y-84450880D01*
X140894380Y-84450886D01*
X141159623Y-84596705D01*
X141159628Y-84596707D01*
X141159630Y-84596708D01*
X141159631Y-84596709D01*
X141441046Y-84708129D01*
X141441049Y-84708130D01*
X141706827Y-84776370D01*
X141734223Y-84783404D01*
X141797220Y-84791362D01*
X142034507Y-84821339D01*
X142034516Y-84821339D01*
X142034519Y-84821340D01*
X142034521Y-84821340D01*
X142337199Y-84821340D01*
X142337201Y-84821340D01*
X142337204Y-84821339D01*
X142337212Y-84821339D01*
X142516399Y-84798702D01*
X142637497Y-84783404D01*
X142930670Y-84708130D01*
X142930673Y-84708129D01*
X143212088Y-84596709D01*
X143212089Y-84596708D01*
X143212087Y-84596708D01*
X143212097Y-84596705D01*
X143477340Y-84450886D01*
X143722215Y-84272974D01*
X143942861Y-84065774D01*
X144135798Y-83832553D01*
X144297983Y-83576990D01*
X144426859Y-83303114D01*
X144520393Y-83015246D01*
X144577110Y-82717925D01*
X144577111Y-82717914D01*
X144596116Y-82415845D01*
X144596116Y-82415834D01*
X144577111Y-82113765D01*
X144577110Y-82113758D01*
X144577110Y-82113755D01*
X144520393Y-81816434D01*
X144426859Y-81528566D01*
X144297983Y-81254690D01*
X144135798Y-80999127D01*
X143942861Y-80765906D01*
X143722215Y-80558706D01*
X143722212Y-80558704D01*
X143722206Y-80558699D01*
X143477351Y-80380801D01*
X143477344Y-80380796D01*
X143477340Y-80380794D01*
X143212097Y-80234975D01*
X143212094Y-80234973D01*
X143212089Y-80234971D01*
X143212088Y-80234970D01*
X142930673Y-80123550D01*
X142930670Y-80123549D01*
X142637500Y-80048276D01*
X142637487Y-80048274D01*
X142337212Y-80010340D01*
X142337201Y-80010340D01*
X142034519Y-80010340D01*
X142034507Y-80010340D01*
X141734232Y-80048274D01*
X141734219Y-80048276D01*
X141441049Y-80123549D01*
X141441046Y-80123550D01*
X141159631Y-80234970D01*
X141159630Y-80234971D01*
X140894380Y-80380794D01*
X140894368Y-80380801D01*
X140649513Y-80558699D01*
X140649503Y-80558707D01*
X140428861Y-80765904D01*
X140235918Y-80999131D01*
X140073740Y-81254684D01*
X139944860Y-81528568D01*
X139851328Y-81816429D01*
X139851327Y-81816433D01*
X139851327Y-81816434D01*
X139849954Y-81823630D01*
X139794609Y-82113758D01*
X139794608Y-82113765D01*
X139775604Y-82415834D01*
X139775604Y-82415845D01*
X138576467Y-82415845D01*
X138528717Y-82227284D01*
X138436217Y-82016405D01*
X138406123Y-81970343D01*
X138310271Y-81823629D01*
X138283355Y-81794390D01*
X138154308Y-81654208D01*
X138001775Y-81535487D01*
X137972591Y-81512772D01*
X137770069Y-81403172D01*
X137770061Y-81403169D01*
X137552274Y-81328402D01*
X137381920Y-81299975D01*
X137325137Y-81290500D01*
X137094863Y-81290500D01*
X137049436Y-81298080D01*
X136867725Y-81328402D01*
X136649938Y-81403169D01*
X136649930Y-81403172D01*
X136447408Y-81512772D01*
X136265694Y-81654206D01*
X136265689Y-81654211D01*
X136109727Y-81823630D01*
X136043808Y-81924528D01*
X135990662Y-81969884D01*
X135921431Y-81979308D01*
X135858095Y-81949806D01*
X135836192Y-81924528D01*
X135770272Y-81823630D01*
X135733104Y-81783256D01*
X135614308Y-81654208D01*
X135461775Y-81535487D01*
X135432591Y-81512772D01*
X135230069Y-81403172D01*
X135230061Y-81403169D01*
X135012274Y-81328402D01*
X134841920Y-81299975D01*
X134785137Y-81290500D01*
X134554863Y-81290500D01*
X134509436Y-81298080D01*
X134327725Y-81328402D01*
X134109938Y-81403169D01*
X134109930Y-81403172D01*
X133907408Y-81512772D01*
X133725694Y-81654206D01*
X133725689Y-81654211D01*
X133569727Y-81823630D01*
X133503808Y-81924528D01*
X133450662Y-81969884D01*
X133381431Y-81979308D01*
X133318095Y-81949806D01*
X133296192Y-81924528D01*
X133230272Y-81823630D01*
X133193104Y-81783256D01*
X133074308Y-81654208D01*
X132921775Y-81535487D01*
X132892591Y-81512772D01*
X132690069Y-81403172D01*
X132690061Y-81403169D01*
X132472274Y-81328402D01*
X132301920Y-81299975D01*
X132245137Y-81290500D01*
X132014863Y-81290500D01*
X131969436Y-81298080D01*
X131787725Y-81328402D01*
X131569938Y-81403169D01*
X131569930Y-81403172D01*
X131367408Y-81512772D01*
X131185694Y-81654206D01*
X131185689Y-81654211D01*
X131029727Y-81823630D01*
X130963808Y-81924528D01*
X130910662Y-81969884D01*
X130841431Y-81979308D01*
X130778095Y-81949806D01*
X130756192Y-81924528D01*
X130690272Y-81823630D01*
X130653104Y-81783256D01*
X130534308Y-81654208D01*
X130381775Y-81535487D01*
X130352591Y-81512772D01*
X130150069Y-81403172D01*
X130150061Y-81403169D01*
X129932274Y-81328402D01*
X129761920Y-81299975D01*
X129705137Y-81290500D01*
X129474863Y-81290500D01*
X129429436Y-81298080D01*
X129247725Y-81328402D01*
X129029938Y-81403169D01*
X129029930Y-81403172D01*
X128827408Y-81512772D01*
X128645694Y-81654206D01*
X128645689Y-81654211D01*
X128489727Y-81823631D01*
X128423508Y-81924987D01*
X128370362Y-81970343D01*
X128301131Y-81979767D01*
X128237795Y-81950265D01*
X128215892Y-81924987D01*
X128193238Y-81890313D01*
X127572630Y-82510921D01*
X127569406Y-82495403D01*
X127500342Y-82362114D01*
X127397877Y-82252402D01*
X127269612Y-82174402D01*
X127216832Y-82159613D01*
X127840958Y-81535486D01*
X127840958Y-81535484D01*
X127812322Y-81513196D01*
X127812316Y-81513192D01*
X127609868Y-81403632D01*
X127609859Y-81403629D01*
X127392150Y-81328889D01*
X127165095Y-81291000D01*
X126934905Y-81291000D01*
X126707849Y-81328889D01*
X126490140Y-81403629D01*
X126490132Y-81403632D01*
X126287681Y-81513194D01*
X126259040Y-81535485D01*
X126259040Y-81535487D01*
X126881396Y-82157843D01*
X126763588Y-82209015D01*
X126647138Y-82303754D01*
X126560567Y-82426397D01*
X126529698Y-82513252D01*
X125906759Y-81890313D01*
X125824224Y-82016644D01*
X125731757Y-82227446D01*
X125675249Y-82450591D01*
X125675247Y-82450603D01*
X125656240Y-82679994D01*
X125656240Y-82680005D01*
X124566836Y-82680005D01*
X124583456Y-82415845D01*
X124583456Y-82415834D01*
X124564451Y-82113765D01*
X124564450Y-82113758D01*
X124564450Y-82113755D01*
X124507733Y-81816434D01*
X124414199Y-81528566D01*
X124285323Y-81254690D01*
X124123138Y-80999127D01*
X123930201Y-80765906D01*
X123709555Y-80558706D01*
X123709552Y-80558704D01*
X123709546Y-80558699D01*
X123464691Y-80380801D01*
X123464684Y-80380796D01*
X123464680Y-80380794D01*
X123199437Y-80234975D01*
X123199434Y-80234973D01*
X123199429Y-80234971D01*
X123199428Y-80234970D01*
X122918013Y-80123550D01*
X122918010Y-80123549D01*
X122624840Y-80048276D01*
X122624827Y-80048274D01*
X122324552Y-80010340D01*
X122324541Y-80010340D01*
X122021859Y-80010340D01*
X122021847Y-80010340D01*
X121721572Y-80048274D01*
X121721559Y-80048276D01*
X121428389Y-80123549D01*
X121428386Y-80123550D01*
X121146971Y-80234970D01*
X121146970Y-80234971D01*
X120881720Y-80380794D01*
X120881708Y-80380801D01*
X120636853Y-80558699D01*
X120636843Y-80558707D01*
X120416201Y-80765904D01*
X120223258Y-80999131D01*
X120061080Y-81254684D01*
X119932200Y-81528568D01*
X119838668Y-81816429D01*
X119838667Y-81816433D01*
X119838667Y-81816434D01*
X119837294Y-81823630D01*
X119781949Y-82113758D01*
X119781948Y-82113765D01*
X119762944Y-82415834D01*
X119762944Y-82415845D01*
X53340500Y-82415845D01*
X53340500Y-62801500D01*
X54117156Y-62801500D01*
X54137318Y-63186223D01*
X54197584Y-63566722D01*
X54197584Y-63566724D01*
X54297297Y-63938858D01*
X54435357Y-64298515D01*
X54610257Y-64641776D01*
X54820071Y-64964862D01*
X54820073Y-64964864D01*
X54820076Y-64964868D01*
X54820077Y-64964869D01*
X55062523Y-65264265D01*
X55334935Y-65536677D01*
X55539846Y-65702610D01*
X55634335Y-65779126D01*
X55634337Y-65779128D01*
X55957423Y-65988942D01*
X55957428Y-65988945D01*
X56300688Y-66163844D01*
X56660349Y-66301905D01*
X57032472Y-66401615D01*
X57412978Y-66461882D01*
X57776421Y-66480928D01*
X57797699Y-66482044D01*
X57797700Y-66482044D01*
X57797701Y-66482044D01*
X57817863Y-66480987D01*
X58182422Y-66461882D01*
X58562928Y-66401615D01*
X58935051Y-66301905D01*
X59294712Y-66163844D01*
X59637972Y-65988945D01*
X59789754Y-65890376D01*
X59961062Y-65779128D01*
X59961064Y-65779126D01*
X59961069Y-65779123D01*
X60260465Y-65536677D01*
X60532877Y-65264265D01*
X60775323Y-64964869D01*
X60985145Y-64641772D01*
X61160044Y-64298512D01*
X61298105Y-63938851D01*
X61397815Y-63566728D01*
X61458082Y-63186222D01*
X61478244Y-62801500D01*
X68112556Y-62801500D01*
X68132718Y-63186223D01*
X68192984Y-63566722D01*
X68192984Y-63566724D01*
X68292697Y-63938858D01*
X68430757Y-64298515D01*
X68605657Y-64641776D01*
X68815471Y-64964862D01*
X68815473Y-64964864D01*
X68815476Y-64964868D01*
X68815477Y-64964869D01*
X69057923Y-65264265D01*
X69330335Y-65536677D01*
X69535246Y-65702610D01*
X69629735Y-65779126D01*
X69629737Y-65779128D01*
X69952823Y-65988942D01*
X69952828Y-65988945D01*
X70296088Y-66163844D01*
X70655749Y-66301905D01*
X71027872Y-66401615D01*
X71408378Y-66461882D01*
X71771821Y-66480928D01*
X71793099Y-66482044D01*
X71793100Y-66482044D01*
X71793101Y-66482044D01*
X71813263Y-66480987D01*
X72177822Y-66461882D01*
X72558328Y-66401615D01*
X72930451Y-66301905D01*
X73290112Y-66163844D01*
X73633372Y-65988945D01*
X73785154Y-65890376D01*
X73956462Y-65779128D01*
X73956464Y-65779126D01*
X73956469Y-65779123D01*
X74255865Y-65536677D01*
X74528277Y-65264265D01*
X74658701Y-65103205D01*
X119762944Y-65103205D01*
X119781948Y-65405274D01*
X119781949Y-65405281D01*
X119838668Y-65702610D01*
X119931703Y-65988942D01*
X119932201Y-65990474D01*
X120061077Y-66264350D01*
X120061079Y-66264353D01*
X120061080Y-66264355D01*
X120223258Y-66519908D01*
X120223261Y-66519912D01*
X120223262Y-66519913D01*
X120416199Y-66753134D01*
X120636843Y-66960332D01*
X120636853Y-66960340D01*
X120881708Y-67138238D01*
X120881713Y-67138240D01*
X120881720Y-67138246D01*
X121146963Y-67284065D01*
X121146968Y-67284067D01*
X121146970Y-67284068D01*
X121146971Y-67284069D01*
X121428386Y-67395489D01*
X121428389Y-67395490D01*
X121721559Y-67470763D01*
X121721563Y-67470764D01*
X121784560Y-67478722D01*
X122021847Y-67508699D01*
X122021856Y-67508699D01*
X122021859Y-67508700D01*
X122021861Y-67508700D01*
X122324539Y-67508700D01*
X122324541Y-67508700D01*
X122324544Y-67508699D01*
X122324552Y-67508699D01*
X122503739Y-67486062D01*
X122624837Y-67470764D01*
X122918010Y-67395490D01*
X122918013Y-67395489D01*
X123199428Y-67284069D01*
X123199429Y-67284068D01*
X123199427Y-67284068D01*
X123199437Y-67284065D01*
X123464680Y-67138246D01*
X123709555Y-66960334D01*
X123930201Y-66753134D01*
X124123138Y-66519913D01*
X124285323Y-66264350D01*
X124414199Y-65990474D01*
X124507733Y-65702606D01*
X124564450Y-65405285D01*
X124564451Y-65405274D01*
X124583456Y-65103205D01*
X139775604Y-65103205D01*
X139794608Y-65405274D01*
X139794609Y-65405281D01*
X139851328Y-65702610D01*
X139944363Y-65988942D01*
X139944861Y-65990474D01*
X140073737Y-66264350D01*
X140073739Y-66264353D01*
X140073740Y-66264355D01*
X140235918Y-66519908D01*
X140235921Y-66519912D01*
X140235922Y-66519913D01*
X140428859Y-66753134D01*
X140649503Y-66960332D01*
X140649513Y-66960340D01*
X140894368Y-67138238D01*
X140894373Y-67138240D01*
X140894380Y-67138246D01*
X141159623Y-67284065D01*
X141159628Y-67284067D01*
X141159630Y-67284068D01*
X141159631Y-67284069D01*
X141441046Y-67395489D01*
X141441049Y-67395490D01*
X141734219Y-67470763D01*
X141734223Y-67470764D01*
X141797220Y-67478722D01*
X142034507Y-67508699D01*
X142034516Y-67508699D01*
X142034519Y-67508700D01*
X142034521Y-67508700D01*
X142337199Y-67508700D01*
X142337201Y-67508700D01*
X142337204Y-67508699D01*
X142337212Y-67508699D01*
X142516399Y-67486062D01*
X142637497Y-67470764D01*
X142930670Y-67395490D01*
X142930673Y-67395489D01*
X143212088Y-67284069D01*
X143212089Y-67284068D01*
X143212087Y-67284068D01*
X143212097Y-67284065D01*
X143477340Y-67138246D01*
X143722215Y-66960334D01*
X143942861Y-66753134D01*
X144135798Y-66519913D01*
X144297983Y-66264350D01*
X144426859Y-65990474D01*
X144520393Y-65702606D01*
X144577110Y-65405285D01*
X144577111Y-65405274D01*
X144596116Y-65103205D01*
X144596116Y-65103194D01*
X144577111Y-64801125D01*
X144577110Y-64801118D01*
X144577110Y-64801115D01*
X144520393Y-64503794D01*
X144426859Y-64215926D01*
X144297983Y-63942050D01*
X144135798Y-63686487D01*
X143942861Y-63453266D01*
X143722215Y-63246066D01*
X143722212Y-63246064D01*
X143722206Y-63246059D01*
X143477351Y-63068161D01*
X143477344Y-63068156D01*
X143477340Y-63068154D01*
X143212097Y-62922335D01*
X143212094Y-62922333D01*
X143212089Y-62922331D01*
X143212088Y-62922330D01*
X142930673Y-62810910D01*
X142930670Y-62810909D01*
X142894024Y-62801500D01*
X186120956Y-62801500D01*
X186141118Y-63186223D01*
X186201384Y-63566722D01*
X186201384Y-63566724D01*
X186301097Y-63938858D01*
X186439157Y-64298515D01*
X186614057Y-64641776D01*
X186823871Y-64964862D01*
X186823873Y-64964864D01*
X186823876Y-64964868D01*
X186823877Y-64964869D01*
X187066323Y-65264265D01*
X187338735Y-65536677D01*
X187543646Y-65702610D01*
X187638135Y-65779126D01*
X187638137Y-65779128D01*
X187961223Y-65988942D01*
X187961228Y-65988945D01*
X188304488Y-66163844D01*
X188664149Y-66301905D01*
X189036272Y-66401615D01*
X189416778Y-66461882D01*
X189780221Y-66480928D01*
X189801499Y-66482044D01*
X189801500Y-66482044D01*
X189801501Y-66482044D01*
X189821663Y-66480987D01*
X190186222Y-66461882D01*
X190566728Y-66401615D01*
X190938851Y-66301905D01*
X191298512Y-66163844D01*
X191641772Y-65988945D01*
X191793554Y-65890376D01*
X191964862Y-65779128D01*
X191964864Y-65779126D01*
X191964869Y-65779123D01*
X192264265Y-65536677D01*
X192536677Y-65264265D01*
X192779123Y-64964869D01*
X192988945Y-64641772D01*
X193163844Y-64298512D01*
X193301905Y-63938851D01*
X193401615Y-63566728D01*
X193461882Y-63186222D01*
X193482044Y-62801500D01*
X193461882Y-62416778D01*
X193401615Y-62036272D01*
X193301905Y-61664149D01*
X193163844Y-61304488D01*
X192988945Y-60961228D01*
X192988942Y-60961223D01*
X192779128Y-60638137D01*
X192779126Y-60638135D01*
X192536680Y-60338739D01*
X192536677Y-60338735D01*
X192264265Y-60066323D01*
X191964869Y-59823877D01*
X191964868Y-59823876D01*
X191964864Y-59823873D01*
X191964862Y-59823871D01*
X191641776Y-59614057D01*
X191298515Y-59439157D01*
X190938858Y-59301097D01*
X190938851Y-59301095D01*
X190566728Y-59201385D01*
X190566724Y-59201384D01*
X190566723Y-59201384D01*
X190186223Y-59141118D01*
X189801501Y-59120956D01*
X189801499Y-59120956D01*
X189416776Y-59141118D01*
X189036277Y-59201384D01*
X189036275Y-59201384D01*
X188664141Y-59301097D01*
X188304484Y-59439157D01*
X187961223Y-59614057D01*
X187638137Y-59823871D01*
X187638135Y-59823873D01*
X187338739Y-60066319D01*
X187338731Y-60066326D01*
X187066326Y-60338731D01*
X187066319Y-60338739D01*
X186823873Y-60638135D01*
X186823871Y-60638137D01*
X186614057Y-60961223D01*
X186439157Y-61304484D01*
X186301097Y-61664141D01*
X186201384Y-62036275D01*
X186201384Y-62036277D01*
X186141118Y-62416776D01*
X186120956Y-62801499D01*
X186120956Y-62801500D01*
X142894024Y-62801500D01*
X142637500Y-62735636D01*
X142637487Y-62735634D01*
X142337212Y-62697700D01*
X142337201Y-62697700D01*
X142034519Y-62697700D01*
X142034507Y-62697700D01*
X141734232Y-62735634D01*
X141734219Y-62735636D01*
X141441049Y-62810909D01*
X141441046Y-62810910D01*
X141159631Y-62922330D01*
X141159630Y-62922331D01*
X140894380Y-63068154D01*
X140894368Y-63068161D01*
X140649513Y-63246059D01*
X140649503Y-63246067D01*
X140428861Y-63453264D01*
X140235918Y-63686491D01*
X140073740Y-63942044D01*
X139944860Y-64215928D01*
X139851328Y-64503789D01*
X139794609Y-64801118D01*
X139794608Y-64801125D01*
X139775604Y-65103194D01*
X139775604Y-65103205D01*
X124583456Y-65103205D01*
X124583456Y-65103194D01*
X124564451Y-64801125D01*
X124564450Y-64801118D01*
X124564450Y-64801115D01*
X124507733Y-64503794D01*
X124414199Y-64215926D01*
X124285323Y-63942050D01*
X124123138Y-63686487D01*
X123930201Y-63453266D01*
X123709555Y-63246066D01*
X123709552Y-63246064D01*
X123709546Y-63246059D01*
X123464691Y-63068161D01*
X123464684Y-63068156D01*
X123464680Y-63068154D01*
X123199437Y-62922335D01*
X123199434Y-62922333D01*
X123199429Y-62922331D01*
X123199428Y-62922330D01*
X122918013Y-62810910D01*
X122918010Y-62810909D01*
X122624840Y-62735636D01*
X122624827Y-62735634D01*
X122324552Y-62697700D01*
X122324541Y-62697700D01*
X122021859Y-62697700D01*
X122021847Y-62697700D01*
X121721572Y-62735634D01*
X121721559Y-62735636D01*
X121428389Y-62810909D01*
X121428386Y-62810910D01*
X121146971Y-62922330D01*
X121146970Y-62922331D01*
X120881720Y-63068154D01*
X120881708Y-63068161D01*
X120636853Y-63246059D01*
X120636843Y-63246067D01*
X120416201Y-63453264D01*
X120223258Y-63686491D01*
X120061080Y-63942044D01*
X119932200Y-64215928D01*
X119838668Y-64503789D01*
X119781949Y-64801118D01*
X119781948Y-64801125D01*
X119762944Y-65103194D01*
X119762944Y-65103205D01*
X74658701Y-65103205D01*
X74770723Y-64964869D01*
X74980545Y-64641772D01*
X75155444Y-64298512D01*
X75293505Y-63938851D01*
X75393215Y-63566728D01*
X75453482Y-63186222D01*
X75473644Y-62801500D01*
X75453482Y-62416778D01*
X75393215Y-62036272D01*
X75293505Y-61664149D01*
X75155444Y-61304488D01*
X74980545Y-60961228D01*
X74980542Y-60961223D01*
X74770728Y-60638137D01*
X74770726Y-60638135D01*
X74528280Y-60338739D01*
X74528277Y-60338735D01*
X74255865Y-60066323D01*
X73956469Y-59823877D01*
X73956468Y-59823876D01*
X73956464Y-59823873D01*
X73956462Y-59823871D01*
X73633376Y-59614057D01*
X73290115Y-59439157D01*
X72930458Y-59301097D01*
X72930451Y-59301095D01*
X72558328Y-59201385D01*
X72558324Y-59201384D01*
X72558323Y-59201384D01*
X72177823Y-59141118D01*
X71793101Y-59120956D01*
X71793099Y-59120956D01*
X71408376Y-59141118D01*
X71027877Y-59201384D01*
X71027875Y-59201384D01*
X70655741Y-59301097D01*
X70296084Y-59439157D01*
X69952823Y-59614057D01*
X69629737Y-59823871D01*
X69629735Y-59823873D01*
X69330339Y-60066319D01*
X69330331Y-60066326D01*
X69057926Y-60338731D01*
X69057919Y-60338739D01*
X68815473Y-60638135D01*
X68815471Y-60638137D01*
X68605657Y-60961223D01*
X68430757Y-61304484D01*
X68292697Y-61664141D01*
X68192984Y-62036275D01*
X68192984Y-62036277D01*
X68132718Y-62416776D01*
X68112556Y-62801499D01*
X68112556Y-62801500D01*
X61478244Y-62801500D01*
X61458082Y-62416778D01*
X61397815Y-62036272D01*
X61298105Y-61664149D01*
X61160044Y-61304488D01*
X60985145Y-60961228D01*
X60985142Y-60961223D01*
X60775328Y-60638137D01*
X60775326Y-60638135D01*
X60532880Y-60338739D01*
X60532877Y-60338735D01*
X60260465Y-60066323D01*
X59961069Y-59823877D01*
X59961068Y-59823876D01*
X59961064Y-59823873D01*
X59961062Y-59823871D01*
X59637976Y-59614057D01*
X59294715Y-59439157D01*
X58935058Y-59301097D01*
X58935051Y-59301095D01*
X58562928Y-59201385D01*
X58562924Y-59201384D01*
X58562923Y-59201384D01*
X58182423Y-59141118D01*
X57797701Y-59120956D01*
X57797699Y-59120956D01*
X57412976Y-59141118D01*
X57032477Y-59201384D01*
X57032475Y-59201384D01*
X56660341Y-59301097D01*
X56300684Y-59439157D01*
X55957423Y-59614057D01*
X55634337Y-59823871D01*
X55634335Y-59823873D01*
X55334939Y-60066319D01*
X55334931Y-60066326D01*
X55062526Y-60338731D01*
X55062519Y-60338739D01*
X54820073Y-60638135D01*
X54820071Y-60638137D01*
X54610257Y-60961223D01*
X54435357Y-61304484D01*
X54297297Y-61664141D01*
X54197584Y-62036275D01*
X54197584Y-62036277D01*
X54137318Y-62416776D01*
X54117156Y-62801499D01*
X54117156Y-62801500D01*
X53340500Y-62801500D01*
X53340500Y-57909500D01*
X53360185Y-57842461D01*
X53412989Y-57796706D01*
X53464500Y-57785500D01*
X194185500Y-57785500D01*
X194252539Y-57805185D01*
G37*
%TD.AperFunction*%
%TD*%
M02*
