%TF.GenerationSoftware,KiCad,Pcbnew,7.0.10*%
%TF.CreationDate,2024-03-23T17:35:10-04:00*%
%TF.ProjectId,blue-bike-air-pollution-monitor 3-23,626c7565-2d62-4696-9b65-2d6169722d70,rev?*%
%TF.SameCoordinates,Original*%
%TF.FileFunction,Copper,L1,Top*%
%TF.FilePolarity,Positive*%
%FSLAX46Y46*%
G04 Gerber Fmt 4.6, Leading zero omitted, Abs format (unit mm)*
G04 Created by KiCad (PCBNEW 7.0.10) date 2024-03-23 17:35:10*
%MOMM*%
%LPD*%
G01*
G04 APERTURE LIST*
%TA.AperFunction,ComponentPad*%
%ADD10C,2.540000*%
%TD*%
%TA.AperFunction,ComponentPad*%
%ADD11C,1.778000*%
%TD*%
%TA.AperFunction,ComponentPad*%
%ADD12C,6.350000*%
%TD*%
%TA.AperFunction,ComponentPad*%
%ADD13R,1.700000X1.700000*%
%TD*%
%TA.AperFunction,ComponentPad*%
%ADD14O,1.700000X1.700000*%
%TD*%
%TA.AperFunction,ComponentPad*%
%ADD15O,1.600000X1.600000*%
%TD*%
%TA.AperFunction,ComponentPad*%
%ADD16C,1.600000*%
%TD*%
%TA.AperFunction,ComponentPad*%
%ADD17C,3.810000*%
%TD*%
%TA.AperFunction,ComponentPad*%
%ADD18R,1.905000X2.000000*%
%TD*%
%TA.AperFunction,ComponentPad*%
%ADD19O,1.905000X2.000000*%
%TD*%
%TA.AperFunction,ComponentPad*%
%ADD20C,3.000000*%
%TD*%
%TA.AperFunction,ViaPad*%
%ADD21C,0.800000*%
%TD*%
%TA.AperFunction,Conductor*%
%ADD22C,0.250000*%
%TD*%
%TA.AperFunction,Conductor*%
%ADD23C,1.270000*%
%TD*%
G04 APERTURE END LIST*
D10*
%TO.P,Accelerometer1,9*%
%TO.N,N/C*%
X166905000Y-85825000D03*
%TO.P,Accelerometer1,8*%
X166905000Y-71855000D03*
D11*
%TO.P,Accelerometer1,7,Test*%
%TO.N,unconnected-(Accelerometer1-Test-Pad7)*%
X152935000Y-86460000D03*
%TO.P,Accelerometer1,6,Xout*%
%TO.N,Net-(Accelerometer1-Xout)*%
X152935000Y-83920000D03*
%TO.P,Accelerometer1,5,Yout*%
%TO.N,Net-(Accelerometer1-Yout)*%
X152935000Y-81380000D03*
%TO.P,Accelerometer1,4,Zout*%
%TO.N,Net-(Accelerometer1-Zout)*%
X152935000Y-78840000D03*
%TO.P,Accelerometer1,3,GND*%
%TO.N,GND*%
X152935000Y-76300000D03*
%TO.P,Accelerometer1,2,3Vo*%
%TO.N,unconnected-(Accelerometer1-3Vo-Pad2)*%
X152935000Y-73760000D03*
%TO.P,Accelerometer1,1,5V*%
%TO.N,+5V*%
X152935000Y-71220000D03*
%TD*%
D12*
%TO.P,H1,1*%
%TO.N,N/C*%
X57797700Y-62801500D03*
%TD*%
D11*
%TO.P,SEN55,1,VDD*%
%TO.N,+5V*%
X118695800Y-102566800D03*
%TO.P,SEN55,2,GND*%
%TO.N,GND*%
X118695800Y-100026800D03*
%TO.P,SEN55,3,SDA*%
%TO.N,Net-(CO2-SDA)*%
X118695800Y-97486800D03*
%TO.P,SEN55,4,SCL*%
%TO.N,Net-(CO2-SCL)*%
X118695800Y-94946800D03*
%TO.P,SEN55,5,SEL*%
%TO.N,GND*%
X118695800Y-92406800D03*
%TO.P,SEN55,6,NC*%
%TO.N,unconnected-(SEN55-NC-Pad6)*%
X118695800Y-89866800D03*
%TD*%
D13*
%TO.P,BT1,1,+*%
%TO.N,Net-(BT1-+)*%
X111760000Y-147320000D03*
D14*
%TO.P,BT1,2,-*%
%TO.N,GND*%
X114300000Y-147320000D03*
%TD*%
D12*
%TO.P,H6,6*%
%TO.N,N/C*%
X71793100Y-153809700D03*
%TD*%
D11*
%TO.P,R1,1*%
%TO.N,+5V*%
X116840000Y-125730000D03*
D15*
%TO.P,R1,2*%
%TO.N,Net-(CO2-SCL)*%
X116840000Y-118110000D03*
%TD*%
D16*
%TO.P,C2,1*%
%TO.N,+5V*%
X115570000Y-134580000D03*
%TO.P,C2,2*%
%TO.N,GND*%
X115570000Y-132080000D03*
%TD*%
D12*
%TO.P,H3,3*%
%TO.N,N/C*%
X57797700Y-153809700D03*
%TD*%
D11*
%TO.P,R2,1*%
%TO.N,+5V*%
X111760000Y-125730000D03*
%TO.P,R2,2*%
%TO.N,Net-(CO2-SDA)*%
X111760000Y-118110000D03*
%TD*%
D16*
%TO.P,C1,1*%
%TO.N,Net-(BT1-+)*%
X111760000Y-134620000D03*
%TO.P,C1,2*%
%TO.N,GND*%
X111760000Y-132120000D03*
%TD*%
D12*
%TO.P,H2,2*%
%TO.N,N/C*%
X189801500Y-62801500D03*
%TD*%
D11*
%TO.P,ESP32-WROOM-32E1,1,SDA*%
%TO.N,Net-(CO2-SDA)*%
X123875800Y-96520000D03*
%TO.P,ESP32-WROOM-32E1,2,SCL*%
%TO.N,Net-(CO2-SCL)*%
X123875800Y-99060000D03*
%TO.P,ESP32-WROOM-32E1,3,D04*%
%TO.N,Net-(ESP32-WROOM-32E1-D04)*%
X123875800Y-101600000D03*
%TO.P,ESP32-WROOM-32E1,4,D06*%
%TO.N,Net-(ESP32-WROOM-32E1-D06)*%
X123875800Y-104140000D03*
%TO.P,ESP32-WROOM-32E1,5,D08*%
%TO.N,unconnected-(ESP32-WROOM-32E1-D08-Pad5)*%
X123875800Y-106680000D03*
%TO.P,ESP32-WROOM-32E1,6,D10*%
%TO.N,unconnected-(ESP32-WROOM-32E1-D10-Pad6)*%
X123875800Y-109220000D03*
%TO.P,ESP32-WROOM-32E1,7,D11*%
%TO.N,unconnected-(ESP32-WROOM-32E1-D11-Pad7)*%
X123875800Y-111760000D03*
%TO.P,ESP32-WROOM-32E1,8,D12*%
%TO.N,unconnected-(ESP32-WROOM-32E1-D12-Pad8)*%
X123875800Y-114300000D03*
%TO.P,ESP32-WROOM-32E1,9,LED*%
%TO.N,unconnected-(ESP32-WROOM-32E1-LED-Pad9)*%
X123875800Y-116840000D03*
%TO.P,ESP32-WROOM-32E1,10,VBUS/LED*%
%TO.N,+5V*%
X123875800Y-119380000D03*
%TO.P,ESP32-WROOM-32E1,11,3.3V/EN*%
%TO.N,unconnected-(ESP32-WROOM-32E1-3.3V{slash}EN-Pad11)*%
X123875800Y-121920000D03*
%TO.P,ESP32-WROOM-32E1,12,VBAT*%
%TO.N,unconnected-(ESP32-WROOM-32E1-VBAT-Pad12)*%
X123875800Y-124460000D03*
%TO.P,ESP32-WROOM-32E1,13,RESET*%
%TO.N,unconnected-(ESP32-WROOM-32E1-RESET-Pad13)*%
X144195800Y-134620000D03*
%TO.P,ESP32-WROOM-32E1,14,Vin*%
%TO.N,+3.3V*%
X144195800Y-132080000D03*
%TO.P,ESP32-WROOM-32E1,15,NC*%
%TO.N,unconnected-(ESP32-WROOM-32E1-NC-Pad15)*%
X144195800Y-129540000D03*
%TO.P,ESP32-WROOM-32E1,16,GND*%
%TO.N,GND*%
X144195800Y-127000000D03*
%TO.P,ESP32-WROOM-32E1,17,A0*%
%TO.N,Net-(ESP32-WROOM-32E1-A0)*%
X144195800Y-124460000D03*
%TO.P,ESP32-WROOM-32E1,18,A1*%
%TO.N,Net-(ESP32-WROOM-32E1-A1)*%
X144195800Y-121920000D03*
%TO.P,ESP32-WROOM-32E1,19,A2*%
%TO.N,Net-(ESP32-WROOM-32E1-A2)*%
X144195800Y-119380000D03*
%TO.P,ESP32-WROOM-32E1,20,A3*%
%TO.N,Net-(Accelerometer1-Xout)*%
X144195800Y-116840000D03*
%TO.P,ESP32-WROOM-32E1,21,A4*%
%TO.N,Net-(Accelerometer1-Yout)*%
X144195800Y-114300000D03*
%TO.P,ESP32-WROOM-32E1,22,A5*%
%TO.N,Net-(Accelerometer1-Zout)*%
X144195800Y-111760000D03*
%TO.P,ESP32-WROOM-32E1,23,SCK*%
%TO.N,Net-(ESP32-WROOM-32E1-SCK)*%
X144195800Y-109220000D03*
%TO.P,ESP32-WROOM-32E1,24,MOSI*%
%TO.N,Net-(ESP32-WROOM-32E1-MOSI)*%
X144195800Y-106680000D03*
%TO.P,ESP32-WROOM-32E1,25,MISO*%
%TO.N,Net-(ESP32-WROOM-32E1-MISO)*%
X144195800Y-104140000D03*
%TO.P,ESP32-WROOM-32E1,26,RX*%
%TO.N,Net-(ESP32-WROOM-32E1-RX)*%
X144195800Y-101600000D03*
%TO.P,ESP32-WROOM-32E1,27,TX*%
%TO.N,Net-(ESP32-WROOM-32E1-TX)*%
X144195800Y-99060000D03*
%TO.P,ESP32-WROOM-32E1,28,FREE/ADC*%
%TO.N,unconnected-(ESP32-WROOM-32E1-FREE{slash}ADC-Pad28)*%
X144195800Y-96520000D03*
D17*
%TO.P,ESP32-WROOM-32E1,29*%
%TO.N,N/C*%
X125437900Y-146011900D03*
%TO.P,ESP32-WROOM-32E1,30*%
X142633700Y-146011900D03*
%TD*%
%TO.P,Methane1,7*%
%TO.N,N/C*%
X99060000Y-139507900D03*
%TO.P,Methane1,6*%
X69113400Y-139507900D03*
%TO.P,Methane1,5*%
X99060000Y-119772100D03*
%TO.P,Methane1,4*%
X69113400Y-119772100D03*
D11*
%TO.P,Methane1,3,GND*%
%TO.N,GND*%
X106349800Y-129068500D03*
%TO.P,Methane1,2,5V*%
%TO.N,+5V*%
X106349800Y-126528500D03*
%TO.P,Methane1,1,Out*%
%TO.N,Net-(ESP32-WROOM-32E1-A2)*%
X106349800Y-123988500D03*
%TD*%
D18*
%TO.P,U1,1,IN*%
%TO.N,Net-(BT1-+)*%
X111760000Y-142240000D03*
D19*
%TO.P,U1,2,GND*%
%TO.N,GND*%
X114300000Y-142240000D03*
%TO.P,U1,3,OUT*%
%TO.N,+5V*%
X116840000Y-142240000D03*
%TD*%
D20*
%TO.P,5V1,1,1*%
%TO.N,+5V*%
X157480000Y-152400000D03*
%TD*%
D12*
%TO.P,H5,5*%
%TO.N,N/C*%
X71793100Y-62801500D03*
%TD*%
D11*
%TO.P,GPS1,1,1PPS*%
%TO.N,unconnected-(GPS1-1PPS-Pad1)*%
X153062000Y-127100000D03*
%TO.P,GPS1,2,TX*%
%TO.N,Net-(ESP32-WROOM-32E1-RX)*%
X153062000Y-129640000D03*
%TO.P,GPS1,3,RX*%
%TO.N,Net-(ESP32-WROOM-32E1-TX)*%
X153062000Y-132180000D03*
%TO.P,GPS1,4,GND*%
%TO.N,GND*%
X153062000Y-134720000D03*
%TO.P,GPS1,5,Vin*%
%TO.N,+3.3V*%
X153062000Y-137260000D03*
D17*
%TO.P,GPS1,6*%
%TO.N,N/C*%
X174613900Y-141311300D03*
%TD*%
D11*
%TO.P,LoraWAN1,14,G1*%
%TO.N,Net-(ESP32-WROOM-32E1-A1)*%
X178408000Y-94080000D03*
%TO.P,LoraWAN1,13,G2*%
%TO.N,unconnected-(LoraWAN1-G2-Pad13)*%
X178408000Y-96620000D03*
%TO.P,LoraWAN1,12,G3*%
%TO.N,unconnected-(LoraWAN1-G3-Pad12)*%
X178408000Y-99160000D03*
%TO.P,LoraWAN1,11,G4*%
%TO.N,unconnected-(LoraWAN1-G4-Pad11)*%
X178408000Y-101700000D03*
%TO.P,LoraWAN1,10,G5*%
%TO.N,unconnected-(LoraWAN1-G5-Pad10)*%
X178408000Y-104240000D03*
%TO.P,LoraWAN1,9,RST*%
%TO.N,Net-(ESP32-WROOM-32E1-D06)*%
X153008000Y-114400000D03*
%TO.P,LoraWAN1,8,CS*%
%TO.N,Net-(ESP32-WROOM-32E1-D04)*%
X153008000Y-111860000D03*
%TO.P,LoraWAN1,7,MOSI*%
%TO.N,Net-(ESP32-WROOM-32E1-MOSI)*%
X153008000Y-109320000D03*
%TO.P,LoraWAN1,6,MISO*%
%TO.N,Net-(ESP32-WROOM-32E1-MISO)*%
X153008000Y-106780000D03*
%TO.P,LoraWAN1,5,SCK*%
%TO.N,Net-(ESP32-WROOM-32E1-SCK)*%
X153008000Y-104240000D03*
%TO.P,LoraWAN1,4,G0*%
%TO.N,Net-(ESP32-WROOM-32E1-A0)*%
X153008000Y-101700000D03*
%TO.P,LoraWAN1,3,EN*%
%TO.N,unconnected-(LoraWAN1-EN-Pad3)*%
X153008000Y-99160000D03*
%TO.P,LoraWAN1,2,GND*%
%TO.N,GND*%
X153008000Y-96620000D03*
%TO.P,LoraWAN1,1,Vin*%
%TO.N,+3.3V*%
X153008000Y-94080000D03*
%TD*%
D12*
%TO.P,H4,4*%
%TO.N,N/C*%
X189801500Y-153809700D03*
%TD*%
D20*
%TO.P,3.3V1,1,1*%
%TO.N,+3.3V*%
X147320000Y-152400000D03*
%TD*%
D11*
%TO.P,CO2,1,Vin*%
%TO.N,+5V*%
X127050000Y-82680000D03*
%TO.P,CO2,2,3Vo*%
%TO.N,unconnected-(CO2-3Vo-Pad2)*%
X129590000Y-82680000D03*
%TO.P,CO2,3,Ground*%
%TO.N,GND*%
X132130000Y-82680000D03*
%TO.P,CO2,4,SCL*%
%TO.N,Net-(CO2-SCL)*%
X134670000Y-82680000D03*
%TO.P,CO2,5,SDA*%
%TO.N,Net-(CO2-SDA)*%
X137210000Y-82680000D03*
D17*
%TO.P,CO2,6*%
%TO.N,N/C*%
X122173200Y-65103200D03*
%TO.P,CO2,7*%
X142185860Y-65103200D03*
%TO.P,CO2,8*%
X122173200Y-82415840D03*
%TO.P,CO2,9*%
X142185860Y-82415840D03*
%TD*%
D20*
%TO.P,GND1,1,1*%
%TO.N,GND*%
X152400000Y-149860000D03*
%TD*%
D21*
%TO.N,Net-(CO2-SDA)*%
X121920000Y-96520000D03*
%TO.N,Net-(CO2-SCL)*%
X120650000Y-98812800D03*
%TO.N,Net-(ESP32-WROOM-32E1-RX)*%
X142240000Y-128214000D03*
%TO.N,Net-(ESP32-WROOM-32E1-TX)*%
X138430000Y-129540000D03*
%TO.N,+3.3V*%
X140335000Y-111760000D03*
%TD*%
D22*
%TO.N,Net-(Accelerometer1-Xout)*%
X149860000Y-86995000D02*
X152935000Y-83920000D01*
X147320000Y-116840000D02*
X149860000Y-114300000D01*
X149860000Y-114300000D02*
X149860000Y-86995000D01*
X144195800Y-116840000D02*
X147320000Y-116840000D01*
%TO.N,Net-(Accelerometer1-Yout)*%
X148085572Y-86229428D02*
X148085572Y-97285572D01*
X152935000Y-81380000D02*
X148085572Y-86229428D01*
X147320000Y-98051144D02*
X148085572Y-97285572D01*
%TO.N,Net-(Accelerometer1-Zout)*%
X146050000Y-109905800D02*
X146050000Y-97355000D01*
X146050000Y-97355000D02*
X147430350Y-95974650D01*
X147430350Y-84344650D02*
X152935000Y-78840000D01*
X144195800Y-111760000D02*
X146050000Y-109905800D01*
X147430350Y-95974650D02*
X147430350Y-84344650D01*
%TO.N,Net-(Accelerometer1-Yout)*%
X147320000Y-111175800D02*
X147320000Y-98051144D01*
X144195800Y-114300000D02*
X147320000Y-111175800D01*
%TO.N,Net-(CO2-SCL)*%
X139700000Y-86360000D02*
X127000000Y-99060000D01*
X139700000Y-83453144D02*
X139700000Y-86360000D01*
X136070000Y-81280000D02*
X137526856Y-81280000D01*
X137526856Y-81280000D02*
X139700000Y-83453144D01*
X127000000Y-99060000D02*
X123875800Y-99060000D01*
X134670000Y-82680000D02*
X136070000Y-81280000D01*
%TO.N,Net-(CO2-SDA)*%
X127000000Y-96520000D02*
X123875800Y-96520000D01*
X137210000Y-86310000D02*
X127000000Y-96520000D01*
X137210000Y-82680000D02*
X137210000Y-86310000D01*
%TO.N,Net-(ESP32-WROOM-32E1-RX)*%
X143510000Y-101600000D02*
X144195800Y-101600000D01*
X141605000Y-103505000D02*
X143510000Y-101600000D01*
X142240000Y-128214000D02*
X141605000Y-127579000D01*
X141605000Y-127579000D02*
X141605000Y-103505000D01*
%TO.N,Net-(CO2-SDA)*%
X118745000Y-119380000D02*
X121920000Y-116205000D01*
X115570000Y-119380000D02*
X118745000Y-119380000D01*
X114300000Y-118110000D02*
X115570000Y-119380000D01*
X111760000Y-118110000D02*
X114300000Y-118110000D01*
X121920000Y-116205000D02*
X121920000Y-96520000D01*
%TO.N,Net-(CO2-SCL)*%
X120650000Y-116205000D02*
X120650000Y-98812800D01*
D23*
%TO.N,+5V*%
X115570000Y-134580000D02*
X116840000Y-135850000D01*
X116840000Y-135850000D02*
X116840000Y-142240000D01*
%TO.N,+3.3V*%
X147320000Y-135204200D02*
X147320000Y-152400000D01*
X144195800Y-132080000D02*
X147320000Y-135204200D01*
%TO.N,Net-(BT1-+)*%
X111760000Y-142240000D02*
X111760000Y-134620000D01*
X111760000Y-147320000D02*
X111760000Y-142240000D01*
D22*
%TO.N,Net-(CO2-SCL)*%
X118745000Y-118110000D02*
X116840000Y-118110000D01*
X120650000Y-116205000D02*
X118745000Y-118110000D01*
%TO.N,Net-(ESP32-WROOM-32E1-TX)*%
X140970000Y-102285800D02*
X144195800Y-99060000D01*
X140970000Y-104775000D02*
X140970000Y-102285800D01*
X138430000Y-107315000D02*
X140970000Y-104775000D01*
X138430000Y-129540000D02*
X138430000Y-107315000D01*
%TO.N,Net-(ESP32-WROOM-32E1-A1)*%
X154940000Y-121920000D02*
X144195800Y-121920000D01*
X156845000Y-96520000D02*
X156845000Y-120015000D01*
X159285000Y-94080000D02*
X156845000Y-96520000D01*
X156845000Y-120015000D02*
X154940000Y-121920000D01*
X178408000Y-94080000D02*
X159285000Y-94080000D01*
%TO.N,+3.3V*%
X140335000Y-128219200D02*
X144195800Y-132080000D01*
X140335000Y-111760000D02*
X140335000Y-128219200D01*
%TD*%
%TA.AperFunction,Conductor*%
%TO.N,GND*%
G36*
X143371039Y-102726063D02*
G01*
X143403868Y-102744391D01*
X143437258Y-102770379D01*
X143436275Y-102771640D01*
X143476983Y-102819349D01*
X143486400Y-102888581D01*
X143456892Y-102951914D01*
X143436936Y-102969205D01*
X143437259Y-102969620D01*
X143251494Y-103114206D01*
X143251489Y-103114211D01*
X143095528Y-103283629D01*
X142969582Y-103476405D01*
X142877082Y-103687285D01*
X142820553Y-103910515D01*
X142801538Y-104139994D01*
X142801538Y-104140005D01*
X142820553Y-104369484D01*
X142877082Y-104592714D01*
X142969582Y-104803594D01*
X143095528Y-104996370D01*
X143095531Y-104996373D01*
X143251492Y-105165792D01*
X143368391Y-105256778D01*
X143437259Y-105310380D01*
X143436276Y-105311641D01*
X143476983Y-105359349D01*
X143486400Y-105428581D01*
X143456892Y-105491914D01*
X143436936Y-105509205D01*
X143437259Y-105509620D01*
X143251494Y-105654206D01*
X143251489Y-105654211D01*
X143095528Y-105823629D01*
X142969582Y-106016405D01*
X142877082Y-106227285D01*
X142820553Y-106450515D01*
X142801538Y-106679994D01*
X142801538Y-106680005D01*
X142820553Y-106909484D01*
X142877082Y-107132714D01*
X142969582Y-107343594D01*
X143095528Y-107536370D01*
X143095531Y-107536373D01*
X143251492Y-107705792D01*
X143368391Y-107796778D01*
X143437259Y-107850380D01*
X143436276Y-107851641D01*
X143476983Y-107899349D01*
X143486400Y-107968581D01*
X143456892Y-108031914D01*
X143436936Y-108049205D01*
X143437259Y-108049620D01*
X143251494Y-108194206D01*
X143251489Y-108194211D01*
X143095528Y-108363629D01*
X142969582Y-108556405D01*
X142877082Y-108767285D01*
X142820553Y-108990515D01*
X142801538Y-109219994D01*
X142801538Y-109220005D01*
X142820553Y-109449484D01*
X142877082Y-109672714D01*
X142969582Y-109883594D01*
X143095528Y-110076370D01*
X143095531Y-110076373D01*
X143251492Y-110245792D01*
X143337178Y-110312484D01*
X143437259Y-110390380D01*
X143436276Y-110391641D01*
X143476983Y-110439349D01*
X143486400Y-110508581D01*
X143456892Y-110571914D01*
X143436936Y-110589205D01*
X143437259Y-110589620D01*
X143251494Y-110734206D01*
X143251489Y-110734211D01*
X143095528Y-110903629D01*
X142969582Y-111096405D01*
X142877082Y-111307285D01*
X142820553Y-111530515D01*
X142801538Y-111759994D01*
X142801538Y-111760005D01*
X142820553Y-111989484D01*
X142877082Y-112212714D01*
X142969582Y-112423594D01*
X143095528Y-112616370D01*
X143095531Y-112616373D01*
X143251492Y-112785792D01*
X143368391Y-112876778D01*
X143437259Y-112930380D01*
X143436276Y-112931641D01*
X143476983Y-112979349D01*
X143486400Y-113048581D01*
X143456892Y-113111914D01*
X143436936Y-113129205D01*
X143437259Y-113129620D01*
X143251494Y-113274206D01*
X143251489Y-113274211D01*
X143095528Y-113443629D01*
X142969582Y-113636405D01*
X142877082Y-113847285D01*
X142820553Y-114070515D01*
X142801538Y-114299994D01*
X142801538Y-114300005D01*
X142820553Y-114529484D01*
X142877082Y-114752714D01*
X142969582Y-114963594D01*
X143095528Y-115156370D01*
X143095531Y-115156373D01*
X143251492Y-115325792D01*
X143368391Y-115416778D01*
X143437259Y-115470380D01*
X143436276Y-115471641D01*
X143476983Y-115519349D01*
X143486400Y-115588581D01*
X143456892Y-115651914D01*
X143436936Y-115669205D01*
X143437259Y-115669620D01*
X143251494Y-115814206D01*
X143251489Y-115814211D01*
X143095528Y-115983629D01*
X142969582Y-116176405D01*
X142877082Y-116387285D01*
X142820553Y-116610515D01*
X142801538Y-116839994D01*
X142801538Y-116840005D01*
X142820553Y-117069484D01*
X142877082Y-117292714D01*
X142969582Y-117503594D01*
X143095528Y-117696370D01*
X143111712Y-117713950D01*
X143251492Y-117865792D01*
X143368391Y-117956778D01*
X143437259Y-118010380D01*
X143436276Y-118011641D01*
X143476983Y-118059349D01*
X143486400Y-118128581D01*
X143456892Y-118191914D01*
X143436936Y-118209205D01*
X143437259Y-118209620D01*
X143251494Y-118354206D01*
X143251489Y-118354211D01*
X143095528Y-118523629D01*
X142969582Y-118716405D01*
X142877082Y-118927285D01*
X142820553Y-119150515D01*
X142801538Y-119379994D01*
X142801538Y-119380005D01*
X142820553Y-119609484D01*
X142877082Y-119832714D01*
X142969582Y-120043594D01*
X143095528Y-120236370D01*
X143105399Y-120247093D01*
X143251492Y-120405792D01*
X143310596Y-120451794D01*
X143437259Y-120550380D01*
X143436276Y-120551641D01*
X143476983Y-120599349D01*
X143486400Y-120668581D01*
X143456892Y-120731914D01*
X143436936Y-120749205D01*
X143437259Y-120749620D01*
X143251494Y-120894206D01*
X143251489Y-120894211D01*
X143095528Y-121063629D01*
X142969582Y-121256405D01*
X142877082Y-121467285D01*
X142820553Y-121690515D01*
X142801538Y-121919994D01*
X142801538Y-121920005D01*
X142820553Y-122149484D01*
X142877082Y-122372714D01*
X142969582Y-122583594D01*
X143095528Y-122776370D01*
X143095531Y-122776373D01*
X143251492Y-122945792D01*
X143273226Y-122962708D01*
X143437259Y-123090380D01*
X143436276Y-123091641D01*
X143476983Y-123139349D01*
X143486400Y-123208581D01*
X143456892Y-123271914D01*
X143436936Y-123289205D01*
X143437259Y-123289620D01*
X143251494Y-123434206D01*
X143251489Y-123434211D01*
X143095528Y-123603629D01*
X142969582Y-123796405D01*
X142877082Y-124007285D01*
X142820553Y-124230515D01*
X142801538Y-124459994D01*
X142801538Y-124460005D01*
X142820553Y-124689484D01*
X142877082Y-124912714D01*
X142969582Y-125123594D01*
X143095528Y-125316370D01*
X143095531Y-125316373D01*
X143251492Y-125485792D01*
X143273226Y-125502708D01*
X143437259Y-125630380D01*
X143436370Y-125631521D01*
X143477432Y-125679624D01*
X143486863Y-125748855D01*
X143457368Y-125812194D01*
X143437229Y-125829651D01*
X143437533Y-125830041D01*
X143404840Y-125855485D01*
X143404840Y-125855487D01*
X144027196Y-126477843D01*
X143909388Y-126529015D01*
X143792938Y-126623754D01*
X143706367Y-126746397D01*
X143675498Y-126833252D01*
X143052559Y-126210313D01*
X142970024Y-126336644D01*
X142877557Y-126547446D01*
X142821049Y-126770591D01*
X142821047Y-126770603D01*
X142802040Y-126999994D01*
X142802040Y-127000005D01*
X142821047Y-127229396D01*
X142821050Y-127229412D01*
X142831860Y-127272101D01*
X142829234Y-127341922D01*
X142789277Y-127399239D01*
X142724676Y-127425854D01*
X142661218Y-127415819D01*
X142623979Y-127399239D01*
X142605624Y-127391066D01*
X142519806Y-127352857D01*
X142519802Y-127352855D01*
X142328719Y-127312240D01*
X142267237Y-127279048D01*
X142233461Y-127217885D01*
X142230500Y-127190950D01*
X142230500Y-103815452D01*
X142250185Y-103748413D01*
X142266819Y-103727771D01*
X142741347Y-103253243D01*
X143240027Y-102754562D01*
X143301348Y-102721079D01*
X143371039Y-102726063D01*
G37*
%TD.AperFunction*%
%TA.AperFunction,Conductor*%
G36*
X119839037Y-100816484D02*
G01*
X119887707Y-100811437D01*
X119956420Y-100824100D01*
X120007378Y-100871902D01*
X120024500Y-100934775D01*
X120024500Y-101643557D01*
X120004815Y-101710596D01*
X119952011Y-101756351D01*
X119882853Y-101766295D01*
X119819297Y-101737270D01*
X119799325Y-101714396D01*
X119799222Y-101714477D01*
X119797790Y-101712637D01*
X119796694Y-101711382D01*
X119796073Y-101710431D01*
X119734511Y-101643557D01*
X119640108Y-101541008D01*
X119458389Y-101399571D01*
X119458390Y-101399571D01*
X119454341Y-101396420D01*
X119455228Y-101395280D01*
X119414163Y-101347166D01*
X119404738Y-101277935D01*
X119434237Y-101214598D01*
X119454371Y-101197152D01*
X119454066Y-101196760D01*
X119486758Y-101171313D01*
X119486759Y-101171311D01*
X118864404Y-100548956D01*
X118982212Y-100497785D01*
X119098662Y-100403046D01*
X119185233Y-100280403D01*
X119216100Y-100193547D01*
X119839037Y-100816484D01*
G37*
%TD.AperFunction*%
%TA.AperFunction,Conductor*%
G36*
X194252539Y-57805185D02*
G01*
X194298294Y-57857989D01*
X194309500Y-57909500D01*
X194309500Y-158625500D01*
X194289815Y-158692539D01*
X194237011Y-158738294D01*
X194185500Y-158749500D01*
X53464500Y-158749500D01*
X53397461Y-158729815D01*
X53351706Y-158677011D01*
X53340500Y-158625500D01*
X53340500Y-153809700D01*
X54117156Y-153809700D01*
X54137318Y-154194423D01*
X54197584Y-154574922D01*
X54197584Y-154574924D01*
X54297297Y-154947058D01*
X54435357Y-155306715D01*
X54610257Y-155649976D01*
X54820071Y-155973062D01*
X54820073Y-155973064D01*
X54820076Y-155973068D01*
X54820077Y-155973069D01*
X55062523Y-156272465D01*
X55334935Y-156544877D01*
X55334939Y-156544880D01*
X55634335Y-156787326D01*
X55634337Y-156787328D01*
X55957423Y-156997142D01*
X55957428Y-156997145D01*
X56300688Y-157172044D01*
X56660349Y-157310105D01*
X57032472Y-157409815D01*
X57412978Y-157470082D01*
X57776421Y-157489128D01*
X57797699Y-157490244D01*
X57797700Y-157490244D01*
X57797701Y-157490244D01*
X57817863Y-157489187D01*
X58182422Y-157470082D01*
X58562928Y-157409815D01*
X58935051Y-157310105D01*
X59294712Y-157172044D01*
X59637972Y-156997145D01*
X59789754Y-156898576D01*
X59961062Y-156787328D01*
X59961064Y-156787326D01*
X59961069Y-156787323D01*
X60260465Y-156544877D01*
X60532877Y-156272465D01*
X60775323Y-155973069D01*
X60985145Y-155649972D01*
X61160044Y-155306712D01*
X61298105Y-154947051D01*
X61397815Y-154574928D01*
X61458082Y-154194422D01*
X61478244Y-153809700D01*
X68112556Y-153809700D01*
X68132718Y-154194423D01*
X68192984Y-154574922D01*
X68192984Y-154574924D01*
X68292697Y-154947058D01*
X68430757Y-155306715D01*
X68605657Y-155649976D01*
X68815471Y-155973062D01*
X68815473Y-155973064D01*
X68815476Y-155973068D01*
X68815477Y-155973069D01*
X69057923Y-156272465D01*
X69330335Y-156544877D01*
X69330339Y-156544880D01*
X69629735Y-156787326D01*
X69629737Y-156787328D01*
X69952823Y-156997142D01*
X69952828Y-156997145D01*
X70296088Y-157172044D01*
X70655749Y-157310105D01*
X71027872Y-157409815D01*
X71408378Y-157470082D01*
X71771821Y-157489128D01*
X71793099Y-157490244D01*
X71793100Y-157490244D01*
X71793101Y-157490244D01*
X71813263Y-157489187D01*
X72177822Y-157470082D01*
X72558328Y-157409815D01*
X72930451Y-157310105D01*
X73290112Y-157172044D01*
X73633372Y-156997145D01*
X73785154Y-156898576D01*
X73956462Y-156787328D01*
X73956464Y-156787326D01*
X73956469Y-156787323D01*
X74255865Y-156544877D01*
X74528277Y-156272465D01*
X74770723Y-155973069D01*
X74980545Y-155649972D01*
X75155444Y-155306712D01*
X75293505Y-154947051D01*
X75393215Y-154574928D01*
X75453482Y-154194422D01*
X75473644Y-153809700D01*
X75453482Y-153424978D01*
X75393215Y-153044472D01*
X75293505Y-152672349D01*
X75155444Y-152312688D01*
X74980545Y-151969428D01*
X74980542Y-151969423D01*
X74770728Y-151646337D01*
X74770726Y-151646335D01*
X74706352Y-151566839D01*
X74528277Y-151346935D01*
X74255865Y-151074523D01*
X73956469Y-150832077D01*
X73956468Y-150832076D01*
X73956464Y-150832073D01*
X73956462Y-150832071D01*
X73633376Y-150622257D01*
X73290115Y-150447357D01*
X72930458Y-150309297D01*
X72930451Y-150309295D01*
X72558328Y-150209585D01*
X72558324Y-150209584D01*
X72558323Y-150209584D01*
X72177823Y-150149318D01*
X71793101Y-150129156D01*
X71793099Y-150129156D01*
X71408376Y-150149318D01*
X71027877Y-150209584D01*
X71027875Y-150209584D01*
X70655741Y-150309297D01*
X70296084Y-150447357D01*
X69952823Y-150622257D01*
X69629737Y-150832071D01*
X69629735Y-150832073D01*
X69330339Y-151074519D01*
X69330331Y-151074526D01*
X69057926Y-151346931D01*
X69057919Y-151346939D01*
X68815473Y-151646335D01*
X68815471Y-151646337D01*
X68605657Y-151969423D01*
X68430757Y-152312684D01*
X68292697Y-152672341D01*
X68192984Y-153044475D01*
X68192984Y-153044477D01*
X68132718Y-153424976D01*
X68112556Y-153809699D01*
X68112556Y-153809700D01*
X61478244Y-153809700D01*
X61458082Y-153424978D01*
X61397815Y-153044472D01*
X61298105Y-152672349D01*
X61160044Y-152312688D01*
X60985145Y-151969428D01*
X60985142Y-151969423D01*
X60775328Y-151646337D01*
X60775326Y-151646335D01*
X60710952Y-151566839D01*
X60532877Y-151346935D01*
X60260465Y-151074523D01*
X59961069Y-150832077D01*
X59961068Y-150832076D01*
X59961064Y-150832073D01*
X59961062Y-150832071D01*
X59637976Y-150622257D01*
X59294715Y-150447357D01*
X58935058Y-150309297D01*
X58935051Y-150309295D01*
X58562928Y-150209585D01*
X58562924Y-150209584D01*
X58562923Y-150209584D01*
X58182423Y-150149318D01*
X57797701Y-150129156D01*
X57797699Y-150129156D01*
X57412976Y-150149318D01*
X57032477Y-150209584D01*
X57032475Y-150209584D01*
X56660341Y-150309297D01*
X56300684Y-150447357D01*
X55957423Y-150622257D01*
X55634337Y-150832071D01*
X55634335Y-150832073D01*
X55334939Y-151074519D01*
X55334931Y-151074526D01*
X55062526Y-151346931D01*
X55062519Y-151346939D01*
X54820073Y-151646335D01*
X54820071Y-151646337D01*
X54610257Y-151969423D01*
X54435357Y-152312684D01*
X54297297Y-152672341D01*
X54197584Y-153044475D01*
X54197584Y-153044477D01*
X54137318Y-153424976D01*
X54117156Y-153809699D01*
X54117156Y-153809700D01*
X53340500Y-153809700D01*
X53340500Y-143287870D01*
X110307000Y-143287870D01*
X110307001Y-143287876D01*
X110313408Y-143347483D01*
X110363702Y-143482328D01*
X110363706Y-143482335D01*
X110449952Y-143597544D01*
X110449955Y-143597547D01*
X110572269Y-143689112D01*
X110570486Y-143691493D01*
X110609332Y-143730338D01*
X110624500Y-143789766D01*
X110624500Y-145996450D01*
X110604815Y-146063489D01*
X110574812Y-146095716D01*
X110552457Y-146112450D01*
X110552451Y-146112457D01*
X110466206Y-146227664D01*
X110466202Y-146227671D01*
X110415908Y-146362517D01*
X110409501Y-146422116D01*
X110409500Y-146422135D01*
X110409500Y-148217870D01*
X110409501Y-148217876D01*
X110415908Y-148277483D01*
X110466202Y-148412328D01*
X110466206Y-148412335D01*
X110552452Y-148527544D01*
X110552455Y-148527547D01*
X110667664Y-148613793D01*
X110667671Y-148613797D01*
X110802517Y-148664091D01*
X110802516Y-148664091D01*
X110809444Y-148664835D01*
X110862127Y-148670500D01*
X112657872Y-148670499D01*
X112717483Y-148664091D01*
X112852331Y-148613796D01*
X112967546Y-148527546D01*
X113053796Y-148412331D01*
X113103002Y-148280401D01*
X113144872Y-148224468D01*
X113210337Y-148200050D01*
X113278610Y-148214901D01*
X113306865Y-148236053D01*
X113428917Y-148358105D01*
X113622421Y-148493600D01*
X113836507Y-148593429D01*
X113836516Y-148593433D01*
X114050000Y-148650634D01*
X114050000Y-147755501D01*
X114157685Y-147804680D01*
X114264237Y-147820000D01*
X114335763Y-147820000D01*
X114442315Y-147804680D01*
X114550000Y-147755501D01*
X114550000Y-148650633D01*
X114763483Y-148593433D01*
X114763492Y-148593429D01*
X114977578Y-148493600D01*
X115171082Y-148358105D01*
X115338105Y-148191082D01*
X115473600Y-147997578D01*
X115573429Y-147783492D01*
X115573432Y-147783486D01*
X115630636Y-147570000D01*
X114733686Y-147570000D01*
X114759493Y-147529844D01*
X114800000Y-147391889D01*
X114800000Y-147248111D01*
X114759493Y-147110156D01*
X114733686Y-147070000D01*
X115630636Y-147070000D01*
X115630635Y-147069999D01*
X115573432Y-146856513D01*
X115573429Y-146856507D01*
X115473600Y-146642422D01*
X115473599Y-146642420D01*
X115338113Y-146448926D01*
X115338108Y-146448920D01*
X115171082Y-146281894D01*
X114977578Y-146146399D01*
X114763492Y-146046570D01*
X114763486Y-146046567D01*
X114634125Y-146011905D01*
X123027644Y-146011905D01*
X123046648Y-146313974D01*
X123046649Y-146313981D01*
X123103368Y-146611310D01*
X123183038Y-146856507D01*
X123196901Y-146899174D01*
X123325777Y-147173050D01*
X123325779Y-147173053D01*
X123325780Y-147173055D01*
X123487958Y-147428608D01*
X123487961Y-147428612D01*
X123487962Y-147428613D01*
X123680899Y-147661834D01*
X123810452Y-147783492D01*
X123901543Y-147869032D01*
X123901553Y-147869040D01*
X124146408Y-148046938D01*
X124146413Y-148046940D01*
X124146420Y-148046946D01*
X124411663Y-148192765D01*
X124411668Y-148192767D01*
X124411670Y-148192768D01*
X124411671Y-148192769D01*
X124693086Y-148304189D01*
X124693089Y-148304190D01*
X124903075Y-148358105D01*
X124986263Y-148379464D01*
X125049260Y-148387422D01*
X125286547Y-148417399D01*
X125286556Y-148417399D01*
X125286559Y-148417400D01*
X125286561Y-148417400D01*
X125589239Y-148417400D01*
X125589241Y-148417400D01*
X125589244Y-148417399D01*
X125589252Y-148417399D01*
X125768439Y-148394762D01*
X125889537Y-148379464D01*
X126182710Y-148304190D01*
X126242792Y-148280402D01*
X126464128Y-148192769D01*
X126464129Y-148192768D01*
X126464127Y-148192768D01*
X126464137Y-148192765D01*
X126729380Y-148046946D01*
X126974255Y-147869034D01*
X127194901Y-147661834D01*
X127387838Y-147428613D01*
X127550023Y-147173050D01*
X127678899Y-146899174D01*
X127772433Y-146611306D01*
X127829150Y-146313985D01*
X127839694Y-146146399D01*
X127848156Y-146011905D01*
X140223444Y-146011905D01*
X140242448Y-146313974D01*
X140242449Y-146313981D01*
X140299168Y-146611310D01*
X140378838Y-146856507D01*
X140392701Y-146899174D01*
X140521577Y-147173050D01*
X140521579Y-147173053D01*
X140521580Y-147173055D01*
X140683758Y-147428608D01*
X140683761Y-147428612D01*
X140683762Y-147428613D01*
X140876699Y-147661834D01*
X141006252Y-147783492D01*
X141097343Y-147869032D01*
X141097353Y-147869040D01*
X141342208Y-148046938D01*
X141342213Y-148046940D01*
X141342220Y-148046946D01*
X141607463Y-148192765D01*
X141607468Y-148192767D01*
X141607470Y-148192768D01*
X141607471Y-148192769D01*
X141888886Y-148304189D01*
X141888889Y-148304190D01*
X142098875Y-148358105D01*
X142182063Y-148379464D01*
X142245060Y-148387422D01*
X142482347Y-148417399D01*
X142482356Y-148417399D01*
X142482359Y-148417400D01*
X142482361Y-148417400D01*
X142785039Y-148417400D01*
X142785041Y-148417400D01*
X142785044Y-148417399D01*
X142785052Y-148417399D01*
X142964239Y-148394762D01*
X143085337Y-148379464D01*
X143378510Y-148304190D01*
X143438592Y-148280402D01*
X143659928Y-148192769D01*
X143659929Y-148192768D01*
X143659927Y-148192768D01*
X143659937Y-148192765D01*
X143925180Y-148046946D01*
X144170055Y-147869034D01*
X144390701Y-147661834D01*
X144583638Y-147428613D01*
X144745823Y-147173050D01*
X144874699Y-146899174D01*
X144968233Y-146611306D01*
X145024950Y-146313985D01*
X145035494Y-146146399D01*
X145043956Y-146011905D01*
X145043956Y-146011894D01*
X145024951Y-145709825D01*
X145024950Y-145709818D01*
X145024950Y-145709815D01*
X144968233Y-145412494D01*
X144874699Y-145124626D01*
X144745823Y-144850750D01*
X144583638Y-144595187D01*
X144390701Y-144361966D01*
X144170055Y-144154766D01*
X144170052Y-144154764D01*
X144170046Y-144154759D01*
X143925191Y-143976861D01*
X143925184Y-143976856D01*
X143925180Y-143976854D01*
X143659937Y-143831035D01*
X143659934Y-143831033D01*
X143659929Y-143831031D01*
X143659928Y-143831030D01*
X143378513Y-143719610D01*
X143378510Y-143719609D01*
X143085340Y-143644336D01*
X143085327Y-143644334D01*
X142785052Y-143606400D01*
X142785041Y-143606400D01*
X142482359Y-143606400D01*
X142482347Y-143606400D01*
X142182072Y-143644334D01*
X142182059Y-143644336D01*
X141888889Y-143719609D01*
X141888886Y-143719610D01*
X141607471Y-143831030D01*
X141607470Y-143831031D01*
X141342220Y-143976854D01*
X141342208Y-143976861D01*
X141097353Y-144154759D01*
X141097343Y-144154767D01*
X140876701Y-144361964D01*
X140683758Y-144595191D01*
X140521580Y-144850744D01*
X140392700Y-145124628D01*
X140299168Y-145412489D01*
X140242449Y-145709818D01*
X140242448Y-145709825D01*
X140223444Y-146011894D01*
X140223444Y-146011905D01*
X127848156Y-146011905D01*
X127848156Y-146011894D01*
X127829151Y-145709825D01*
X127829150Y-145709818D01*
X127829150Y-145709815D01*
X127772433Y-145412494D01*
X127678899Y-145124626D01*
X127550023Y-144850750D01*
X127387838Y-144595187D01*
X127194901Y-144361966D01*
X126974255Y-144154766D01*
X126974252Y-144154764D01*
X126974246Y-144154759D01*
X126729391Y-143976861D01*
X126729384Y-143976856D01*
X126729380Y-143976854D01*
X126464137Y-143831035D01*
X126464134Y-143831033D01*
X126464129Y-143831031D01*
X126464128Y-143831030D01*
X126182713Y-143719610D01*
X126182710Y-143719609D01*
X125889540Y-143644336D01*
X125889527Y-143644334D01*
X125589252Y-143606400D01*
X125589241Y-143606400D01*
X125286559Y-143606400D01*
X125286547Y-143606400D01*
X124986272Y-143644334D01*
X124986259Y-143644336D01*
X124693089Y-143719609D01*
X124693086Y-143719610D01*
X124411671Y-143831030D01*
X124411670Y-143831031D01*
X124146420Y-143976854D01*
X124146408Y-143976861D01*
X123901553Y-144154759D01*
X123901543Y-144154767D01*
X123680901Y-144361964D01*
X123487958Y-144595191D01*
X123325780Y-144850744D01*
X123196900Y-145124628D01*
X123103368Y-145412489D01*
X123046649Y-145709818D01*
X123046648Y-145709825D01*
X123027644Y-146011894D01*
X123027644Y-146011905D01*
X114634125Y-146011905D01*
X114550000Y-145989364D01*
X114550000Y-146884498D01*
X114442315Y-146835320D01*
X114335763Y-146820000D01*
X114264237Y-146820000D01*
X114157685Y-146835320D01*
X114050000Y-146884498D01*
X114050000Y-145989364D01*
X114049999Y-145989364D01*
X113836513Y-146046567D01*
X113836507Y-146046570D01*
X113622422Y-146146399D01*
X113622420Y-146146400D01*
X113428926Y-146281886D01*
X113306865Y-146403947D01*
X113245542Y-146437431D01*
X113175850Y-146432447D01*
X113119917Y-146390575D01*
X113103002Y-146359598D01*
X113053797Y-146227671D01*
X113053793Y-146227664D01*
X112967548Y-146112457D01*
X112967546Y-146112454D01*
X112967544Y-146112452D01*
X112967542Y-146112450D01*
X112945188Y-146095716D01*
X112903318Y-146039782D01*
X112895500Y-145996450D01*
X112895500Y-143789766D01*
X112915185Y-143722727D01*
X112949192Y-143691064D01*
X112947731Y-143689112D01*
X113037084Y-143622221D01*
X113070046Y-143597546D01*
X113156296Y-143482331D01*
X113156297Y-143482328D01*
X113156298Y-143482327D01*
X113167907Y-143451199D01*
X113209776Y-143395264D01*
X113275240Y-143370844D01*
X113343513Y-143385694D01*
X113360252Y-143396675D01*
X113502831Y-143507649D01*
X113502840Y-143507655D01*
X113714531Y-143622215D01*
X113714545Y-143622221D01*
X113942207Y-143700379D01*
X114050000Y-143718366D01*
X114050000Y-142731683D01*
X114078819Y-142749209D01*
X114224404Y-142790000D01*
X114337622Y-142790000D01*
X114449783Y-142774584D01*
X114550000Y-142731053D01*
X114550000Y-143718365D01*
X114657792Y-143700379D01*
X114885454Y-143622221D01*
X114885468Y-143622215D01*
X115097159Y-143507655D01*
X115097168Y-143507649D01*
X115287116Y-143359806D01*
X115287126Y-143359797D01*
X115450154Y-143182702D01*
X115450155Y-143182701D01*
X115465891Y-143158616D01*
X115519036Y-143113258D01*
X115588267Y-143103833D01*
X115651604Y-143133333D01*
X115673510Y-143158614D01*
X115689446Y-143183007D01*
X115689448Y-143183009D01*
X115689449Y-143183010D01*
X115852537Y-143360171D01*
X116008908Y-143481879D01*
X116042017Y-143507649D01*
X116042561Y-143508072D01*
X116207891Y-143597544D01*
X116253478Y-143622215D01*
X116254336Y-143622679D01*
X116317415Y-143644334D01*
X116482083Y-143700865D01*
X116482085Y-143700865D01*
X116482087Y-143700866D01*
X116719601Y-143740500D01*
X116719602Y-143740500D01*
X116960398Y-143740500D01*
X116960399Y-143740500D01*
X117197913Y-143700866D01*
X117425664Y-143622679D01*
X117637439Y-143508072D01*
X117827463Y-143360171D01*
X117990551Y-143183010D01*
X118122255Y-142981422D01*
X118218983Y-142760905D01*
X118278095Y-142527476D01*
X118293000Y-142347600D01*
X118293000Y-142132400D01*
X118278095Y-141952524D01*
X118218983Y-141719095D01*
X118122255Y-141498578D01*
X117995691Y-141304856D01*
X117975504Y-141237967D01*
X117975500Y-141237035D01*
X117975500Y-135955162D01*
X117977218Y-135934595D01*
X117977757Y-135931385D01*
X117977759Y-135931374D01*
X117975535Y-135837951D01*
X117975500Y-135835001D01*
X117975500Y-135795917D01*
X117975500Y-135795909D01*
X117974631Y-135786820D01*
X117974108Y-135778024D01*
X117972598Y-135714581D01*
X117965499Y-135681948D01*
X117963228Y-135667382D01*
X117960053Y-135634138D01*
X117960052Y-135634137D01*
X117960052Y-135634128D01*
X117942172Y-135573237D01*
X117939992Y-135564696D01*
X117926502Y-135502683D01*
X117913353Y-135471979D01*
X117908368Y-135458112D01*
X117898957Y-135426058D01*
X117869871Y-135369640D01*
X117866120Y-135361680D01*
X117841137Y-135303337D01*
X117822409Y-135275668D01*
X117814892Y-135262996D01*
X117808601Y-135250793D01*
X117799592Y-135233316D01*
X117799584Y-135233304D01*
X117760371Y-135183442D01*
X117755149Y-135176291D01*
X117735729Y-135147598D01*
X117719589Y-135123750D01*
X117695974Y-135100135D01*
X117686183Y-135089104D01*
X117670200Y-135068780D01*
X117665538Y-135062851D01*
X117617580Y-135021295D01*
X117611102Y-135015263D01*
X116844901Y-134249061D01*
X116812807Y-134193472D01*
X116796742Y-134133513D01*
X116796738Y-134133502D01*
X116719220Y-133967265D01*
X116700568Y-133927266D01*
X116570047Y-133740861D01*
X116570045Y-133740858D01*
X116409141Y-133579954D01*
X116222734Y-133449432D01*
X116222730Y-133449430D01*
X116207022Y-133442105D01*
X116154583Y-133395931D01*
X116135433Y-133328737D01*
X116155650Y-133261857D01*
X116207028Y-133217340D01*
X116222481Y-133210134D01*
X116295471Y-133159024D01*
X115614400Y-132477953D01*
X115695148Y-132465165D01*
X115808045Y-132407641D01*
X115897641Y-132318045D01*
X115955165Y-132205148D01*
X115967953Y-132124400D01*
X116649024Y-132805471D01*
X116700136Y-132732478D01*
X116796264Y-132526331D01*
X116796269Y-132526317D01*
X116855139Y-132306610D01*
X116855141Y-132306599D01*
X116874966Y-132080002D01*
X116874966Y-132079997D01*
X116855141Y-131853400D01*
X116855139Y-131853389D01*
X116796269Y-131633682D01*
X116796264Y-131633668D01*
X116700136Y-131427521D01*
X116700132Y-131427513D01*
X116649025Y-131354526D01*
X115967953Y-132035598D01*
X115955165Y-131954852D01*
X115897641Y-131841955D01*
X115808045Y-131752359D01*
X115695148Y-131694835D01*
X115614401Y-131682046D01*
X116295472Y-131000974D01*
X116222478Y-130949863D01*
X116016331Y-130853735D01*
X116016317Y-130853730D01*
X115796610Y-130794860D01*
X115796599Y-130794858D01*
X115570002Y-130775034D01*
X115569998Y-130775034D01*
X115343400Y-130794858D01*
X115343389Y-130794860D01*
X115123682Y-130853730D01*
X115123673Y-130853734D01*
X114917516Y-130949866D01*
X114917512Y-130949868D01*
X114844526Y-131000973D01*
X114844526Y-131000974D01*
X115525599Y-131682046D01*
X115444852Y-131694835D01*
X115331955Y-131752359D01*
X115242359Y-131841955D01*
X115184835Y-131954852D01*
X115172046Y-132035598D01*
X114490974Y-131354526D01*
X114490973Y-131354526D01*
X114439868Y-131427512D01*
X114439866Y-131427516D01*
X114343734Y-131633673D01*
X114343730Y-131633682D01*
X114284860Y-131853389D01*
X114284858Y-131853400D01*
X114265034Y-132079997D01*
X114265034Y-132080002D01*
X114284858Y-132306599D01*
X114284860Y-132306610D01*
X114343730Y-132526317D01*
X114343735Y-132526331D01*
X114439863Y-132732478D01*
X114490974Y-132805472D01*
X115172046Y-132124400D01*
X115184835Y-132205148D01*
X115242359Y-132318045D01*
X115331955Y-132407641D01*
X115444852Y-132465165D01*
X115525599Y-132477953D01*
X114844526Y-133159025D01*
X114917513Y-133210132D01*
X114917515Y-133210133D01*
X114932973Y-133217341D01*
X114985413Y-133263513D01*
X115004566Y-133330706D01*
X114984351Y-133397587D01*
X114932979Y-133442104D01*
X114917270Y-133449429D01*
X114917265Y-133449432D01*
X114730858Y-133579954D01*
X114569954Y-133740858D01*
X114439432Y-133927265D01*
X114439431Y-133927267D01*
X114343261Y-134133502D01*
X114343258Y-134133511D01*
X114284366Y-134353302D01*
X114284364Y-134353313D01*
X114264532Y-134579998D01*
X114264532Y-134580001D01*
X114284364Y-134806686D01*
X114284366Y-134806697D01*
X114343258Y-135026488D01*
X114343261Y-135026497D01*
X114439431Y-135232732D01*
X114439432Y-135232734D01*
X114569954Y-135419141D01*
X114730858Y-135580045D01*
X114730861Y-135580047D01*
X114917266Y-135710568D01*
X115123504Y-135806739D01*
X115123506Y-135806739D01*
X115123513Y-135806742D01*
X115165966Y-135818116D01*
X115183472Y-135822807D01*
X115239061Y-135854901D01*
X115455769Y-136071609D01*
X115668181Y-136284020D01*
X115701666Y-136345343D01*
X115704500Y-136371701D01*
X115704500Y-141237035D01*
X115684815Y-141304074D01*
X115684308Y-141304857D01*
X115673509Y-141321386D01*
X115620363Y-141366742D01*
X115551132Y-141376166D01*
X115487796Y-141346664D01*
X115465892Y-141321385D01*
X115450154Y-141297296D01*
X115287126Y-141120202D01*
X115287116Y-141120193D01*
X115097168Y-140972350D01*
X115097159Y-140972344D01*
X114885468Y-140857784D01*
X114885454Y-140857778D01*
X114657791Y-140779619D01*
X114550000Y-140761633D01*
X114550000Y-141748316D01*
X114521181Y-141730791D01*
X114375596Y-141690000D01*
X114262378Y-141690000D01*
X114150217Y-141705416D01*
X114050000Y-141748946D01*
X114050000Y-140761633D01*
X114049999Y-140761633D01*
X113942208Y-140779619D01*
X113714545Y-140857778D01*
X113714531Y-140857784D01*
X113502840Y-140972344D01*
X113502838Y-140972345D01*
X113360252Y-141083325D01*
X113295258Y-141108967D01*
X113226718Y-141095400D01*
X113176393Y-141046932D01*
X113167907Y-141028801D01*
X113156297Y-140997671D01*
X113156293Y-140997664D01*
X113101606Y-140924613D01*
X113070046Y-140882454D01*
X112954831Y-140796204D01*
X112954828Y-140796202D01*
X112947731Y-140790890D01*
X112949510Y-140788512D01*
X112910650Y-140749629D01*
X112895500Y-140690234D01*
X112895500Y-135289647D01*
X112907118Y-135237242D01*
X112912548Y-135225598D01*
X112986739Y-135066496D01*
X113045635Y-134846692D01*
X113065468Y-134620000D01*
X113065467Y-134619994D01*
X113045635Y-134393313D01*
X113045635Y-134393308D01*
X112986739Y-134173504D01*
X112890568Y-133967266D01*
X112760047Y-133780861D01*
X112760045Y-133780858D01*
X112599141Y-133619954D01*
X112412734Y-133489432D01*
X112412730Y-133489430D01*
X112397022Y-133482105D01*
X112344583Y-133435931D01*
X112325433Y-133368737D01*
X112345650Y-133301857D01*
X112397028Y-133257340D01*
X112412481Y-133250134D01*
X112485471Y-133199024D01*
X111804400Y-132517953D01*
X111885148Y-132505165D01*
X111998045Y-132447641D01*
X112087641Y-132358045D01*
X112145165Y-132245148D01*
X112157953Y-132164400D01*
X112839024Y-132845471D01*
X112890136Y-132772478D01*
X112986264Y-132566331D01*
X112986269Y-132566317D01*
X113045139Y-132346610D01*
X113045141Y-132346599D01*
X113064966Y-132120002D01*
X113064966Y-132119997D01*
X113045141Y-131893400D01*
X113045139Y-131893389D01*
X112986269Y-131673682D01*
X112986264Y-131673668D01*
X112890136Y-131467521D01*
X112890132Y-131467513D01*
X112839025Y-131394526D01*
X112157953Y-132075598D01*
X112145165Y-131994852D01*
X112087641Y-131881955D01*
X111998045Y-131792359D01*
X111885148Y-131734835D01*
X111804401Y-131722046D01*
X112485472Y-131040974D01*
X112412478Y-130989863D01*
X112206331Y-130893735D01*
X112206317Y-130893730D01*
X111986610Y-130834860D01*
X111986599Y-130834858D01*
X111760002Y-130815034D01*
X111759998Y-130815034D01*
X111533400Y-130834858D01*
X111533389Y-130834860D01*
X111313682Y-130893730D01*
X111313673Y-130893734D01*
X111107516Y-130989866D01*
X111107512Y-130989868D01*
X111034526Y-131040973D01*
X111034526Y-131040974D01*
X111715599Y-131722046D01*
X111634852Y-131734835D01*
X111521955Y-131792359D01*
X111432359Y-131881955D01*
X111374835Y-131994852D01*
X111362046Y-132075598D01*
X110680974Y-131394526D01*
X110680973Y-131394526D01*
X110629868Y-131467512D01*
X110629866Y-131467516D01*
X110533734Y-131673673D01*
X110533730Y-131673682D01*
X110474860Y-131893389D01*
X110474858Y-131893400D01*
X110455034Y-132119997D01*
X110455034Y-132120002D01*
X110474858Y-132346599D01*
X110474860Y-132346610D01*
X110533730Y-132566317D01*
X110533735Y-132566331D01*
X110629863Y-132772478D01*
X110680974Y-132845472D01*
X111362046Y-132164400D01*
X111374835Y-132245148D01*
X111432359Y-132358045D01*
X111521955Y-132447641D01*
X111634852Y-132505165D01*
X111715599Y-132517953D01*
X111034526Y-133199025D01*
X111107513Y-133250132D01*
X111107515Y-133250133D01*
X111122973Y-133257341D01*
X111175413Y-133303513D01*
X111194566Y-133370706D01*
X111174351Y-133437587D01*
X111122979Y-133482104D01*
X111107270Y-133489429D01*
X111107265Y-133489432D01*
X110920858Y-133619954D01*
X110759954Y-133780858D01*
X110629432Y-133967265D01*
X110629431Y-133967267D01*
X110533261Y-134173502D01*
X110533258Y-134173511D01*
X110474366Y-134393302D01*
X110474364Y-134393313D01*
X110454532Y-134619998D01*
X110454532Y-134620001D01*
X110474364Y-134846686D01*
X110474366Y-134846697D01*
X110533258Y-135066488D01*
X110533261Y-135066497D01*
X110612882Y-135237242D01*
X110624500Y-135289647D01*
X110624500Y-140690234D01*
X110604815Y-140757273D01*
X110570810Y-140788942D01*
X110572269Y-140790890D01*
X110565171Y-140796202D01*
X110565169Y-140796204D01*
X110449954Y-140882454D01*
X110449953Y-140882455D01*
X110449952Y-140882456D01*
X110363706Y-140997664D01*
X110363702Y-140997671D01*
X110313408Y-141132517D01*
X110307001Y-141192116D01*
X110307000Y-141192135D01*
X110307000Y-143287870D01*
X53340500Y-143287870D01*
X53340500Y-139507905D01*
X66703144Y-139507905D01*
X66722148Y-139809974D01*
X66722149Y-139809981D01*
X66722150Y-139809985D01*
X66778867Y-140107306D01*
X66872401Y-140395174D01*
X67001277Y-140669050D01*
X67001279Y-140669053D01*
X67001280Y-140669055D01*
X67163458Y-140924608D01*
X67163461Y-140924612D01*
X67163462Y-140924613D01*
X67356399Y-141157834D01*
X67530565Y-141321386D01*
X67577043Y-141365032D01*
X67577053Y-141365040D01*
X67821908Y-141542938D01*
X67821913Y-141542940D01*
X67821920Y-141542946D01*
X68087163Y-141688765D01*
X68087168Y-141688767D01*
X68087170Y-141688768D01*
X68087171Y-141688769D01*
X68368586Y-141800189D01*
X68368589Y-141800190D01*
X68605686Y-141861066D01*
X68661763Y-141875464D01*
X68724760Y-141883422D01*
X68962047Y-141913399D01*
X68962056Y-141913399D01*
X68962059Y-141913400D01*
X68962061Y-141913400D01*
X69264739Y-141913400D01*
X69264741Y-141913400D01*
X69264744Y-141913399D01*
X69264752Y-141913399D01*
X69443939Y-141890762D01*
X69565037Y-141875464D01*
X69858210Y-141800190D01*
X69858213Y-141800189D01*
X70139628Y-141688769D01*
X70139629Y-141688768D01*
X70139627Y-141688768D01*
X70139637Y-141688765D01*
X70404880Y-141542946D01*
X70649755Y-141365034D01*
X70870401Y-141157834D01*
X71063338Y-140924613D01*
X71225523Y-140669050D01*
X71354399Y-140395174D01*
X71447933Y-140107306D01*
X71504650Y-139809985D01*
X71523656Y-139507905D01*
X96649744Y-139507905D01*
X96668748Y-139809974D01*
X96668749Y-139809981D01*
X96668750Y-139809985D01*
X96725467Y-140107306D01*
X96819001Y-140395174D01*
X96947877Y-140669050D01*
X96947879Y-140669053D01*
X96947880Y-140669055D01*
X97110058Y-140924608D01*
X97110061Y-140924612D01*
X97110062Y-140924613D01*
X97302999Y-141157834D01*
X97477165Y-141321386D01*
X97523643Y-141365032D01*
X97523653Y-141365040D01*
X97768508Y-141542938D01*
X97768513Y-141542940D01*
X97768520Y-141542946D01*
X98033763Y-141688765D01*
X98033768Y-141688767D01*
X98033770Y-141688768D01*
X98033771Y-141688769D01*
X98315186Y-141800189D01*
X98315189Y-141800190D01*
X98552286Y-141861066D01*
X98608363Y-141875464D01*
X98671360Y-141883422D01*
X98908647Y-141913399D01*
X98908656Y-141913399D01*
X98908659Y-141913400D01*
X98908661Y-141913400D01*
X99211339Y-141913400D01*
X99211341Y-141913400D01*
X99211344Y-141913399D01*
X99211352Y-141913399D01*
X99390539Y-141890762D01*
X99511637Y-141875464D01*
X99804810Y-141800190D01*
X99804813Y-141800189D01*
X100086228Y-141688769D01*
X100086229Y-141688768D01*
X100086227Y-141688768D01*
X100086237Y-141688765D01*
X100351480Y-141542946D01*
X100596355Y-141365034D01*
X100817001Y-141157834D01*
X101009938Y-140924613D01*
X101172123Y-140669050D01*
X101300999Y-140395174D01*
X101394533Y-140107306D01*
X101451250Y-139809985D01*
X101470256Y-139507900D01*
X101466875Y-139454167D01*
X101451251Y-139205825D01*
X101451250Y-139205818D01*
X101451250Y-139205815D01*
X101394533Y-138908494D01*
X101300999Y-138620626D01*
X101172123Y-138346750D01*
X101009938Y-138091187D01*
X100817001Y-137857966D01*
X100596355Y-137650766D01*
X100596352Y-137650764D01*
X100596346Y-137650759D01*
X100351491Y-137472861D01*
X100351484Y-137472856D01*
X100351480Y-137472854D01*
X100086237Y-137327035D01*
X100086234Y-137327033D01*
X100086229Y-137327031D01*
X100086228Y-137327030D01*
X99804813Y-137215610D01*
X99804810Y-137215609D01*
X99511640Y-137140336D01*
X99511627Y-137140334D01*
X99211352Y-137102400D01*
X99211341Y-137102400D01*
X98908659Y-137102400D01*
X98908647Y-137102400D01*
X98608372Y-137140334D01*
X98608359Y-137140336D01*
X98315189Y-137215609D01*
X98315186Y-137215610D01*
X98033771Y-137327030D01*
X98033770Y-137327031D01*
X97768520Y-137472854D01*
X97768508Y-137472861D01*
X97523653Y-137650759D01*
X97523643Y-137650767D01*
X97303001Y-137857964D01*
X97110058Y-138091191D01*
X96947880Y-138346744D01*
X96947877Y-138346748D01*
X96947877Y-138346750D01*
X96910007Y-138427229D01*
X96819000Y-138620628D01*
X96725468Y-138908489D01*
X96668749Y-139205818D01*
X96668748Y-139205825D01*
X96649744Y-139507894D01*
X96649744Y-139507905D01*
X71523656Y-139507905D01*
X71523656Y-139507900D01*
X71520275Y-139454167D01*
X71504651Y-139205825D01*
X71504650Y-139205818D01*
X71504650Y-139205815D01*
X71447933Y-138908494D01*
X71354399Y-138620626D01*
X71225523Y-138346750D01*
X71063338Y-138091187D01*
X70870401Y-137857966D01*
X70649755Y-137650766D01*
X70649752Y-137650764D01*
X70649746Y-137650759D01*
X70404891Y-137472861D01*
X70404884Y-137472856D01*
X70404880Y-137472854D01*
X70139637Y-137327035D01*
X70139634Y-137327033D01*
X70139629Y-137327031D01*
X70139628Y-137327030D01*
X69858213Y-137215610D01*
X69858210Y-137215609D01*
X69565040Y-137140336D01*
X69565027Y-137140334D01*
X69264752Y-137102400D01*
X69264741Y-137102400D01*
X68962059Y-137102400D01*
X68962047Y-137102400D01*
X68661772Y-137140334D01*
X68661759Y-137140336D01*
X68368589Y-137215609D01*
X68368586Y-137215610D01*
X68087171Y-137327030D01*
X68087170Y-137327031D01*
X67821920Y-137472854D01*
X67821908Y-137472861D01*
X67577053Y-137650759D01*
X67577043Y-137650767D01*
X67356401Y-137857964D01*
X67163458Y-138091191D01*
X67001280Y-138346744D01*
X67001277Y-138346748D01*
X67001277Y-138346750D01*
X66963407Y-138427229D01*
X66872400Y-138620628D01*
X66778868Y-138908489D01*
X66722149Y-139205818D01*
X66722148Y-139205825D01*
X66703144Y-139507894D01*
X66703144Y-139507905D01*
X53340500Y-139507905D01*
X53340500Y-126528505D01*
X104955538Y-126528505D01*
X104974553Y-126757984D01*
X105031082Y-126981214D01*
X105123582Y-127192094D01*
X105249528Y-127384870D01*
X105249531Y-127384873D01*
X105405492Y-127554292D01*
X105522391Y-127645278D01*
X105591259Y-127698880D01*
X105590370Y-127700021D01*
X105631432Y-127748124D01*
X105640863Y-127817355D01*
X105611368Y-127880694D01*
X105591229Y-127898151D01*
X105591533Y-127898541D01*
X105558840Y-127923985D01*
X105558840Y-127923987D01*
X106181196Y-128546343D01*
X106063388Y-128597515D01*
X105946938Y-128692254D01*
X105860367Y-128814897D01*
X105829498Y-128901752D01*
X105206559Y-128278813D01*
X105124024Y-128405144D01*
X105031557Y-128615946D01*
X104975049Y-128839091D01*
X104975047Y-128839103D01*
X104956040Y-129068494D01*
X104956040Y-129068505D01*
X104975047Y-129297896D01*
X104975049Y-129297908D01*
X105031557Y-129521053D01*
X105124023Y-129731852D01*
X105206560Y-129858185D01*
X105827168Y-129237576D01*
X105830394Y-129253097D01*
X105899458Y-129386386D01*
X106001923Y-129496098D01*
X106130188Y-129574098D01*
X106182966Y-129588886D01*
X105558840Y-130213012D01*
X105558840Y-130213014D01*
X105587477Y-130235303D01*
X105587483Y-130235307D01*
X105789931Y-130344867D01*
X105789940Y-130344870D01*
X106007649Y-130419610D01*
X106234705Y-130457500D01*
X106464895Y-130457500D01*
X106691950Y-130419610D01*
X106909659Y-130344870D01*
X106909668Y-130344867D01*
X107112115Y-130235307D01*
X107112116Y-130235306D01*
X107140758Y-130213013D01*
X107140759Y-130213011D01*
X106518404Y-129590656D01*
X106636212Y-129539485D01*
X106752662Y-129444746D01*
X106839233Y-129322103D01*
X106870100Y-129235247D01*
X107493038Y-129858185D01*
X107575572Y-129731859D01*
X107575577Y-129731851D01*
X107659731Y-129540000D01*
X137524540Y-129540000D01*
X137544326Y-129728256D01*
X137544327Y-129728259D01*
X137602818Y-129908277D01*
X137602821Y-129908284D01*
X137697467Y-130072216D01*
X137815761Y-130203594D01*
X137824129Y-130212888D01*
X137977265Y-130324148D01*
X137977270Y-130324151D01*
X138150192Y-130401142D01*
X138150197Y-130401144D01*
X138335354Y-130440500D01*
X138335355Y-130440500D01*
X138524644Y-130440500D01*
X138524646Y-130440500D01*
X138709803Y-130401144D01*
X138882730Y-130324151D01*
X139035871Y-130212888D01*
X139162533Y-130072216D01*
X139257179Y-129908284D01*
X139315674Y-129728256D01*
X139335460Y-129540000D01*
X139315674Y-129351744D01*
X139257179Y-129171716D01*
X139162533Y-129007784D01*
X139116220Y-128956348D01*
X139087350Y-128924284D01*
X139057120Y-128861292D01*
X139055500Y-128841312D01*
X139055500Y-107625452D01*
X139075185Y-107558413D01*
X139091819Y-107537771D01*
X140767819Y-105861771D01*
X140829142Y-105828286D01*
X140898834Y-105833270D01*
X140954767Y-105875142D01*
X140979184Y-105940606D01*
X140979500Y-105949452D01*
X140979500Y-110871814D01*
X140959815Y-110938853D01*
X140907011Y-110984608D01*
X140837853Y-110994552D01*
X140794572Y-110977005D01*
X140793363Y-110979101D01*
X140787729Y-110975848D01*
X140614807Y-110898857D01*
X140614802Y-110898855D01*
X140457154Y-110865347D01*
X140429646Y-110859500D01*
X140240354Y-110859500D01*
X140212846Y-110865347D01*
X140055197Y-110898855D01*
X140055192Y-110898857D01*
X139882270Y-110975848D01*
X139882265Y-110975851D01*
X139729129Y-111087111D01*
X139602466Y-111227785D01*
X139507821Y-111391715D01*
X139507818Y-111391722D01*
X139457566Y-111546383D01*
X139449326Y-111571744D01*
X139429540Y-111760000D01*
X139449326Y-111948256D01*
X139449327Y-111948259D01*
X139507818Y-112128277D01*
X139507821Y-112128284D01*
X139602467Y-112292216D01*
X139645772Y-112340310D01*
X139677650Y-112375715D01*
X139707880Y-112438706D01*
X139709500Y-112458687D01*
X139709500Y-128136455D01*
X139707775Y-128152072D01*
X139708061Y-128152099D01*
X139707326Y-128159865D01*
X139709439Y-128227072D01*
X139709500Y-128230967D01*
X139709500Y-128258557D01*
X139710003Y-128262535D01*
X139710918Y-128274167D01*
X139712290Y-128317824D01*
X139712291Y-128317827D01*
X139717880Y-128337067D01*
X139721824Y-128356111D01*
X139723387Y-128368480D01*
X139724336Y-128375992D01*
X139740414Y-128416603D01*
X139744197Y-128427652D01*
X139756022Y-128468354D01*
X139756382Y-128469590D01*
X139761064Y-128477508D01*
X139766580Y-128486834D01*
X139775138Y-128504303D01*
X139782514Y-128522932D01*
X139808181Y-128558260D01*
X139814593Y-128568021D01*
X139836828Y-128605617D01*
X139836833Y-128605624D01*
X139850990Y-128619780D01*
X139863628Y-128634576D01*
X139875405Y-128650786D01*
X139875406Y-128650787D01*
X139909057Y-128678625D01*
X139917698Y-128686488D01*
X142823505Y-131592295D01*
X142856990Y-131653618D01*
X142856030Y-131710415D01*
X142820553Y-131850513D01*
X142801538Y-132079994D01*
X142801538Y-132080005D01*
X142820553Y-132309484D01*
X142877082Y-132532714D01*
X142969582Y-132743594D01*
X143095528Y-132936370D01*
X143095531Y-132936373D01*
X143251492Y-133105792D01*
X143319885Y-133159024D01*
X143437259Y-133250380D01*
X143436276Y-133251641D01*
X143476983Y-133299349D01*
X143486400Y-133368581D01*
X143456892Y-133431914D01*
X143436936Y-133449205D01*
X143437259Y-133449620D01*
X143251494Y-133594206D01*
X143251489Y-133594211D01*
X143095528Y-133763629D01*
X142969582Y-133956405D01*
X142877082Y-134167285D01*
X142820553Y-134390515D01*
X142801538Y-134619994D01*
X142801538Y-134620005D01*
X142820553Y-134849484D01*
X142877082Y-135072714D01*
X142969582Y-135283594D01*
X143095528Y-135476370D01*
X143095531Y-135476373D01*
X143251492Y-135645792D01*
X143364939Y-135734091D01*
X143421362Y-135778007D01*
X143433211Y-135787229D01*
X143635731Y-135896828D01*
X143736360Y-135931374D01*
X143853525Y-135971597D01*
X143853527Y-135971597D01*
X143853529Y-135971598D01*
X144080663Y-136009500D01*
X144080664Y-136009500D01*
X144310936Y-136009500D01*
X144310937Y-136009500D01*
X144538071Y-135971598D01*
X144755869Y-135896828D01*
X144958389Y-135787229D01*
X145140108Y-135645792D01*
X145296069Y-135476373D01*
X145422017Y-135283595D01*
X145462396Y-135191538D01*
X145507349Y-135138057D01*
X145574085Y-135117366D01*
X145641413Y-135136040D01*
X145663631Y-135153671D01*
X146148181Y-135638220D01*
X146181666Y-135699543D01*
X146184500Y-135725901D01*
X146184500Y-150689019D01*
X146164815Y-150756058D01*
X146134811Y-150788286D01*
X146006606Y-150884259D01*
X146006594Y-150884270D01*
X145804270Y-151086594D01*
X145804254Y-151086612D01*
X145632775Y-151315682D01*
X145632770Y-151315690D01*
X145495635Y-151566833D01*
X145395628Y-151834962D01*
X145334804Y-152114566D01*
X145314390Y-152399998D01*
X145314390Y-152400001D01*
X145334804Y-152685433D01*
X145395628Y-152965037D01*
X145395630Y-152965043D01*
X145395631Y-152965046D01*
X145495633Y-153233161D01*
X145495635Y-153233166D01*
X145632770Y-153484309D01*
X145632775Y-153484317D01*
X145804254Y-153713387D01*
X145804270Y-153713405D01*
X146006594Y-153915729D01*
X146006612Y-153915745D01*
X146235682Y-154087224D01*
X146235690Y-154087229D01*
X146486833Y-154224364D01*
X146486832Y-154224364D01*
X146486836Y-154224365D01*
X146486839Y-154224367D01*
X146754954Y-154324369D01*
X146754960Y-154324370D01*
X146754962Y-154324371D01*
X147034566Y-154385195D01*
X147034568Y-154385195D01*
X147034572Y-154385196D01*
X147288220Y-154403337D01*
X147319999Y-154405610D01*
X147320000Y-154405610D01*
X147320001Y-154405610D01*
X147348595Y-154403564D01*
X147605428Y-154385196D01*
X147885046Y-154324369D01*
X148153161Y-154224367D01*
X148404315Y-154087226D01*
X148633395Y-153915739D01*
X148835739Y-153713395D01*
X149007226Y-153484315D01*
X149144367Y-153233161D01*
X149244369Y-152965046D01*
X149305196Y-152685428D01*
X149325610Y-152400001D01*
X155474390Y-152400001D01*
X155494804Y-152685433D01*
X155555628Y-152965037D01*
X155555630Y-152965043D01*
X155555631Y-152965046D01*
X155655633Y-153233161D01*
X155655635Y-153233166D01*
X155792770Y-153484309D01*
X155792775Y-153484317D01*
X155964254Y-153713387D01*
X155964270Y-153713405D01*
X156166594Y-153915729D01*
X156166612Y-153915745D01*
X156395682Y-154087224D01*
X156395690Y-154087229D01*
X156646833Y-154224364D01*
X156646832Y-154224364D01*
X156646836Y-154224365D01*
X156646839Y-154224367D01*
X156914954Y-154324369D01*
X156914960Y-154324370D01*
X156914962Y-154324371D01*
X157194566Y-154385195D01*
X157194568Y-154385195D01*
X157194572Y-154385196D01*
X157448220Y-154403337D01*
X157479999Y-154405610D01*
X157480000Y-154405610D01*
X157480001Y-154405610D01*
X157508595Y-154403564D01*
X157765428Y-154385196D01*
X158045046Y-154324369D01*
X158313161Y-154224367D01*
X158564315Y-154087226D01*
X158793395Y-153915739D01*
X158899434Y-153809700D01*
X186120956Y-153809700D01*
X186141118Y-154194423D01*
X186201384Y-154574922D01*
X186201384Y-154574924D01*
X186301097Y-154947058D01*
X186439157Y-155306715D01*
X186614057Y-155649976D01*
X186823871Y-155973062D01*
X186823873Y-155973064D01*
X186823876Y-155973068D01*
X186823877Y-155973069D01*
X187066323Y-156272465D01*
X187338735Y-156544877D01*
X187338739Y-156544880D01*
X187638135Y-156787326D01*
X187638137Y-156787328D01*
X187961223Y-156997142D01*
X187961228Y-156997145D01*
X188304488Y-157172044D01*
X188664149Y-157310105D01*
X189036272Y-157409815D01*
X189416778Y-157470082D01*
X189780221Y-157489128D01*
X189801499Y-157490244D01*
X189801500Y-157490244D01*
X189801501Y-157490244D01*
X189821663Y-157489187D01*
X190186222Y-157470082D01*
X190566728Y-157409815D01*
X190938851Y-157310105D01*
X191298512Y-157172044D01*
X191641772Y-156997145D01*
X191793554Y-156898576D01*
X191964862Y-156787328D01*
X191964864Y-156787326D01*
X191964869Y-156787323D01*
X192264265Y-156544877D01*
X192536677Y-156272465D01*
X192779123Y-155973069D01*
X192988945Y-155649972D01*
X193163844Y-155306712D01*
X193301905Y-154947051D01*
X193401615Y-154574928D01*
X193461882Y-154194422D01*
X193482044Y-153809700D01*
X193461882Y-153424978D01*
X193401615Y-153044472D01*
X193301905Y-152672349D01*
X193163844Y-152312688D01*
X192988945Y-151969428D01*
X192988942Y-151969423D01*
X192779128Y-151646337D01*
X192779126Y-151646335D01*
X192714752Y-151566839D01*
X192536677Y-151346935D01*
X192264265Y-151074523D01*
X191964869Y-150832077D01*
X191964868Y-150832076D01*
X191964864Y-150832073D01*
X191964862Y-150832071D01*
X191641776Y-150622257D01*
X191298515Y-150447357D01*
X190938858Y-150309297D01*
X190938851Y-150309295D01*
X190566728Y-150209585D01*
X190566724Y-150209584D01*
X190566723Y-150209584D01*
X190186223Y-150149318D01*
X189801501Y-150129156D01*
X189801499Y-150129156D01*
X189416776Y-150149318D01*
X189036277Y-150209584D01*
X189036275Y-150209584D01*
X188664141Y-150309297D01*
X188304484Y-150447357D01*
X187961223Y-150622257D01*
X187638137Y-150832071D01*
X187638135Y-150832073D01*
X187338739Y-151074519D01*
X187338731Y-151074526D01*
X187066326Y-151346931D01*
X187066319Y-151346939D01*
X186823873Y-151646335D01*
X186823871Y-151646337D01*
X186614057Y-151969423D01*
X186439157Y-152312684D01*
X186301097Y-152672341D01*
X186201384Y-153044475D01*
X186201384Y-153044477D01*
X186141118Y-153424976D01*
X186120956Y-153809699D01*
X186120956Y-153809700D01*
X158899434Y-153809700D01*
X158995739Y-153713395D01*
X159167226Y-153484315D01*
X159304367Y-153233161D01*
X159404369Y-152965046D01*
X159465196Y-152685428D01*
X159485610Y-152400000D01*
X159465196Y-152114572D01*
X159404369Y-151834954D01*
X159304367Y-151566839D01*
X159293426Y-151546803D01*
X159167229Y-151315690D01*
X159167224Y-151315682D01*
X158995745Y-151086612D01*
X158995729Y-151086594D01*
X158793405Y-150884270D01*
X158793387Y-150884254D01*
X158564317Y-150712775D01*
X158564309Y-150712770D01*
X158313166Y-150575635D01*
X158313167Y-150575635D01*
X158085935Y-150490882D01*
X158045046Y-150475631D01*
X158045043Y-150475630D01*
X158045037Y-150475628D01*
X157765433Y-150414804D01*
X157480001Y-150394390D01*
X157479999Y-150394390D01*
X157194566Y-150414804D01*
X156914962Y-150475628D01*
X156646833Y-150575635D01*
X156395690Y-150712770D01*
X156395682Y-150712775D01*
X156166612Y-150884254D01*
X156166594Y-150884270D01*
X155964270Y-151086594D01*
X155964254Y-151086612D01*
X155792775Y-151315682D01*
X155792770Y-151315690D01*
X155655635Y-151566833D01*
X155555628Y-151834962D01*
X155494804Y-152114566D01*
X155474390Y-152399998D01*
X155474390Y-152400001D01*
X149325610Y-152400001D01*
X149325610Y-152400000D01*
X149305196Y-152114572D01*
X149244369Y-151834954D01*
X149144367Y-151566839D01*
X149133426Y-151546803D01*
X149007229Y-151315690D01*
X149007224Y-151315682D01*
X148835745Y-151086612D01*
X148835729Y-151086594D01*
X148633405Y-150884270D01*
X148633393Y-150884259D01*
X148505189Y-150788286D01*
X148463318Y-150732352D01*
X148455500Y-150689019D01*
X148455500Y-149860001D01*
X150394891Y-149860001D01*
X150415300Y-150145362D01*
X150476109Y-150424895D01*
X150576091Y-150692958D01*
X150713191Y-150944038D01*
X150713196Y-150944046D01*
X150819882Y-151086561D01*
X150819883Y-151086562D01*
X151722803Y-150183641D01*
X151746059Y-150237553D01*
X151850756Y-150378185D01*
X151985062Y-150490882D01*
X152076665Y-150536886D01*
X151173436Y-151440115D01*
X151315960Y-151546807D01*
X151315961Y-151546808D01*
X151567042Y-151683908D01*
X151567041Y-151683908D01*
X151835104Y-151783890D01*
X152114637Y-151844699D01*
X152399999Y-151865109D01*
X152400001Y-151865109D01*
X152685362Y-151844699D01*
X152964895Y-151783890D01*
X153232958Y-151683908D01*
X153484047Y-151546803D01*
X153626561Y-151440116D01*
X153626562Y-151440115D01*
X152725946Y-150539498D01*
X152738891Y-150534787D01*
X152885373Y-150438445D01*
X153005688Y-150310918D01*
X153078447Y-150184894D01*
X153980115Y-151086562D01*
X153980116Y-151086561D01*
X154086803Y-150944047D01*
X154223908Y-150692958D01*
X154323890Y-150424895D01*
X154384699Y-150145362D01*
X154405109Y-149860001D01*
X154405109Y-149859998D01*
X154384699Y-149574637D01*
X154323890Y-149295104D01*
X154223908Y-149027041D01*
X154086808Y-148775961D01*
X154086807Y-148775960D01*
X153980115Y-148633436D01*
X153077195Y-149536356D01*
X153053941Y-149482447D01*
X152949244Y-149341815D01*
X152814938Y-149229118D01*
X152723333Y-149183112D01*
X153626562Y-148279883D01*
X153626561Y-148279882D01*
X153484046Y-148173196D01*
X153484038Y-148173191D01*
X153232957Y-148036091D01*
X153232958Y-148036091D01*
X152964895Y-147936109D01*
X152685362Y-147875300D01*
X152400001Y-147854891D01*
X152399999Y-147854891D01*
X152114637Y-147875300D01*
X151835104Y-147936109D01*
X151567041Y-148036091D01*
X151315961Y-148173191D01*
X151315953Y-148173196D01*
X151173437Y-148279882D01*
X151173436Y-148279883D01*
X152074054Y-149180501D01*
X152061109Y-149185213D01*
X151914627Y-149281555D01*
X151794312Y-149409082D01*
X151721552Y-149535105D01*
X150819883Y-148633436D01*
X150819882Y-148633437D01*
X150713196Y-148775953D01*
X150713191Y-148775961D01*
X150576091Y-149027041D01*
X150476109Y-149295104D01*
X150415300Y-149574637D01*
X150394891Y-149859998D01*
X150394891Y-149860001D01*
X148455500Y-149860001D01*
X148455500Y-141311305D01*
X172203644Y-141311305D01*
X172222648Y-141613374D01*
X172222649Y-141613381D01*
X172237030Y-141688768D01*
X172279367Y-141910706D01*
X172372901Y-142198574D01*
X172501777Y-142472450D01*
X172501779Y-142472453D01*
X172501780Y-142472455D01*
X172663958Y-142728008D01*
X172663961Y-142728012D01*
X172663962Y-142728013D01*
X172856899Y-142961234D01*
X173040166Y-143133333D01*
X173077543Y-143168432D01*
X173077553Y-143168440D01*
X173322408Y-143346338D01*
X173322413Y-143346340D01*
X173322420Y-143346346D01*
X173587663Y-143492165D01*
X173587668Y-143492167D01*
X173587670Y-143492168D01*
X173587671Y-143492169D01*
X173869086Y-143603589D01*
X173869089Y-143603590D01*
X174027777Y-143644334D01*
X174162263Y-143678864D01*
X174201304Y-143683796D01*
X174462547Y-143716799D01*
X174462556Y-143716799D01*
X174462559Y-143716800D01*
X174462561Y-143716800D01*
X174765239Y-143716800D01*
X174765241Y-143716800D01*
X174765244Y-143716799D01*
X174765252Y-143716799D01*
X174944439Y-143694162D01*
X175065537Y-143678864D01*
X175358710Y-143603590D01*
X175373973Y-143597547D01*
X175640128Y-143492169D01*
X175640129Y-143492168D01*
X175640127Y-143492168D01*
X175640137Y-143492165D01*
X175905380Y-143346346D01*
X176150255Y-143168434D01*
X176370901Y-142961234D01*
X176563838Y-142728013D01*
X176726023Y-142472450D01*
X176854899Y-142198574D01*
X176948433Y-141910706D01*
X177005150Y-141613385D01*
X177009582Y-141542945D01*
X177024156Y-141311305D01*
X177024156Y-141311294D01*
X177005151Y-141009225D01*
X177005150Y-141009218D01*
X177005150Y-141009215D01*
X176948433Y-140711894D01*
X176854899Y-140424026D01*
X176726023Y-140150150D01*
X176563838Y-139894587D01*
X176370901Y-139661366D01*
X176150255Y-139454166D01*
X176150252Y-139454164D01*
X176150246Y-139454159D01*
X175905391Y-139276261D01*
X175905384Y-139276256D01*
X175905380Y-139276254D01*
X175640137Y-139130435D01*
X175640134Y-139130433D01*
X175640129Y-139130431D01*
X175640128Y-139130430D01*
X175358713Y-139019010D01*
X175358710Y-139019009D01*
X175065540Y-138943736D01*
X175065527Y-138943734D01*
X174765252Y-138905800D01*
X174765241Y-138905800D01*
X174462559Y-138905800D01*
X174462547Y-138905800D01*
X174162272Y-138943734D01*
X174162259Y-138943736D01*
X173869089Y-139019009D01*
X173869086Y-139019010D01*
X173587671Y-139130430D01*
X173587670Y-139130431D01*
X173322420Y-139276254D01*
X173322408Y-139276261D01*
X173077553Y-139454159D01*
X173077543Y-139454167D01*
X172856901Y-139661364D01*
X172663958Y-139894591D01*
X172501780Y-140150144D01*
X172372900Y-140424028D01*
X172279368Y-140711889D01*
X172222649Y-141009218D01*
X172222648Y-141009225D01*
X172203644Y-141311294D01*
X172203644Y-141311305D01*
X148455500Y-141311305D01*
X148455500Y-137260005D01*
X151667738Y-137260005D01*
X151686753Y-137489484D01*
X151743282Y-137712714D01*
X151835782Y-137923594D01*
X151961728Y-138116370D01*
X151961731Y-138116373D01*
X152117692Y-138285792D01*
X152299411Y-138427229D01*
X152501931Y-138536828D01*
X152615025Y-138575653D01*
X152719725Y-138611597D01*
X152719727Y-138611597D01*
X152719729Y-138611598D01*
X152946863Y-138649500D01*
X152946864Y-138649500D01*
X153177136Y-138649500D01*
X153177137Y-138649500D01*
X153404271Y-138611598D01*
X153622069Y-138536828D01*
X153824589Y-138427229D01*
X154006308Y-138285792D01*
X154162269Y-138116373D01*
X154288217Y-137923595D01*
X154380717Y-137712716D01*
X154437246Y-137489488D01*
X154456262Y-137260000D01*
X154437246Y-137030512D01*
X154380717Y-136807284D01*
X154288217Y-136596405D01*
X154162271Y-136403629D01*
X154052163Y-136284020D01*
X154006308Y-136234208D01*
X153824589Y-136092771D01*
X153824590Y-136092771D01*
X153820541Y-136089620D01*
X153821428Y-136088480D01*
X153780363Y-136040366D01*
X153770938Y-135971135D01*
X153800437Y-135907798D01*
X153820571Y-135890352D01*
X153820266Y-135889960D01*
X153852958Y-135864513D01*
X153852959Y-135864511D01*
X153230604Y-135242156D01*
X153348412Y-135190985D01*
X153464862Y-135096246D01*
X153551433Y-134973603D01*
X153582300Y-134886747D01*
X154205238Y-135509685D01*
X154287772Y-135383359D01*
X154287777Y-135383351D01*
X154380242Y-135172553D01*
X154436750Y-134949408D01*
X154436752Y-134949396D01*
X154455760Y-134720005D01*
X154455760Y-134719994D01*
X154436752Y-134490603D01*
X154436750Y-134490591D01*
X154380242Y-134267446D01*
X154287774Y-134056642D01*
X154205238Y-133930313D01*
X153584630Y-134550921D01*
X153581406Y-134535403D01*
X153512342Y-134402114D01*
X153409877Y-134292402D01*
X153281612Y-134214402D01*
X153228832Y-134199613D01*
X153852958Y-133575486D01*
X153852958Y-133575484D01*
X153820267Y-133550040D01*
X153821209Y-133548829D01*
X153780355Y-133500947D01*
X153770941Y-133431714D01*
X153800450Y-133368382D01*
X153820820Y-133350738D01*
X153820541Y-133350380D01*
X153866598Y-133314532D01*
X154006308Y-133205792D01*
X154162269Y-133036373D01*
X154288217Y-132843595D01*
X154380717Y-132632716D01*
X154437246Y-132409488D01*
X154450864Y-132245148D01*
X154456262Y-132180005D01*
X154456262Y-132179994D01*
X154440920Y-131994852D01*
X154437246Y-131950512D01*
X154380717Y-131727284D01*
X154288217Y-131516405D01*
X154256274Y-131467512D01*
X154162271Y-131323629D01*
X154070214Y-131223629D01*
X154006308Y-131154208D01*
X153877831Y-131054211D01*
X153820541Y-131009620D01*
X153821525Y-131008354D01*
X153780824Y-130960670D01*
X153771396Y-130891439D01*
X153800893Y-130828102D01*
X153820865Y-130810796D01*
X153820541Y-130810380D01*
X153865953Y-130775034D01*
X154006308Y-130665792D01*
X154162269Y-130496373D01*
X154288217Y-130303595D01*
X154380717Y-130092716D01*
X154437246Y-129869488D01*
X154456262Y-129640000D01*
X154454157Y-129614600D01*
X154437246Y-129410515D01*
X154437246Y-129410512D01*
X154380717Y-129187284D01*
X154288217Y-128976405D01*
X154213010Y-128861292D01*
X154162271Y-128783629D01*
X154070214Y-128683629D01*
X154006308Y-128614208D01*
X153877831Y-128514211D01*
X153820541Y-128469620D01*
X153821525Y-128468354D01*
X153780824Y-128420670D01*
X153771396Y-128351439D01*
X153800893Y-128288102D01*
X153820865Y-128270796D01*
X153820541Y-128270380D01*
X153857174Y-128241866D01*
X154006308Y-128125792D01*
X154162269Y-127956373D01*
X154288217Y-127763595D01*
X154380717Y-127552716D01*
X154437246Y-127329488D01*
X154449252Y-127184597D01*
X154456262Y-127100005D01*
X154456262Y-127099994D01*
X154439460Y-126897227D01*
X154437246Y-126870512D01*
X154380717Y-126647284D01*
X154288217Y-126436405D01*
X154198454Y-126299012D01*
X154162271Y-126243629D01*
X154131601Y-126210313D01*
X154006308Y-126074208D01*
X153938036Y-126021070D01*
X153824591Y-125932772D01*
X153622069Y-125823172D01*
X153622061Y-125823169D01*
X153404274Y-125748402D01*
X153233920Y-125719975D01*
X153177137Y-125710500D01*
X152946863Y-125710500D01*
X152901436Y-125718080D01*
X152719725Y-125748402D01*
X152501938Y-125823169D01*
X152501930Y-125823172D01*
X152299408Y-125932772D01*
X152117694Y-126074206D01*
X152117689Y-126074211D01*
X151961728Y-126243629D01*
X151835782Y-126436405D01*
X151743282Y-126647285D01*
X151686753Y-126870515D01*
X151667738Y-127099994D01*
X151667738Y-127100005D01*
X151686753Y-127329484D01*
X151743282Y-127552714D01*
X151835782Y-127763594D01*
X151961728Y-127956370D01*
X151961731Y-127956373D01*
X152117692Y-128125792D01*
X152197358Y-128187798D01*
X152303459Y-128270380D01*
X152302476Y-128271641D01*
X152343183Y-128319349D01*
X152352600Y-128388581D01*
X152323092Y-128451914D01*
X152303136Y-128469205D01*
X152303459Y-128469620D01*
X152117694Y-128614206D01*
X152117689Y-128614211D01*
X151961728Y-128783629D01*
X151835782Y-128976405D01*
X151743282Y-129187285D01*
X151686753Y-129410515D01*
X151667738Y-129639994D01*
X151667738Y-129640005D01*
X151686753Y-129869484D01*
X151743282Y-130092714D01*
X151835782Y-130303594D01*
X151961728Y-130496370D01*
X151961731Y-130496373D01*
X152117692Y-130665792D01*
X152197748Y-130728102D01*
X152303459Y-130810380D01*
X152302476Y-130811641D01*
X152343183Y-130859349D01*
X152352600Y-130928581D01*
X152323092Y-130991914D01*
X152303136Y-131009205D01*
X152303459Y-131009620D01*
X152117694Y-131154206D01*
X152117689Y-131154211D01*
X151961728Y-131323629D01*
X151835782Y-131516405D01*
X151743282Y-131727285D01*
X151686753Y-131950515D01*
X151667738Y-132179994D01*
X151667738Y-132180005D01*
X151686753Y-132409484D01*
X151743282Y-132632714D01*
X151835782Y-132843594D01*
X151961728Y-133036370D01*
X151961731Y-133036373D01*
X152117692Y-133205792D01*
X152206010Y-133274532D01*
X152303459Y-133350380D01*
X152302570Y-133351521D01*
X152343632Y-133399624D01*
X152353063Y-133468855D01*
X152323568Y-133532194D01*
X152303429Y-133549651D01*
X152303733Y-133550041D01*
X152271040Y-133575485D01*
X152271040Y-133575487D01*
X152893396Y-134197843D01*
X152775588Y-134249015D01*
X152659138Y-134343754D01*
X152572567Y-134466397D01*
X152541698Y-134553252D01*
X151918759Y-133930313D01*
X151836224Y-134056644D01*
X151743757Y-134267446D01*
X151687249Y-134490591D01*
X151687247Y-134490603D01*
X151668240Y-134719994D01*
X151668240Y-134720005D01*
X151687247Y-134949396D01*
X151687249Y-134949408D01*
X151743757Y-135172553D01*
X151836223Y-135383352D01*
X151918760Y-135509685D01*
X152539368Y-134889076D01*
X152542594Y-134904597D01*
X152611658Y-135037886D01*
X152714123Y-135147598D01*
X152842388Y-135225598D01*
X152895166Y-135240386D01*
X152271040Y-135864512D01*
X152271040Y-135864514D01*
X152303733Y-135889960D01*
X152302789Y-135891172D01*
X152343639Y-135939043D01*
X152353060Y-136008274D01*
X152323556Y-136071609D01*
X152303181Y-136089263D01*
X152303459Y-136089620D01*
X152117694Y-136234206D01*
X152117689Y-136234211D01*
X151961728Y-136403629D01*
X151835782Y-136596405D01*
X151743282Y-136807285D01*
X151686753Y-137030515D01*
X151667738Y-137259994D01*
X151667738Y-137260005D01*
X148455500Y-137260005D01*
X148455500Y-135309362D01*
X148457218Y-135288795D01*
X148457757Y-135285585D01*
X148457759Y-135285574D01*
X148455535Y-135192151D01*
X148455500Y-135189201D01*
X148455500Y-135150117D01*
X148455500Y-135150109D01*
X148454631Y-135141020D01*
X148454108Y-135132224D01*
X148452598Y-135068781D01*
X148445499Y-135036148D01*
X148443228Y-135021582D01*
X148440053Y-134988338D01*
X148440052Y-134988337D01*
X148440052Y-134988328D01*
X148422172Y-134927437D01*
X148419992Y-134918896D01*
X148406502Y-134856883D01*
X148393353Y-134826179D01*
X148388368Y-134812312D01*
X148378957Y-134780258D01*
X148349871Y-134723840D01*
X148346120Y-134715880D01*
X148321137Y-134657537D01*
X148302409Y-134629868D01*
X148294892Y-134617196D01*
X148289185Y-134606127D01*
X148279592Y-134587516D01*
X148279584Y-134587504D01*
X148240371Y-134537642D01*
X148235149Y-134530491D01*
X148208144Y-134490591D01*
X148199589Y-134477950D01*
X148175974Y-134454335D01*
X148166183Y-134443304D01*
X148145538Y-134417051D01*
X148145537Y-134417050D01*
X148097580Y-134375495D01*
X148091102Y-134369463D01*
X145594814Y-131873174D01*
X145562289Y-131815933D01*
X145556319Y-131792359D01*
X145514517Y-131627284D01*
X145422017Y-131416405D01*
X145407723Y-131394526D01*
X145296071Y-131223629D01*
X145232164Y-131154208D01*
X145140108Y-131054208D01*
X145019930Y-130960670D01*
X144954341Y-130909620D01*
X144955325Y-130908354D01*
X144914624Y-130860670D01*
X144905196Y-130791439D01*
X144934693Y-130728102D01*
X144954665Y-130710796D01*
X144954341Y-130710380D01*
X145011627Y-130665792D01*
X145140108Y-130565792D01*
X145296069Y-130396373D01*
X145422017Y-130203595D01*
X145514517Y-129992716D01*
X145571046Y-129769488D01*
X145583352Y-129620980D01*
X145590062Y-129540005D01*
X145590062Y-129539994D01*
X145577333Y-129386386D01*
X145571046Y-129310512D01*
X145514517Y-129087284D01*
X145422017Y-128876405D01*
X145399090Y-128841312D01*
X145296071Y-128683629D01*
X145232164Y-128614208D01*
X145140108Y-128514208D01*
X144999982Y-128405144D01*
X144954341Y-128369620D01*
X144955228Y-128368480D01*
X144914163Y-128320366D01*
X144904738Y-128251135D01*
X144934237Y-128187798D01*
X144954371Y-128170352D01*
X144954066Y-128169960D01*
X144986758Y-128144513D01*
X144986759Y-128144512D01*
X144364403Y-127522156D01*
X144482212Y-127470985D01*
X144598662Y-127376246D01*
X144685233Y-127253603D01*
X144716100Y-127166747D01*
X145339038Y-127789685D01*
X145421572Y-127663359D01*
X145421577Y-127663351D01*
X145514042Y-127452553D01*
X145570550Y-127229408D01*
X145570552Y-127229396D01*
X145589560Y-127000005D01*
X145589560Y-126999994D01*
X145570552Y-126770603D01*
X145570550Y-126770591D01*
X145514042Y-126547446D01*
X145421574Y-126336642D01*
X145339038Y-126210313D01*
X144718430Y-126830921D01*
X144715206Y-126815403D01*
X144646142Y-126682114D01*
X144543677Y-126572402D01*
X144415412Y-126494402D01*
X144362632Y-126479613D01*
X144986758Y-125855486D01*
X144986758Y-125855484D01*
X144954067Y-125830040D01*
X144955009Y-125828829D01*
X144914155Y-125780947D01*
X144904741Y-125711714D01*
X144934250Y-125648382D01*
X144954620Y-125630738D01*
X144954341Y-125630380D01*
X144990974Y-125601866D01*
X145140108Y-125485792D01*
X145296069Y-125316373D01*
X145422017Y-125123595D01*
X145514517Y-124912716D01*
X145571046Y-124689488D01*
X145590062Y-124460000D01*
X145589496Y-124453172D01*
X145571046Y-124230515D01*
X145571046Y-124230512D01*
X145514517Y-124007284D01*
X145422017Y-123796405D01*
X145397587Y-123759012D01*
X145296071Y-123603629D01*
X145233615Y-123535784D01*
X145140108Y-123434208D01*
X144958389Y-123292771D01*
X144958390Y-123292771D01*
X144954341Y-123289620D01*
X144955325Y-123288354D01*
X144914624Y-123240670D01*
X144905196Y-123171439D01*
X144934693Y-123108102D01*
X144954665Y-123090796D01*
X144954341Y-123090380D01*
X144990974Y-123061866D01*
X145140108Y-122945792D01*
X145296069Y-122776373D01*
X145410202Y-122601678D01*
X145463348Y-122556322D01*
X145514011Y-122545500D01*
X154857257Y-122545500D01*
X154872877Y-122547224D01*
X154872904Y-122546939D01*
X154880660Y-122547671D01*
X154880667Y-122547673D01*
X154947873Y-122545561D01*
X154951768Y-122545500D01*
X154979346Y-122545500D01*
X154979350Y-122545500D01*
X154983324Y-122544997D01*
X154994963Y-122544080D01*
X155038627Y-122542709D01*
X155057869Y-122537117D01*
X155076912Y-122533174D01*
X155096792Y-122530664D01*
X155137401Y-122514585D01*
X155148444Y-122510803D01*
X155190390Y-122498618D01*
X155207629Y-122488422D01*
X155225103Y-122479862D01*
X155243727Y-122472488D01*
X155243727Y-122472487D01*
X155243732Y-122472486D01*
X155279083Y-122446800D01*
X155288814Y-122440408D01*
X155326420Y-122418170D01*
X155340589Y-122403999D01*
X155355379Y-122391368D01*
X155371587Y-122379594D01*
X155399438Y-122345926D01*
X155407279Y-122337309D01*
X157228787Y-120515801D01*
X157241042Y-120505986D01*
X157240859Y-120505764D01*
X157246868Y-120500791D01*
X157246877Y-120500786D01*
X157292949Y-120451722D01*
X157295566Y-120449023D01*
X157315120Y-120429471D01*
X157317576Y-120426303D01*
X157325156Y-120417427D01*
X157355062Y-120385582D01*
X157364715Y-120368020D01*
X157375389Y-120351770D01*
X157387673Y-120335936D01*
X157405019Y-120295850D01*
X157410157Y-120285362D01*
X157431196Y-120247093D01*
X157431197Y-120247092D01*
X157436177Y-120227691D01*
X157442478Y-120209288D01*
X157450438Y-120190896D01*
X157457272Y-120147741D01*
X157459635Y-120136331D01*
X157470500Y-120094019D01*
X157470500Y-120073983D01*
X157472027Y-120054582D01*
X157475160Y-120034804D01*
X157471050Y-119991324D01*
X157470500Y-119979655D01*
X157470500Y-96830452D01*
X157490185Y-96763413D01*
X157506819Y-96742771D01*
X159507772Y-94741819D01*
X159569095Y-94708334D01*
X159595453Y-94705500D01*
X177089789Y-94705500D01*
X177156828Y-94725185D01*
X177193598Y-94761679D01*
X177307728Y-94936370D01*
X177307731Y-94936373D01*
X177463692Y-95105792D01*
X177554266Y-95176288D01*
X177649459Y-95250380D01*
X177648476Y-95251641D01*
X177689183Y-95299349D01*
X177698600Y-95368581D01*
X177669092Y-95431914D01*
X177649136Y-95449205D01*
X177649459Y-95449620D01*
X177463694Y-95594206D01*
X177463689Y-95594211D01*
X177307728Y-95763629D01*
X177181782Y-95956405D01*
X177089282Y-96167285D01*
X177032753Y-96390515D01*
X177013738Y-96619994D01*
X177013738Y-96620005D01*
X177032753Y-96849484D01*
X177089282Y-97072714D01*
X177181782Y-97283594D01*
X177307728Y-97476370D01*
X177307731Y-97476373D01*
X177463692Y-97645792D01*
X177562075Y-97722366D01*
X177649459Y-97790380D01*
X177648476Y-97791641D01*
X177689183Y-97839349D01*
X177698600Y-97908581D01*
X177669092Y-97971914D01*
X177649136Y-97989205D01*
X177649459Y-97989620D01*
X177463694Y-98134206D01*
X177463689Y-98134211D01*
X177307728Y-98303629D01*
X177181782Y-98496405D01*
X177089282Y-98707285D01*
X177032753Y-98930515D01*
X177013738Y-99159994D01*
X177013738Y-99160005D01*
X177032753Y-99389484D01*
X177089282Y-99612714D01*
X177181782Y-99823594D01*
X177307728Y-100016370D01*
X177307731Y-100016373D01*
X177463692Y-100185792D01*
X177554163Y-100256208D01*
X177649459Y-100330380D01*
X177648476Y-100331641D01*
X177689183Y-100379349D01*
X177698600Y-100448581D01*
X177669092Y-100511914D01*
X177649136Y-100529205D01*
X177649459Y-100529620D01*
X177463694Y-100674206D01*
X177463689Y-100674211D01*
X177307728Y-100843629D01*
X177181782Y-101036405D01*
X177089282Y-101247285D01*
X177032753Y-101470515D01*
X177013738Y-101699994D01*
X177013738Y-101700005D01*
X177032753Y-101929484D01*
X177089282Y-102152714D01*
X177181782Y-102363594D01*
X177307728Y-102556370D01*
X177307731Y-102556373D01*
X177463692Y-102725792D01*
X177554266Y-102796288D01*
X177649459Y-102870380D01*
X177648476Y-102871641D01*
X177689183Y-102919349D01*
X177698600Y-102988581D01*
X177669092Y-103051914D01*
X177649136Y-103069205D01*
X177649459Y-103069620D01*
X177463694Y-103214206D01*
X177463689Y-103214211D01*
X177307728Y-103383629D01*
X177181782Y-103576405D01*
X177089282Y-103787285D01*
X177032753Y-104010515D01*
X177013738Y-104239994D01*
X177013738Y-104240005D01*
X177032753Y-104469484D01*
X177089282Y-104692714D01*
X177181782Y-104903594D01*
X177307728Y-105096370D01*
X177307731Y-105096373D01*
X177463692Y-105265792D01*
X177522599Y-105311641D01*
X177583894Y-105359349D01*
X177645411Y-105407229D01*
X177847931Y-105516828D01*
X177961025Y-105555653D01*
X178065725Y-105591597D01*
X178065727Y-105591597D01*
X178065729Y-105591598D01*
X178292863Y-105629500D01*
X178292864Y-105629500D01*
X178523136Y-105629500D01*
X178523137Y-105629500D01*
X178750271Y-105591598D01*
X178968069Y-105516828D01*
X179170589Y-105407229D01*
X179352308Y-105265792D01*
X179508269Y-105096373D01*
X179634217Y-104903595D01*
X179726717Y-104692716D01*
X179783246Y-104469488D01*
X179802262Y-104240000D01*
X179783246Y-104010512D01*
X179726717Y-103787284D01*
X179634217Y-103576405D01*
X179508271Y-103383629D01*
X179461098Y-103332386D01*
X179352308Y-103214208D01*
X179223831Y-103114211D01*
X179166541Y-103069620D01*
X179167525Y-103068354D01*
X179126824Y-103020670D01*
X179117396Y-102951439D01*
X179146893Y-102888102D01*
X179166865Y-102870796D01*
X179166541Y-102870380D01*
X179261734Y-102796288D01*
X179352308Y-102725792D01*
X179508269Y-102556373D01*
X179634217Y-102363595D01*
X179726717Y-102152716D01*
X179783246Y-101929488D01*
X179799174Y-101737270D01*
X179802262Y-101700005D01*
X179802262Y-101699994D01*
X179783246Y-101470515D01*
X179783246Y-101470512D01*
X179726717Y-101247284D01*
X179634217Y-101036405D01*
X179567819Y-100934775D01*
X179508271Y-100843629D01*
X179461098Y-100792386D01*
X179352308Y-100674208D01*
X179223831Y-100574211D01*
X179166541Y-100529620D01*
X179167525Y-100528354D01*
X179126824Y-100480670D01*
X179117396Y-100411439D01*
X179146893Y-100348102D01*
X179166865Y-100330796D01*
X179166541Y-100330380D01*
X179232105Y-100279349D01*
X179352308Y-100185792D01*
X179508269Y-100016373D01*
X179634217Y-99823595D01*
X179726717Y-99612716D01*
X179783246Y-99389488D01*
X179802262Y-99160000D01*
X179783246Y-98930512D01*
X179726717Y-98707284D01*
X179634217Y-98496405D01*
X179600316Y-98444516D01*
X179508271Y-98303629D01*
X179461098Y-98252386D01*
X179352308Y-98134208D01*
X179223831Y-98034211D01*
X179166541Y-97989620D01*
X179167525Y-97988354D01*
X179126824Y-97940670D01*
X179117396Y-97871439D01*
X179146893Y-97808102D01*
X179166865Y-97790796D01*
X179166541Y-97790380D01*
X179232105Y-97739349D01*
X179352308Y-97645792D01*
X179508269Y-97476373D01*
X179634217Y-97283595D01*
X179726717Y-97072716D01*
X179783246Y-96849488D01*
X179799145Y-96657618D01*
X179802262Y-96620005D01*
X179802262Y-96619994D01*
X179783922Y-96398674D01*
X179783246Y-96390512D01*
X179726717Y-96167284D01*
X179634217Y-95956405D01*
X179625161Y-95942544D01*
X179508271Y-95763629D01*
X179416214Y-95663629D01*
X179352308Y-95594208D01*
X179223831Y-95494211D01*
X179166541Y-95449620D01*
X179167525Y-95448354D01*
X179126824Y-95400670D01*
X179117396Y-95331439D01*
X179146893Y-95268102D01*
X179166865Y-95250796D01*
X179166541Y-95250380D01*
X179261734Y-95176288D01*
X179352308Y-95105792D01*
X179508269Y-94936373D01*
X179634217Y-94743595D01*
X179726717Y-94532716D01*
X179783246Y-94309488D01*
X179802262Y-94080000D01*
X179783246Y-93850512D01*
X179726717Y-93627284D01*
X179634217Y-93416405D01*
X179622402Y-93398321D01*
X179508271Y-93223629D01*
X179481355Y-93194390D01*
X179352308Y-93054208D01*
X179222147Y-92952900D01*
X179170591Y-92912772D01*
X178968069Y-92803172D01*
X178968061Y-92803169D01*
X178750274Y-92728402D01*
X178579920Y-92699975D01*
X178523137Y-92690500D01*
X178292863Y-92690500D01*
X178247436Y-92698080D01*
X178065725Y-92728402D01*
X177847938Y-92803169D01*
X177847930Y-92803172D01*
X177645408Y-92912772D01*
X177463694Y-93054206D01*
X177463689Y-93054211D01*
X177307728Y-93223629D01*
X177193598Y-93398321D01*
X177140452Y-93443678D01*
X177089789Y-93454500D01*
X159367738Y-93454500D01*
X159352121Y-93452776D01*
X159352094Y-93453062D01*
X159344332Y-93452327D01*
X159277145Y-93454439D01*
X159273251Y-93454500D01*
X159245650Y-93454500D01*
X159241962Y-93454965D01*
X159241649Y-93455005D01*
X159230031Y-93455918D01*
X159186373Y-93457290D01*
X159186372Y-93457290D01*
X159167129Y-93462881D01*
X159148079Y-93466825D01*
X159128211Y-93469334D01*
X159128210Y-93469334D01*
X159087599Y-93485413D01*
X159076554Y-93489194D01*
X159034614Y-93501379D01*
X159034610Y-93501381D01*
X159017366Y-93511579D01*
X158999905Y-93520133D01*
X158981274Y-93527510D01*
X158981262Y-93527517D01*
X158945933Y-93553185D01*
X158936173Y-93559596D01*
X158898580Y-93581829D01*
X158884414Y-93595995D01*
X158869624Y-93608627D01*
X158853414Y-93620404D01*
X158853411Y-93620407D01*
X158825573Y-93654058D01*
X158817711Y-93662697D01*
X156461208Y-96019199D01*
X156448951Y-96029020D01*
X156449134Y-96029241D01*
X156443122Y-96034214D01*
X156397098Y-96083223D01*
X156394391Y-96086016D01*
X156374889Y-96105517D01*
X156374875Y-96105534D01*
X156372407Y-96108715D01*
X156364843Y-96117570D01*
X156334937Y-96149418D01*
X156334936Y-96149420D01*
X156325284Y-96166976D01*
X156314610Y-96183226D01*
X156302329Y-96199061D01*
X156302324Y-96199068D01*
X156284975Y-96239158D01*
X156279838Y-96249644D01*
X156258803Y-96287906D01*
X156253822Y-96307307D01*
X156247521Y-96325710D01*
X156239562Y-96344102D01*
X156239561Y-96344105D01*
X156232728Y-96387243D01*
X156230360Y-96398674D01*
X156219501Y-96440971D01*
X156219500Y-96440982D01*
X156219500Y-96461016D01*
X156217973Y-96480415D01*
X156214840Y-96500194D01*
X156214840Y-96500195D01*
X156218950Y-96543674D01*
X156219500Y-96555343D01*
X156219500Y-119704547D01*
X156199815Y-119771586D01*
X156183181Y-119792228D01*
X154717228Y-121258181D01*
X154655905Y-121291666D01*
X154629547Y-121294500D01*
X145514011Y-121294500D01*
X145446972Y-121274815D01*
X145410202Y-121238321D01*
X145296071Y-121063629D01*
X145176053Y-120933255D01*
X145140108Y-120894208D01*
X144958389Y-120752771D01*
X144958390Y-120752771D01*
X144954341Y-120749620D01*
X144955325Y-120748354D01*
X144914624Y-120700670D01*
X144905196Y-120631439D01*
X144934693Y-120568102D01*
X144954665Y-120550796D01*
X144954341Y-120550380D01*
X145018059Y-120500786D01*
X145140108Y-120405792D01*
X145296069Y-120236373D01*
X145422017Y-120043595D01*
X145514517Y-119832716D01*
X145571046Y-119609488D01*
X145589496Y-119386830D01*
X145590062Y-119380005D01*
X145590062Y-119379994D01*
X145572884Y-119172694D01*
X145571046Y-119150512D01*
X145514517Y-118927284D01*
X145422017Y-118716405D01*
X145353116Y-118610944D01*
X145296071Y-118523629D01*
X145269155Y-118494390D01*
X145140108Y-118354208D01*
X145035495Y-118272785D01*
X144954341Y-118209620D01*
X144955325Y-118208354D01*
X144914624Y-118160670D01*
X144905196Y-118091439D01*
X144934693Y-118028102D01*
X144954665Y-118010796D01*
X144954341Y-118010380D01*
X144990974Y-117981866D01*
X145140108Y-117865792D01*
X145296069Y-117696373D01*
X145410202Y-117521678D01*
X145463348Y-117476322D01*
X145514011Y-117465500D01*
X147237257Y-117465500D01*
X147252877Y-117467224D01*
X147252904Y-117466939D01*
X147260660Y-117467671D01*
X147260667Y-117467673D01*
X147327873Y-117465561D01*
X147331768Y-117465500D01*
X147359346Y-117465500D01*
X147359350Y-117465500D01*
X147363324Y-117464997D01*
X147374963Y-117464080D01*
X147418627Y-117462709D01*
X147437869Y-117457117D01*
X147456912Y-117453174D01*
X147476792Y-117450664D01*
X147517401Y-117434585D01*
X147528444Y-117430803D01*
X147570390Y-117418618D01*
X147587629Y-117408422D01*
X147605103Y-117399862D01*
X147623727Y-117392488D01*
X147623727Y-117392487D01*
X147623732Y-117392486D01*
X147659083Y-117366800D01*
X147668814Y-117360408D01*
X147706420Y-117338170D01*
X147720589Y-117323999D01*
X147735379Y-117311368D01*
X147751587Y-117299594D01*
X147779438Y-117265926D01*
X147787279Y-117257309D01*
X150243788Y-114800801D01*
X150256042Y-114790986D01*
X150255859Y-114790764D01*
X150261868Y-114785791D01*
X150261877Y-114785786D01*
X150307949Y-114736722D01*
X150310566Y-114734023D01*
X150330120Y-114714471D01*
X150332576Y-114711303D01*
X150340156Y-114702427D01*
X150370062Y-114670582D01*
X150379713Y-114653024D01*
X150390396Y-114636761D01*
X150402673Y-114620936D01*
X150420021Y-114580844D01*
X150425151Y-114570371D01*
X150446197Y-114532092D01*
X150451180Y-114512680D01*
X150457481Y-114494280D01*
X150465437Y-114475896D01*
X150472270Y-114432748D01*
X150474633Y-114421338D01*
X150480111Y-114400005D01*
X151613738Y-114400005D01*
X151632753Y-114629484D01*
X151689282Y-114852714D01*
X151781782Y-115063594D01*
X151907728Y-115256370D01*
X151907731Y-115256373D01*
X152063692Y-115425792D01*
X152122599Y-115471641D01*
X152183894Y-115519349D01*
X152245411Y-115567229D01*
X152447931Y-115676828D01*
X152561025Y-115715653D01*
X152665725Y-115751597D01*
X152665727Y-115751597D01*
X152665729Y-115751598D01*
X152892863Y-115789500D01*
X152892864Y-115789500D01*
X153123136Y-115789500D01*
X153123137Y-115789500D01*
X153350271Y-115751598D01*
X153568069Y-115676828D01*
X153770589Y-115567229D01*
X153952308Y-115425792D01*
X154108269Y-115256373D01*
X154234217Y-115063595D01*
X154326717Y-114852716D01*
X154383246Y-114629488D01*
X154402262Y-114400000D01*
X154400523Y-114379019D01*
X154383246Y-114170515D01*
X154383246Y-114170512D01*
X154326717Y-113947284D01*
X154234217Y-113736405D01*
X154168884Y-113636405D01*
X154108271Y-113543629D01*
X154061098Y-113492386D01*
X153952308Y-113374208D01*
X153823831Y-113274211D01*
X153766541Y-113229620D01*
X153767525Y-113228354D01*
X153726824Y-113180670D01*
X153717396Y-113111439D01*
X153746893Y-113048102D01*
X153766865Y-113030796D01*
X153766541Y-113030380D01*
X153832105Y-112979349D01*
X153952308Y-112885792D01*
X154108269Y-112716373D01*
X154234217Y-112523595D01*
X154326717Y-112312716D01*
X154383246Y-112089488D01*
X154402262Y-111860000D01*
X154398284Y-111811997D01*
X154383246Y-111630515D01*
X154383246Y-111630512D01*
X154326717Y-111407284D01*
X154234217Y-111196405D01*
X154205287Y-111152124D01*
X154108271Y-111003629D01*
X154042687Y-110932386D01*
X153952308Y-110834208D01*
X153823831Y-110734211D01*
X153766541Y-110689620D01*
X153767525Y-110688354D01*
X153726824Y-110640670D01*
X153717396Y-110571439D01*
X153746893Y-110508102D01*
X153766865Y-110490796D01*
X153766541Y-110490380D01*
X153803174Y-110461866D01*
X153952308Y-110345792D01*
X154108269Y-110176373D01*
X154234217Y-109983595D01*
X154326717Y-109772716D01*
X154383246Y-109549488D01*
X154402262Y-109320000D01*
X154383246Y-109090512D01*
X154326717Y-108867284D01*
X154234217Y-108656405D01*
X154168884Y-108556405D01*
X154108271Y-108463629D01*
X154061098Y-108412386D01*
X153952308Y-108294208D01*
X153823831Y-108194211D01*
X153766541Y-108149620D01*
X153767525Y-108148354D01*
X153726824Y-108100670D01*
X153717396Y-108031439D01*
X153746893Y-107968102D01*
X153766865Y-107950796D01*
X153766541Y-107950380D01*
X153832105Y-107899349D01*
X153952308Y-107805792D01*
X154108269Y-107636373D01*
X154234217Y-107443595D01*
X154326717Y-107232716D01*
X154383246Y-107009488D01*
X154398596Y-106824241D01*
X154402262Y-106780005D01*
X154402262Y-106779994D01*
X154383246Y-106550515D01*
X154383246Y-106550512D01*
X154326717Y-106327284D01*
X154234217Y-106116405D01*
X154168884Y-106016405D01*
X154108271Y-105923629D01*
X154061098Y-105872386D01*
X153952308Y-105754208D01*
X153823831Y-105654211D01*
X153766541Y-105609620D01*
X153767525Y-105608354D01*
X153726824Y-105560670D01*
X153717396Y-105491439D01*
X153746893Y-105428102D01*
X153766865Y-105410796D01*
X153766541Y-105410380D01*
X153832105Y-105359349D01*
X153952308Y-105265792D01*
X154108269Y-105096373D01*
X154234217Y-104903595D01*
X154326717Y-104692716D01*
X154383246Y-104469488D01*
X154402262Y-104240000D01*
X154383246Y-104010512D01*
X154326717Y-103787284D01*
X154234217Y-103576405D01*
X154108271Y-103383629D01*
X154061098Y-103332386D01*
X153952308Y-103214208D01*
X153823831Y-103114211D01*
X153766541Y-103069620D01*
X153767525Y-103068354D01*
X153726824Y-103020670D01*
X153717396Y-102951439D01*
X153746893Y-102888102D01*
X153766865Y-102870796D01*
X153766541Y-102870380D01*
X153861734Y-102796288D01*
X153952308Y-102725792D01*
X154108269Y-102556373D01*
X154234217Y-102363595D01*
X154326717Y-102152716D01*
X154383246Y-101929488D01*
X154399174Y-101737270D01*
X154402262Y-101700005D01*
X154402262Y-101699994D01*
X154383246Y-101470515D01*
X154383246Y-101470512D01*
X154326717Y-101247284D01*
X154234217Y-101036405D01*
X154167819Y-100934775D01*
X154108271Y-100843629D01*
X154061098Y-100792386D01*
X153952308Y-100674208D01*
X153823831Y-100574211D01*
X153766541Y-100529620D01*
X153767525Y-100528354D01*
X153726824Y-100480670D01*
X153717396Y-100411439D01*
X153746893Y-100348102D01*
X153766865Y-100330796D01*
X153766541Y-100330380D01*
X153832105Y-100279349D01*
X153952308Y-100185792D01*
X154108269Y-100016373D01*
X154234217Y-99823595D01*
X154326717Y-99612716D01*
X154383246Y-99389488D01*
X154402262Y-99160000D01*
X154383246Y-98930512D01*
X154326717Y-98707284D01*
X154234217Y-98496405D01*
X154200316Y-98444516D01*
X154108271Y-98303629D01*
X154061098Y-98252386D01*
X153952308Y-98134208D01*
X153823831Y-98034211D01*
X153766541Y-97989620D01*
X153767428Y-97988480D01*
X153726363Y-97940366D01*
X153716938Y-97871135D01*
X153746437Y-97807798D01*
X153766571Y-97790352D01*
X153766266Y-97789960D01*
X153798958Y-97764513D01*
X153798959Y-97764511D01*
X153176604Y-97142156D01*
X153294412Y-97090985D01*
X153410862Y-96996246D01*
X153497433Y-96873603D01*
X153528300Y-96786747D01*
X154151238Y-97409685D01*
X154233772Y-97283359D01*
X154233777Y-97283351D01*
X154326242Y-97072553D01*
X154382750Y-96849408D01*
X154382752Y-96849396D01*
X154401760Y-96620005D01*
X154401760Y-96619994D01*
X154382752Y-96390603D01*
X154382750Y-96390591D01*
X154326242Y-96167446D01*
X154233774Y-95956642D01*
X154151238Y-95830313D01*
X153530630Y-96450921D01*
X153527406Y-96435403D01*
X153458342Y-96302114D01*
X153355877Y-96192402D01*
X153227612Y-96114402D01*
X153174832Y-96099613D01*
X153798958Y-95475486D01*
X153798958Y-95475484D01*
X153766267Y-95450040D01*
X153767209Y-95448829D01*
X153726355Y-95400947D01*
X153716941Y-95331714D01*
X153746450Y-95268382D01*
X153766820Y-95250738D01*
X153766541Y-95250380D01*
X153861734Y-95176288D01*
X153952308Y-95105792D01*
X154108269Y-94936373D01*
X154234217Y-94743595D01*
X154326717Y-94532716D01*
X154383246Y-94309488D01*
X154402262Y-94080000D01*
X154383246Y-93850512D01*
X154326717Y-93627284D01*
X154234217Y-93416405D01*
X154222402Y-93398321D01*
X154108271Y-93223629D01*
X154081355Y-93194390D01*
X153952308Y-93054208D01*
X153822147Y-92952900D01*
X153770591Y-92912772D01*
X153568069Y-92803172D01*
X153568061Y-92803169D01*
X153350274Y-92728402D01*
X153179920Y-92699975D01*
X153123137Y-92690500D01*
X152892863Y-92690500D01*
X152847436Y-92698080D01*
X152665725Y-92728402D01*
X152447938Y-92803169D01*
X152447930Y-92803172D01*
X152245408Y-92912772D01*
X152063694Y-93054206D01*
X152063689Y-93054211D01*
X151907728Y-93223629D01*
X151781782Y-93416405D01*
X151689282Y-93627285D01*
X151632753Y-93850515D01*
X151613738Y-94079994D01*
X151613738Y-94080005D01*
X151632753Y-94309484D01*
X151689282Y-94532714D01*
X151781782Y-94743594D01*
X151907728Y-94936370D01*
X151907731Y-94936373D01*
X152063692Y-95105792D01*
X152154266Y-95176288D01*
X152249459Y-95250380D01*
X152248570Y-95251521D01*
X152289632Y-95299624D01*
X152299063Y-95368855D01*
X152269568Y-95432194D01*
X152249429Y-95449651D01*
X152249733Y-95450041D01*
X152217040Y-95475485D01*
X152217040Y-95475487D01*
X152839396Y-96097843D01*
X152721588Y-96149015D01*
X152605138Y-96243754D01*
X152518567Y-96366397D01*
X152487698Y-96453252D01*
X151864759Y-95830313D01*
X151782224Y-95956644D01*
X151689757Y-96167446D01*
X151633249Y-96390591D01*
X151633247Y-96390603D01*
X151614240Y-96619994D01*
X151614240Y-96620005D01*
X151633247Y-96849396D01*
X151633249Y-96849408D01*
X151689757Y-97072553D01*
X151782223Y-97283352D01*
X151864760Y-97409685D01*
X152485368Y-96789076D01*
X152488594Y-96804597D01*
X152557658Y-96937886D01*
X152660123Y-97047598D01*
X152788388Y-97125598D01*
X152841166Y-97140386D01*
X152217040Y-97764512D01*
X152217040Y-97764514D01*
X152249733Y-97789960D01*
X152248789Y-97791172D01*
X152289639Y-97839043D01*
X152299060Y-97908274D01*
X152269556Y-97971609D01*
X152249181Y-97989263D01*
X152249459Y-97989620D01*
X152063694Y-98134206D01*
X152063689Y-98134211D01*
X151907728Y-98303629D01*
X151781782Y-98496405D01*
X151689282Y-98707285D01*
X151632753Y-98930515D01*
X151613738Y-99159994D01*
X151613738Y-99160005D01*
X151632753Y-99389484D01*
X151689282Y-99612714D01*
X151781782Y-99823594D01*
X151907728Y-100016370D01*
X151907731Y-100016373D01*
X152063692Y-100185792D01*
X152154163Y-100256208D01*
X152249459Y-100330380D01*
X152248476Y-100331641D01*
X152289183Y-100379349D01*
X152298600Y-100448581D01*
X152269092Y-100511914D01*
X152249136Y-100529205D01*
X152249459Y-100529620D01*
X152063694Y-100674206D01*
X152063689Y-100674211D01*
X151907728Y-100843629D01*
X151781782Y-101036405D01*
X151689282Y-101247285D01*
X151632753Y-101470515D01*
X151613738Y-101699994D01*
X151613738Y-101700005D01*
X151632753Y-101929484D01*
X151689282Y-102152714D01*
X151781782Y-102363594D01*
X151907728Y-102556370D01*
X151907731Y-102556373D01*
X152063692Y-102725792D01*
X152154266Y-102796288D01*
X152249459Y-102870380D01*
X152248476Y-102871641D01*
X152289183Y-102919349D01*
X152298600Y-102988581D01*
X152269092Y-103051914D01*
X152249136Y-103069205D01*
X152249459Y-103069620D01*
X152063694Y-103214206D01*
X152063689Y-103214211D01*
X151907728Y-103383629D01*
X151781782Y-103576405D01*
X151689282Y-103787285D01*
X151632753Y-104010515D01*
X151613738Y-104239994D01*
X151613738Y-104240005D01*
X151632753Y-104469484D01*
X151689282Y-104692714D01*
X151781782Y-104903594D01*
X151907728Y-105096370D01*
X151907731Y-105096373D01*
X152063692Y-105265792D01*
X152122599Y-105311641D01*
X152249459Y-105410380D01*
X152248476Y-105411641D01*
X152289183Y-105459349D01*
X152298600Y-105528581D01*
X152269092Y-105591914D01*
X152249136Y-105609205D01*
X152249459Y-105609620D01*
X152063694Y-105754206D01*
X152063689Y-105754211D01*
X151907728Y-105923629D01*
X151781782Y-106116405D01*
X151689282Y-106327285D01*
X151632753Y-106550515D01*
X151613738Y-106779994D01*
X151613738Y-106780005D01*
X151632753Y-107009484D01*
X151689282Y-107232714D01*
X151781782Y-107443594D01*
X151907728Y-107636370D01*
X151907731Y-107636373D01*
X152063692Y-107805792D01*
X152122599Y-107851641D01*
X152249459Y-107950380D01*
X152248476Y-107951641D01*
X152289183Y-107999349D01*
X152298600Y-108068581D01*
X152269092Y-108131914D01*
X152249136Y-108149205D01*
X152249459Y-108149620D01*
X152063694Y-108294206D01*
X152063689Y-108294211D01*
X151907728Y-108463629D01*
X151781782Y-108656405D01*
X151689282Y-108867285D01*
X151632753Y-109090515D01*
X151613738Y-109319994D01*
X151613738Y-109320005D01*
X151632753Y-109549484D01*
X151689282Y-109772714D01*
X151781782Y-109983594D01*
X151907728Y-110176370D01*
X151907731Y-110176373D01*
X152063692Y-110345792D01*
X152143748Y-110408102D01*
X152249459Y-110490380D01*
X152248476Y-110491641D01*
X152289183Y-110539349D01*
X152298600Y-110608581D01*
X152269092Y-110671914D01*
X152249136Y-110689205D01*
X152249459Y-110689620D01*
X152063694Y-110834206D01*
X152063689Y-110834211D01*
X151907728Y-111003629D01*
X151781782Y-111196405D01*
X151689282Y-111407285D01*
X151632753Y-111630515D01*
X151613738Y-111859994D01*
X151613738Y-111860005D01*
X151632753Y-112089484D01*
X151689282Y-112312714D01*
X151781782Y-112523594D01*
X151907728Y-112716370D01*
X151907731Y-112716373D01*
X152063692Y-112885792D01*
X152122599Y-112931641D01*
X152249459Y-113030380D01*
X152248476Y-113031641D01*
X152289183Y-113079349D01*
X152298600Y-113148581D01*
X152269092Y-113211914D01*
X152249136Y-113229205D01*
X152249459Y-113229620D01*
X152063694Y-113374206D01*
X152063689Y-113374211D01*
X151907728Y-113543629D01*
X151781782Y-113736405D01*
X151689282Y-113947285D01*
X151632753Y-114170515D01*
X151613738Y-114399994D01*
X151613738Y-114400005D01*
X150480111Y-114400005D01*
X150485500Y-114379019D01*
X150485500Y-114358983D01*
X150487027Y-114339582D01*
X150490160Y-114319804D01*
X150486050Y-114276324D01*
X150485500Y-114264655D01*
X150485500Y-87305451D01*
X150505185Y-87238412D01*
X150521814Y-87217774D01*
X151331590Y-86407998D01*
X151392911Y-86374515D01*
X151462602Y-86379499D01*
X151518536Y-86421371D01*
X151542845Y-86485441D01*
X151559753Y-86689484D01*
X151616282Y-86912714D01*
X151708782Y-87123594D01*
X151834728Y-87316370D01*
X151834731Y-87316373D01*
X151990692Y-87485792D01*
X152172411Y-87627229D01*
X152374931Y-87736828D01*
X152488025Y-87775653D01*
X152592725Y-87811597D01*
X152592727Y-87811597D01*
X152592729Y-87811598D01*
X152819863Y-87849500D01*
X152819864Y-87849500D01*
X153050136Y-87849500D01*
X153050137Y-87849500D01*
X153277271Y-87811598D01*
X153495069Y-87736828D01*
X153697589Y-87627229D01*
X153879308Y-87485792D01*
X154035269Y-87316373D01*
X154161217Y-87123595D01*
X154253717Y-86912716D01*
X154310246Y-86689488D01*
X154321450Y-86554272D01*
X154329262Y-86460005D01*
X154329262Y-86459994D01*
X154310246Y-86230515D01*
X154310246Y-86230512D01*
X154253717Y-86007284D01*
X154173762Y-85825004D01*
X165129535Y-85825004D01*
X165149363Y-86089609D01*
X165149364Y-86089614D01*
X165208410Y-86348313D01*
X165208412Y-86348322D01*
X165208414Y-86348327D01*
X165305361Y-86595345D01*
X165438042Y-86825155D01*
X165603492Y-87032623D01*
X165798016Y-87213114D01*
X166017268Y-87362598D01*
X166256350Y-87477734D01*
X166509922Y-87555950D01*
X166509923Y-87555950D01*
X166509926Y-87555951D01*
X166772311Y-87595499D01*
X166772316Y-87595499D01*
X166772319Y-87595500D01*
X166772320Y-87595500D01*
X167037680Y-87595500D01*
X167037681Y-87595500D01*
X167037688Y-87595499D01*
X167300073Y-87555951D01*
X167300074Y-87555950D01*
X167300078Y-87555950D01*
X167553650Y-87477734D01*
X167792733Y-87362598D01*
X168011984Y-87213114D01*
X168206508Y-87032623D01*
X168371958Y-86825155D01*
X168504639Y-86595345D01*
X168601586Y-86348327D01*
X168660635Y-86089619D01*
X168680465Y-85825000D01*
X168678322Y-85796405D01*
X168660636Y-85560390D01*
X168660635Y-85560385D01*
X168660635Y-85560381D01*
X168601586Y-85301673D01*
X168504639Y-85054655D01*
X168371958Y-84824845D01*
X168206508Y-84617377D01*
X168011984Y-84436886D01*
X167969179Y-84407702D01*
X167792736Y-84287404D01*
X167792725Y-84287397D01*
X167553655Y-84172268D01*
X167553636Y-84172261D01*
X167300083Y-84094051D01*
X167300073Y-84094048D01*
X167037688Y-84054500D01*
X167037681Y-84054500D01*
X166772319Y-84054500D01*
X166772311Y-84054500D01*
X166509926Y-84094048D01*
X166509916Y-84094051D01*
X166256363Y-84172261D01*
X166256344Y-84172268D01*
X166017276Y-84287397D01*
X166017274Y-84287398D01*
X165798015Y-84436886D01*
X165603494Y-84617375D01*
X165603492Y-84617377D01*
X165438042Y-84824845D01*
X165305361Y-85054654D01*
X165208416Y-85301667D01*
X165208410Y-85301686D01*
X165149364Y-85560385D01*
X165149363Y-85560390D01*
X165129535Y-85824995D01*
X165129535Y-85825004D01*
X154173762Y-85825004D01*
X154161217Y-85796405D01*
X154035271Y-85603629D01*
X153995458Y-85560381D01*
X153879308Y-85434208D01*
X153709043Y-85301686D01*
X153693541Y-85289620D01*
X153694525Y-85288354D01*
X153653824Y-85240670D01*
X153644396Y-85171439D01*
X153673893Y-85108102D01*
X153693865Y-85090796D01*
X153693541Y-85090380D01*
X153739440Y-85054655D01*
X153879308Y-84945792D01*
X154035269Y-84776373D01*
X154161217Y-84583595D01*
X154253717Y-84372716D01*
X154310246Y-84149488D01*
X154321980Y-84007876D01*
X154329262Y-83920005D01*
X154329262Y-83919994D01*
X154310246Y-83690515D01*
X154310246Y-83690512D01*
X154253717Y-83467284D01*
X154161217Y-83256405D01*
X154063997Y-83107598D01*
X154035271Y-83063629D01*
X153974750Y-82997886D01*
X153879308Y-82894208D01*
X153697589Y-82752771D01*
X153697590Y-82752771D01*
X153693541Y-82749620D01*
X153694525Y-82748354D01*
X153653824Y-82700670D01*
X153644396Y-82631439D01*
X153673893Y-82568102D01*
X153693865Y-82550796D01*
X153693541Y-82550380D01*
X153764175Y-82495403D01*
X153879308Y-82405792D01*
X154035269Y-82236373D01*
X154161217Y-82043595D01*
X154253717Y-81832716D01*
X154310246Y-81609488D01*
X154329262Y-81380000D01*
X154325867Y-81339031D01*
X154310246Y-81150515D01*
X154310246Y-81150512D01*
X154253717Y-80927284D01*
X154161217Y-80716405D01*
X154130464Y-80669334D01*
X154035271Y-80523629D01*
X154008355Y-80494390D01*
X153879308Y-80354208D01*
X153726112Y-80234971D01*
X153693541Y-80209620D01*
X153694525Y-80208354D01*
X153653824Y-80160670D01*
X153644396Y-80091439D01*
X153673893Y-80028102D01*
X153693865Y-80010796D01*
X153693541Y-80010380D01*
X153730174Y-79981866D01*
X153879308Y-79865792D01*
X154035269Y-79696373D01*
X154161217Y-79503595D01*
X154253717Y-79292716D01*
X154310246Y-79069488D01*
X154329262Y-78840000D01*
X154310246Y-78610512D01*
X154253717Y-78387284D01*
X154161217Y-78176405D01*
X154035271Y-77983629D01*
X154008355Y-77954390D01*
X153879308Y-77814208D01*
X153697589Y-77672771D01*
X153697590Y-77672771D01*
X153693541Y-77669620D01*
X153694428Y-77668480D01*
X153653363Y-77620366D01*
X153643938Y-77551135D01*
X153673437Y-77487798D01*
X153693571Y-77470352D01*
X153693266Y-77469960D01*
X153725958Y-77444513D01*
X153725959Y-77444511D01*
X153103604Y-76822156D01*
X153221412Y-76770985D01*
X153337862Y-76676246D01*
X153424433Y-76553603D01*
X153455300Y-76466747D01*
X154078238Y-77089685D01*
X154160772Y-76963359D01*
X154160777Y-76963351D01*
X154253242Y-76752553D01*
X154309750Y-76529408D01*
X154309752Y-76529396D01*
X154328760Y-76300005D01*
X154328760Y-76299994D01*
X154309752Y-76070603D01*
X154309750Y-76070591D01*
X154253242Y-75847446D01*
X154160774Y-75636642D01*
X154078238Y-75510313D01*
X153457630Y-76130921D01*
X153454406Y-76115403D01*
X153385342Y-75982114D01*
X153282877Y-75872402D01*
X153154612Y-75794402D01*
X153101832Y-75779613D01*
X153725958Y-75155486D01*
X153725958Y-75155484D01*
X153693267Y-75130040D01*
X153694209Y-75128829D01*
X153653355Y-75080947D01*
X153643941Y-75011714D01*
X153673450Y-74948382D01*
X153693820Y-74930738D01*
X153693541Y-74930380D01*
X153730174Y-74901866D01*
X153879308Y-74785792D01*
X154035269Y-74616373D01*
X154161217Y-74423595D01*
X154253717Y-74212716D01*
X154310246Y-73989488D01*
X154329262Y-73760000D01*
X154310246Y-73530512D01*
X154253717Y-73307284D01*
X154161217Y-73096405D01*
X154139146Y-73062623D01*
X154035271Y-72903629D01*
X153990647Y-72855155D01*
X153879308Y-72734208D01*
X153697589Y-72592771D01*
X153697590Y-72592771D01*
X153693541Y-72589620D01*
X153694525Y-72588354D01*
X153653824Y-72540670D01*
X153644396Y-72471439D01*
X153673893Y-72408102D01*
X153693865Y-72390796D01*
X153693541Y-72390380D01*
X153730174Y-72361866D01*
X153879308Y-72245792D01*
X154035269Y-72076373D01*
X154161217Y-71883595D01*
X154173758Y-71855004D01*
X165129535Y-71855004D01*
X165149363Y-72119609D01*
X165149364Y-72119614D01*
X165208410Y-72378313D01*
X165208412Y-72378322D01*
X165208414Y-72378327D01*
X165305361Y-72625345D01*
X165438042Y-72855155D01*
X165603492Y-73062623D01*
X165798016Y-73243114D01*
X166017268Y-73392598D01*
X166256350Y-73507734D01*
X166509922Y-73585950D01*
X166509923Y-73585950D01*
X166509926Y-73585951D01*
X166772311Y-73625499D01*
X166772316Y-73625499D01*
X166772319Y-73625500D01*
X166772320Y-73625500D01*
X167037680Y-73625500D01*
X167037681Y-73625500D01*
X167037688Y-73625499D01*
X167300073Y-73585951D01*
X167300074Y-73585950D01*
X167300078Y-73585950D01*
X167553650Y-73507734D01*
X167792733Y-73392598D01*
X168011984Y-73243114D01*
X168206508Y-73062623D01*
X168371958Y-72855155D01*
X168504639Y-72625345D01*
X168601586Y-72378327D01*
X168660635Y-72119619D01*
X168678322Y-71883595D01*
X168680465Y-71855004D01*
X168680465Y-71854995D01*
X168660636Y-71590390D01*
X168660635Y-71590385D01*
X168660635Y-71590381D01*
X168601586Y-71331673D01*
X168504639Y-71084655D01*
X168371958Y-70854845D01*
X168206508Y-70647377D01*
X168011984Y-70466886D01*
X167792733Y-70317402D01*
X167792732Y-70317401D01*
X167792725Y-70317397D01*
X167553655Y-70202268D01*
X167553636Y-70202261D01*
X167300083Y-70124051D01*
X167300073Y-70124048D01*
X167037688Y-70084500D01*
X167037681Y-70084500D01*
X166772319Y-70084500D01*
X166772311Y-70084500D01*
X166509926Y-70124048D01*
X166509916Y-70124051D01*
X166256363Y-70202261D01*
X166256344Y-70202268D01*
X166017276Y-70317397D01*
X166017274Y-70317398D01*
X165798015Y-70466886D01*
X165603494Y-70647375D01*
X165603492Y-70647377D01*
X165438042Y-70854845D01*
X165305361Y-71084654D01*
X165208416Y-71331667D01*
X165208410Y-71331686D01*
X165149364Y-71590385D01*
X165149363Y-71590390D01*
X165129535Y-71854995D01*
X165129535Y-71855004D01*
X154173758Y-71855004D01*
X154253717Y-71672716D01*
X154310246Y-71449488D01*
X154320007Y-71331686D01*
X154329262Y-71220005D01*
X154329262Y-71219994D01*
X154310246Y-70990515D01*
X154310246Y-70990512D01*
X154253717Y-70767284D01*
X154161217Y-70556405D01*
X154035271Y-70363629D01*
X153992711Y-70317397D01*
X153879308Y-70194208D01*
X153738355Y-70084500D01*
X153697591Y-70052772D01*
X153495069Y-69943172D01*
X153495061Y-69943169D01*
X153277274Y-69868402D01*
X153106920Y-69839975D01*
X153050137Y-69830500D01*
X152819863Y-69830500D01*
X152774436Y-69838080D01*
X152592725Y-69868402D01*
X152374938Y-69943169D01*
X152374930Y-69943172D01*
X152172408Y-70052772D01*
X151990694Y-70194206D01*
X151990689Y-70194211D01*
X151834728Y-70363629D01*
X151708782Y-70556405D01*
X151616282Y-70767285D01*
X151559753Y-70990515D01*
X151540738Y-71219994D01*
X151540738Y-71220005D01*
X151559753Y-71449484D01*
X151616282Y-71672714D01*
X151708782Y-71883594D01*
X151834728Y-72076370D01*
X151834731Y-72076373D01*
X151990692Y-72245792D01*
X152107591Y-72336778D01*
X152176459Y-72390380D01*
X152175476Y-72391641D01*
X152216183Y-72439349D01*
X152225600Y-72508581D01*
X152196092Y-72571914D01*
X152176136Y-72589205D01*
X152176459Y-72589620D01*
X151990694Y-72734206D01*
X151990689Y-72734211D01*
X151834728Y-72903629D01*
X151708782Y-73096405D01*
X151616282Y-73307285D01*
X151559753Y-73530515D01*
X151540738Y-73759994D01*
X151540738Y-73760005D01*
X151559753Y-73989484D01*
X151616282Y-74212714D01*
X151708782Y-74423594D01*
X151834728Y-74616370D01*
X151834731Y-74616373D01*
X151990692Y-74785792D01*
X152107591Y-74876778D01*
X152176459Y-74930380D01*
X152175570Y-74931521D01*
X152216632Y-74979624D01*
X152226063Y-75048855D01*
X152196568Y-75112194D01*
X152176429Y-75129651D01*
X152176733Y-75130041D01*
X152144040Y-75155485D01*
X152144040Y-75155487D01*
X152766396Y-75777843D01*
X152648588Y-75829015D01*
X152532138Y-75923754D01*
X152445567Y-76046397D01*
X152414698Y-76133252D01*
X151791759Y-75510313D01*
X151709224Y-75636644D01*
X151616757Y-75847446D01*
X151560249Y-76070591D01*
X151560247Y-76070603D01*
X151541240Y-76299994D01*
X151541240Y-76300005D01*
X151560247Y-76529396D01*
X151560249Y-76529408D01*
X151616757Y-76752553D01*
X151709223Y-76963352D01*
X151791760Y-77089685D01*
X152412368Y-76469076D01*
X152415594Y-76484597D01*
X152484658Y-76617886D01*
X152587123Y-76727598D01*
X152715388Y-76805598D01*
X152768166Y-76820386D01*
X152144040Y-77444512D01*
X152144040Y-77444514D01*
X152176733Y-77469960D01*
X152175789Y-77471172D01*
X152216639Y-77519043D01*
X152226060Y-77588274D01*
X152196556Y-77651609D01*
X152176181Y-77669263D01*
X152176459Y-77669620D01*
X151990694Y-77814206D01*
X151990689Y-77814211D01*
X151834728Y-77983629D01*
X151708782Y-78176405D01*
X151616282Y-78387285D01*
X151559753Y-78610515D01*
X151540738Y-78839994D01*
X151540738Y-78840005D01*
X151559753Y-79069484D01*
X151595230Y-79209582D01*
X151592604Y-79279403D01*
X151562705Y-79327703D01*
X147046558Y-83843849D01*
X147034301Y-83853670D01*
X147034484Y-83853891D01*
X147028472Y-83858864D01*
X146982448Y-83907873D01*
X146979741Y-83910666D01*
X146960239Y-83930167D01*
X146960225Y-83930184D01*
X146957757Y-83933365D01*
X146950193Y-83942220D01*
X146920287Y-83974068D01*
X146920286Y-83974070D01*
X146910634Y-83991626D01*
X146899960Y-84007876D01*
X146887679Y-84023711D01*
X146887674Y-84023718D01*
X146870325Y-84063808D01*
X146865188Y-84074294D01*
X146844153Y-84112556D01*
X146839172Y-84131957D01*
X146832871Y-84150360D01*
X146824912Y-84168752D01*
X146824911Y-84168755D01*
X146818078Y-84211893D01*
X146815710Y-84223324D01*
X146804851Y-84265621D01*
X146804850Y-84265632D01*
X146804850Y-84285666D01*
X146803323Y-84305065D01*
X146800190Y-84324844D01*
X146800190Y-84324845D01*
X146804300Y-84368324D01*
X146804850Y-84379993D01*
X146804850Y-95664196D01*
X146785165Y-95731235D01*
X146768531Y-95751877D01*
X145792179Y-96728229D01*
X145730856Y-96761714D01*
X145661164Y-96756730D01*
X145605231Y-96714858D01*
X145580814Y-96649394D01*
X145580922Y-96630308D01*
X145590062Y-96520005D01*
X145590062Y-96519994D01*
X145575487Y-96344102D01*
X145571046Y-96290512D01*
X145514517Y-96067284D01*
X145422017Y-95856405D01*
X145296071Y-95663629D01*
X145255447Y-95619500D01*
X145140108Y-95494208D01*
X145019930Y-95400670D01*
X144958391Y-95352772D01*
X144755869Y-95243172D01*
X144755861Y-95243169D01*
X144538074Y-95168402D01*
X144367720Y-95139975D01*
X144310937Y-95130500D01*
X144080663Y-95130500D01*
X144035236Y-95138080D01*
X143853525Y-95168402D01*
X143635738Y-95243169D01*
X143635730Y-95243172D01*
X143433208Y-95352772D01*
X143251494Y-95494206D01*
X143251489Y-95494211D01*
X143095528Y-95663629D01*
X142969582Y-95856405D01*
X142877082Y-96067285D01*
X142820553Y-96290515D01*
X142801538Y-96519994D01*
X142801538Y-96520005D01*
X142820553Y-96749484D01*
X142877082Y-96972714D01*
X142969582Y-97183594D01*
X143095528Y-97376370D01*
X143095531Y-97376373D01*
X143251492Y-97545792D01*
X143329499Y-97606507D01*
X143437259Y-97690380D01*
X143436276Y-97691641D01*
X143476983Y-97739349D01*
X143486400Y-97808581D01*
X143456892Y-97871914D01*
X143436936Y-97889205D01*
X143437259Y-97889620D01*
X143251494Y-98034206D01*
X143251489Y-98034211D01*
X143095528Y-98203629D01*
X142969582Y-98396405D01*
X142877082Y-98607285D01*
X142820553Y-98830515D01*
X142801538Y-99059994D01*
X142801538Y-99060005D01*
X142820553Y-99289484D01*
X142856030Y-99429581D01*
X142853405Y-99499401D01*
X142823505Y-99547702D01*
X140586208Y-101784999D01*
X140573951Y-101794820D01*
X140574134Y-101795041D01*
X140568122Y-101800014D01*
X140522098Y-101849023D01*
X140519391Y-101851816D01*
X140499889Y-101871317D01*
X140499875Y-101871334D01*
X140497407Y-101874515D01*
X140489843Y-101883370D01*
X140459937Y-101915218D01*
X140459936Y-101915220D01*
X140450284Y-101932776D01*
X140439610Y-101949026D01*
X140427329Y-101964861D01*
X140427324Y-101964868D01*
X140409975Y-102004958D01*
X140404838Y-102015444D01*
X140383803Y-102053706D01*
X140378822Y-102073107D01*
X140372521Y-102091510D01*
X140364562Y-102109902D01*
X140364561Y-102109905D01*
X140357728Y-102153043D01*
X140355360Y-102164474D01*
X140344501Y-102206771D01*
X140344500Y-102206782D01*
X140344500Y-102226816D01*
X140342973Y-102246215D01*
X140339840Y-102265994D01*
X140339840Y-102265995D01*
X140343950Y-102309474D01*
X140344500Y-102321143D01*
X140344500Y-104464546D01*
X140324815Y-104531585D01*
X140308181Y-104552227D01*
X138046208Y-106814199D01*
X138033951Y-106824020D01*
X138034134Y-106824241D01*
X138028122Y-106829214D01*
X137982098Y-106878223D01*
X137979391Y-106881016D01*
X137959889Y-106900517D01*
X137959875Y-106900534D01*
X137957407Y-106903715D01*
X137949843Y-106912570D01*
X137919937Y-106944418D01*
X137919936Y-106944420D01*
X137910284Y-106961976D01*
X137899610Y-106978226D01*
X137887329Y-106994061D01*
X137887324Y-106994068D01*
X137869975Y-107034158D01*
X137864838Y-107044644D01*
X137843803Y-107082906D01*
X137838822Y-107102307D01*
X137832521Y-107120710D01*
X137824562Y-107139102D01*
X137824561Y-107139105D01*
X137817728Y-107182243D01*
X137815360Y-107193674D01*
X137804501Y-107235971D01*
X137804500Y-107235982D01*
X137804500Y-107256016D01*
X137802973Y-107275415D01*
X137799840Y-107295194D01*
X137799840Y-107295195D01*
X137803950Y-107338674D01*
X137804500Y-107350343D01*
X137804500Y-128841312D01*
X137784815Y-128908351D01*
X137772650Y-128924284D01*
X137697466Y-129007784D01*
X137602821Y-129171715D01*
X137602818Y-129171722D01*
X137576349Y-129253187D01*
X137544326Y-129351744D01*
X137524540Y-129540000D01*
X107659731Y-129540000D01*
X107668042Y-129521053D01*
X107724550Y-129297908D01*
X107724552Y-129297896D01*
X107743560Y-129068505D01*
X107743560Y-129068494D01*
X107724552Y-128839103D01*
X107724550Y-128839091D01*
X107668042Y-128615946D01*
X107575574Y-128405142D01*
X107493038Y-128278813D01*
X106872430Y-128899421D01*
X106869206Y-128883903D01*
X106800142Y-128750614D01*
X106697677Y-128640902D01*
X106569412Y-128562902D01*
X106516632Y-128548113D01*
X107140758Y-127923986D01*
X107140758Y-127923984D01*
X107108067Y-127898540D01*
X107109009Y-127897329D01*
X107068155Y-127849447D01*
X107058741Y-127780214D01*
X107088250Y-127716882D01*
X107108620Y-127699238D01*
X107108341Y-127698880D01*
X107153988Y-127663351D01*
X107294108Y-127554292D01*
X107450069Y-127384873D01*
X107576017Y-127192095D01*
X107668517Y-126981216D01*
X107725046Y-126757988D01*
X107736169Y-126623754D01*
X107744062Y-126528505D01*
X107744062Y-126528494D01*
X107725046Y-126299015D01*
X107725046Y-126299012D01*
X107668517Y-126075784D01*
X107576017Y-125864905D01*
X107553239Y-125830040D01*
X107487883Y-125730005D01*
X110365738Y-125730005D01*
X110384753Y-125959484D01*
X110441282Y-126182714D01*
X110533782Y-126393594D01*
X110659728Y-126586370D01*
X110659731Y-126586373D01*
X110815692Y-126755792D01*
X110892281Y-126815403D01*
X110963088Y-126870515D01*
X110997411Y-126897229D01*
X111199931Y-127006828D01*
X111313025Y-127045653D01*
X111417725Y-127081597D01*
X111417727Y-127081597D01*
X111417729Y-127081598D01*
X111644863Y-127119500D01*
X111644864Y-127119500D01*
X111875136Y-127119500D01*
X111875137Y-127119500D01*
X112102271Y-127081598D01*
X112320069Y-127006828D01*
X112522589Y-126897229D01*
X112704308Y-126755792D01*
X112860269Y-126586373D01*
X112986217Y-126393595D01*
X113078717Y-126182716D01*
X113135246Y-125959488D01*
X113145972Y-125830041D01*
X113154262Y-125730005D01*
X115445738Y-125730005D01*
X115464753Y-125959484D01*
X115521282Y-126182714D01*
X115613782Y-126393594D01*
X115739728Y-126586370D01*
X115739731Y-126586373D01*
X115895692Y-126755792D01*
X115972281Y-126815403D01*
X116043088Y-126870515D01*
X116077411Y-126897229D01*
X116279931Y-127006828D01*
X116393025Y-127045653D01*
X116497725Y-127081597D01*
X116497727Y-127081597D01*
X116497729Y-127081598D01*
X116724863Y-127119500D01*
X116724864Y-127119500D01*
X116955136Y-127119500D01*
X116955137Y-127119500D01*
X117182271Y-127081598D01*
X117400069Y-127006828D01*
X117602589Y-126897229D01*
X117784308Y-126755792D01*
X117940269Y-126586373D01*
X118066217Y-126393595D01*
X118158717Y-126182716D01*
X118215246Y-125959488D01*
X118225972Y-125830041D01*
X118234262Y-125730005D01*
X118234262Y-125729994D01*
X118215246Y-125500515D01*
X118215246Y-125500512D01*
X118158717Y-125277284D01*
X118066217Y-125066405D01*
X118032167Y-125014288D01*
X117940271Y-124873629D01*
X117913355Y-124844390D01*
X117784308Y-124704208D01*
X117716036Y-124651070D01*
X117602591Y-124562772D01*
X117400069Y-124453172D01*
X117400061Y-124453169D01*
X117182274Y-124378402D01*
X117011920Y-124349975D01*
X116955137Y-124340500D01*
X116724863Y-124340500D01*
X116679436Y-124348080D01*
X116497725Y-124378402D01*
X116279938Y-124453169D01*
X116279930Y-124453172D01*
X116077408Y-124562772D01*
X115895694Y-124704206D01*
X115895689Y-124704211D01*
X115739728Y-124873629D01*
X115613782Y-125066405D01*
X115521282Y-125277285D01*
X115464753Y-125500515D01*
X115445738Y-125729994D01*
X115445738Y-125730005D01*
X113154262Y-125730005D01*
X113154262Y-125729994D01*
X113135246Y-125500515D01*
X113135246Y-125500512D01*
X113078717Y-125277284D01*
X112986217Y-125066405D01*
X112952167Y-125014288D01*
X112860271Y-124873629D01*
X112833355Y-124844390D01*
X112704308Y-124704208D01*
X112636036Y-124651070D01*
X112522591Y-124562772D01*
X112320069Y-124453172D01*
X112320061Y-124453169D01*
X112102274Y-124378402D01*
X111931920Y-124349975D01*
X111875137Y-124340500D01*
X111644863Y-124340500D01*
X111599436Y-124348080D01*
X111417725Y-124378402D01*
X111199938Y-124453169D01*
X111199930Y-124453172D01*
X110997408Y-124562772D01*
X110815694Y-124704206D01*
X110815689Y-124704211D01*
X110659728Y-124873629D01*
X110533782Y-125066405D01*
X110441282Y-125277285D01*
X110384753Y-125500515D01*
X110365738Y-125729994D01*
X110365738Y-125730005D01*
X107487883Y-125730005D01*
X107450071Y-125672129D01*
X107411638Y-125630380D01*
X107294108Y-125502708D01*
X107112389Y-125361271D01*
X107112390Y-125361271D01*
X107108341Y-125358120D01*
X107109325Y-125356854D01*
X107068624Y-125309170D01*
X107059196Y-125239939D01*
X107088693Y-125176602D01*
X107108665Y-125159296D01*
X107108341Y-125158880D01*
X107153676Y-125123594D01*
X107294108Y-125014292D01*
X107450069Y-124844873D01*
X107576017Y-124652095D01*
X107668517Y-124441216D01*
X107725046Y-124217988D01*
X107733497Y-124115993D01*
X107744062Y-123988505D01*
X107744062Y-123988494D01*
X107725046Y-123759015D01*
X107725046Y-123759012D01*
X107668517Y-123535784D01*
X107576017Y-123324905D01*
X107500019Y-123208581D01*
X107450071Y-123132129D01*
X107411638Y-123090380D01*
X107294108Y-122962708D01*
X107225836Y-122909570D01*
X107112391Y-122821272D01*
X106909869Y-122711672D01*
X106909861Y-122711669D01*
X106692074Y-122636902D01*
X106480991Y-122601679D01*
X106464937Y-122599000D01*
X106234663Y-122599000D01*
X106218609Y-122601679D01*
X106007525Y-122636902D01*
X105789738Y-122711669D01*
X105789730Y-122711672D01*
X105587208Y-122821272D01*
X105405494Y-122962706D01*
X105405489Y-122962711D01*
X105249528Y-123132129D01*
X105123582Y-123324905D01*
X105031082Y-123535785D01*
X104974553Y-123759015D01*
X104955538Y-123988494D01*
X104955538Y-123988505D01*
X104974553Y-124217984D01*
X105031082Y-124441214D01*
X105123582Y-124652094D01*
X105249528Y-124844870D01*
X105249531Y-124844873D01*
X105405492Y-125014292D01*
X105472447Y-125066405D01*
X105591259Y-125158880D01*
X105590276Y-125160141D01*
X105630983Y-125207849D01*
X105640400Y-125277081D01*
X105610892Y-125340414D01*
X105590936Y-125357705D01*
X105591259Y-125358120D01*
X105405494Y-125502706D01*
X105405489Y-125502711D01*
X105249528Y-125672129D01*
X105123582Y-125864905D01*
X105031082Y-126075785D01*
X104974553Y-126299015D01*
X104955538Y-126528494D01*
X104955538Y-126528505D01*
X53340500Y-126528505D01*
X53340500Y-119772105D01*
X66703144Y-119772105D01*
X66722148Y-120074174D01*
X66722149Y-120074181D01*
X66734003Y-120136320D01*
X66775099Y-120351755D01*
X66778868Y-120371510D01*
X66822490Y-120505764D01*
X66872401Y-120659374D01*
X67001277Y-120933250D01*
X67001279Y-120933253D01*
X67001280Y-120933255D01*
X67163458Y-121188808D01*
X67163461Y-121188812D01*
X67163462Y-121188813D01*
X67356399Y-121422034D01*
X67404587Y-121467285D01*
X67577043Y-121629232D01*
X67577053Y-121629240D01*
X67821908Y-121807138D01*
X67821913Y-121807140D01*
X67821920Y-121807146D01*
X68087163Y-121952965D01*
X68087168Y-121952967D01*
X68087170Y-121952968D01*
X68087171Y-121952969D01*
X68368586Y-122064389D01*
X68368589Y-122064390D01*
X68661759Y-122139663D01*
X68661763Y-122139664D01*
X68724760Y-122147622D01*
X68962047Y-122177599D01*
X68962056Y-122177599D01*
X68962059Y-122177600D01*
X68962061Y-122177600D01*
X69264739Y-122177600D01*
X69264741Y-122177600D01*
X69264744Y-122177599D01*
X69264752Y-122177599D01*
X69443939Y-122154962D01*
X69565037Y-122139664D01*
X69858210Y-122064390D01*
X69858213Y-122064389D01*
X70139628Y-121952969D01*
X70139629Y-121952968D01*
X70139627Y-121952968D01*
X70139637Y-121952965D01*
X70404880Y-121807146D01*
X70649755Y-121629234D01*
X70870401Y-121422034D01*
X71063338Y-121188813D01*
X71225523Y-120933250D01*
X71354399Y-120659374D01*
X71447933Y-120371506D01*
X71504650Y-120074185D01*
X71505277Y-120064226D01*
X71523656Y-119772105D01*
X96649744Y-119772105D01*
X96668748Y-120074174D01*
X96668749Y-120074181D01*
X96680603Y-120136320D01*
X96721699Y-120351755D01*
X96725468Y-120371510D01*
X96769090Y-120505764D01*
X96819001Y-120659374D01*
X96947877Y-120933250D01*
X96947879Y-120933253D01*
X96947880Y-120933255D01*
X97110058Y-121188808D01*
X97110061Y-121188812D01*
X97110062Y-121188813D01*
X97302999Y-121422034D01*
X97351187Y-121467285D01*
X97523643Y-121629232D01*
X97523653Y-121629240D01*
X97768508Y-121807138D01*
X97768513Y-121807140D01*
X97768520Y-121807146D01*
X98033763Y-121952965D01*
X98033768Y-121952967D01*
X98033770Y-121952968D01*
X98033771Y-121952969D01*
X98315186Y-122064389D01*
X98315189Y-122064390D01*
X98608359Y-122139663D01*
X98608363Y-122139664D01*
X98671360Y-122147622D01*
X98908647Y-122177599D01*
X98908656Y-122177599D01*
X98908659Y-122177600D01*
X98908661Y-122177600D01*
X99211339Y-122177600D01*
X99211341Y-122177600D01*
X99211344Y-122177599D01*
X99211352Y-122177599D01*
X99390539Y-122154962D01*
X99511637Y-122139664D01*
X99804810Y-122064390D01*
X99804813Y-122064389D01*
X100086228Y-121952969D01*
X100086229Y-121952968D01*
X100086227Y-121952968D01*
X100086237Y-121952965D01*
X100351480Y-121807146D01*
X100596355Y-121629234D01*
X100817001Y-121422034D01*
X101009938Y-121188813D01*
X101172123Y-120933250D01*
X101300999Y-120659374D01*
X101394533Y-120371506D01*
X101451250Y-120074185D01*
X101451877Y-120064226D01*
X101470256Y-119772105D01*
X101470256Y-119772094D01*
X101451251Y-119470025D01*
X101451250Y-119470018D01*
X101451250Y-119470015D01*
X101394533Y-119172694D01*
X101300999Y-118884826D01*
X101172123Y-118610950D01*
X101122112Y-118532145D01*
X101009941Y-118355391D01*
X101008965Y-118354211D01*
X100817001Y-118122166D01*
X100804051Y-118110005D01*
X110365738Y-118110005D01*
X110384753Y-118339484D01*
X110441282Y-118562714D01*
X110533782Y-118773594D01*
X110659728Y-118966370D01*
X110659731Y-118966373D01*
X110815692Y-119135792D01*
X110997411Y-119277229D01*
X111199931Y-119386828D01*
X111313025Y-119425653D01*
X111417725Y-119461597D01*
X111417727Y-119461597D01*
X111417729Y-119461598D01*
X111644863Y-119499500D01*
X111644864Y-119499500D01*
X111875136Y-119499500D01*
X111875137Y-119499500D01*
X112102271Y-119461598D01*
X112320069Y-119386828D01*
X112522589Y-119277229D01*
X112704308Y-119135792D01*
X112860269Y-118966373D01*
X112974402Y-118791678D01*
X113027548Y-118746322D01*
X113078211Y-118735500D01*
X113989548Y-118735500D01*
X114056587Y-118755185D01*
X114077229Y-118771819D01*
X115069197Y-119763788D01*
X115079022Y-119776051D01*
X115079243Y-119775869D01*
X115084211Y-119781874D01*
X115133222Y-119827899D01*
X115136021Y-119830612D01*
X115155522Y-119850114D01*
X115155526Y-119850117D01*
X115155529Y-119850120D01*
X115158702Y-119852581D01*
X115167574Y-119860159D01*
X115199418Y-119890062D01*
X115216976Y-119899714D01*
X115233235Y-119910395D01*
X115249064Y-119922673D01*
X115289155Y-119940021D01*
X115299626Y-119945151D01*
X115322180Y-119957550D01*
X115337902Y-119966194D01*
X115337904Y-119966195D01*
X115337908Y-119966197D01*
X115357316Y-119971180D01*
X115375719Y-119977481D01*
X115394101Y-119985436D01*
X115394102Y-119985436D01*
X115394104Y-119985437D01*
X115437250Y-119992270D01*
X115448672Y-119994636D01*
X115490981Y-120005500D01*
X115511016Y-120005500D01*
X115530414Y-120007026D01*
X115550194Y-120010159D01*
X115550195Y-120010160D01*
X115550195Y-120010159D01*
X115550196Y-120010160D01*
X115593675Y-120006050D01*
X115605344Y-120005500D01*
X118662257Y-120005500D01*
X118677877Y-120007224D01*
X118677904Y-120006939D01*
X118685660Y-120007671D01*
X118685667Y-120007673D01*
X118752873Y-120005561D01*
X118756768Y-120005500D01*
X118784346Y-120005500D01*
X118784350Y-120005500D01*
X118788324Y-120004997D01*
X118799963Y-120004080D01*
X118843627Y-120002709D01*
X118862869Y-119997117D01*
X118881912Y-119993174D01*
X118901792Y-119990664D01*
X118942401Y-119974585D01*
X118953444Y-119970803D01*
X118995390Y-119958618D01*
X119012629Y-119948422D01*
X119030103Y-119939862D01*
X119048727Y-119932488D01*
X119048727Y-119932487D01*
X119048732Y-119932486D01*
X119084083Y-119906800D01*
X119093814Y-119900408D01*
X119131420Y-119878170D01*
X119145589Y-119863999D01*
X119160379Y-119851368D01*
X119176587Y-119839594D01*
X119204438Y-119805926D01*
X119212279Y-119797309D01*
X122270532Y-116739057D01*
X122331853Y-116705574D01*
X122401545Y-116710558D01*
X122457478Y-116752430D01*
X122481895Y-116817894D01*
X122481788Y-116836968D01*
X122481538Y-116839988D01*
X122481538Y-116840005D01*
X122500553Y-117069484D01*
X122557082Y-117292714D01*
X122649582Y-117503594D01*
X122775528Y-117696370D01*
X122791712Y-117713950D01*
X122931492Y-117865792D01*
X123048391Y-117956778D01*
X123117259Y-118010380D01*
X123116276Y-118011641D01*
X123156983Y-118059349D01*
X123166400Y-118128581D01*
X123136892Y-118191914D01*
X123116936Y-118209205D01*
X123117259Y-118209620D01*
X122931494Y-118354206D01*
X122931489Y-118354211D01*
X122775528Y-118523629D01*
X122649582Y-118716405D01*
X122557082Y-118927285D01*
X122500553Y-119150515D01*
X122481538Y-119379994D01*
X122481538Y-119380005D01*
X122500553Y-119609484D01*
X122557082Y-119832714D01*
X122649582Y-120043594D01*
X122775528Y-120236370D01*
X122785399Y-120247093D01*
X122931492Y-120405792D01*
X122990596Y-120451794D01*
X123117259Y-120550380D01*
X123116276Y-120551641D01*
X123156983Y-120599349D01*
X123166400Y-120668581D01*
X123136892Y-120731914D01*
X123116936Y-120749205D01*
X123117259Y-120749620D01*
X122931494Y-120894206D01*
X122931489Y-120894211D01*
X122775528Y-121063629D01*
X122649582Y-121256405D01*
X122557082Y-121467285D01*
X122500553Y-121690515D01*
X122481538Y-121919994D01*
X122481538Y-121920005D01*
X122500553Y-122149484D01*
X122557082Y-122372714D01*
X122649582Y-122583594D01*
X122775528Y-122776370D01*
X122775531Y-122776373D01*
X122931492Y-122945792D01*
X122953226Y-122962708D01*
X123117259Y-123090380D01*
X123116276Y-123091641D01*
X123156983Y-123139349D01*
X123166400Y-123208581D01*
X123136892Y-123271914D01*
X123116936Y-123289205D01*
X123117259Y-123289620D01*
X122931494Y-123434206D01*
X122931489Y-123434211D01*
X122775528Y-123603629D01*
X122649582Y-123796405D01*
X122557082Y-124007285D01*
X122500553Y-124230515D01*
X122481538Y-124459994D01*
X122481538Y-124460005D01*
X122500553Y-124689484D01*
X122557082Y-124912714D01*
X122649582Y-125123594D01*
X122775528Y-125316370D01*
X122775531Y-125316373D01*
X122931492Y-125485792D01*
X123113211Y-125627229D01*
X123315731Y-125736828D01*
X123350765Y-125748855D01*
X123533525Y-125811597D01*
X123533527Y-125811597D01*
X123533529Y-125811598D01*
X123760663Y-125849500D01*
X123760664Y-125849500D01*
X123990936Y-125849500D01*
X123990937Y-125849500D01*
X124218071Y-125811598D01*
X124435869Y-125736828D01*
X124638389Y-125627229D01*
X124820108Y-125485792D01*
X124976069Y-125316373D01*
X125102017Y-125123595D01*
X125194517Y-124912716D01*
X125251046Y-124689488D01*
X125270062Y-124460000D01*
X125269496Y-124453172D01*
X125251046Y-124230515D01*
X125251046Y-124230512D01*
X125194517Y-124007284D01*
X125102017Y-123796405D01*
X125077587Y-123759012D01*
X124976071Y-123603629D01*
X124913615Y-123535784D01*
X124820108Y-123434208D01*
X124638389Y-123292771D01*
X124638390Y-123292771D01*
X124634341Y-123289620D01*
X124635325Y-123288354D01*
X124594624Y-123240670D01*
X124585196Y-123171439D01*
X124614693Y-123108102D01*
X124634665Y-123090796D01*
X124634341Y-123090380D01*
X124670974Y-123061866D01*
X124820108Y-122945792D01*
X124976069Y-122776373D01*
X125102017Y-122583595D01*
X125194517Y-122372716D01*
X125251046Y-122149488D01*
X125267330Y-121952968D01*
X125270062Y-121920005D01*
X125270062Y-121919994D01*
X125251046Y-121690515D01*
X125251046Y-121690512D01*
X125194517Y-121467284D01*
X125102017Y-121256405D01*
X125057854Y-121188808D01*
X124976071Y-121063629D01*
X124856053Y-120933255D01*
X124820108Y-120894208D01*
X124638389Y-120752771D01*
X124638390Y-120752771D01*
X124634341Y-120749620D01*
X124635325Y-120748354D01*
X124594624Y-120700670D01*
X124585196Y-120631439D01*
X124614693Y-120568102D01*
X124634665Y-120550796D01*
X124634341Y-120550380D01*
X124698059Y-120500786D01*
X124820108Y-120405792D01*
X124976069Y-120236373D01*
X125102017Y-120043595D01*
X125194517Y-119832716D01*
X125251046Y-119609488D01*
X125269496Y-119386830D01*
X125270062Y-119380005D01*
X125270062Y-119379994D01*
X125252884Y-119172694D01*
X125251046Y-119150512D01*
X125194517Y-118927284D01*
X125102017Y-118716405D01*
X125033116Y-118610944D01*
X124976071Y-118523629D01*
X124949155Y-118494390D01*
X124820108Y-118354208D01*
X124715495Y-118272785D01*
X124634341Y-118209620D01*
X124635325Y-118208354D01*
X124594624Y-118160670D01*
X124585196Y-118091439D01*
X124614693Y-118028102D01*
X124634665Y-118010796D01*
X124634341Y-118010380D01*
X124670974Y-117981866D01*
X124820108Y-117865792D01*
X124976069Y-117696373D01*
X125102017Y-117503595D01*
X125194517Y-117292716D01*
X125251046Y-117069488D01*
X125261546Y-116942771D01*
X125270062Y-116840005D01*
X125270062Y-116839994D01*
X125257384Y-116687008D01*
X125251046Y-116610512D01*
X125194517Y-116387284D01*
X125102017Y-116176405D01*
X124994805Y-116012304D01*
X124976071Y-115983629D01*
X124894065Y-115894547D01*
X124820108Y-115814208D01*
X124643604Y-115676830D01*
X124634341Y-115669620D01*
X124635325Y-115668354D01*
X124594624Y-115620670D01*
X124585196Y-115551439D01*
X124614693Y-115488102D01*
X124634665Y-115470796D01*
X124634341Y-115470380D01*
X124691627Y-115425792D01*
X124820108Y-115325792D01*
X124976069Y-115156373D01*
X125102017Y-114963595D01*
X125194517Y-114752716D01*
X125251046Y-114529488D01*
X125263514Y-114379019D01*
X125270062Y-114300005D01*
X125270062Y-114299994D01*
X125257384Y-114147008D01*
X125251046Y-114070512D01*
X125194517Y-113847284D01*
X125102017Y-113636405D01*
X124976071Y-113443629D01*
X124912164Y-113374208D01*
X124820108Y-113274208D01*
X124638389Y-113132771D01*
X124638390Y-113132771D01*
X124634341Y-113129620D01*
X124635325Y-113128354D01*
X124594624Y-113080670D01*
X124585196Y-113011439D01*
X124614693Y-112948102D01*
X124634665Y-112930796D01*
X124634341Y-112930380D01*
X124691627Y-112885792D01*
X124820108Y-112785792D01*
X124976069Y-112616373D01*
X125102017Y-112423595D01*
X125194517Y-112212716D01*
X125251046Y-111989488D01*
X125263392Y-111840498D01*
X125270062Y-111760005D01*
X125270062Y-111759994D01*
X125254999Y-111578214D01*
X125251046Y-111530512D01*
X125194517Y-111307284D01*
X125102017Y-111096405D01*
X125095945Y-111087111D01*
X124976071Y-110903629D01*
X124912164Y-110834208D01*
X124820108Y-110734208D01*
X124638389Y-110592771D01*
X124638390Y-110592771D01*
X124634341Y-110589620D01*
X124635325Y-110588354D01*
X124594624Y-110540670D01*
X124585196Y-110471439D01*
X124614693Y-110408102D01*
X124634665Y-110390796D01*
X124634341Y-110390380D01*
X124691627Y-110345792D01*
X124820108Y-110245792D01*
X124976069Y-110076373D01*
X125102017Y-109883595D01*
X125194517Y-109672716D01*
X125251046Y-109449488D01*
X125270062Y-109220000D01*
X125251046Y-108990512D01*
X125194517Y-108767284D01*
X125102017Y-108556405D01*
X124976071Y-108363629D01*
X124912164Y-108294208D01*
X124820108Y-108194208D01*
X124638389Y-108052771D01*
X124638390Y-108052771D01*
X124634341Y-108049620D01*
X124635325Y-108048354D01*
X124594624Y-108000670D01*
X124585196Y-107931439D01*
X124614693Y-107868102D01*
X124634665Y-107850796D01*
X124634341Y-107850380D01*
X124691627Y-107805792D01*
X124820108Y-107705792D01*
X124976069Y-107536373D01*
X125102017Y-107343595D01*
X125194517Y-107132716D01*
X125251046Y-106909488D01*
X125270062Y-106680000D01*
X125251046Y-106450512D01*
X125194517Y-106227284D01*
X125102017Y-106016405D01*
X124976071Y-105823629D01*
X124912164Y-105754208D01*
X124820108Y-105654208D01*
X124643604Y-105516830D01*
X124634341Y-105509620D01*
X124635325Y-105508354D01*
X124594624Y-105460670D01*
X124585196Y-105391439D01*
X124614693Y-105328102D01*
X124634665Y-105310796D01*
X124634341Y-105310380D01*
X124691627Y-105265792D01*
X124820108Y-105165792D01*
X124976069Y-104996373D01*
X125102017Y-104803595D01*
X125194517Y-104592716D01*
X125251046Y-104369488D01*
X125270062Y-104140000D01*
X125251046Y-103910512D01*
X125194517Y-103687284D01*
X125102017Y-103476405D01*
X125050099Y-103396938D01*
X124976071Y-103283629D01*
X124948099Y-103253243D01*
X124820108Y-103114208D01*
X124638389Y-102972771D01*
X124638390Y-102972771D01*
X124634341Y-102969620D01*
X124635325Y-102968354D01*
X124594624Y-102920670D01*
X124585196Y-102851439D01*
X124614693Y-102788102D01*
X124634665Y-102770796D01*
X124634341Y-102770380D01*
X124691627Y-102725792D01*
X124820108Y-102625792D01*
X124976069Y-102456373D01*
X125102017Y-102263595D01*
X125194517Y-102052716D01*
X125251046Y-101829488D01*
X125270062Y-101600000D01*
X125251046Y-101370512D01*
X125194517Y-101147284D01*
X125102017Y-100936405D01*
X125059875Y-100871902D01*
X124976071Y-100743629D01*
X124912164Y-100674208D01*
X124820108Y-100574208D01*
X124698238Y-100479353D01*
X124634341Y-100429620D01*
X124635325Y-100428354D01*
X124594624Y-100380670D01*
X124585196Y-100311439D01*
X124614693Y-100248102D01*
X124634665Y-100230796D01*
X124634341Y-100230380D01*
X124691627Y-100185792D01*
X124820108Y-100085792D01*
X124976069Y-99916373D01*
X125090202Y-99741678D01*
X125143348Y-99696322D01*
X125194011Y-99685500D01*
X126917257Y-99685500D01*
X126932877Y-99687224D01*
X126932904Y-99686939D01*
X126940660Y-99687671D01*
X126940667Y-99687673D01*
X127007873Y-99685561D01*
X127011768Y-99685500D01*
X127039346Y-99685500D01*
X127039350Y-99685500D01*
X127043324Y-99684997D01*
X127054963Y-99684080D01*
X127098627Y-99682709D01*
X127117869Y-99677117D01*
X127136912Y-99673174D01*
X127156792Y-99670664D01*
X127197401Y-99654585D01*
X127208444Y-99650803D01*
X127250390Y-99638618D01*
X127267629Y-99628422D01*
X127285103Y-99619862D01*
X127303727Y-99612488D01*
X127303727Y-99612487D01*
X127303732Y-99612486D01*
X127339083Y-99586800D01*
X127348814Y-99580408D01*
X127386420Y-99558170D01*
X127400589Y-99543999D01*
X127415379Y-99531368D01*
X127431587Y-99519594D01*
X127459438Y-99485926D01*
X127467279Y-99477309D01*
X140083788Y-86860801D01*
X140096042Y-86850986D01*
X140095859Y-86850764D01*
X140101868Y-86845791D01*
X140101877Y-86845786D01*
X140147949Y-86796722D01*
X140150566Y-86794023D01*
X140170120Y-86774471D01*
X140172576Y-86771303D01*
X140180156Y-86762427D01*
X140210062Y-86730582D01*
X140219713Y-86713024D01*
X140230396Y-86696761D01*
X140242673Y-86680936D01*
X140260021Y-86640844D01*
X140265151Y-86630371D01*
X140286197Y-86592092D01*
X140291180Y-86572680D01*
X140297481Y-86554280D01*
X140305437Y-86535896D01*
X140312270Y-86492748D01*
X140314633Y-86481338D01*
X140325500Y-86439019D01*
X140325500Y-86418983D01*
X140327027Y-86399582D01*
X140328700Y-86389019D01*
X140330160Y-86379804D01*
X140326050Y-86336324D01*
X140325500Y-86324655D01*
X140325500Y-84255260D01*
X140345185Y-84188221D01*
X140397989Y-84142466D01*
X140467147Y-84132522D01*
X140530703Y-84161547D01*
X140534373Y-84164858D01*
X140641687Y-84265632D01*
X140649503Y-84272972D01*
X140649513Y-84272980D01*
X140894368Y-84450878D01*
X140894373Y-84450880D01*
X140894380Y-84450886D01*
X141159623Y-84596705D01*
X141159628Y-84596707D01*
X141159630Y-84596708D01*
X141159631Y-84596709D01*
X141441046Y-84708129D01*
X141441049Y-84708130D01*
X141706827Y-84776370D01*
X141734223Y-84783404D01*
X141797220Y-84791362D01*
X142034507Y-84821339D01*
X142034516Y-84821339D01*
X142034519Y-84821340D01*
X142034521Y-84821340D01*
X142337199Y-84821340D01*
X142337201Y-84821340D01*
X142337204Y-84821339D01*
X142337212Y-84821339D01*
X142516399Y-84798702D01*
X142637497Y-84783404D01*
X142930670Y-84708130D01*
X142930673Y-84708129D01*
X143212088Y-84596709D01*
X143212089Y-84596708D01*
X143212087Y-84596708D01*
X143212097Y-84596705D01*
X143477340Y-84450886D01*
X143722215Y-84272974D01*
X143942861Y-84065774D01*
X144135798Y-83832553D01*
X144297983Y-83576990D01*
X144426859Y-83303114D01*
X144520393Y-83015246D01*
X144577110Y-82717925D01*
X144577111Y-82717914D01*
X144596116Y-82415845D01*
X144596116Y-82415834D01*
X144577111Y-82113765D01*
X144577110Y-82113758D01*
X144577110Y-82113755D01*
X144520393Y-81816434D01*
X144426859Y-81528566D01*
X144297983Y-81254690D01*
X144135798Y-80999127D01*
X143942861Y-80765906D01*
X143722215Y-80558706D01*
X143722212Y-80558704D01*
X143722206Y-80558699D01*
X143477351Y-80380801D01*
X143477344Y-80380796D01*
X143477340Y-80380794D01*
X143212097Y-80234975D01*
X143212094Y-80234973D01*
X143212089Y-80234971D01*
X143212088Y-80234970D01*
X142930673Y-80123550D01*
X142930670Y-80123549D01*
X142637500Y-80048276D01*
X142637487Y-80048274D01*
X142337212Y-80010340D01*
X142337201Y-80010340D01*
X142034519Y-80010340D01*
X142034507Y-80010340D01*
X141734232Y-80048274D01*
X141734219Y-80048276D01*
X141441049Y-80123549D01*
X141441046Y-80123550D01*
X141159631Y-80234970D01*
X141159630Y-80234971D01*
X140894380Y-80380794D01*
X140894368Y-80380801D01*
X140649513Y-80558699D01*
X140649503Y-80558707D01*
X140428861Y-80765904D01*
X140428859Y-80765906D01*
X140383774Y-80820404D01*
X140235918Y-80999131D01*
X140073740Y-81254684D01*
X139944860Y-81528568D01*
X139851328Y-81816429D01*
X139851327Y-81816433D01*
X139851327Y-81816434D01*
X139849954Y-81823630D01*
X139794609Y-82113758D01*
X139794608Y-82113765D01*
X139779333Y-82356556D01*
X139755478Y-82422227D01*
X139699905Y-82464576D01*
X139630259Y-82470158D01*
X139568651Y-82437199D01*
X139567897Y-82436451D01*
X138881028Y-81749582D01*
X138027659Y-80896212D01*
X138017836Y-80883950D01*
X138017615Y-80884134D01*
X138012642Y-80878122D01*
X137963632Y-80832099D01*
X137960833Y-80829386D01*
X137941333Y-80809885D01*
X137941327Y-80809880D01*
X137938142Y-80807409D01*
X137929290Y-80799848D01*
X137897438Y-80769938D01*
X137897436Y-80769936D01*
X137897433Y-80769935D01*
X137879885Y-80760288D01*
X137863619Y-80749604D01*
X137847788Y-80737324D01*
X137807705Y-80719978D01*
X137797219Y-80714841D01*
X137758950Y-80693803D01*
X137758948Y-80693802D01*
X137739549Y-80688822D01*
X137721137Y-80682518D01*
X137702754Y-80674562D01*
X137702748Y-80674560D01*
X137659616Y-80667729D01*
X137648178Y-80665361D01*
X137605876Y-80654500D01*
X137605875Y-80654500D01*
X137585840Y-80654500D01*
X137566442Y-80652973D01*
X137559018Y-80651797D01*
X137546661Y-80649840D01*
X137546660Y-80649840D01*
X137503181Y-80653950D01*
X137491512Y-80654500D01*
X136152743Y-80654500D01*
X136137122Y-80652775D01*
X136137096Y-80653061D01*
X136129334Y-80652327D01*
X136129333Y-80652327D01*
X136077688Y-80653950D01*
X136062127Y-80654439D01*
X136058232Y-80654500D01*
X136030647Y-80654500D01*
X136026661Y-80655003D01*
X136015033Y-80655918D01*
X135971373Y-80657290D01*
X135952129Y-80662881D01*
X135933079Y-80666825D01*
X135913211Y-80669334D01*
X135913210Y-80669334D01*
X135872599Y-80685413D01*
X135861554Y-80689194D01*
X135819614Y-80701379D01*
X135819610Y-80701381D01*
X135802366Y-80711579D01*
X135784905Y-80720133D01*
X135766274Y-80727510D01*
X135766262Y-80727517D01*
X135730933Y-80753185D01*
X135721173Y-80759596D01*
X135683580Y-80781829D01*
X135669414Y-80795995D01*
X135654624Y-80808627D01*
X135638414Y-80820404D01*
X135638411Y-80820407D01*
X135610573Y-80854058D01*
X135602711Y-80862697D01*
X135159862Y-81305546D01*
X135098539Y-81339031D01*
X135031919Y-81335147D01*
X135012271Y-81328401D01*
X134817617Y-81295920D01*
X134785137Y-81290500D01*
X134554863Y-81290500D01*
X134509436Y-81298080D01*
X134327725Y-81328402D01*
X134109938Y-81403169D01*
X134109930Y-81403172D01*
X133907408Y-81512772D01*
X133725694Y-81654206D01*
X133725689Y-81654211D01*
X133569727Y-81823631D01*
X133503508Y-81924987D01*
X133450362Y-81970343D01*
X133381131Y-81979767D01*
X133317795Y-81950265D01*
X133295892Y-81924987D01*
X133273238Y-81890313D01*
X132652630Y-82510921D01*
X132649406Y-82495403D01*
X132580342Y-82362114D01*
X132477877Y-82252402D01*
X132349612Y-82174402D01*
X132296832Y-82159613D01*
X132920958Y-81535486D01*
X132920958Y-81535484D01*
X132892322Y-81513196D01*
X132892316Y-81513192D01*
X132689868Y-81403632D01*
X132689859Y-81403629D01*
X132472150Y-81328889D01*
X132245095Y-81291000D01*
X132014905Y-81291000D01*
X131787849Y-81328889D01*
X131570140Y-81403629D01*
X131570132Y-81403632D01*
X131367681Y-81513194D01*
X131339040Y-81535485D01*
X131339040Y-81535487D01*
X131961396Y-82157843D01*
X131843588Y-82209015D01*
X131727138Y-82303754D01*
X131640567Y-82426397D01*
X131609698Y-82513252D01*
X130986760Y-81890314D01*
X130964108Y-81924986D01*
X130910961Y-81970342D01*
X130841730Y-81979766D01*
X130778394Y-81950264D01*
X130756490Y-81924986D01*
X130756191Y-81924528D01*
X130690269Y-81823627D01*
X130534308Y-81654208D01*
X130381775Y-81535487D01*
X130352591Y-81512772D01*
X130150069Y-81403172D01*
X130150061Y-81403169D01*
X129932274Y-81328402D01*
X129759065Y-81299499D01*
X129705137Y-81290500D01*
X129474863Y-81290500D01*
X129429436Y-81298080D01*
X129247725Y-81328402D01*
X129029938Y-81403169D01*
X129029930Y-81403172D01*
X128827408Y-81512772D01*
X128645694Y-81654206D01*
X128645689Y-81654211D01*
X128489727Y-81823630D01*
X128423808Y-81924528D01*
X128370662Y-81969884D01*
X128301431Y-81979308D01*
X128238095Y-81949806D01*
X128216192Y-81924528D01*
X128150272Y-81823630D01*
X128082106Y-81749582D01*
X127994308Y-81654208D01*
X127841775Y-81535487D01*
X127812591Y-81512772D01*
X127610069Y-81403172D01*
X127610061Y-81403169D01*
X127392274Y-81328402D01*
X127219065Y-81299499D01*
X127165137Y-81290500D01*
X126934863Y-81290500D01*
X126889436Y-81298080D01*
X126707725Y-81328402D01*
X126489938Y-81403169D01*
X126489930Y-81403172D01*
X126287408Y-81512772D01*
X126105694Y-81654206D01*
X126105689Y-81654211D01*
X125949728Y-81823629D01*
X125823782Y-82016405D01*
X125731282Y-82227285D01*
X125674753Y-82450515D01*
X125655738Y-82679994D01*
X125655738Y-82680005D01*
X125674753Y-82909484D01*
X125731282Y-83132714D01*
X125823782Y-83343594D01*
X125949728Y-83536370D01*
X125949731Y-83536373D01*
X126105692Y-83705792D01*
X126113969Y-83712234D01*
X126286868Y-83846807D01*
X126287411Y-83847229D01*
X126489931Y-83956828D01*
X126591294Y-83991626D01*
X126707725Y-84031597D01*
X126707727Y-84031597D01*
X126707729Y-84031598D01*
X126934863Y-84069500D01*
X126934864Y-84069500D01*
X127165136Y-84069500D01*
X127165137Y-84069500D01*
X127392271Y-84031598D01*
X127393693Y-84031110D01*
X127415245Y-84023711D01*
X127610069Y-83956828D01*
X127812589Y-83847229D01*
X127994308Y-83705792D01*
X128150269Y-83536373D01*
X128150271Y-83536370D01*
X128216191Y-83435472D01*
X128269337Y-83390115D01*
X128338569Y-83380691D01*
X128401905Y-83410193D01*
X128423809Y-83435472D01*
X128489728Y-83536370D01*
X128489731Y-83536373D01*
X128645692Y-83705792D01*
X128653969Y-83712234D01*
X128826868Y-83846807D01*
X128827411Y-83847229D01*
X129029931Y-83956828D01*
X129131294Y-83991626D01*
X129247725Y-84031597D01*
X129247727Y-84031597D01*
X129247729Y-84031598D01*
X129474863Y-84069500D01*
X129474864Y-84069500D01*
X129705136Y-84069500D01*
X129705137Y-84069500D01*
X129932271Y-84031598D01*
X129933693Y-84031110D01*
X129955245Y-84023711D01*
X130150069Y-83956828D01*
X130352589Y-83847229D01*
X130534308Y-83705792D01*
X130690269Y-83536373D01*
X130756490Y-83435013D01*
X130809636Y-83389657D01*
X130878868Y-83380233D01*
X130942203Y-83409735D01*
X130964108Y-83435013D01*
X130986760Y-83469685D01*
X131607368Y-82849076D01*
X131610594Y-82864597D01*
X131679658Y-82997886D01*
X131782123Y-83107598D01*
X131910388Y-83185598D01*
X131963166Y-83200386D01*
X131339040Y-83824512D01*
X131339040Y-83824514D01*
X131367677Y-83846803D01*
X131367683Y-83846807D01*
X131570131Y-83956367D01*
X131570140Y-83956370D01*
X131787849Y-84031110D01*
X132014905Y-84069000D01*
X132245095Y-84069000D01*
X132472150Y-84031110D01*
X132689859Y-83956370D01*
X132689868Y-83956367D01*
X132892315Y-83846807D01*
X132892316Y-83846806D01*
X132920958Y-83824513D01*
X132920959Y-83824511D01*
X132298604Y-83202156D01*
X132416412Y-83150985D01*
X132532862Y-83056246D01*
X132619433Y-82933603D01*
X132650300Y-82846747D01*
X133273238Y-83469685D01*
X133295892Y-83435012D01*
X133349038Y-83389656D01*
X133418269Y-83380232D01*
X133481605Y-83409734D01*
X133503509Y-83435013D01*
X133569728Y-83536370D01*
X133569731Y-83536373D01*
X133725692Y-83705792D01*
X133733969Y-83712234D01*
X133906868Y-83846807D01*
X133907411Y-83847229D01*
X134109931Y-83956828D01*
X134211294Y-83991626D01*
X134327725Y-84031597D01*
X134327727Y-84031597D01*
X134327729Y-84031598D01*
X134554863Y-84069500D01*
X134554864Y-84069500D01*
X134785136Y-84069500D01*
X134785137Y-84069500D01*
X135012271Y-84031598D01*
X135013693Y-84031110D01*
X135035245Y-84023711D01*
X135230069Y-83956828D01*
X135432589Y-83847229D01*
X135614308Y-83705792D01*
X135770269Y-83536373D01*
X135770271Y-83536370D01*
X135836191Y-83435472D01*
X135889337Y-83390115D01*
X135958569Y-83380691D01*
X136021905Y-83410193D01*
X136043809Y-83435472D01*
X136109728Y-83536370D01*
X136109731Y-83536373D01*
X136265692Y-83705792D01*
X136273969Y-83712234D01*
X136447408Y-83847227D01*
X136447413Y-83847230D01*
X136519517Y-83886251D01*
X136569108Y-83935471D01*
X136584500Y-83995306D01*
X136584500Y-85999547D01*
X136564815Y-86066586D01*
X136548181Y-86087228D01*
X126777228Y-95858181D01*
X126715905Y-95891666D01*
X126689547Y-95894500D01*
X125194011Y-95894500D01*
X125126972Y-95874815D01*
X125090202Y-95838321D01*
X124976071Y-95663629D01*
X124935447Y-95619500D01*
X124820108Y-95494208D01*
X124699930Y-95400670D01*
X124638391Y-95352772D01*
X124435869Y-95243172D01*
X124435861Y-95243169D01*
X124218074Y-95168402D01*
X124047720Y-95139975D01*
X123990937Y-95130500D01*
X123760663Y-95130500D01*
X123715236Y-95138080D01*
X123533525Y-95168402D01*
X123315738Y-95243169D01*
X123315730Y-95243172D01*
X123113208Y-95352772D01*
X122931494Y-95494206D01*
X122931489Y-95494211D01*
X122775531Y-95663627D01*
X122685151Y-95801964D01*
X122632004Y-95847320D01*
X122562773Y-95856744D01*
X122508457Y-95834460D01*
X122372734Y-95735851D01*
X122372729Y-95735848D01*
X122199807Y-95658857D01*
X122199802Y-95658855D01*
X122054001Y-95627865D01*
X122014646Y-95619500D01*
X121825354Y-95619500D01*
X121792897Y-95626398D01*
X121640197Y-95658855D01*
X121640192Y-95658857D01*
X121467270Y-95735848D01*
X121467265Y-95735851D01*
X121314129Y-95847111D01*
X121187466Y-95987785D01*
X121092821Y-96151715D01*
X121092818Y-96151722D01*
X121034327Y-96331740D01*
X121034326Y-96331744D01*
X121014540Y-96520000D01*
X121034326Y-96708256D01*
X121034327Y-96708259D01*
X121092818Y-96888277D01*
X121092821Y-96888284D01*
X121187467Y-97052216D01*
X121212360Y-97079862D01*
X121262650Y-97135715D01*
X121292880Y-97198706D01*
X121294500Y-97218687D01*
X121294500Y-97924614D01*
X121274815Y-97991653D01*
X121222011Y-98037408D01*
X121152853Y-98047352D01*
X121109572Y-98029805D01*
X121108363Y-98031901D01*
X121102729Y-98028648D01*
X120929807Y-97951657D01*
X120929802Y-97951655D01*
X120784001Y-97920665D01*
X120744646Y-97912300D01*
X120555354Y-97912300D01*
X120505375Y-97922923D01*
X120370199Y-97951655D01*
X120199199Y-98027790D01*
X120129949Y-98037074D01*
X120066672Y-98007446D01*
X120029459Y-97948311D01*
X120028557Y-97884073D01*
X120071046Y-97716288D01*
X120083464Y-97566425D01*
X120090062Y-97486805D01*
X120090062Y-97486794D01*
X120073204Y-97283352D01*
X120071046Y-97257312D01*
X120014517Y-97034084D01*
X119922017Y-96823205D01*
X119878587Y-96756730D01*
X119796071Y-96630429D01*
X119769155Y-96601190D01*
X119640108Y-96461008D01*
X119518551Y-96366397D01*
X119454341Y-96316420D01*
X119455325Y-96315154D01*
X119414624Y-96267470D01*
X119405196Y-96198239D01*
X119434693Y-96134902D01*
X119454665Y-96117596D01*
X119454341Y-96117180D01*
X119518447Y-96067284D01*
X119640108Y-95972592D01*
X119796069Y-95803173D01*
X119922017Y-95610395D01*
X120014517Y-95399516D01*
X120071046Y-95176288D01*
X120090062Y-94946800D01*
X120071046Y-94717312D01*
X120014517Y-94494084D01*
X119922017Y-94283205D01*
X119796071Y-94090429D01*
X119769155Y-94061190D01*
X119640108Y-93921008D01*
X119458389Y-93779571D01*
X119458390Y-93779571D01*
X119454341Y-93776420D01*
X119455228Y-93775280D01*
X119414163Y-93727166D01*
X119404738Y-93657935D01*
X119434237Y-93594598D01*
X119454371Y-93577152D01*
X119454066Y-93576760D01*
X119486758Y-93551313D01*
X119486759Y-93551311D01*
X118864404Y-92928956D01*
X118982212Y-92877785D01*
X119098662Y-92783046D01*
X119185233Y-92660403D01*
X119216100Y-92573547D01*
X119839038Y-93196485D01*
X119921572Y-93070159D01*
X119921577Y-93070151D01*
X120014042Y-92859353D01*
X120070550Y-92636208D01*
X120070552Y-92636196D01*
X120089560Y-92406805D01*
X120089560Y-92406794D01*
X120070552Y-92177403D01*
X120070550Y-92177391D01*
X120014042Y-91954246D01*
X119921574Y-91743442D01*
X119839038Y-91617113D01*
X119218430Y-92237721D01*
X119215206Y-92222203D01*
X119146142Y-92088914D01*
X119043677Y-91979202D01*
X118915412Y-91901202D01*
X118862632Y-91886413D01*
X119486758Y-91262286D01*
X119486758Y-91262284D01*
X119454067Y-91236840D01*
X119455009Y-91235629D01*
X119414155Y-91187747D01*
X119404741Y-91118514D01*
X119434250Y-91055182D01*
X119454620Y-91037538D01*
X119454341Y-91037180D01*
X119490974Y-91008666D01*
X119640108Y-90892592D01*
X119796069Y-90723173D01*
X119922017Y-90530395D01*
X120014517Y-90319516D01*
X120071046Y-90096288D01*
X120090062Y-89866800D01*
X120071046Y-89637312D01*
X120014517Y-89414084D01*
X119922017Y-89203205D01*
X119796071Y-89010429D01*
X119769155Y-88981190D01*
X119640108Y-88841008D01*
X119571836Y-88787870D01*
X119458391Y-88699572D01*
X119255869Y-88589972D01*
X119255861Y-88589969D01*
X119038074Y-88515202D01*
X118867720Y-88486775D01*
X118810937Y-88477300D01*
X118580663Y-88477300D01*
X118535236Y-88484880D01*
X118353525Y-88515202D01*
X118135738Y-88589969D01*
X118135730Y-88589972D01*
X117933208Y-88699572D01*
X117751494Y-88841006D01*
X117751489Y-88841011D01*
X117595528Y-89010429D01*
X117469582Y-89203205D01*
X117377082Y-89414085D01*
X117320553Y-89637315D01*
X117301538Y-89866794D01*
X117301538Y-89866805D01*
X117320553Y-90096284D01*
X117377082Y-90319514D01*
X117469582Y-90530394D01*
X117595528Y-90723170D01*
X117595531Y-90723173D01*
X117751492Y-90892592D01*
X117868391Y-90983578D01*
X117937259Y-91037180D01*
X117936370Y-91038321D01*
X117977432Y-91086424D01*
X117986863Y-91155655D01*
X117957368Y-91218994D01*
X117937229Y-91236451D01*
X117937533Y-91236841D01*
X117904840Y-91262285D01*
X117904840Y-91262287D01*
X118527196Y-91884643D01*
X118409388Y-91935815D01*
X118292938Y-92030554D01*
X118206367Y-92153197D01*
X118175498Y-92240052D01*
X117552559Y-91617113D01*
X117470024Y-91743444D01*
X117377557Y-91954246D01*
X117321049Y-92177391D01*
X117321047Y-92177403D01*
X117302040Y-92406794D01*
X117302040Y-92406805D01*
X117321047Y-92636196D01*
X117321049Y-92636208D01*
X117377557Y-92859353D01*
X117470023Y-93070152D01*
X117552560Y-93196485D01*
X118173168Y-92575876D01*
X118176394Y-92591397D01*
X118245458Y-92724686D01*
X118347923Y-92834398D01*
X118476188Y-92912398D01*
X118528966Y-92927186D01*
X117904840Y-93551312D01*
X117904840Y-93551314D01*
X117937533Y-93576760D01*
X117936589Y-93577972D01*
X117977439Y-93625843D01*
X117986860Y-93695074D01*
X117957356Y-93758409D01*
X117936981Y-93776063D01*
X117937259Y-93776420D01*
X117751494Y-93921006D01*
X117751489Y-93921011D01*
X117595528Y-94090429D01*
X117469582Y-94283205D01*
X117377082Y-94494085D01*
X117320553Y-94717315D01*
X117301538Y-94946794D01*
X117301538Y-94946805D01*
X117320553Y-95176284D01*
X117377082Y-95399514D01*
X117469582Y-95610394D01*
X117595528Y-95803170D01*
X117595531Y-95803173D01*
X117751492Y-95972592D01*
X117811373Y-96019199D01*
X117937259Y-96117180D01*
X117936276Y-96118441D01*
X117976983Y-96166149D01*
X117986400Y-96235381D01*
X117956892Y-96298714D01*
X117936936Y-96316005D01*
X117937259Y-96316420D01*
X117751494Y-96461006D01*
X117751489Y-96461011D01*
X117595528Y-96630429D01*
X117469582Y-96823205D01*
X117377082Y-97034085D01*
X117320553Y-97257315D01*
X117301538Y-97486794D01*
X117301538Y-97486805D01*
X117320553Y-97716284D01*
X117377082Y-97939514D01*
X117469582Y-98150394D01*
X117595528Y-98343170D01*
X117627887Y-98378321D01*
X117751492Y-98512592D01*
X117817815Y-98564213D01*
X117937259Y-98657180D01*
X117936370Y-98658321D01*
X117977432Y-98706424D01*
X117986863Y-98775655D01*
X117957368Y-98838994D01*
X117937229Y-98856451D01*
X117937533Y-98856841D01*
X117904840Y-98882285D01*
X117904840Y-98882287D01*
X118527196Y-99504643D01*
X118409388Y-99555815D01*
X118292938Y-99650554D01*
X118206367Y-99773197D01*
X118175498Y-99860052D01*
X117552559Y-99237113D01*
X117470024Y-99363444D01*
X117377557Y-99574246D01*
X117321049Y-99797391D01*
X117321047Y-99797403D01*
X117302040Y-100026794D01*
X117302040Y-100026805D01*
X117321047Y-100256196D01*
X117321049Y-100256208D01*
X117377557Y-100479353D01*
X117470023Y-100690152D01*
X117552560Y-100816485D01*
X118173168Y-100195876D01*
X118176394Y-100211397D01*
X118245458Y-100344686D01*
X118347923Y-100454398D01*
X118476188Y-100532398D01*
X118528966Y-100547186D01*
X117904840Y-101171312D01*
X117904840Y-101171314D01*
X117937533Y-101196760D01*
X117936589Y-101197972D01*
X117977439Y-101245843D01*
X117986860Y-101315074D01*
X117957356Y-101378409D01*
X117936981Y-101396063D01*
X117937259Y-101396420D01*
X117751494Y-101541006D01*
X117751489Y-101541011D01*
X117595528Y-101710429D01*
X117469582Y-101903205D01*
X117377082Y-102114085D01*
X117320553Y-102337315D01*
X117301538Y-102566794D01*
X117301538Y-102566805D01*
X117320553Y-102796284D01*
X117377082Y-103019514D01*
X117469582Y-103230394D01*
X117595528Y-103423170D01*
X117595531Y-103423173D01*
X117751492Y-103592592D01*
X117864939Y-103680891D01*
X117931919Y-103733024D01*
X117933211Y-103734029D01*
X118135731Y-103843628D01*
X118248825Y-103882453D01*
X118353525Y-103918397D01*
X118353527Y-103918397D01*
X118353529Y-103918398D01*
X118580663Y-103956300D01*
X118580664Y-103956300D01*
X118810936Y-103956300D01*
X118810937Y-103956300D01*
X119038071Y-103918398D01*
X119255869Y-103843628D01*
X119458389Y-103734029D01*
X119640108Y-103592592D01*
X119796069Y-103423173D01*
X119796688Y-103422226D01*
X119797041Y-103421924D01*
X119799222Y-103419123D01*
X119799798Y-103419571D01*
X119849832Y-103376866D01*
X119919063Y-103367439D01*
X119982400Y-103396938D01*
X120019735Y-103455996D01*
X120024500Y-103490042D01*
X120024500Y-115894547D01*
X120004815Y-115961586D01*
X119988181Y-115982228D01*
X118522228Y-117448181D01*
X118460905Y-117481666D01*
X118434547Y-117484500D01*
X118054188Y-117484500D01*
X117987149Y-117464815D01*
X117952613Y-117431623D01*
X117840045Y-117270858D01*
X117679141Y-117109954D01*
X117492734Y-116979432D01*
X117492732Y-116979431D01*
X117286497Y-116883261D01*
X117286488Y-116883258D01*
X117066697Y-116824366D01*
X117066693Y-116824365D01*
X117066692Y-116824365D01*
X117066691Y-116824364D01*
X117066686Y-116824364D01*
X116840002Y-116804532D01*
X116839998Y-116804532D01*
X116613313Y-116824364D01*
X116613302Y-116824366D01*
X116393511Y-116883258D01*
X116393502Y-116883261D01*
X116187267Y-116979431D01*
X116187265Y-116979432D01*
X116000858Y-117109954D01*
X115839954Y-117270858D01*
X115709432Y-117457265D01*
X115709431Y-117457267D01*
X115613261Y-117663502D01*
X115613258Y-117663511D01*
X115554366Y-117883302D01*
X115554364Y-117883313D01*
X115534532Y-118109998D01*
X115534532Y-118110002D01*
X115538390Y-118154102D01*
X115524623Y-118222602D01*
X115476008Y-118272785D01*
X115407979Y-118288718D01*
X115342135Y-118265342D01*
X115327181Y-118252590D01*
X114800803Y-117726212D01*
X114790980Y-117713950D01*
X114790759Y-117714134D01*
X114785786Y-117708122D01*
X114736776Y-117662099D01*
X114733977Y-117659386D01*
X114714477Y-117639885D01*
X114714471Y-117639880D01*
X114711286Y-117637409D01*
X114702434Y-117629848D01*
X114670582Y-117599938D01*
X114670580Y-117599936D01*
X114670577Y-117599935D01*
X114653029Y-117590288D01*
X114636763Y-117579604D01*
X114620932Y-117567324D01*
X114580849Y-117549978D01*
X114570363Y-117544841D01*
X114532094Y-117523803D01*
X114532092Y-117523802D01*
X114512693Y-117518822D01*
X114494281Y-117512518D01*
X114475898Y-117504562D01*
X114475892Y-117504560D01*
X114432760Y-117497729D01*
X114421322Y-117495361D01*
X114379020Y-117484500D01*
X114379019Y-117484500D01*
X114358984Y-117484500D01*
X114339586Y-117482973D01*
X114331333Y-117481666D01*
X114319805Y-117479840D01*
X114319804Y-117479840D01*
X114276325Y-117483950D01*
X114264656Y-117484500D01*
X113078211Y-117484500D01*
X113011172Y-117464815D01*
X112974402Y-117428321D01*
X112860271Y-117253629D01*
X112833355Y-117224390D01*
X112704308Y-117084208D01*
X112636036Y-117031070D01*
X112522591Y-116942772D01*
X112320069Y-116833172D01*
X112320061Y-116833169D01*
X112102274Y-116758402D01*
X111931920Y-116729975D01*
X111875137Y-116720500D01*
X111644863Y-116720500D01*
X111599436Y-116728080D01*
X111417725Y-116758402D01*
X111199938Y-116833169D01*
X111199930Y-116833172D01*
X110997408Y-116942772D01*
X110815694Y-117084206D01*
X110815689Y-117084211D01*
X110659728Y-117253629D01*
X110533782Y-117446405D01*
X110441282Y-117657285D01*
X110384753Y-117880515D01*
X110365738Y-118109994D01*
X110365738Y-118110005D01*
X100804051Y-118110005D01*
X100596355Y-117914966D01*
X100596352Y-117914964D01*
X100596346Y-117914959D01*
X100351491Y-117737061D01*
X100351484Y-117737056D01*
X100351480Y-117737054D01*
X100086237Y-117591235D01*
X100086234Y-117591233D01*
X100086229Y-117591231D01*
X100086228Y-117591230D01*
X99804813Y-117479810D01*
X99804810Y-117479809D01*
X99511640Y-117404536D01*
X99511627Y-117404534D01*
X99211352Y-117366600D01*
X99211341Y-117366600D01*
X98908659Y-117366600D01*
X98908647Y-117366600D01*
X98608372Y-117404534D01*
X98608359Y-117404536D01*
X98315189Y-117479809D01*
X98315186Y-117479810D01*
X98033771Y-117591230D01*
X98033770Y-117591231D01*
X97768520Y-117737054D01*
X97768508Y-117737061D01*
X97523653Y-117914959D01*
X97523643Y-117914967D01*
X97315954Y-118110000D01*
X97302999Y-118122166D01*
X97238686Y-118199906D01*
X97110058Y-118355391D01*
X96947880Y-118610944D01*
X96819000Y-118884828D01*
X96725468Y-119172689D01*
X96668749Y-119470018D01*
X96668748Y-119470025D01*
X96649744Y-119772094D01*
X96649744Y-119772105D01*
X71523656Y-119772105D01*
X71523656Y-119772094D01*
X71504651Y-119470025D01*
X71504650Y-119470018D01*
X71504650Y-119470015D01*
X71447933Y-119172694D01*
X71354399Y-118884826D01*
X71225523Y-118610950D01*
X71175512Y-118532145D01*
X71063341Y-118355391D01*
X71062365Y-118354211D01*
X70870401Y-118122166D01*
X70649755Y-117914966D01*
X70649752Y-117914964D01*
X70649746Y-117914959D01*
X70404891Y-117737061D01*
X70404884Y-117737056D01*
X70404880Y-117737054D01*
X70139637Y-117591235D01*
X70139634Y-117591233D01*
X70139629Y-117591231D01*
X70139628Y-117591230D01*
X69858213Y-117479810D01*
X69858210Y-117479809D01*
X69565040Y-117404536D01*
X69565027Y-117404534D01*
X69264752Y-117366600D01*
X69264741Y-117366600D01*
X68962059Y-117366600D01*
X68962047Y-117366600D01*
X68661772Y-117404534D01*
X68661759Y-117404536D01*
X68368589Y-117479809D01*
X68368586Y-117479810D01*
X68087171Y-117591230D01*
X68087170Y-117591231D01*
X67821920Y-117737054D01*
X67821908Y-117737061D01*
X67577053Y-117914959D01*
X67577043Y-117914967D01*
X67369354Y-118110000D01*
X67356399Y-118122166D01*
X67292086Y-118199906D01*
X67163458Y-118355391D01*
X67001280Y-118610944D01*
X66872400Y-118884828D01*
X66778868Y-119172689D01*
X66722149Y-119470018D01*
X66722148Y-119470025D01*
X66703144Y-119772094D01*
X66703144Y-119772105D01*
X53340500Y-119772105D01*
X53340500Y-82415845D01*
X119762944Y-82415845D01*
X119781948Y-82717914D01*
X119781949Y-82717921D01*
X119809929Y-82864597D01*
X119835355Y-82997886D01*
X119838668Y-83015250D01*
X119876835Y-83132716D01*
X119932201Y-83303114D01*
X120061077Y-83576990D01*
X120061079Y-83576993D01*
X120061080Y-83576995D01*
X120223258Y-83832548D01*
X120223261Y-83832552D01*
X120223262Y-83832553D01*
X120416199Y-84065774D01*
X120629027Y-84265632D01*
X120636843Y-84272972D01*
X120636853Y-84272980D01*
X120881708Y-84450878D01*
X120881713Y-84450880D01*
X120881720Y-84450886D01*
X121146963Y-84596705D01*
X121146968Y-84596707D01*
X121146970Y-84596708D01*
X121146971Y-84596709D01*
X121428386Y-84708129D01*
X121428389Y-84708130D01*
X121694167Y-84776370D01*
X121721563Y-84783404D01*
X121784560Y-84791362D01*
X122021847Y-84821339D01*
X122021856Y-84821339D01*
X122021859Y-84821340D01*
X122021861Y-84821340D01*
X122324539Y-84821340D01*
X122324541Y-84821340D01*
X122324544Y-84821339D01*
X122324552Y-84821339D01*
X122503739Y-84798702D01*
X122624837Y-84783404D01*
X122918010Y-84708130D01*
X122918013Y-84708129D01*
X123199428Y-84596709D01*
X123199429Y-84596708D01*
X123199427Y-84596708D01*
X123199437Y-84596705D01*
X123464680Y-84450886D01*
X123709555Y-84272974D01*
X123930201Y-84065774D01*
X124123138Y-83832553D01*
X124285323Y-83576990D01*
X124414199Y-83303114D01*
X124507733Y-83015246D01*
X124564450Y-82717925D01*
X124564451Y-82717914D01*
X124583456Y-82415845D01*
X124583456Y-82415834D01*
X124564451Y-82113765D01*
X124564450Y-82113758D01*
X124564450Y-82113755D01*
X124507733Y-81816434D01*
X124414199Y-81528566D01*
X124285323Y-81254690D01*
X124123138Y-80999127D01*
X123930201Y-80765906D01*
X123709555Y-80558706D01*
X123709552Y-80558704D01*
X123709546Y-80558699D01*
X123464691Y-80380801D01*
X123464684Y-80380796D01*
X123464680Y-80380794D01*
X123199437Y-80234975D01*
X123199434Y-80234973D01*
X123199429Y-80234971D01*
X123199428Y-80234970D01*
X122918013Y-80123550D01*
X122918010Y-80123549D01*
X122624840Y-80048276D01*
X122624827Y-80048274D01*
X122324552Y-80010340D01*
X122324541Y-80010340D01*
X122021859Y-80010340D01*
X122021847Y-80010340D01*
X121721572Y-80048274D01*
X121721559Y-80048276D01*
X121428389Y-80123549D01*
X121428386Y-80123550D01*
X121146971Y-80234970D01*
X121146970Y-80234971D01*
X120881720Y-80380794D01*
X120881708Y-80380801D01*
X120636853Y-80558699D01*
X120636843Y-80558707D01*
X120416201Y-80765904D01*
X120416199Y-80765906D01*
X120371114Y-80820404D01*
X120223258Y-80999131D01*
X120061080Y-81254684D01*
X119932200Y-81528568D01*
X119838668Y-81816429D01*
X119838667Y-81816433D01*
X119838667Y-81816434D01*
X119837294Y-81823630D01*
X119781949Y-82113758D01*
X119781948Y-82113765D01*
X119762944Y-82415834D01*
X119762944Y-82415845D01*
X53340500Y-82415845D01*
X53340500Y-62801500D01*
X54117156Y-62801500D01*
X54137318Y-63186223D01*
X54197584Y-63566722D01*
X54197584Y-63566724D01*
X54297297Y-63938858D01*
X54435357Y-64298515D01*
X54610257Y-64641776D01*
X54820071Y-64964862D01*
X54820073Y-64964864D01*
X54820076Y-64964868D01*
X54820077Y-64964869D01*
X55062523Y-65264265D01*
X55334935Y-65536677D01*
X55539846Y-65702610D01*
X55634335Y-65779126D01*
X55634337Y-65779128D01*
X55957423Y-65988942D01*
X55957428Y-65988945D01*
X56300688Y-66163844D01*
X56660349Y-66301905D01*
X57032472Y-66401615D01*
X57412978Y-66461882D01*
X57776421Y-66480928D01*
X57797699Y-66482044D01*
X57797700Y-66482044D01*
X57797701Y-66482044D01*
X57817863Y-66480987D01*
X58182422Y-66461882D01*
X58562928Y-66401615D01*
X58935051Y-66301905D01*
X59294712Y-66163844D01*
X59637972Y-65988945D01*
X59789754Y-65890376D01*
X59961062Y-65779128D01*
X59961064Y-65779126D01*
X59961069Y-65779123D01*
X60260465Y-65536677D01*
X60532877Y-65264265D01*
X60775323Y-64964869D01*
X60985145Y-64641772D01*
X61160044Y-64298512D01*
X61298105Y-63938851D01*
X61397815Y-63566728D01*
X61458082Y-63186222D01*
X61478244Y-62801500D01*
X68112556Y-62801500D01*
X68132718Y-63186223D01*
X68192984Y-63566722D01*
X68192984Y-63566724D01*
X68292697Y-63938858D01*
X68430757Y-64298515D01*
X68605657Y-64641776D01*
X68815471Y-64964862D01*
X68815473Y-64964864D01*
X68815476Y-64964868D01*
X68815477Y-64964869D01*
X69057923Y-65264265D01*
X69330335Y-65536677D01*
X69535246Y-65702610D01*
X69629735Y-65779126D01*
X69629737Y-65779128D01*
X69952823Y-65988942D01*
X69952828Y-65988945D01*
X70296088Y-66163844D01*
X70655749Y-66301905D01*
X71027872Y-66401615D01*
X71408378Y-66461882D01*
X71771821Y-66480928D01*
X71793099Y-66482044D01*
X71793100Y-66482044D01*
X71793101Y-66482044D01*
X71813263Y-66480987D01*
X72177822Y-66461882D01*
X72558328Y-66401615D01*
X72930451Y-66301905D01*
X73290112Y-66163844D01*
X73633372Y-65988945D01*
X73785154Y-65890376D01*
X73956462Y-65779128D01*
X73956464Y-65779126D01*
X73956469Y-65779123D01*
X74255865Y-65536677D01*
X74528277Y-65264265D01*
X74658701Y-65103205D01*
X119762944Y-65103205D01*
X119781948Y-65405274D01*
X119781949Y-65405281D01*
X119838668Y-65702610D01*
X119931703Y-65988942D01*
X119932201Y-65990474D01*
X120061077Y-66264350D01*
X120061079Y-66264353D01*
X120061080Y-66264355D01*
X120223258Y-66519908D01*
X120223261Y-66519912D01*
X120223262Y-66519913D01*
X120416199Y-66753134D01*
X120636843Y-66960332D01*
X120636853Y-66960340D01*
X120881708Y-67138238D01*
X120881713Y-67138240D01*
X120881720Y-67138246D01*
X121146963Y-67284065D01*
X121146968Y-67284067D01*
X121146970Y-67284068D01*
X121146971Y-67284069D01*
X121428386Y-67395489D01*
X121428389Y-67395490D01*
X121721559Y-67470763D01*
X121721563Y-67470764D01*
X121784560Y-67478722D01*
X122021847Y-67508699D01*
X122021856Y-67508699D01*
X122021859Y-67508700D01*
X122021861Y-67508700D01*
X122324539Y-67508700D01*
X122324541Y-67508700D01*
X122324544Y-67508699D01*
X122324552Y-67508699D01*
X122503739Y-67486062D01*
X122624837Y-67470764D01*
X122918010Y-67395490D01*
X122918013Y-67395489D01*
X123199428Y-67284069D01*
X123199429Y-67284068D01*
X123199427Y-67284068D01*
X123199437Y-67284065D01*
X123464680Y-67138246D01*
X123709555Y-66960334D01*
X123930201Y-66753134D01*
X124123138Y-66519913D01*
X124285323Y-66264350D01*
X124414199Y-65990474D01*
X124507733Y-65702606D01*
X124564450Y-65405285D01*
X124564451Y-65405274D01*
X124583456Y-65103205D01*
X139775604Y-65103205D01*
X139794608Y-65405274D01*
X139794609Y-65405281D01*
X139851328Y-65702610D01*
X139944363Y-65988942D01*
X139944861Y-65990474D01*
X140073737Y-66264350D01*
X140073739Y-66264353D01*
X140073740Y-66264355D01*
X140235918Y-66519908D01*
X140235921Y-66519912D01*
X140235922Y-66519913D01*
X140428859Y-66753134D01*
X140649503Y-66960332D01*
X140649513Y-66960340D01*
X140894368Y-67138238D01*
X140894373Y-67138240D01*
X140894380Y-67138246D01*
X141159623Y-67284065D01*
X141159628Y-67284067D01*
X141159630Y-67284068D01*
X141159631Y-67284069D01*
X141441046Y-67395489D01*
X141441049Y-67395490D01*
X141734219Y-67470763D01*
X141734223Y-67470764D01*
X141797220Y-67478722D01*
X142034507Y-67508699D01*
X142034516Y-67508699D01*
X142034519Y-67508700D01*
X142034521Y-67508700D01*
X142337199Y-67508700D01*
X142337201Y-67508700D01*
X142337204Y-67508699D01*
X142337212Y-67508699D01*
X142516399Y-67486062D01*
X142637497Y-67470764D01*
X142930670Y-67395490D01*
X142930673Y-67395489D01*
X143212088Y-67284069D01*
X143212089Y-67284068D01*
X143212087Y-67284068D01*
X143212097Y-67284065D01*
X143477340Y-67138246D01*
X143722215Y-66960334D01*
X143942861Y-66753134D01*
X144135798Y-66519913D01*
X144297983Y-66264350D01*
X144426859Y-65990474D01*
X144520393Y-65702606D01*
X144577110Y-65405285D01*
X144577111Y-65405274D01*
X144596116Y-65103205D01*
X144596116Y-65103194D01*
X144577111Y-64801125D01*
X144577110Y-64801118D01*
X144577110Y-64801115D01*
X144520393Y-64503794D01*
X144426859Y-64215926D01*
X144297983Y-63942050D01*
X144135798Y-63686487D01*
X143942861Y-63453266D01*
X143722215Y-63246066D01*
X143722212Y-63246064D01*
X143722206Y-63246059D01*
X143477351Y-63068161D01*
X143477344Y-63068156D01*
X143477340Y-63068154D01*
X143212097Y-62922335D01*
X143212094Y-62922333D01*
X143212089Y-62922331D01*
X143212088Y-62922330D01*
X142930673Y-62810910D01*
X142930670Y-62810909D01*
X142894024Y-62801500D01*
X186120956Y-62801500D01*
X186141118Y-63186223D01*
X186201384Y-63566722D01*
X186201384Y-63566724D01*
X186301097Y-63938858D01*
X186439157Y-64298515D01*
X186614057Y-64641776D01*
X186823871Y-64964862D01*
X186823873Y-64964864D01*
X186823876Y-64964868D01*
X186823877Y-64964869D01*
X187066323Y-65264265D01*
X187338735Y-65536677D01*
X187543646Y-65702610D01*
X187638135Y-65779126D01*
X187638137Y-65779128D01*
X187961223Y-65988942D01*
X187961228Y-65988945D01*
X188304488Y-66163844D01*
X188664149Y-66301905D01*
X189036272Y-66401615D01*
X189416778Y-66461882D01*
X189780221Y-66480928D01*
X189801499Y-66482044D01*
X189801500Y-66482044D01*
X189801501Y-66482044D01*
X189821663Y-66480987D01*
X190186222Y-66461882D01*
X190566728Y-66401615D01*
X190938851Y-66301905D01*
X191298512Y-66163844D01*
X191641772Y-65988945D01*
X191793554Y-65890376D01*
X191964862Y-65779128D01*
X191964864Y-65779126D01*
X191964869Y-65779123D01*
X192264265Y-65536677D01*
X192536677Y-65264265D01*
X192779123Y-64964869D01*
X192988945Y-64641772D01*
X193163844Y-64298512D01*
X193301905Y-63938851D01*
X193401615Y-63566728D01*
X193461882Y-63186222D01*
X193482044Y-62801500D01*
X193461882Y-62416778D01*
X193401615Y-62036272D01*
X193301905Y-61664149D01*
X193163844Y-61304488D01*
X192988945Y-60961228D01*
X192988942Y-60961223D01*
X192779128Y-60638137D01*
X192779126Y-60638135D01*
X192536680Y-60338739D01*
X192536677Y-60338735D01*
X192264265Y-60066323D01*
X191964869Y-59823877D01*
X191964868Y-59823876D01*
X191964864Y-59823873D01*
X191964862Y-59823871D01*
X191641776Y-59614057D01*
X191298515Y-59439157D01*
X190938858Y-59301097D01*
X190938851Y-59301095D01*
X190566728Y-59201385D01*
X190566724Y-59201384D01*
X190566723Y-59201384D01*
X190186223Y-59141118D01*
X189801501Y-59120956D01*
X189801499Y-59120956D01*
X189416776Y-59141118D01*
X189036277Y-59201384D01*
X189036275Y-59201384D01*
X188664141Y-59301097D01*
X188304484Y-59439157D01*
X187961223Y-59614057D01*
X187638137Y-59823871D01*
X187638135Y-59823873D01*
X187338739Y-60066319D01*
X187338731Y-60066326D01*
X187066326Y-60338731D01*
X187066319Y-60338739D01*
X186823873Y-60638135D01*
X186823871Y-60638137D01*
X186614057Y-60961223D01*
X186439157Y-61304484D01*
X186301097Y-61664141D01*
X186201384Y-62036275D01*
X186201384Y-62036277D01*
X186141118Y-62416776D01*
X186120956Y-62801499D01*
X186120956Y-62801500D01*
X142894024Y-62801500D01*
X142637500Y-62735636D01*
X142637487Y-62735634D01*
X142337212Y-62697700D01*
X142337201Y-62697700D01*
X142034519Y-62697700D01*
X142034507Y-62697700D01*
X141734232Y-62735634D01*
X141734219Y-62735636D01*
X141441049Y-62810909D01*
X141441046Y-62810910D01*
X141159631Y-62922330D01*
X141159630Y-62922331D01*
X140894380Y-63068154D01*
X140894368Y-63068161D01*
X140649513Y-63246059D01*
X140649503Y-63246067D01*
X140428861Y-63453264D01*
X140235918Y-63686491D01*
X140073740Y-63942044D01*
X139944860Y-64215928D01*
X139851328Y-64503789D01*
X139794609Y-64801118D01*
X139794608Y-64801125D01*
X139775604Y-65103194D01*
X139775604Y-65103205D01*
X124583456Y-65103205D01*
X124583456Y-65103194D01*
X124564451Y-64801125D01*
X124564450Y-64801118D01*
X124564450Y-64801115D01*
X124507733Y-64503794D01*
X124414199Y-64215926D01*
X124285323Y-63942050D01*
X124123138Y-63686487D01*
X123930201Y-63453266D01*
X123709555Y-63246066D01*
X123709552Y-63246064D01*
X123709546Y-63246059D01*
X123464691Y-63068161D01*
X123464684Y-63068156D01*
X123464680Y-63068154D01*
X123199437Y-62922335D01*
X123199434Y-62922333D01*
X123199429Y-62922331D01*
X123199428Y-62922330D01*
X122918013Y-62810910D01*
X122918010Y-62810909D01*
X122624840Y-62735636D01*
X122624827Y-62735634D01*
X122324552Y-62697700D01*
X122324541Y-62697700D01*
X122021859Y-62697700D01*
X122021847Y-62697700D01*
X121721572Y-62735634D01*
X121721559Y-62735636D01*
X121428389Y-62810909D01*
X121428386Y-62810910D01*
X121146971Y-62922330D01*
X121146970Y-62922331D01*
X120881720Y-63068154D01*
X120881708Y-63068161D01*
X120636853Y-63246059D01*
X120636843Y-63246067D01*
X120416201Y-63453264D01*
X120223258Y-63686491D01*
X120061080Y-63942044D01*
X119932200Y-64215928D01*
X119838668Y-64503789D01*
X119781949Y-64801118D01*
X119781948Y-64801125D01*
X119762944Y-65103194D01*
X119762944Y-65103205D01*
X74658701Y-65103205D01*
X74770723Y-64964869D01*
X74980545Y-64641772D01*
X75155444Y-64298512D01*
X75293505Y-63938851D01*
X75393215Y-63566728D01*
X75453482Y-63186222D01*
X75473644Y-62801500D01*
X75453482Y-62416778D01*
X75393215Y-62036272D01*
X75293505Y-61664149D01*
X75155444Y-61304488D01*
X74980545Y-60961228D01*
X74980542Y-60961223D01*
X74770728Y-60638137D01*
X74770726Y-60638135D01*
X74528280Y-60338739D01*
X74528277Y-60338735D01*
X74255865Y-60066323D01*
X73956469Y-59823877D01*
X73956468Y-59823876D01*
X73956464Y-59823873D01*
X73956462Y-59823871D01*
X73633376Y-59614057D01*
X73290115Y-59439157D01*
X72930458Y-59301097D01*
X72930451Y-59301095D01*
X72558328Y-59201385D01*
X72558324Y-59201384D01*
X72558323Y-59201384D01*
X72177823Y-59141118D01*
X71793101Y-59120956D01*
X71793099Y-59120956D01*
X71408376Y-59141118D01*
X71027877Y-59201384D01*
X71027875Y-59201384D01*
X70655741Y-59301097D01*
X70296084Y-59439157D01*
X69952823Y-59614057D01*
X69629737Y-59823871D01*
X69629735Y-59823873D01*
X69330339Y-60066319D01*
X69330331Y-60066326D01*
X69057926Y-60338731D01*
X69057919Y-60338739D01*
X68815473Y-60638135D01*
X68815471Y-60638137D01*
X68605657Y-60961223D01*
X68430757Y-61304484D01*
X68292697Y-61664141D01*
X68192984Y-62036275D01*
X68192984Y-62036277D01*
X68132718Y-62416776D01*
X68112556Y-62801499D01*
X68112556Y-62801500D01*
X61478244Y-62801500D01*
X61458082Y-62416778D01*
X61397815Y-62036272D01*
X61298105Y-61664149D01*
X61160044Y-61304488D01*
X60985145Y-60961228D01*
X60985142Y-60961223D01*
X60775328Y-60638137D01*
X60775326Y-60638135D01*
X60532880Y-60338739D01*
X60532877Y-60338735D01*
X60260465Y-60066323D01*
X59961069Y-59823877D01*
X59961068Y-59823876D01*
X59961064Y-59823873D01*
X59961062Y-59823871D01*
X59637976Y-59614057D01*
X59294715Y-59439157D01*
X58935058Y-59301097D01*
X58935051Y-59301095D01*
X58562928Y-59201385D01*
X58562924Y-59201384D01*
X58562923Y-59201384D01*
X58182423Y-59141118D01*
X57797701Y-59120956D01*
X57797699Y-59120956D01*
X57412976Y-59141118D01*
X57032477Y-59201384D01*
X57032475Y-59201384D01*
X56660341Y-59301097D01*
X56300684Y-59439157D01*
X55957423Y-59614057D01*
X55634337Y-59823871D01*
X55634335Y-59823873D01*
X55334939Y-60066319D01*
X55334931Y-60066326D01*
X55062526Y-60338731D01*
X55062519Y-60338739D01*
X54820073Y-60638135D01*
X54820071Y-60638137D01*
X54610257Y-60961223D01*
X54435357Y-61304484D01*
X54297297Y-61664141D01*
X54197584Y-62036275D01*
X54197584Y-62036277D01*
X54137318Y-62416776D01*
X54117156Y-62801499D01*
X54117156Y-62801500D01*
X53340500Y-62801500D01*
X53340500Y-57909500D01*
X53360185Y-57842461D01*
X53412989Y-57796706D01*
X53464500Y-57785500D01*
X194185500Y-57785500D01*
X194252539Y-57805185D01*
G37*
%TD.AperFunction*%
%TD*%
M02*
