%TF.GenerationSoftware,KiCad,Pcbnew,7.0.10*%
%TF.CreationDate,2024-02-29T23:41:44-05:00*%
%TF.ProjectId,blue-bike-air-pollution-monitor,626c7565-2d62-4696-9b65-2d6169722d70,rev?*%
%TF.SameCoordinates,Original*%
%TF.FileFunction,Copper,L2,Bot*%
%TF.FilePolarity,Positive*%
%FSLAX46Y46*%
G04 Gerber Fmt 4.6, Leading zero omitted, Abs format (unit mm)*
G04 Created by KiCad (PCBNEW 7.0.10) date 2024-02-29 23:41:44*
%MOMM*%
%LPD*%
G01*
G04 APERTURE LIST*
%TA.AperFunction,ComponentPad*%
%ADD10C,6.350000*%
%TD*%
%TA.AperFunction,ComponentPad*%
%ADD11C,1.778000*%
%TD*%
%TA.AperFunction,ComponentPad*%
%ADD12R,1.700000X1.700000*%
%TD*%
%TA.AperFunction,ComponentPad*%
%ADD13O,1.700000X1.700000*%
%TD*%
%TA.AperFunction,ComponentPad*%
%ADD14O,1.600000X1.600000*%
%TD*%
%TA.AperFunction,ComponentPad*%
%ADD15C,1.600000*%
%TD*%
%TA.AperFunction,ComponentPad*%
%ADD16C,3.810000*%
%TD*%
%TA.AperFunction,ComponentPad*%
%ADD17C,2.540000*%
%TD*%
%TA.AperFunction,ComponentPad*%
%ADD18R,1.905000X2.000000*%
%TD*%
%TA.AperFunction,ComponentPad*%
%ADD19O,1.905000X2.000000*%
%TD*%
%TA.AperFunction,ComponentPad*%
%ADD20C,3.000000*%
%TD*%
%TA.AperFunction,ViaPad*%
%ADD21C,0.800000*%
%TD*%
%TA.AperFunction,Conductor*%
%ADD22C,0.250000*%
%TD*%
%TA.AperFunction,Conductor*%
%ADD23C,1.270000*%
%TD*%
G04 APERTURE END LIST*
D10*
%TO.P,H6,6*%
%TO.N,N/C*%
X71793100Y-153809700D03*
%TD*%
%TO.P,H5,5*%
%TO.N,N/C*%
X71793100Y-62801500D03*
%TD*%
D11*
%TO.P,SEN55,1,VDD*%
%TO.N,+5V*%
X103963800Y-97994800D03*
%TO.P,SEN55,2,GND*%
%TO.N,GND*%
X103963800Y-95454800D03*
%TO.P,SEN55,3,SDA*%
%TO.N,Net-(CO2-SDA)*%
X103963800Y-92914800D03*
%TO.P,SEN55,4,SCL*%
%TO.N,Net-(CO2-SCL)*%
X103963800Y-90374800D03*
%TO.P,SEN55,5,SEL*%
%TO.N,GND*%
X103963800Y-87834800D03*
%TO.P,SEN55,6,NC*%
%TO.N,unconnected-(SEN55-NC-Pad6)*%
X103963800Y-85294800D03*
%TD*%
D12*
%TO.P,BT1,1,+*%
%TO.N,Net-(BT1-+)*%
X109220000Y-134620000D03*
D13*
%TO.P,BT1,2,-*%
%TO.N,GND*%
X111760000Y-134620000D03*
%TD*%
D11*
%TO.P,R1,1*%
%TO.N,+5V*%
X117475000Y-106680000D03*
D14*
%TO.P,R1,2*%
%TO.N,Net-(CO2-SCL)*%
X117475000Y-99060000D03*
%TD*%
D15*
%TO.P,C2,1*%
%TO.N,+5V*%
X115570000Y-114260000D03*
%TO.P,C2,2*%
%TO.N,GND*%
X115570000Y-111760000D03*
%TD*%
D10*
%TO.P,H3,3*%
%TO.N,N/C*%
X57797700Y-153809700D03*
%TD*%
D11*
%TO.P,R2,1*%
%TO.N,+5V*%
X111760000Y-106680000D03*
%TO.P,R2,2*%
%TO.N,Net-(CO2-SDA)*%
X111760000Y-99060000D03*
%TD*%
D15*
%TO.P,C1,1*%
%TO.N,Net-(BT1-+)*%
X109220000Y-114260000D03*
%TO.P,C1,2*%
%TO.N,GND*%
X109220000Y-111760000D03*
%TD*%
D10*
%TO.P,H2,2*%
%TO.N,N/C*%
X189801500Y-62801500D03*
%TD*%
D11*
%TO.P,ESP32-WROOM-32E1,1,SDA*%
%TO.N,Net-(CO2-SDA)*%
X123875800Y-96520000D03*
%TO.P,ESP32-WROOM-32E1,2,SCL*%
%TO.N,Net-(CO2-SCL)*%
X123875800Y-99060000D03*
%TO.P,ESP32-WROOM-32E1,3,D04*%
%TO.N,Net-(ESP32-WROOM-32E1-D04)*%
X123875800Y-101600000D03*
%TO.P,ESP32-WROOM-32E1,4,D06*%
%TO.N,Net-(ESP32-WROOM-32E1-D06)*%
X123875800Y-104140000D03*
%TO.P,ESP32-WROOM-32E1,5,D08*%
%TO.N,unconnected-(ESP32-WROOM-32E1-D08-Pad5)*%
X123875800Y-106680000D03*
%TO.P,ESP32-WROOM-32E1,6,D10*%
%TO.N,unconnected-(ESP32-WROOM-32E1-D10-Pad6)*%
X123875800Y-109220000D03*
%TO.P,ESP32-WROOM-32E1,7,D11*%
%TO.N,unconnected-(ESP32-WROOM-32E1-D11-Pad7)*%
X123875800Y-111760000D03*
%TO.P,ESP32-WROOM-32E1,8,D12*%
%TO.N,unconnected-(ESP32-WROOM-32E1-D12-Pad8)*%
X123875800Y-114300000D03*
%TO.P,ESP32-WROOM-32E1,9,LED*%
%TO.N,unconnected-(ESP32-WROOM-32E1-LED-Pad9)*%
X123875800Y-116840000D03*
%TO.P,ESP32-WROOM-32E1,10,VBUS/LED*%
%TO.N,+5V*%
X123875800Y-119380000D03*
%TO.P,ESP32-WROOM-32E1,11,3.3V/EN*%
%TO.N,unconnected-(ESP32-WROOM-32E1-3.3V{slash}EN-Pad11)*%
X123875800Y-121920000D03*
%TO.P,ESP32-WROOM-32E1,12,VBAT*%
%TO.N,unconnected-(ESP32-WROOM-32E1-VBAT-Pad12)*%
X123875800Y-124460000D03*
%TO.P,ESP32-WROOM-32E1,13,RESET*%
%TO.N,unconnected-(ESP32-WROOM-32E1-RESET-Pad13)*%
X144195800Y-134620000D03*
%TO.P,ESP32-WROOM-32E1,14,Vin*%
%TO.N,+3.3V*%
X144195800Y-132080000D03*
%TO.P,ESP32-WROOM-32E1,15,NC*%
%TO.N,unconnected-(ESP32-WROOM-32E1-NC-Pad15)*%
X144195800Y-129540000D03*
%TO.P,ESP32-WROOM-32E1,16,GND*%
%TO.N,GND*%
X144195800Y-127000000D03*
%TO.P,ESP32-WROOM-32E1,17,A0*%
%TO.N,unconnected-(ESP32-WROOM-32E1-A0-Pad17)*%
X144195800Y-124460000D03*
%TO.P,ESP32-WROOM-32E1,18,A1*%
%TO.N,unconnected-(ESP32-WROOM-32E1-A1-Pad18)*%
X144195800Y-121920000D03*
%TO.P,ESP32-WROOM-32E1,19,A2*%
%TO.N,Net-(ESP32-WROOM-32E1-A2)*%
X144195800Y-119380000D03*
%TO.P,ESP32-WROOM-32E1,20,A3*%
%TO.N,Net-(Accelerometer1-Xout)*%
X144195800Y-116840000D03*
%TO.P,ESP32-WROOM-32E1,21,A4*%
%TO.N,Net-(Accelerometer1-Yout)*%
X144195800Y-114300000D03*
%TO.P,ESP32-WROOM-32E1,22,A5*%
%TO.N,Net-(Accelerometer1-Zout)*%
X144195800Y-111760000D03*
%TO.P,ESP32-WROOM-32E1,23,SCK*%
%TO.N,Net-(ESP32-WROOM-32E1-SCK)*%
X144195800Y-109220000D03*
%TO.P,ESP32-WROOM-32E1,24,MOSI*%
%TO.N,Net-(ESP32-WROOM-32E1-MOSI)*%
X144195800Y-106680000D03*
%TO.P,ESP32-WROOM-32E1,25,MISO*%
%TO.N,Net-(ESP32-WROOM-32E1-MISO)*%
X144195800Y-104140000D03*
%TO.P,ESP32-WROOM-32E1,26,RX*%
%TO.N,Net-(ESP32-WROOM-32E1-RX)*%
X144195800Y-101600000D03*
%TO.P,ESP32-WROOM-32E1,27,TX*%
%TO.N,Net-(ESP32-WROOM-32E1-TX)*%
X144195800Y-99060000D03*
%TO.P,ESP32-WROOM-32E1,28,FREE/ADC*%
%TO.N,unconnected-(ESP32-WROOM-32E1-FREE{slash}ADC-Pad28)*%
X144195800Y-96520000D03*
D16*
%TO.P,ESP32-WROOM-32E1,29*%
%TO.N,N/C*%
X125437900Y-146011900D03*
%TO.P,ESP32-WROOM-32E1,30*%
X142633700Y-146011900D03*
%TD*%
D11*
%TO.P,Methane1,1,Out*%
%TO.N,Net-(ESP32-WROOM-32E1-A2)*%
X96189800Y-121640600D03*
%TO.P,Methane1,2,5V*%
%TO.N,+5V*%
X96189800Y-124180600D03*
%TO.P,Methane1,3,GND*%
%TO.N,GND*%
X96189800Y-126720600D03*
D16*
%TO.P,Methane1,4*%
%TO.N,N/C*%
X64033400Y-117424200D03*
%TO.P,Methane1,5*%
X93980000Y-117424200D03*
%TO.P,Methane1,6*%
X64033400Y-137160000D03*
%TO.P,Methane1,7*%
X93980000Y-137160000D03*
%TD*%
D11*
%TO.P,Accelerometer1,1,5V*%
%TO.N,+5V*%
X156945000Y-81915000D03*
%TO.P,Accelerometer1,2,GND*%
%TO.N,GND*%
X159485000Y-81915000D03*
%TO.P,Accelerometer1,3,Zout*%
%TO.N,Net-(Accelerometer1-Zout)*%
X162025000Y-81915000D03*
%TO.P,Accelerometer1,4,Yout*%
%TO.N,Net-(Accelerometer1-Yout)*%
X164565000Y-81915000D03*
%TO.P,Accelerometer1,5,Xout*%
%TO.N,Net-(Accelerometer1-Xout)*%
X167105000Y-81915000D03*
D17*
%TO.P,Accelerometer1,6*%
%TO.N,N/C*%
X154405000Y-67945000D03*
%TO.P,Accelerometer1,7*%
X168375000Y-67945000D03*
%TD*%
D18*
%TO.P,U1,1,IN*%
%TO.N,Net-(BT1-+)*%
X109220000Y-120325000D03*
D19*
%TO.P,U1,2,GND*%
%TO.N,GND*%
X111760000Y-120325000D03*
%TO.P,U1,3,OUT*%
%TO.N,+5V*%
X114300000Y-120325000D03*
%TD*%
D10*
%TO.P,H1,1*%
%TO.N,N/C*%
X57797700Y-62801500D03*
%TD*%
D20*
%TO.P,5V1,1,1*%
%TO.N,+5V*%
X154940000Y-152400000D03*
%TD*%
D11*
%TO.P,GPS1,1,1PPS*%
%TO.N,unconnected-(GPS1-1PPS-Pad1)*%
X159412000Y-130910000D03*
%TO.P,GPS1,2,TX*%
%TO.N,Net-(ESP32-WROOM-32E1-TX)*%
X159412000Y-133450000D03*
%TO.P,GPS1,3,RX*%
%TO.N,Net-(ESP32-WROOM-32E1-RX)*%
X159412000Y-135990000D03*
%TO.P,GPS1,4,GND*%
%TO.N,GND*%
X159412000Y-138530000D03*
%TO.P,GPS1,5,Vin*%
%TO.N,+3.3V*%
X159412000Y-141070000D03*
D16*
%TO.P,GPS1,6*%
%TO.N,N/C*%
X180963900Y-145121300D03*
%TD*%
D11*
%TO.P,LoraWAN1,1,Vin*%
%TO.N,+3.3V*%
X163168000Y-94080000D03*
%TO.P,LoraWAN1,2,GND*%
%TO.N,GND*%
X163168000Y-96620000D03*
%TO.P,LoraWAN1,3,EN*%
%TO.N,unconnected-(LoraWAN1-EN-Pad3)*%
X163168000Y-99160000D03*
%TO.P,LoraWAN1,4,G0*%
%TO.N,unconnected-(LoraWAN1-G0-Pad4)*%
X163168000Y-101700000D03*
%TO.P,LoraWAN1,5,SCK*%
%TO.N,Net-(ESP32-WROOM-32E1-SCK)*%
X163168000Y-104240000D03*
%TO.P,LoraWAN1,6,MISO*%
%TO.N,Net-(ESP32-WROOM-32E1-MISO)*%
X163168000Y-106780000D03*
%TO.P,LoraWAN1,7,MOSI*%
%TO.N,Net-(ESP32-WROOM-32E1-MOSI)*%
X163168000Y-109320000D03*
%TO.P,LoraWAN1,8,CS*%
%TO.N,Net-(ESP32-WROOM-32E1-D04)*%
X163168000Y-111860000D03*
%TO.P,LoraWAN1,9,RST*%
%TO.N,Net-(ESP32-WROOM-32E1-D06)*%
X163168000Y-114400000D03*
%TO.P,LoraWAN1,10,G5*%
%TO.N,unconnected-(LoraWAN1-G5-Pad10)*%
X188568000Y-104240000D03*
%TO.P,LoraWAN1,11,G4*%
%TO.N,unconnected-(LoraWAN1-G4-Pad11)*%
X188568000Y-101700000D03*
%TO.P,LoraWAN1,12,G3*%
%TO.N,unconnected-(LoraWAN1-G3-Pad12)*%
X188568000Y-99160000D03*
%TO.P,LoraWAN1,13,G2*%
%TO.N,unconnected-(LoraWAN1-G2-Pad13)*%
X188568000Y-96620000D03*
%TO.P,LoraWAN1,14,G1*%
%TO.N,unconnected-(LoraWAN1-G1-Pad14)*%
X188568000Y-94080000D03*
%TD*%
D10*
%TO.P,H4,4*%
%TO.N,N/C*%
X189801500Y-153809700D03*
%TD*%
D20*
%TO.P,3.3V1,1,1*%
%TO.N,+3.3V*%
X147320000Y-152400000D03*
%TD*%
D11*
%TO.P,CO2,1,Vin*%
%TO.N,+5V*%
X123875000Y-82045000D03*
%TO.P,CO2,2,3Vo*%
%TO.N,unconnected-(CO2-3Vo-Pad2)*%
X126415000Y-82045000D03*
%TO.P,CO2,3,Ground*%
%TO.N,GND*%
X128955000Y-82045000D03*
%TO.P,CO2,4,SCL*%
%TO.N,Net-(CO2-SCL)*%
X131495000Y-82045000D03*
%TO.P,CO2,5,SDA*%
%TO.N,Net-(CO2-SDA)*%
X134035000Y-82045000D03*
D16*
%TO.P,CO2,6*%
%TO.N,N/C*%
X118998200Y-64468200D03*
%TO.P,CO2,7*%
X139010860Y-64468200D03*
%TO.P,CO2,8*%
X118998200Y-81780840D03*
%TO.P,CO2,9*%
X139010860Y-81780840D03*
%TD*%
D20*
%TO.P,GND1,1,1*%
%TO.N,GND*%
X152400000Y-144780000D03*
%TD*%
D21*
%TO.N,Net-(ESP32-WROOM-32E1-TX)*%
X137160000Y-113030000D03*
%TO.N,Net-(ESP32-WROOM-32E1-RX)*%
X139700000Y-115570000D03*
%TO.N,Net-(ESP32-WROOM-32E1-SCK)*%
X142240000Y-104140000D03*
%TD*%
D22*
%TO.N,Net-(CO2-SDA)*%
X114300000Y-96520000D02*
X123875800Y-96520000D01*
X111760000Y-99060000D02*
X114300000Y-96520000D01*
%TO.N,Net-(CO2-SCL)*%
X117475000Y-99060000D02*
X123875800Y-99060000D01*
%TO.N,Net-(CO2-SDA)*%
X103963800Y-92914800D02*
X105614800Y-92914800D01*
X120270600Y-92914800D02*
X123875800Y-96520000D01*
X103963800Y-92914800D02*
X120270600Y-92914800D01*
%TO.N,Net-(CO2-SCL)*%
X125089800Y-97846000D02*
X123875800Y-99060000D01*
X119447456Y-90374800D02*
X125089800Y-96017144D01*
X125089800Y-96017144D02*
X125089800Y-97846000D01*
X103963800Y-90374800D02*
X119447456Y-90374800D01*
D23*
%TO.N,+5V*%
X114300000Y-120325000D02*
X122930800Y-120325000D01*
X122930800Y-120325000D02*
X123875800Y-119380000D01*
D22*
%TO.N,Net-(ESP32-WROOM-32E1-TX)*%
X159412000Y-133450000D02*
X152500000Y-133450000D01*
X144642656Y-113030000D02*
X137160000Y-113030000D01*
X147320000Y-115707344D02*
X144642656Y-113030000D01*
X147320000Y-128270000D02*
X147320000Y-115707344D01*
X152500000Y-133450000D02*
X147320000Y-128270000D01*
%TO.N,Net-(ESP32-WROOM-32E1-RX)*%
X144642656Y-115570000D02*
X139700000Y-115570000D01*
X159412000Y-135990000D02*
X152500000Y-135990000D01*
X152500000Y-135990000D02*
X146050000Y-129540000D01*
X146050000Y-129540000D02*
X146050000Y-116977344D01*
X146050000Y-116977344D02*
X144642656Y-115570000D01*
D23*
%TO.N,+3.3V*%
X146050000Y-132080000D02*
X144780000Y-132080000D01*
X155040000Y-141070000D02*
X146050000Y-132080000D01*
X159412000Y-141070000D02*
X155040000Y-141070000D01*
D22*
%TO.N,Net-(ESP32-WROOM-32E1-SCK)*%
X143454000Y-102926000D02*
X142240000Y-104140000D01*
X161854000Y-102926000D02*
X143454000Y-102926000D01*
X163168000Y-104240000D02*
X161854000Y-102926000D01*
%TO.N,Net-(ESP32-WROOM-32E1-MISO)*%
X163168000Y-106780000D02*
X146835800Y-106780000D01*
X146835800Y-106780000D02*
X144195800Y-104140000D01*
%TO.N,Net-(ESP32-WROOM-32E1-MOSI)*%
X146835800Y-109320000D02*
X144195800Y-106680000D01*
X163168000Y-109320000D02*
X146835800Y-109320000D01*
%TO.N,Net-(ESP32-WROOM-32E1-D04)*%
X163168000Y-111860000D02*
X148552656Y-111860000D01*
X148552656Y-111860000D02*
X144698656Y-108006000D01*
X144698656Y-108006000D02*
X130281800Y-108006000D01*
X130281800Y-108006000D02*
X123875800Y-101600000D01*
%TO.N,Net-(ESP32-WROOM-32E1-D06)*%
X149960000Y-114400000D02*
X145994000Y-110434000D01*
X163168000Y-114400000D02*
X149960000Y-114400000D01*
X145994000Y-110434000D02*
X130169800Y-110434000D01*
X130169800Y-110434000D02*
X123875800Y-104140000D01*
%TO.N,Net-(ESP32-WROOM-32E1-A2)*%
X140385800Y-123190000D02*
X144195800Y-119380000D01*
X97739200Y-123190000D02*
X140385800Y-123190000D01*
X96189800Y-121640600D02*
X97739200Y-123190000D01*
%TD*%
%TA.AperFunction,Conductor*%
%TO.N,+5V*%
G36*
X125479210Y-106628000D02*
G01*
X127618493Y-108767284D01*
X129668997Y-110817788D01*
X129678822Y-110830051D01*
X129679043Y-110829869D01*
X129684011Y-110835874D01*
X129733022Y-110881899D01*
X129735821Y-110884612D01*
X129755322Y-110904114D01*
X129755326Y-110904117D01*
X129755329Y-110904120D01*
X129758502Y-110906581D01*
X129767374Y-110914159D01*
X129799218Y-110944062D01*
X129816776Y-110953714D01*
X129833035Y-110964395D01*
X129848864Y-110976673D01*
X129888955Y-110994021D01*
X129899426Y-110999151D01*
X129921980Y-111011550D01*
X129937702Y-111020194D01*
X129937704Y-111020195D01*
X129937708Y-111020197D01*
X129957116Y-111025180D01*
X129975519Y-111031481D01*
X129993901Y-111039436D01*
X129993902Y-111039436D01*
X129993904Y-111039437D01*
X130037050Y-111046270D01*
X130048472Y-111048636D01*
X130090781Y-111059500D01*
X130110816Y-111059500D01*
X130130214Y-111061026D01*
X130149994Y-111064159D01*
X130149995Y-111064160D01*
X130149995Y-111064159D01*
X130149996Y-111064160D01*
X130193475Y-111060050D01*
X130205144Y-111059500D01*
X142795975Y-111059500D01*
X142863014Y-111079185D01*
X142908769Y-111131989D01*
X142918713Y-111201147D01*
X142909531Y-111233310D01*
X142877082Y-111307285D01*
X142820553Y-111530515D01*
X142801538Y-111759994D01*
X142801538Y-111760005D01*
X142820553Y-111989484D01*
X142877082Y-112212713D01*
X142884968Y-112230692D01*
X142893869Y-112299992D01*
X142863892Y-112363104D01*
X142804552Y-112399989D01*
X142771411Y-112404500D01*
X137863748Y-112404500D01*
X137796709Y-112384815D01*
X137771600Y-112363474D01*
X137765873Y-112357114D01*
X137765869Y-112357110D01*
X137612734Y-112245851D01*
X137612729Y-112245848D01*
X137439807Y-112168857D01*
X137439802Y-112168855D01*
X137294001Y-112137865D01*
X137254646Y-112129500D01*
X137065354Y-112129500D01*
X137032897Y-112136398D01*
X136880197Y-112168855D01*
X136880192Y-112168857D01*
X136707270Y-112245848D01*
X136707265Y-112245851D01*
X136554129Y-112357111D01*
X136427466Y-112497785D01*
X136332821Y-112661715D01*
X136332818Y-112661722D01*
X136274327Y-112841740D01*
X136274326Y-112841744D01*
X136254540Y-113030000D01*
X136274326Y-113218256D01*
X136274327Y-113218259D01*
X136332818Y-113398277D01*
X136332821Y-113398284D01*
X136427467Y-113562216D01*
X136529185Y-113675185D01*
X136554129Y-113702888D01*
X136707265Y-113814148D01*
X136707270Y-113814151D01*
X136880192Y-113891142D01*
X136880197Y-113891144D01*
X137065354Y-113930500D01*
X137065355Y-113930500D01*
X137254644Y-113930500D01*
X137254646Y-113930500D01*
X137439803Y-113891144D01*
X137612730Y-113814151D01*
X137765871Y-113702888D01*
X137768788Y-113699647D01*
X137771600Y-113696526D01*
X137831087Y-113659879D01*
X137863748Y-113655500D01*
X142771411Y-113655500D01*
X142838450Y-113675185D01*
X142884205Y-113727989D01*
X142894149Y-113797147D01*
X142884968Y-113829308D01*
X142877082Y-113847286D01*
X142820553Y-114070515D01*
X142801538Y-114299994D01*
X142801538Y-114300005D01*
X142820553Y-114529484D01*
X142877082Y-114752713D01*
X142884968Y-114770692D01*
X142893869Y-114839992D01*
X142863892Y-114903104D01*
X142804552Y-114939989D01*
X142771411Y-114944500D01*
X140403748Y-114944500D01*
X140336709Y-114924815D01*
X140311600Y-114903474D01*
X140305873Y-114897114D01*
X140305869Y-114897110D01*
X140152734Y-114785851D01*
X140152729Y-114785848D01*
X139979807Y-114708857D01*
X139979802Y-114708855D01*
X139834001Y-114677865D01*
X139794646Y-114669500D01*
X139605354Y-114669500D01*
X139572897Y-114676398D01*
X139420197Y-114708855D01*
X139420192Y-114708857D01*
X139247270Y-114785848D01*
X139247265Y-114785851D01*
X139094129Y-114897111D01*
X138967466Y-115037785D01*
X138872821Y-115201715D01*
X138872818Y-115201722D01*
X138818701Y-115368279D01*
X138814326Y-115381744D01*
X138794540Y-115570000D01*
X138814326Y-115758256D01*
X138814327Y-115758259D01*
X138872818Y-115938277D01*
X138872821Y-115938284D01*
X138967467Y-116102216D01*
X139069185Y-116215185D01*
X139094129Y-116242888D01*
X139247265Y-116354148D01*
X139247270Y-116354151D01*
X139420192Y-116431142D01*
X139420197Y-116431144D01*
X139605354Y-116470500D01*
X139605355Y-116470500D01*
X139794644Y-116470500D01*
X139794646Y-116470500D01*
X139979803Y-116431144D01*
X140152730Y-116354151D01*
X140305871Y-116242888D01*
X140308788Y-116239647D01*
X140311600Y-116236526D01*
X140371087Y-116199879D01*
X140403748Y-116195500D01*
X142771411Y-116195500D01*
X142838450Y-116215185D01*
X142884205Y-116267989D01*
X142894149Y-116337147D01*
X142884968Y-116369308D01*
X142877082Y-116387286D01*
X142820553Y-116610515D01*
X142801538Y-116839994D01*
X142801538Y-116840005D01*
X142820553Y-117069484D01*
X142877082Y-117292714D01*
X142969582Y-117503594D01*
X143095528Y-117696370D01*
X143095531Y-117696373D01*
X143251492Y-117865792D01*
X143368391Y-117956778D01*
X143437259Y-118010380D01*
X143436276Y-118011641D01*
X143476983Y-118059349D01*
X143486400Y-118128581D01*
X143456892Y-118191914D01*
X143436936Y-118209205D01*
X143437259Y-118209620D01*
X143251494Y-118354206D01*
X143251489Y-118354211D01*
X143095528Y-118523629D01*
X142969582Y-118716405D01*
X142877082Y-118927285D01*
X142820553Y-119150515D01*
X142801538Y-119379994D01*
X142801538Y-119380005D01*
X142820553Y-119609484D01*
X142856030Y-119749581D01*
X142853405Y-119819401D01*
X142823505Y-119867702D01*
X140163028Y-122528181D01*
X140101705Y-122561666D01*
X140075347Y-122564500D01*
X125300189Y-122564500D01*
X125233150Y-122544815D01*
X125187395Y-122492011D01*
X125177451Y-122422853D01*
X125186632Y-122390692D01*
X125194517Y-122372716D01*
X125251046Y-122149488D01*
X125270062Y-121920000D01*
X125265925Y-121870079D01*
X125257384Y-121767008D01*
X125251046Y-121690512D01*
X125194517Y-121467284D01*
X125102017Y-121256405D01*
X125093658Y-121243611D01*
X124976071Y-121063629D01*
X124889270Y-120969338D01*
X124820108Y-120894208D01*
X124698233Y-120799349D01*
X124634341Y-120749620D01*
X124635228Y-120748480D01*
X124594163Y-120700366D01*
X124584738Y-120631135D01*
X124614237Y-120567798D01*
X124634371Y-120550352D01*
X124634066Y-120549960D01*
X124666758Y-120524513D01*
X124666759Y-120524511D01*
X124044404Y-119902156D01*
X124162212Y-119850985D01*
X124278662Y-119756246D01*
X124365233Y-119633603D01*
X124396100Y-119546747D01*
X125019038Y-120169685D01*
X125101572Y-120043359D01*
X125101577Y-120043351D01*
X125194042Y-119832553D01*
X125250550Y-119609408D01*
X125250552Y-119609396D01*
X125269560Y-119380005D01*
X125269560Y-119379994D01*
X125250552Y-119150603D01*
X125250550Y-119150591D01*
X125194042Y-118927446D01*
X125101574Y-118716642D01*
X125019038Y-118590313D01*
X124398430Y-119210921D01*
X124395206Y-119195403D01*
X124326142Y-119062114D01*
X124223677Y-118952402D01*
X124095412Y-118874402D01*
X124042632Y-118859613D01*
X124666758Y-118235486D01*
X124666758Y-118235484D01*
X124634067Y-118210040D01*
X124635009Y-118208829D01*
X124594155Y-118160947D01*
X124584741Y-118091714D01*
X124614250Y-118028382D01*
X124634620Y-118010738D01*
X124634341Y-118010380D01*
X124670974Y-117981866D01*
X124820108Y-117865792D01*
X124976069Y-117696373D01*
X125102017Y-117503595D01*
X125194517Y-117292716D01*
X125251046Y-117069488D01*
X125261942Y-116937994D01*
X125270062Y-116840005D01*
X125270062Y-116839994D01*
X125251046Y-116610515D01*
X125251046Y-116610512D01*
X125194517Y-116387284D01*
X125102017Y-116176405D01*
X124998393Y-116017796D01*
X124976071Y-115983629D01*
X124926808Y-115930115D01*
X124820108Y-115814208D01*
X124672715Y-115699488D01*
X124634341Y-115669620D01*
X124635325Y-115668354D01*
X124594624Y-115620670D01*
X124585196Y-115551439D01*
X124614693Y-115488102D01*
X124634665Y-115470796D01*
X124634341Y-115470380D01*
X124673749Y-115439707D01*
X124820108Y-115325792D01*
X124976069Y-115156373D01*
X125102017Y-114963595D01*
X125194517Y-114752716D01*
X125251046Y-114529488D01*
X125261776Y-114399994D01*
X125270062Y-114300005D01*
X125270062Y-114299994D01*
X125251046Y-114070515D01*
X125251046Y-114070512D01*
X125194517Y-113847284D01*
X125102017Y-113636405D01*
X125053546Y-113562214D01*
X124976071Y-113443629D01*
X124912164Y-113374208D01*
X124820108Y-113274208D01*
X124726236Y-113201144D01*
X124634341Y-113129620D01*
X124635325Y-113128354D01*
X124594624Y-113080670D01*
X124585196Y-113011439D01*
X124614693Y-112948102D01*
X124634665Y-112930796D01*
X124634341Y-112930380D01*
X124685491Y-112890568D01*
X124820108Y-112785792D01*
X124976069Y-112616373D01*
X125102017Y-112423595D01*
X125194517Y-112212716D01*
X125251046Y-111989488D01*
X125270062Y-111760000D01*
X125251046Y-111530512D01*
X125194517Y-111307284D01*
X125102017Y-111096405D01*
X125080853Y-111064011D01*
X124976071Y-110903629D01*
X124912164Y-110834208D01*
X124820108Y-110734208D01*
X124638389Y-110592771D01*
X124638390Y-110592771D01*
X124634341Y-110589620D01*
X124635325Y-110588354D01*
X124594624Y-110540670D01*
X124585196Y-110471439D01*
X124614693Y-110408102D01*
X124634665Y-110390796D01*
X124634341Y-110390380D01*
X124691627Y-110345792D01*
X124820108Y-110245792D01*
X124976069Y-110076373D01*
X125102017Y-109883595D01*
X125194517Y-109672716D01*
X125251046Y-109449488D01*
X125270062Y-109220000D01*
X125251046Y-108990512D01*
X125194517Y-108767284D01*
X125102017Y-108556405D01*
X125096965Y-108548672D01*
X124976071Y-108363629D01*
X124912164Y-108294208D01*
X124820108Y-108194208D01*
X124638389Y-108052771D01*
X124638390Y-108052771D01*
X124634341Y-108049620D01*
X124635325Y-108048354D01*
X124594624Y-108000670D01*
X124585196Y-107931439D01*
X124614693Y-107868102D01*
X124634665Y-107850796D01*
X124634341Y-107850380D01*
X124691627Y-107805792D01*
X124820108Y-107705792D01*
X124976069Y-107536373D01*
X125102017Y-107343595D01*
X125194517Y-107132716D01*
X125251046Y-106909488D01*
X125267954Y-106705442D01*
X125293107Y-106640257D01*
X125349509Y-106599019D01*
X125419252Y-106594821D01*
X125479210Y-106628000D01*
G37*
%TD.AperFunction*%
%TA.AperFunction,Conductor*%
G36*
X195522539Y-50820185D02*
G01*
X195568294Y-50872989D01*
X195579500Y-50924500D01*
X195579500Y-164975500D01*
X195559815Y-165042539D01*
X195507011Y-165088294D01*
X195455500Y-165099500D01*
X50924500Y-165099500D01*
X50857461Y-165079815D01*
X50811706Y-165027011D01*
X50800500Y-164975500D01*
X50800500Y-153809700D01*
X54117156Y-153809700D01*
X54137318Y-154194423D01*
X54197584Y-154574922D01*
X54197584Y-154574924D01*
X54297297Y-154947058D01*
X54435357Y-155306715D01*
X54610257Y-155649976D01*
X54820071Y-155973062D01*
X54820073Y-155973064D01*
X54820076Y-155973068D01*
X54820077Y-155973069D01*
X55062523Y-156272465D01*
X55334935Y-156544877D01*
X55334939Y-156544880D01*
X55634335Y-156787326D01*
X55634337Y-156787328D01*
X55957423Y-156997142D01*
X55957428Y-156997145D01*
X56300688Y-157172044D01*
X56660349Y-157310105D01*
X57032472Y-157409815D01*
X57412978Y-157470082D01*
X57776421Y-157489128D01*
X57797699Y-157490244D01*
X57797700Y-157490244D01*
X57797701Y-157490244D01*
X57817863Y-157489187D01*
X58182422Y-157470082D01*
X58562928Y-157409815D01*
X58935051Y-157310105D01*
X59294712Y-157172044D01*
X59637972Y-156997145D01*
X59789754Y-156898576D01*
X59961062Y-156787328D01*
X59961064Y-156787326D01*
X59961069Y-156787323D01*
X60260465Y-156544877D01*
X60532877Y-156272465D01*
X60775323Y-155973069D01*
X60985145Y-155649972D01*
X61160044Y-155306712D01*
X61298105Y-154947051D01*
X61397815Y-154574928D01*
X61458082Y-154194422D01*
X61478244Y-153809700D01*
X68112556Y-153809700D01*
X68132718Y-154194423D01*
X68192984Y-154574922D01*
X68192984Y-154574924D01*
X68292697Y-154947058D01*
X68430757Y-155306715D01*
X68605657Y-155649976D01*
X68815471Y-155973062D01*
X68815473Y-155973064D01*
X68815476Y-155973068D01*
X68815477Y-155973069D01*
X69057923Y-156272465D01*
X69330335Y-156544877D01*
X69330339Y-156544880D01*
X69629735Y-156787326D01*
X69629737Y-156787328D01*
X69952823Y-156997142D01*
X69952828Y-156997145D01*
X70296088Y-157172044D01*
X70655749Y-157310105D01*
X71027872Y-157409815D01*
X71408378Y-157470082D01*
X71771821Y-157489128D01*
X71793099Y-157490244D01*
X71793100Y-157490244D01*
X71793101Y-157490244D01*
X71813263Y-157489187D01*
X72177822Y-157470082D01*
X72558328Y-157409815D01*
X72930451Y-157310105D01*
X73290112Y-157172044D01*
X73633372Y-156997145D01*
X73785154Y-156898576D01*
X73956462Y-156787328D01*
X73956464Y-156787326D01*
X73956469Y-156787323D01*
X74255865Y-156544877D01*
X74528277Y-156272465D01*
X74770723Y-155973069D01*
X74980545Y-155649972D01*
X75155444Y-155306712D01*
X75293505Y-154947051D01*
X75393215Y-154574928D01*
X75453482Y-154194422D01*
X75473644Y-153809700D01*
X75453482Y-153424978D01*
X75393215Y-153044472D01*
X75293505Y-152672349D01*
X75188960Y-152400001D01*
X145314390Y-152400001D01*
X145334804Y-152685433D01*
X145395628Y-152965037D01*
X145395630Y-152965043D01*
X145395631Y-152965046D01*
X145495557Y-153232958D01*
X145495635Y-153233166D01*
X145632770Y-153484309D01*
X145632775Y-153484317D01*
X145804254Y-153713387D01*
X145804270Y-153713405D01*
X146006594Y-153915729D01*
X146006612Y-153915745D01*
X146235682Y-154087224D01*
X146235690Y-154087229D01*
X146486833Y-154224364D01*
X146486832Y-154224364D01*
X146486836Y-154224365D01*
X146486839Y-154224367D01*
X146754954Y-154324369D01*
X146754960Y-154324370D01*
X146754962Y-154324371D01*
X147034566Y-154385195D01*
X147034568Y-154385195D01*
X147034572Y-154385196D01*
X147288220Y-154403337D01*
X147319999Y-154405610D01*
X147320000Y-154405610D01*
X147320001Y-154405610D01*
X147348595Y-154403564D01*
X147605428Y-154385196D01*
X147885046Y-154324369D01*
X148153161Y-154224367D01*
X148404315Y-154087226D01*
X148633395Y-153915739D01*
X148835739Y-153713395D01*
X149007226Y-153484315D01*
X149144367Y-153233161D01*
X149244369Y-152965046D01*
X149269196Y-152850918D01*
X149305195Y-152685433D01*
X149305195Y-152685432D01*
X149305196Y-152685428D01*
X149325610Y-152400001D01*
X152934891Y-152400001D01*
X152955300Y-152685362D01*
X153016109Y-152964895D01*
X153116091Y-153232958D01*
X153253191Y-153484038D01*
X153253196Y-153484046D01*
X153359882Y-153626561D01*
X153359883Y-153626562D01*
X154262803Y-152723641D01*
X154286059Y-152777553D01*
X154390756Y-152918185D01*
X154525062Y-153030882D01*
X154616665Y-153076886D01*
X153713436Y-153980115D01*
X153855960Y-154086807D01*
X153855961Y-154086808D01*
X154107042Y-154223908D01*
X154107041Y-154223908D01*
X154375104Y-154323890D01*
X154654637Y-154384699D01*
X154939999Y-154405109D01*
X154940001Y-154405109D01*
X155225362Y-154384699D01*
X155504895Y-154323890D01*
X155772958Y-154223908D01*
X156024047Y-154086803D01*
X156166561Y-153980116D01*
X156166562Y-153980115D01*
X155996147Y-153809700D01*
X186120956Y-153809700D01*
X186141118Y-154194423D01*
X186201384Y-154574922D01*
X186201384Y-154574924D01*
X186301097Y-154947058D01*
X186439157Y-155306715D01*
X186614057Y-155649976D01*
X186823871Y-155973062D01*
X186823873Y-155973064D01*
X186823876Y-155973068D01*
X186823877Y-155973069D01*
X187066323Y-156272465D01*
X187338735Y-156544877D01*
X187338739Y-156544880D01*
X187638135Y-156787326D01*
X187638137Y-156787328D01*
X187961223Y-156997142D01*
X187961228Y-156997145D01*
X188304488Y-157172044D01*
X188664149Y-157310105D01*
X189036272Y-157409815D01*
X189416778Y-157470082D01*
X189780221Y-157489128D01*
X189801499Y-157490244D01*
X189801500Y-157490244D01*
X189801501Y-157490244D01*
X189821663Y-157489187D01*
X190186222Y-157470082D01*
X190566728Y-157409815D01*
X190938851Y-157310105D01*
X191298512Y-157172044D01*
X191641772Y-156997145D01*
X191793554Y-156898576D01*
X191964862Y-156787328D01*
X191964864Y-156787326D01*
X191964869Y-156787323D01*
X192264265Y-156544877D01*
X192536677Y-156272465D01*
X192779123Y-155973069D01*
X192988945Y-155649972D01*
X193163844Y-155306712D01*
X193301905Y-154947051D01*
X193401615Y-154574928D01*
X193461882Y-154194422D01*
X193482044Y-153809700D01*
X193461882Y-153424978D01*
X193401615Y-153044472D01*
X193301905Y-152672349D01*
X193163844Y-152312688D01*
X192988945Y-151969428D01*
X192975732Y-151949082D01*
X192779128Y-151646337D01*
X192779126Y-151646335D01*
X192714752Y-151566839D01*
X192536677Y-151346935D01*
X192264265Y-151074523D01*
X191964869Y-150832077D01*
X191964868Y-150832076D01*
X191964864Y-150832073D01*
X191964862Y-150832071D01*
X191641776Y-150622257D01*
X191298515Y-150447357D01*
X190938858Y-150309297D01*
X190938851Y-150309295D01*
X190566728Y-150209585D01*
X190566724Y-150209584D01*
X190566723Y-150209584D01*
X190186223Y-150149318D01*
X189801501Y-150129156D01*
X189801499Y-150129156D01*
X189416776Y-150149318D01*
X189036277Y-150209584D01*
X189036275Y-150209584D01*
X188664141Y-150309297D01*
X188304484Y-150447357D01*
X187961223Y-150622257D01*
X187638137Y-150832071D01*
X187638135Y-150832073D01*
X187338739Y-151074519D01*
X187338731Y-151074526D01*
X187066326Y-151346931D01*
X187066319Y-151346939D01*
X186823873Y-151646335D01*
X186823871Y-151646337D01*
X186614057Y-151969423D01*
X186439157Y-152312684D01*
X186301097Y-152672341D01*
X186201384Y-153044475D01*
X186201384Y-153044477D01*
X186141118Y-153424976D01*
X186120956Y-153809699D01*
X186120956Y-153809700D01*
X155996147Y-153809700D01*
X155265946Y-153079498D01*
X155278891Y-153074787D01*
X155425373Y-152978445D01*
X155545688Y-152850918D01*
X155618447Y-152724894D01*
X156520115Y-153626562D01*
X156520116Y-153626561D01*
X156626803Y-153484047D01*
X156763908Y-153232958D01*
X156863890Y-152964895D01*
X156924699Y-152685362D01*
X156945109Y-152400001D01*
X156945109Y-152399998D01*
X156924699Y-152114637D01*
X156863890Y-151835104D01*
X156763908Y-151567041D01*
X156626808Y-151315961D01*
X156626807Y-151315960D01*
X156520115Y-151173436D01*
X155617195Y-152076356D01*
X155593941Y-152022447D01*
X155489244Y-151881815D01*
X155354938Y-151769118D01*
X155263333Y-151723112D01*
X156166562Y-150819883D01*
X156166561Y-150819882D01*
X156024046Y-150713196D01*
X156024038Y-150713191D01*
X155772957Y-150576091D01*
X155772958Y-150576091D01*
X155504895Y-150476109D01*
X155225362Y-150415300D01*
X154940001Y-150394891D01*
X154939999Y-150394891D01*
X154654637Y-150415300D01*
X154375104Y-150476109D01*
X154107041Y-150576091D01*
X153855961Y-150713191D01*
X153855953Y-150713196D01*
X153713437Y-150819882D01*
X153713436Y-150819883D01*
X154614054Y-151720501D01*
X154601109Y-151725213D01*
X154454627Y-151821555D01*
X154334312Y-151949082D01*
X154261552Y-152075105D01*
X153359883Y-151173436D01*
X153359882Y-151173437D01*
X153253196Y-151315953D01*
X153253191Y-151315961D01*
X153116091Y-151567041D01*
X153016109Y-151835104D01*
X152955300Y-152114637D01*
X152934891Y-152399998D01*
X152934891Y-152400001D01*
X149325610Y-152400001D01*
X149325610Y-152400000D01*
X149305196Y-152114572D01*
X149285155Y-152022447D01*
X149244371Y-151834962D01*
X149244370Y-151834960D01*
X149244369Y-151834954D01*
X149144367Y-151566839D01*
X149007372Y-151315953D01*
X149007229Y-151315690D01*
X149007224Y-151315682D01*
X148835745Y-151086612D01*
X148835729Y-151086594D01*
X148633405Y-150884270D01*
X148633387Y-150884254D01*
X148404317Y-150712775D01*
X148404309Y-150712770D01*
X148153166Y-150575635D01*
X148153167Y-150575635D01*
X148045915Y-150535632D01*
X147885046Y-150475631D01*
X147885043Y-150475630D01*
X147885037Y-150475628D01*
X147605433Y-150414804D01*
X147320001Y-150394390D01*
X147319999Y-150394390D01*
X147034566Y-150414804D01*
X146754962Y-150475628D01*
X146486833Y-150575635D01*
X146235690Y-150712770D01*
X146235682Y-150712775D01*
X146006612Y-150884254D01*
X146006594Y-150884270D01*
X145804270Y-151086594D01*
X145804254Y-151086612D01*
X145632775Y-151315682D01*
X145632770Y-151315690D01*
X145495635Y-151566833D01*
X145395628Y-151834962D01*
X145334804Y-152114566D01*
X145314390Y-152399998D01*
X145314390Y-152400001D01*
X75188960Y-152400001D01*
X75155444Y-152312688D01*
X74980545Y-151969428D01*
X74967332Y-151949082D01*
X74770728Y-151646337D01*
X74770726Y-151646335D01*
X74706352Y-151566839D01*
X74528277Y-151346935D01*
X74255865Y-151074523D01*
X73956469Y-150832077D01*
X73956468Y-150832076D01*
X73956464Y-150832073D01*
X73956462Y-150832071D01*
X73633376Y-150622257D01*
X73290115Y-150447357D01*
X72930458Y-150309297D01*
X72930451Y-150309295D01*
X72558328Y-150209585D01*
X72558324Y-150209584D01*
X72558323Y-150209584D01*
X72177823Y-150149318D01*
X71793101Y-150129156D01*
X71793099Y-150129156D01*
X71408376Y-150149318D01*
X71027877Y-150209584D01*
X71027875Y-150209584D01*
X70655741Y-150309297D01*
X70296084Y-150447357D01*
X69952823Y-150622257D01*
X69629737Y-150832071D01*
X69629735Y-150832073D01*
X69330339Y-151074519D01*
X69330331Y-151074526D01*
X69057926Y-151346931D01*
X69057919Y-151346939D01*
X68815473Y-151646335D01*
X68815471Y-151646337D01*
X68605657Y-151969423D01*
X68430757Y-152312684D01*
X68292697Y-152672341D01*
X68192984Y-153044475D01*
X68192984Y-153044477D01*
X68132718Y-153424976D01*
X68112556Y-153809699D01*
X68112556Y-153809700D01*
X61478244Y-153809700D01*
X61458082Y-153424978D01*
X61397815Y-153044472D01*
X61298105Y-152672349D01*
X61160044Y-152312688D01*
X60985145Y-151969428D01*
X60971932Y-151949082D01*
X60775328Y-151646337D01*
X60775326Y-151646335D01*
X60710952Y-151566839D01*
X60532877Y-151346935D01*
X60260465Y-151074523D01*
X59961069Y-150832077D01*
X59961068Y-150832076D01*
X59961064Y-150832073D01*
X59961062Y-150832071D01*
X59637976Y-150622257D01*
X59294715Y-150447357D01*
X58935058Y-150309297D01*
X58935051Y-150309295D01*
X58562928Y-150209585D01*
X58562924Y-150209584D01*
X58562923Y-150209584D01*
X58182423Y-150149318D01*
X57797701Y-150129156D01*
X57797699Y-150129156D01*
X57412976Y-150149318D01*
X57032477Y-150209584D01*
X57032475Y-150209584D01*
X56660341Y-150309297D01*
X56300684Y-150447357D01*
X55957423Y-150622257D01*
X55634337Y-150832071D01*
X55634335Y-150832073D01*
X55334939Y-151074519D01*
X55334931Y-151074526D01*
X55062526Y-151346931D01*
X55062519Y-151346939D01*
X54820073Y-151646335D01*
X54820071Y-151646337D01*
X54610257Y-151969423D01*
X54435357Y-152312684D01*
X54297297Y-152672341D01*
X54197584Y-153044475D01*
X54197584Y-153044477D01*
X54137318Y-153424976D01*
X54117156Y-153809699D01*
X54117156Y-153809700D01*
X50800500Y-153809700D01*
X50800500Y-146011905D01*
X123027644Y-146011905D01*
X123046648Y-146313974D01*
X123046649Y-146313981D01*
X123046650Y-146313985D01*
X123102043Y-146604367D01*
X123103368Y-146611310D01*
X123153369Y-146765196D01*
X123196901Y-146899174D01*
X123325777Y-147173050D01*
X123325779Y-147173053D01*
X123325780Y-147173055D01*
X123487958Y-147428608D01*
X123487961Y-147428612D01*
X123487962Y-147428613D01*
X123680899Y-147661834D01*
X123901543Y-147869032D01*
X123901553Y-147869040D01*
X124146408Y-148046938D01*
X124146413Y-148046940D01*
X124146420Y-148046946D01*
X124411663Y-148192765D01*
X124411668Y-148192767D01*
X124411670Y-148192768D01*
X124411671Y-148192769D01*
X124693086Y-148304189D01*
X124693089Y-148304190D01*
X124986259Y-148379463D01*
X124986263Y-148379464D01*
X125049260Y-148387422D01*
X125286547Y-148417399D01*
X125286556Y-148417399D01*
X125286559Y-148417400D01*
X125286561Y-148417400D01*
X125589239Y-148417400D01*
X125589241Y-148417400D01*
X125589244Y-148417399D01*
X125589252Y-148417399D01*
X125768439Y-148394762D01*
X125889537Y-148379464D01*
X126182710Y-148304190D01*
X126182713Y-148304189D01*
X126464128Y-148192769D01*
X126464129Y-148192768D01*
X126464127Y-148192768D01*
X126464137Y-148192765D01*
X126729380Y-148046946D01*
X126974255Y-147869034D01*
X127194901Y-147661834D01*
X127387838Y-147428613D01*
X127550023Y-147173050D01*
X127678899Y-146899174D01*
X127772433Y-146611306D01*
X127829150Y-146313985D01*
X127848156Y-146011905D01*
X140223444Y-146011905D01*
X140242448Y-146313974D01*
X140242449Y-146313981D01*
X140242450Y-146313985D01*
X140297843Y-146604367D01*
X140299168Y-146611310D01*
X140349169Y-146765196D01*
X140392701Y-146899174D01*
X140521577Y-147173050D01*
X140521579Y-147173053D01*
X140521580Y-147173055D01*
X140683758Y-147428608D01*
X140683761Y-147428612D01*
X140683762Y-147428613D01*
X140876699Y-147661834D01*
X141097343Y-147869032D01*
X141097353Y-147869040D01*
X141342208Y-148046938D01*
X141342213Y-148046940D01*
X141342220Y-148046946D01*
X141607463Y-148192765D01*
X141607468Y-148192767D01*
X141607470Y-148192768D01*
X141607471Y-148192769D01*
X141888886Y-148304189D01*
X141888889Y-148304190D01*
X142182059Y-148379463D01*
X142182063Y-148379464D01*
X142245060Y-148387422D01*
X142482347Y-148417399D01*
X142482356Y-148417399D01*
X142482359Y-148417400D01*
X142482361Y-148417400D01*
X142785039Y-148417400D01*
X142785041Y-148417400D01*
X142785044Y-148417399D01*
X142785052Y-148417399D01*
X142964239Y-148394762D01*
X143085337Y-148379464D01*
X143378510Y-148304190D01*
X143378513Y-148304189D01*
X143659928Y-148192769D01*
X143659929Y-148192768D01*
X143659927Y-148192768D01*
X143659937Y-148192765D01*
X143925180Y-148046946D01*
X144170055Y-147869034D01*
X144390701Y-147661834D01*
X144583638Y-147428613D01*
X144745823Y-147173050D01*
X144874699Y-146899174D01*
X144968233Y-146611306D01*
X145024950Y-146313985D01*
X145043956Y-146011900D01*
X145034670Y-145864309D01*
X145024951Y-145709825D01*
X145024950Y-145709818D01*
X145024950Y-145709815D01*
X144968233Y-145412494D01*
X144874699Y-145124626D01*
X144745823Y-144850750D01*
X144700924Y-144780001D01*
X150394390Y-144780001D01*
X150414804Y-145065433D01*
X150475628Y-145345037D01*
X150575635Y-145613166D01*
X150712770Y-145864309D01*
X150712775Y-145864317D01*
X150884254Y-146093387D01*
X150884270Y-146093405D01*
X151086594Y-146295729D01*
X151086612Y-146295745D01*
X151315682Y-146467224D01*
X151315690Y-146467229D01*
X151566833Y-146604364D01*
X151566832Y-146604364D01*
X151566836Y-146604365D01*
X151566839Y-146604367D01*
X151834954Y-146704369D01*
X151834960Y-146704370D01*
X151834962Y-146704371D01*
X152114566Y-146765195D01*
X152114568Y-146765195D01*
X152114572Y-146765196D01*
X152368220Y-146783337D01*
X152399999Y-146785610D01*
X152400000Y-146785610D01*
X152400001Y-146785610D01*
X152428595Y-146783564D01*
X152685428Y-146765196D01*
X152965046Y-146704369D01*
X153233161Y-146604367D01*
X153484315Y-146467226D01*
X153713395Y-146295739D01*
X153915739Y-146093395D01*
X154087226Y-145864315D01*
X154224367Y-145613161D01*
X154324369Y-145345046D01*
X154373041Y-145121305D01*
X178553644Y-145121305D01*
X178572648Y-145423374D01*
X178572649Y-145423381D01*
X178572650Y-145423385D01*
X178629367Y-145720706D01*
X178722901Y-146008574D01*
X178851777Y-146282450D01*
X178851779Y-146282453D01*
X178851780Y-146282455D01*
X179013958Y-146538008D01*
X179013961Y-146538012D01*
X179013962Y-146538013D01*
X179206899Y-146771234D01*
X179343142Y-146899174D01*
X179427543Y-146978432D01*
X179427553Y-146978440D01*
X179672408Y-147156338D01*
X179672413Y-147156340D01*
X179672420Y-147156346D01*
X179937663Y-147302165D01*
X179937668Y-147302167D01*
X179937670Y-147302168D01*
X179937671Y-147302169D01*
X180219086Y-147413589D01*
X180219089Y-147413590D01*
X180512259Y-147488863D01*
X180512263Y-147488864D01*
X180575260Y-147496822D01*
X180812547Y-147526799D01*
X180812556Y-147526799D01*
X180812559Y-147526800D01*
X180812561Y-147526800D01*
X181115239Y-147526800D01*
X181115241Y-147526800D01*
X181115244Y-147526799D01*
X181115252Y-147526799D01*
X181294439Y-147504162D01*
X181415537Y-147488864D01*
X181708710Y-147413590D01*
X181708713Y-147413589D01*
X181990128Y-147302169D01*
X181990129Y-147302168D01*
X181990127Y-147302168D01*
X181990137Y-147302165D01*
X182255380Y-147156346D01*
X182500255Y-146978434D01*
X182720901Y-146771234D01*
X182913838Y-146538013D01*
X183076023Y-146282450D01*
X183204899Y-146008574D01*
X183298433Y-145720706D01*
X183355150Y-145423385D01*
X183355151Y-145423374D01*
X183374156Y-145121305D01*
X183374156Y-145121294D01*
X183355151Y-144819225D01*
X183355150Y-144819218D01*
X183355150Y-144819215D01*
X183298433Y-144521894D01*
X183204899Y-144234026D01*
X183076023Y-143960150D01*
X182923372Y-143719610D01*
X182913841Y-143704591D01*
X182913838Y-143704587D01*
X182720901Y-143471366D01*
X182500255Y-143264166D01*
X182500252Y-143264164D01*
X182500246Y-143264159D01*
X182255391Y-143086261D01*
X182255384Y-143086256D01*
X182255380Y-143086254D01*
X181990137Y-142940435D01*
X181990134Y-142940433D01*
X181990129Y-142940431D01*
X181990128Y-142940430D01*
X181708713Y-142829010D01*
X181708710Y-142829009D01*
X181415540Y-142753736D01*
X181415527Y-142753734D01*
X181115252Y-142715800D01*
X181115241Y-142715800D01*
X180812559Y-142715800D01*
X180812547Y-142715800D01*
X180512272Y-142753734D01*
X180512259Y-142753736D01*
X180219089Y-142829009D01*
X180219086Y-142829010D01*
X179937671Y-142940430D01*
X179937670Y-142940431D01*
X179672420Y-143086254D01*
X179672408Y-143086261D01*
X179427553Y-143264159D01*
X179427543Y-143264167D01*
X179206901Y-143471364D01*
X179013958Y-143704591D01*
X178851780Y-143960144D01*
X178851777Y-143960148D01*
X178851777Y-143960150D01*
X178760201Y-144154759D01*
X178722900Y-144234028D01*
X178629368Y-144521889D01*
X178572649Y-144819218D01*
X178572648Y-144819225D01*
X178553644Y-145121294D01*
X178553644Y-145121305D01*
X154373041Y-145121305D01*
X154385196Y-145065428D01*
X154405610Y-144780000D01*
X154385196Y-144494572D01*
X154356349Y-144361966D01*
X154324371Y-144214962D01*
X154324370Y-144214960D01*
X154324369Y-144214954D01*
X154224367Y-143946839D01*
X154161130Y-143831030D01*
X154087229Y-143695690D01*
X154087224Y-143695682D01*
X153915745Y-143466612D01*
X153915729Y-143466594D01*
X153713405Y-143264270D01*
X153713387Y-143264254D01*
X153484317Y-143092775D01*
X153484309Y-143092770D01*
X153233166Y-142955635D01*
X153233167Y-142955635D01*
X153125915Y-142915632D01*
X152965046Y-142855631D01*
X152965043Y-142855630D01*
X152965037Y-142855628D01*
X152685433Y-142794804D01*
X152400001Y-142774390D01*
X152399999Y-142774390D01*
X152114566Y-142794804D01*
X151834962Y-142855628D01*
X151566833Y-142955635D01*
X151315690Y-143092770D01*
X151315682Y-143092775D01*
X151086612Y-143264254D01*
X151086594Y-143264270D01*
X150884270Y-143466594D01*
X150884254Y-143466612D01*
X150712775Y-143695682D01*
X150712770Y-143695690D01*
X150575635Y-143946833D01*
X150475628Y-144214962D01*
X150414804Y-144494566D01*
X150394390Y-144779998D01*
X150394390Y-144780001D01*
X144700924Y-144780001D01*
X144583638Y-144595187D01*
X144390701Y-144361966D01*
X144170055Y-144154766D01*
X144170052Y-144154764D01*
X144170046Y-144154759D01*
X143925191Y-143976861D01*
X143925184Y-143976856D01*
X143925180Y-143976854D01*
X143659937Y-143831035D01*
X143659934Y-143831033D01*
X143659929Y-143831031D01*
X143659928Y-143831030D01*
X143378513Y-143719610D01*
X143378510Y-143719609D01*
X143085340Y-143644336D01*
X143085327Y-143644334D01*
X142785052Y-143606400D01*
X142785041Y-143606400D01*
X142482359Y-143606400D01*
X142482347Y-143606400D01*
X142182072Y-143644334D01*
X142182059Y-143644336D01*
X141888889Y-143719609D01*
X141888886Y-143719610D01*
X141607471Y-143831030D01*
X141607470Y-143831031D01*
X141342220Y-143976854D01*
X141342208Y-143976861D01*
X141097353Y-144154759D01*
X141097343Y-144154767D01*
X140876701Y-144361964D01*
X140683758Y-144595191D01*
X140521580Y-144850744D01*
X140392700Y-145124628D01*
X140299168Y-145412489D01*
X140242449Y-145709818D01*
X140242448Y-145709825D01*
X140223444Y-146011894D01*
X140223444Y-146011905D01*
X127848156Y-146011905D01*
X127848156Y-146011900D01*
X127838870Y-145864309D01*
X127829151Y-145709825D01*
X127829150Y-145709818D01*
X127829150Y-145709815D01*
X127772433Y-145412494D01*
X127678899Y-145124626D01*
X127550023Y-144850750D01*
X127387838Y-144595187D01*
X127194901Y-144361966D01*
X126974255Y-144154766D01*
X126974252Y-144154764D01*
X126974246Y-144154759D01*
X126729391Y-143976861D01*
X126729384Y-143976856D01*
X126729380Y-143976854D01*
X126464137Y-143831035D01*
X126464134Y-143831033D01*
X126464129Y-143831031D01*
X126464128Y-143831030D01*
X126182713Y-143719610D01*
X126182710Y-143719609D01*
X125889540Y-143644336D01*
X125889527Y-143644334D01*
X125589252Y-143606400D01*
X125589241Y-143606400D01*
X125286559Y-143606400D01*
X125286547Y-143606400D01*
X124986272Y-143644334D01*
X124986259Y-143644336D01*
X124693089Y-143719609D01*
X124693086Y-143719610D01*
X124411671Y-143831030D01*
X124411670Y-143831031D01*
X124146420Y-143976854D01*
X124146408Y-143976861D01*
X123901553Y-144154759D01*
X123901543Y-144154767D01*
X123680901Y-144361964D01*
X123487958Y-144595191D01*
X123325780Y-144850744D01*
X123196900Y-145124628D01*
X123103368Y-145412489D01*
X123046649Y-145709818D01*
X123046648Y-145709825D01*
X123027644Y-146011894D01*
X123027644Y-146011905D01*
X50800500Y-146011905D01*
X50800500Y-137160005D01*
X61623144Y-137160005D01*
X61642148Y-137462074D01*
X61642149Y-137462081D01*
X61642150Y-137462085D01*
X61698867Y-137759406D01*
X61792401Y-138047274D01*
X61921277Y-138321150D01*
X61921279Y-138321153D01*
X61921280Y-138321155D01*
X62083458Y-138576708D01*
X62083461Y-138576712D01*
X62083462Y-138576713D01*
X62276399Y-138809934D01*
X62497043Y-139017132D01*
X62497053Y-139017140D01*
X62741908Y-139195038D01*
X62741913Y-139195040D01*
X62741920Y-139195046D01*
X63007163Y-139340865D01*
X63007168Y-139340867D01*
X63007170Y-139340868D01*
X63007171Y-139340869D01*
X63288586Y-139452289D01*
X63288589Y-139452290D01*
X63581759Y-139527563D01*
X63581763Y-139527564D01*
X63644760Y-139535522D01*
X63882047Y-139565499D01*
X63882056Y-139565499D01*
X63882059Y-139565500D01*
X63882061Y-139565500D01*
X64184739Y-139565500D01*
X64184741Y-139565500D01*
X64184744Y-139565499D01*
X64184752Y-139565499D01*
X64363939Y-139542862D01*
X64485037Y-139527564D01*
X64778210Y-139452290D01*
X64778213Y-139452289D01*
X65059628Y-139340869D01*
X65059629Y-139340868D01*
X65059627Y-139340868D01*
X65059637Y-139340865D01*
X65324880Y-139195046D01*
X65569755Y-139017134D01*
X65790401Y-138809934D01*
X65983338Y-138576713D01*
X66145523Y-138321150D01*
X66274399Y-138047274D01*
X66367933Y-137759406D01*
X66424650Y-137462085D01*
X66424651Y-137462074D01*
X66443656Y-137160005D01*
X91569744Y-137160005D01*
X91588748Y-137462074D01*
X91588749Y-137462081D01*
X91588750Y-137462085D01*
X91645467Y-137759406D01*
X91739001Y-138047274D01*
X91867877Y-138321150D01*
X91867879Y-138321153D01*
X91867880Y-138321155D01*
X92030058Y-138576708D01*
X92030061Y-138576712D01*
X92030062Y-138576713D01*
X92222999Y-138809934D01*
X92443643Y-139017132D01*
X92443653Y-139017140D01*
X92688508Y-139195038D01*
X92688513Y-139195040D01*
X92688520Y-139195046D01*
X92953763Y-139340865D01*
X92953768Y-139340867D01*
X92953770Y-139340868D01*
X92953771Y-139340869D01*
X93235186Y-139452289D01*
X93235189Y-139452290D01*
X93528359Y-139527563D01*
X93528363Y-139527564D01*
X93591360Y-139535522D01*
X93828647Y-139565499D01*
X93828656Y-139565499D01*
X93828659Y-139565500D01*
X93828661Y-139565500D01*
X94131339Y-139565500D01*
X94131341Y-139565500D01*
X94131344Y-139565499D01*
X94131352Y-139565499D01*
X94310539Y-139542862D01*
X94431637Y-139527564D01*
X94724810Y-139452290D01*
X94724813Y-139452289D01*
X95006228Y-139340869D01*
X95006229Y-139340868D01*
X95006227Y-139340868D01*
X95006237Y-139340865D01*
X95271480Y-139195046D01*
X95516355Y-139017134D01*
X95737001Y-138809934D01*
X95929938Y-138576713D01*
X96092123Y-138321150D01*
X96220999Y-138047274D01*
X96314533Y-137759406D01*
X96371250Y-137462085D01*
X96371251Y-137462074D01*
X96390256Y-137160005D01*
X96390256Y-137159994D01*
X96371251Y-136857925D01*
X96371250Y-136857918D01*
X96371250Y-136857915D01*
X96314533Y-136560594D01*
X96220999Y-136272726D01*
X96092123Y-135998850D01*
X96025522Y-135893903D01*
X95929941Y-135743291D01*
X95904329Y-135712331D01*
X95743457Y-135517870D01*
X107869500Y-135517870D01*
X107869501Y-135517876D01*
X107875908Y-135577483D01*
X107926202Y-135712328D01*
X107926206Y-135712335D01*
X108012452Y-135827544D01*
X108012455Y-135827547D01*
X108127664Y-135913793D01*
X108127671Y-135913797D01*
X108262517Y-135964091D01*
X108262516Y-135964091D01*
X108269444Y-135964835D01*
X108322127Y-135970500D01*
X110117872Y-135970499D01*
X110177483Y-135964091D01*
X110312331Y-135913796D01*
X110427546Y-135827546D01*
X110513796Y-135712331D01*
X110562810Y-135580916D01*
X110604681Y-135524984D01*
X110670145Y-135500566D01*
X110738418Y-135515417D01*
X110766673Y-135536569D01*
X110888599Y-135658495D01*
X110985384Y-135726265D01*
X111082165Y-135794032D01*
X111082167Y-135794033D01*
X111082170Y-135794035D01*
X111296337Y-135893903D01*
X111296343Y-135893904D01*
X111296344Y-135893905D01*
X111351285Y-135908626D01*
X111524592Y-135955063D01*
X111701034Y-135970500D01*
X111759999Y-135975659D01*
X111760000Y-135975659D01*
X111760001Y-135975659D01*
X111818966Y-135970500D01*
X111995408Y-135955063D01*
X112223663Y-135893903D01*
X112437830Y-135794035D01*
X112631401Y-135658495D01*
X112798495Y-135491401D01*
X112934035Y-135297830D01*
X113033903Y-135083663D01*
X113095063Y-134855408D01*
X113115659Y-134620000D01*
X113115658Y-134619994D01*
X113095063Y-134384596D01*
X113095063Y-134384592D01*
X113048626Y-134211285D01*
X113033905Y-134156344D01*
X113033904Y-134156343D01*
X113033903Y-134156337D01*
X112934035Y-133942171D01*
X112922827Y-133926163D01*
X112798494Y-133748597D01*
X112631402Y-133581506D01*
X112631395Y-133581501D01*
X112437834Y-133445967D01*
X112437830Y-133445965D01*
X112437828Y-133445964D01*
X112223663Y-133346097D01*
X112223659Y-133346096D01*
X112223655Y-133346094D01*
X111995413Y-133284938D01*
X111995403Y-133284936D01*
X111760001Y-133264341D01*
X111759999Y-133264341D01*
X111524596Y-133284936D01*
X111524586Y-133284938D01*
X111296344Y-133346094D01*
X111296335Y-133346098D01*
X111082171Y-133445964D01*
X111082169Y-133445965D01*
X110888600Y-133581503D01*
X110766673Y-133703430D01*
X110705350Y-133736914D01*
X110635658Y-133731930D01*
X110579725Y-133690058D01*
X110562810Y-133659081D01*
X110513797Y-133527671D01*
X110513793Y-133527664D01*
X110427547Y-133412455D01*
X110427544Y-133412452D01*
X110312335Y-133326206D01*
X110312328Y-133326202D01*
X110177482Y-133275908D01*
X110177483Y-133275908D01*
X110117883Y-133269501D01*
X110117881Y-133269500D01*
X110117873Y-133269500D01*
X110117864Y-133269500D01*
X108322129Y-133269500D01*
X108322123Y-133269501D01*
X108262516Y-133275908D01*
X108127671Y-133326202D01*
X108127664Y-133326206D01*
X108012455Y-133412452D01*
X108012452Y-133412455D01*
X107926206Y-133527664D01*
X107926202Y-133527671D01*
X107875908Y-133662517D01*
X107869501Y-133722116D01*
X107869500Y-133722135D01*
X107869500Y-135517870D01*
X95743457Y-135517870D01*
X95737001Y-135510066D01*
X95516355Y-135302866D01*
X95516352Y-135302864D01*
X95516346Y-135302859D01*
X95271491Y-135124961D01*
X95271484Y-135124956D01*
X95271480Y-135124954D01*
X95006237Y-134979135D01*
X95006234Y-134979133D01*
X95006229Y-134979131D01*
X95006228Y-134979130D01*
X94724813Y-134867710D01*
X94724810Y-134867709D01*
X94431640Y-134792436D01*
X94431627Y-134792434D01*
X94131352Y-134754500D01*
X94131341Y-134754500D01*
X93828659Y-134754500D01*
X93828647Y-134754500D01*
X93528372Y-134792434D01*
X93528359Y-134792436D01*
X93235189Y-134867709D01*
X93235186Y-134867710D01*
X92953771Y-134979130D01*
X92953770Y-134979131D01*
X92688520Y-135124954D01*
X92688508Y-135124961D01*
X92443653Y-135302859D01*
X92443643Y-135302867D01*
X92242875Y-135491401D01*
X92222999Y-135510066D01*
X92200482Y-135537285D01*
X92030058Y-135743291D01*
X91867880Y-135998844D01*
X91739000Y-136272728D01*
X91645468Y-136560589D01*
X91588749Y-136857918D01*
X91588748Y-136857925D01*
X91569744Y-137159994D01*
X91569744Y-137160005D01*
X66443656Y-137160005D01*
X66443656Y-137159994D01*
X66424651Y-136857925D01*
X66424650Y-136857918D01*
X66424650Y-136857915D01*
X66367933Y-136560594D01*
X66274399Y-136272726D01*
X66145523Y-135998850D01*
X66078922Y-135893903D01*
X65983341Y-135743291D01*
X65957729Y-135712331D01*
X65790401Y-135510066D01*
X65569755Y-135302866D01*
X65569752Y-135302864D01*
X65569746Y-135302859D01*
X65324891Y-135124961D01*
X65324884Y-135124956D01*
X65324880Y-135124954D01*
X65059637Y-134979135D01*
X65059634Y-134979133D01*
X65059629Y-134979131D01*
X65059628Y-134979130D01*
X64778213Y-134867710D01*
X64778210Y-134867709D01*
X64485040Y-134792436D01*
X64485027Y-134792434D01*
X64184752Y-134754500D01*
X64184741Y-134754500D01*
X63882059Y-134754500D01*
X63882047Y-134754500D01*
X63581772Y-134792434D01*
X63581759Y-134792436D01*
X63288589Y-134867709D01*
X63288586Y-134867710D01*
X63007171Y-134979130D01*
X63007170Y-134979131D01*
X62741920Y-135124954D01*
X62741908Y-135124961D01*
X62497053Y-135302859D01*
X62497043Y-135302867D01*
X62296275Y-135491401D01*
X62276399Y-135510066D01*
X62253882Y-135537285D01*
X62083458Y-135743291D01*
X61921280Y-135998844D01*
X61792400Y-136272728D01*
X61698868Y-136560589D01*
X61642149Y-136857918D01*
X61642148Y-136857925D01*
X61623144Y-137159994D01*
X61623144Y-137160005D01*
X50800500Y-137160005D01*
X50800500Y-126720605D01*
X94795538Y-126720605D01*
X94814553Y-126950084D01*
X94871082Y-127173314D01*
X94963582Y-127384194D01*
X95089528Y-127576970D01*
X95089531Y-127576973D01*
X95245492Y-127746392D01*
X95427211Y-127887829D01*
X95629731Y-127997428D01*
X95697503Y-128020694D01*
X95847525Y-128072197D01*
X95847527Y-128072197D01*
X95847529Y-128072198D01*
X96074663Y-128110100D01*
X96074664Y-128110100D01*
X96304936Y-128110100D01*
X96304937Y-128110100D01*
X96532071Y-128072198D01*
X96749869Y-127997428D01*
X96952389Y-127887829D01*
X97134108Y-127746392D01*
X97290069Y-127576973D01*
X97416017Y-127384195D01*
X97508517Y-127173316D01*
X97565046Y-126950088D01*
X97584062Y-126720600D01*
X97565046Y-126491112D01*
X97508517Y-126267884D01*
X97416017Y-126057005D01*
X97356139Y-125965355D01*
X97290071Y-125864229D01*
X97257046Y-125828354D01*
X97134108Y-125694808D01*
X96952389Y-125553371D01*
X96952390Y-125553371D01*
X96948341Y-125550220D01*
X96949228Y-125549080D01*
X96908163Y-125500966D01*
X96898738Y-125431735D01*
X96928237Y-125368398D01*
X96948371Y-125350952D01*
X96948066Y-125350560D01*
X96980758Y-125325113D01*
X96980759Y-125325111D01*
X96358404Y-124702756D01*
X96476212Y-124651585D01*
X96592662Y-124556846D01*
X96679233Y-124434203D01*
X96710100Y-124347347D01*
X97333038Y-124970285D01*
X97415572Y-124843959D01*
X97415577Y-124843951D01*
X97508042Y-124633153D01*
X97564550Y-124410008D01*
X97564552Y-124409996D01*
X97583560Y-124180605D01*
X97583560Y-124180594D01*
X97564534Y-123950990D01*
X97578615Y-123882554D01*
X97627460Y-123832595D01*
X97695561Y-123816974D01*
X97707496Y-123818275D01*
X97719396Y-123820160D01*
X97759661Y-123816353D01*
X97762872Y-123816050D01*
X97774542Y-123815500D01*
X122451411Y-123815500D01*
X122518450Y-123835185D01*
X122564205Y-123887989D01*
X122574149Y-123957147D01*
X122564968Y-123989308D01*
X122557082Y-124007286D01*
X122500553Y-124230515D01*
X122481538Y-124459994D01*
X122481538Y-124460005D01*
X122500553Y-124689484D01*
X122557082Y-124912714D01*
X122649582Y-125123594D01*
X122775528Y-125316370D01*
X122789088Y-125331100D01*
X122931492Y-125485792D01*
X123113211Y-125627229D01*
X123315731Y-125736828D01*
X123428825Y-125775653D01*
X123533525Y-125811597D01*
X123533527Y-125811597D01*
X123533529Y-125811598D01*
X123760663Y-125849500D01*
X123760664Y-125849500D01*
X123990936Y-125849500D01*
X123990937Y-125849500D01*
X124218071Y-125811598D01*
X124435869Y-125736828D01*
X124638389Y-125627229D01*
X124820108Y-125485792D01*
X124976069Y-125316373D01*
X125102017Y-125123595D01*
X125194517Y-124912716D01*
X125251046Y-124689488D01*
X125262037Y-124556846D01*
X125270062Y-124460005D01*
X125270062Y-124459994D01*
X125251046Y-124230515D01*
X125251046Y-124230512D01*
X125194517Y-124007284D01*
X125186631Y-123989307D01*
X125177731Y-123920008D01*
X125207708Y-123856896D01*
X125267048Y-123820011D01*
X125300189Y-123815500D01*
X140303057Y-123815500D01*
X140318677Y-123817224D01*
X140318704Y-123816939D01*
X140326460Y-123817671D01*
X140326467Y-123817673D01*
X140393673Y-123815561D01*
X140397568Y-123815500D01*
X140425146Y-123815500D01*
X140425150Y-123815500D01*
X140429124Y-123814997D01*
X140440763Y-123814080D01*
X140484427Y-123812709D01*
X140503669Y-123807117D01*
X140522712Y-123803174D01*
X140542592Y-123800664D01*
X140583201Y-123784585D01*
X140594244Y-123780803D01*
X140636190Y-123768618D01*
X140653429Y-123758422D01*
X140670903Y-123749862D01*
X140689527Y-123742488D01*
X140689527Y-123742487D01*
X140689532Y-123742486D01*
X140724883Y-123716800D01*
X140734614Y-123710408D01*
X140772220Y-123688170D01*
X140786389Y-123673999D01*
X140801179Y-123661368D01*
X140817387Y-123649594D01*
X140845238Y-123615926D01*
X140853079Y-123607309D01*
X142592390Y-121867998D01*
X142653711Y-121834515D01*
X142723403Y-121839499D01*
X142779336Y-121881371D01*
X142803645Y-121945441D01*
X142820553Y-122149484D01*
X142877082Y-122372714D01*
X142969582Y-122583594D01*
X143095528Y-122776370D01*
X143095531Y-122776373D01*
X143251492Y-122945792D01*
X143359811Y-123030100D01*
X143437259Y-123090380D01*
X143436276Y-123091641D01*
X143476983Y-123139349D01*
X143486400Y-123208581D01*
X143456892Y-123271914D01*
X143436936Y-123289205D01*
X143437259Y-123289620D01*
X143251494Y-123434206D01*
X143251489Y-123434211D01*
X143095528Y-123603629D01*
X142969582Y-123796405D01*
X142877082Y-124007285D01*
X142820553Y-124230515D01*
X142801538Y-124459994D01*
X142801538Y-124460005D01*
X142820553Y-124689484D01*
X142877082Y-124912714D01*
X142969582Y-125123594D01*
X143095528Y-125316370D01*
X143109088Y-125331100D01*
X143251492Y-125485792D01*
X143338318Y-125553371D01*
X143437259Y-125630380D01*
X143436276Y-125631641D01*
X143476983Y-125679349D01*
X143486400Y-125748581D01*
X143456892Y-125811914D01*
X143436936Y-125829205D01*
X143437259Y-125829620D01*
X143251494Y-125974206D01*
X143251489Y-125974211D01*
X143095528Y-126143629D01*
X142969582Y-126336405D01*
X142877082Y-126547285D01*
X142820553Y-126770515D01*
X142801538Y-126999994D01*
X142801538Y-127000005D01*
X142820553Y-127229484D01*
X142877082Y-127452714D01*
X142969582Y-127663594D01*
X143095528Y-127856370D01*
X143095531Y-127856373D01*
X143251492Y-128025792D01*
X143311115Y-128072198D01*
X143437259Y-128170380D01*
X143436276Y-128171641D01*
X143476983Y-128219349D01*
X143486400Y-128288581D01*
X143456892Y-128351914D01*
X143436936Y-128369205D01*
X143437259Y-128369620D01*
X143251494Y-128514206D01*
X143251489Y-128514211D01*
X143095528Y-128683629D01*
X142969582Y-128876405D01*
X142877082Y-129087285D01*
X142820553Y-129310515D01*
X142801538Y-129539994D01*
X142801538Y-129540005D01*
X142820553Y-129769484D01*
X142877082Y-129992714D01*
X142969582Y-130203594D01*
X143095528Y-130396370D01*
X143095531Y-130396373D01*
X143251492Y-130565792D01*
X143368391Y-130656778D01*
X143437259Y-130710380D01*
X143436276Y-130711641D01*
X143476983Y-130759349D01*
X143486400Y-130828581D01*
X143456892Y-130891914D01*
X143436936Y-130909205D01*
X143437259Y-130909620D01*
X143251494Y-131054206D01*
X143251489Y-131054211D01*
X143095528Y-131223629D01*
X142969582Y-131416405D01*
X142877082Y-131627285D01*
X142820553Y-131850515D01*
X142801538Y-132079994D01*
X142801538Y-132080005D01*
X142820553Y-132309484D01*
X142877082Y-132532714D01*
X142969582Y-132743594D01*
X143095528Y-132936370D01*
X143095531Y-132936373D01*
X143251492Y-133105792D01*
X143368391Y-133196778D01*
X143437259Y-133250380D01*
X143436276Y-133251641D01*
X143476983Y-133299349D01*
X143486400Y-133368581D01*
X143456892Y-133431914D01*
X143436936Y-133449205D01*
X143437259Y-133449620D01*
X143251494Y-133594206D01*
X143251489Y-133594211D01*
X143095528Y-133763629D01*
X142969582Y-133956405D01*
X142877082Y-134167285D01*
X142820553Y-134390515D01*
X142801538Y-134619994D01*
X142801538Y-134620005D01*
X142820553Y-134849484D01*
X142877082Y-135072714D01*
X142969582Y-135283594D01*
X143095528Y-135476370D01*
X143095531Y-135476373D01*
X143251492Y-135645792D01*
X143267813Y-135658495D01*
X143398888Y-135760515D01*
X143433211Y-135787229D01*
X143635731Y-135896828D01*
X143748825Y-135935653D01*
X143853525Y-135971597D01*
X143853527Y-135971597D01*
X143853529Y-135971598D01*
X144080663Y-136009500D01*
X144080664Y-136009500D01*
X144310936Y-136009500D01*
X144310937Y-136009500D01*
X144538071Y-135971598D01*
X144755869Y-135896828D01*
X144958389Y-135787229D01*
X145140108Y-135645792D01*
X145296069Y-135476373D01*
X145422017Y-135283595D01*
X145514517Y-135072716D01*
X145571046Y-134849488D01*
X145590062Y-134620000D01*
X145589832Y-134617229D01*
X145571046Y-134390515D01*
X145571046Y-134390512D01*
X145514517Y-134167284D01*
X145422017Y-133956405D01*
X145296071Y-133763629D01*
X145257873Y-133722135D01*
X145140108Y-133594208D01*
X144958389Y-133452771D01*
X144958390Y-133452771D01*
X144954341Y-133449620D01*
X144955325Y-133448354D01*
X144914624Y-133400670D01*
X144905196Y-133331439D01*
X144934693Y-133268102D01*
X144954665Y-133250796D01*
X144954341Y-133250380D01*
X144965561Y-133241647D01*
X145030555Y-133216004D01*
X145041724Y-133215500D01*
X145528299Y-133215500D01*
X145595338Y-133235185D01*
X145615980Y-133251819D01*
X154162721Y-141798561D01*
X154176049Y-141814317D01*
X154177942Y-141816976D01*
X154177949Y-141816984D01*
X154245565Y-141881455D01*
X154247637Y-141883477D01*
X154275327Y-141911167D01*
X154275340Y-141911178D01*
X154282350Y-141916966D01*
X154288977Y-141922847D01*
X154334888Y-141966623D01*
X154362986Y-141984680D01*
X154374875Y-141993361D01*
X154400648Y-142014641D01*
X154456342Y-142045052D01*
X154463940Y-142049560D01*
X154517317Y-142083863D01*
X154548326Y-142096277D01*
X154561656Y-142102558D01*
X154590977Y-142118568D01*
X154651423Y-142137890D01*
X154659727Y-142140875D01*
X154718638Y-142164460D01*
X154751439Y-142170782D01*
X154765721Y-142174427D01*
X154782979Y-142179944D01*
X154797534Y-142184597D01*
X154860524Y-142192128D01*
X154869272Y-142193492D01*
X154931567Y-142205499D01*
X154931568Y-142205499D01*
X154931573Y-142205500D01*
X154964973Y-142205500D01*
X154979693Y-142206376D01*
X155012855Y-142210342D01*
X155076138Y-142205816D01*
X155084983Y-142205500D01*
X158566076Y-142205500D01*
X158633115Y-142225185D01*
X158642239Y-142231647D01*
X158649411Y-142237229D01*
X158851931Y-142346828D01*
X158965025Y-142385653D01*
X159069725Y-142421597D01*
X159069727Y-142421597D01*
X159069729Y-142421598D01*
X159296863Y-142459500D01*
X159296864Y-142459500D01*
X159527136Y-142459500D01*
X159527137Y-142459500D01*
X159754271Y-142421598D01*
X159972069Y-142346828D01*
X160174589Y-142237229D01*
X160356308Y-142095792D01*
X160512269Y-141926373D01*
X160638217Y-141733595D01*
X160730717Y-141522716D01*
X160787246Y-141299488D01*
X160806262Y-141070000D01*
X160787246Y-140840512D01*
X160730717Y-140617284D01*
X160638217Y-140406405D01*
X160512271Y-140213629D01*
X160485355Y-140184390D01*
X160356308Y-140044208D01*
X160214707Y-139933996D01*
X160170541Y-139899620D01*
X160171525Y-139898354D01*
X160130824Y-139850670D01*
X160121396Y-139781439D01*
X160150893Y-139718102D01*
X160170865Y-139700796D01*
X160170541Y-139700380D01*
X160207174Y-139671866D01*
X160356308Y-139555792D01*
X160512269Y-139386373D01*
X160638217Y-139193595D01*
X160730717Y-138982716D01*
X160787246Y-138759488D01*
X160806262Y-138530000D01*
X160787246Y-138300512D01*
X160730717Y-138077284D01*
X160638217Y-137866405D01*
X160568314Y-137759410D01*
X160512271Y-137673629D01*
X160485355Y-137644390D01*
X160356308Y-137504208D01*
X160174589Y-137362771D01*
X160174590Y-137362771D01*
X160170541Y-137359620D01*
X160171525Y-137358354D01*
X160130824Y-137310670D01*
X160121396Y-137241439D01*
X160150893Y-137178102D01*
X160170865Y-137160796D01*
X160170541Y-137160380D01*
X160207174Y-137131866D01*
X160356308Y-137015792D01*
X160512269Y-136846373D01*
X160638217Y-136653595D01*
X160730717Y-136442716D01*
X160787246Y-136219488D01*
X160795697Y-136117493D01*
X160806262Y-135990005D01*
X160806262Y-135989994D01*
X160790024Y-135794034D01*
X160787246Y-135760512D01*
X160730717Y-135537284D01*
X160638217Y-135326405D01*
X160597880Y-135264664D01*
X160512271Y-135133629D01*
X160466274Y-135083663D01*
X160356308Y-134964208D01*
X160174589Y-134822771D01*
X160174590Y-134822771D01*
X160170541Y-134819620D01*
X160171525Y-134818354D01*
X160130824Y-134770670D01*
X160121396Y-134701439D01*
X160150893Y-134638102D01*
X160170865Y-134620796D01*
X160170541Y-134620380D01*
X160207174Y-134591866D01*
X160356308Y-134475792D01*
X160512269Y-134306373D01*
X160638217Y-134113595D01*
X160730717Y-133902716D01*
X160787246Y-133679488D01*
X160799827Y-133527664D01*
X160806262Y-133450005D01*
X160806262Y-133449994D01*
X160793584Y-133297008D01*
X160787246Y-133220512D01*
X160730717Y-132997284D01*
X160638217Y-132786405D01*
X160610247Y-132743594D01*
X160512271Y-132593629D01*
X160485355Y-132564390D01*
X160356308Y-132424208D01*
X160174589Y-132282771D01*
X160174590Y-132282771D01*
X160170541Y-132279620D01*
X160171525Y-132278354D01*
X160130824Y-132230670D01*
X160121396Y-132161439D01*
X160150893Y-132098102D01*
X160170865Y-132080796D01*
X160170541Y-132080380D01*
X160207174Y-132051866D01*
X160356308Y-131935792D01*
X160512269Y-131766373D01*
X160638217Y-131573595D01*
X160730717Y-131362716D01*
X160787246Y-131139488D01*
X160796200Y-131031432D01*
X160806262Y-130910005D01*
X160806262Y-130909994D01*
X160787246Y-130680515D01*
X160787246Y-130680512D01*
X160730717Y-130457284D01*
X160638217Y-130246405D01*
X160534009Y-130086902D01*
X160512271Y-130053629D01*
X160474616Y-130012725D01*
X160356308Y-129884208D01*
X160288036Y-129831070D01*
X160174591Y-129742772D01*
X159972069Y-129633172D01*
X159972061Y-129633169D01*
X159754274Y-129558402D01*
X159583920Y-129529975D01*
X159527137Y-129520500D01*
X159296863Y-129520500D01*
X159251436Y-129528080D01*
X159069725Y-129558402D01*
X158851938Y-129633169D01*
X158851930Y-129633172D01*
X158649408Y-129742772D01*
X158467694Y-129884206D01*
X158467689Y-129884211D01*
X158311728Y-130053629D01*
X158185782Y-130246405D01*
X158093282Y-130457285D01*
X158036753Y-130680515D01*
X158017738Y-130909994D01*
X158017738Y-130910005D01*
X158036753Y-131139484D01*
X158093282Y-131362714D01*
X158185782Y-131573594D01*
X158311728Y-131766370D01*
X158311731Y-131766373D01*
X158467692Y-131935792D01*
X158584591Y-132026778D01*
X158653459Y-132080380D01*
X158652476Y-132081641D01*
X158693183Y-132129349D01*
X158702600Y-132198581D01*
X158673092Y-132261914D01*
X158653136Y-132279205D01*
X158653459Y-132279620D01*
X158467694Y-132424206D01*
X158467689Y-132424211D01*
X158311728Y-132593629D01*
X158197598Y-132768321D01*
X158144452Y-132813678D01*
X158093789Y-132824500D01*
X152810453Y-132824500D01*
X152743414Y-132804815D01*
X152722772Y-132788181D01*
X147981819Y-128047228D01*
X147948334Y-127985905D01*
X147945500Y-127959547D01*
X147945500Y-115790081D01*
X147947224Y-115774467D01*
X147946938Y-115774440D01*
X147947672Y-115766677D01*
X147945561Y-115699488D01*
X147945500Y-115695594D01*
X147945500Y-115667995D01*
X147945500Y-115667994D01*
X147944997Y-115664014D01*
X147944080Y-115652365D01*
X147944066Y-115651914D01*
X147942709Y-115608717D01*
X147937122Y-115589488D01*
X147933174Y-115570428D01*
X147932770Y-115567227D01*
X147930664Y-115550552D01*
X147914585Y-115509941D01*
X147910804Y-115498896D01*
X147898619Y-115456956D01*
X147888418Y-115439707D01*
X147879860Y-115422238D01*
X147872486Y-115403612D01*
X147872483Y-115403608D01*
X147872483Y-115403607D01*
X147846816Y-115368279D01*
X147840403Y-115358516D01*
X147818172Y-115320927D01*
X147818170Y-115320923D01*
X147818166Y-115320919D01*
X147818163Y-115320915D01*
X147804005Y-115306757D01*
X147791370Y-115291964D01*
X147779593Y-115275756D01*
X147745945Y-115247920D01*
X147737304Y-115240057D01*
X145292747Y-112795500D01*
X145259262Y-112734177D01*
X145264246Y-112664485D01*
X145289198Y-112623835D01*
X145296069Y-112616373D01*
X145422017Y-112423595D01*
X145514517Y-112212716D01*
X145571046Y-111989488D01*
X145590062Y-111760000D01*
X145571046Y-111530512D01*
X145514517Y-111307284D01*
X145482068Y-111233309D01*
X145473166Y-111164010D01*
X145503143Y-111100898D01*
X145562483Y-111064011D01*
X145595625Y-111059500D01*
X145683548Y-111059500D01*
X145750587Y-111079185D01*
X145771228Y-111095818D01*
X147617545Y-112942136D01*
X149459197Y-114783788D01*
X149469022Y-114796051D01*
X149469243Y-114795869D01*
X149474211Y-114801874D01*
X149523222Y-114847899D01*
X149526021Y-114850612D01*
X149545522Y-114870114D01*
X149545526Y-114870117D01*
X149545529Y-114870120D01*
X149548702Y-114872581D01*
X149557574Y-114880159D01*
X149589418Y-114910062D01*
X149606976Y-114919714D01*
X149623233Y-114930393D01*
X149639064Y-114942673D01*
X149668803Y-114955542D01*
X149679152Y-114960021D01*
X149689641Y-114965160D01*
X149713457Y-114978252D01*
X149727908Y-114986197D01*
X149740523Y-114989435D01*
X149747305Y-114991177D01*
X149765719Y-114997481D01*
X149784104Y-115005438D01*
X149827261Y-115012273D01*
X149838656Y-115014632D01*
X149880981Y-115025500D01*
X149901016Y-115025500D01*
X149920413Y-115027026D01*
X149940196Y-115030160D01*
X149983675Y-115026050D01*
X149995344Y-115025500D01*
X161849789Y-115025500D01*
X161916828Y-115045185D01*
X161953598Y-115081679D01*
X162067728Y-115256370D01*
X162067731Y-115256373D01*
X162223692Y-115425792D01*
X162324824Y-115504506D01*
X162405202Y-115567067D01*
X162405411Y-115567229D01*
X162607931Y-115676828D01*
X162721025Y-115715653D01*
X162825725Y-115751597D01*
X162825727Y-115751597D01*
X162825729Y-115751598D01*
X163052863Y-115789500D01*
X163052864Y-115789500D01*
X163283136Y-115789500D01*
X163283137Y-115789500D01*
X163510271Y-115751598D01*
X163728069Y-115676828D01*
X163930589Y-115567229D01*
X164112308Y-115425792D01*
X164268269Y-115256373D01*
X164394217Y-115063595D01*
X164486717Y-114852716D01*
X164543246Y-114629488D01*
X164555078Y-114486697D01*
X164562262Y-114400005D01*
X164562262Y-114399994D01*
X164543246Y-114170515D01*
X164543246Y-114170512D01*
X164486717Y-113947284D01*
X164394217Y-113736405D01*
X164310008Y-113607513D01*
X164268271Y-113543629D01*
X164176214Y-113443629D01*
X164112308Y-113374208D01*
X163983831Y-113274211D01*
X163926541Y-113229620D01*
X163927525Y-113228354D01*
X163886824Y-113180670D01*
X163877396Y-113111439D01*
X163906893Y-113048102D01*
X163926865Y-113030796D01*
X163926541Y-113030380D01*
X163992105Y-112979349D01*
X164112308Y-112885792D01*
X164268269Y-112716373D01*
X164394217Y-112523595D01*
X164486717Y-112312716D01*
X164543246Y-112089488D01*
X164562262Y-111860000D01*
X164543246Y-111630512D01*
X164486717Y-111407284D01*
X164394217Y-111196405D01*
X164352132Y-111131989D01*
X164268271Y-111003629D01*
X164232154Y-110964396D01*
X164112308Y-110834208D01*
X163983831Y-110734211D01*
X163926541Y-110689620D01*
X163927525Y-110688354D01*
X163886824Y-110640670D01*
X163877396Y-110571439D01*
X163906893Y-110508102D01*
X163926865Y-110490796D01*
X163926541Y-110490380D01*
X163992105Y-110439349D01*
X164112308Y-110345792D01*
X164268269Y-110176373D01*
X164394217Y-109983595D01*
X164486717Y-109772716D01*
X164543246Y-109549488D01*
X164562262Y-109320000D01*
X164543246Y-109090512D01*
X164486717Y-108867284D01*
X164394217Y-108656405D01*
X164359640Y-108603481D01*
X164268271Y-108463629D01*
X164241355Y-108434390D01*
X164112308Y-108294208D01*
X163983831Y-108194211D01*
X163926541Y-108149620D01*
X163927525Y-108148354D01*
X163886824Y-108100670D01*
X163877396Y-108031439D01*
X163906893Y-107968102D01*
X163926865Y-107950796D01*
X163926541Y-107950380D01*
X163992105Y-107899349D01*
X164112308Y-107805792D01*
X164268269Y-107636373D01*
X164394217Y-107443595D01*
X164486717Y-107232716D01*
X164543246Y-107009488D01*
X164562262Y-106780000D01*
X164543246Y-106550512D01*
X164486717Y-106327284D01*
X164394217Y-106116405D01*
X164328884Y-106016405D01*
X164268271Y-105923629D01*
X164176214Y-105823629D01*
X164112308Y-105754208D01*
X163983831Y-105654211D01*
X163926541Y-105609620D01*
X163927525Y-105608354D01*
X163886824Y-105560670D01*
X163877396Y-105491439D01*
X163906893Y-105428102D01*
X163926865Y-105410796D01*
X163926541Y-105410380D01*
X163992105Y-105359349D01*
X164112308Y-105265792D01*
X164268269Y-105096373D01*
X164394217Y-104903595D01*
X164486717Y-104692716D01*
X164543246Y-104469488D01*
X164562262Y-104240005D01*
X187173738Y-104240005D01*
X187192753Y-104469484D01*
X187249282Y-104692714D01*
X187341782Y-104903594D01*
X187467728Y-105096370D01*
X187467731Y-105096373D01*
X187623692Y-105265792D01*
X187737139Y-105354091D01*
X187800789Y-105403632D01*
X187805411Y-105407229D01*
X188007931Y-105516828D01*
X188121025Y-105555653D01*
X188225725Y-105591597D01*
X188225727Y-105591597D01*
X188225729Y-105591598D01*
X188452863Y-105629500D01*
X188452864Y-105629500D01*
X188683136Y-105629500D01*
X188683137Y-105629500D01*
X188910271Y-105591598D01*
X189128069Y-105516828D01*
X189330589Y-105407229D01*
X189512308Y-105265792D01*
X189668269Y-105096373D01*
X189794217Y-104903595D01*
X189886717Y-104692716D01*
X189943246Y-104469488D01*
X189962262Y-104240000D01*
X189943246Y-104010512D01*
X189886717Y-103787284D01*
X189794217Y-103576405D01*
X189728884Y-103476405D01*
X189668271Y-103383629D01*
X189576214Y-103283629D01*
X189512308Y-103214208D01*
X189383831Y-103114211D01*
X189326541Y-103069620D01*
X189327525Y-103068354D01*
X189286824Y-103020670D01*
X189277396Y-102951439D01*
X189306893Y-102888102D01*
X189326865Y-102870796D01*
X189326541Y-102870380D01*
X189392105Y-102819349D01*
X189512308Y-102725792D01*
X189668269Y-102556373D01*
X189794217Y-102363595D01*
X189886717Y-102152716D01*
X189943246Y-101929488D01*
X189962262Y-101700000D01*
X189943246Y-101470512D01*
X189886717Y-101247284D01*
X189794217Y-101036405D01*
X189728884Y-100936405D01*
X189668271Y-100843629D01*
X189576214Y-100743629D01*
X189512308Y-100674208D01*
X189383831Y-100574211D01*
X189326541Y-100529620D01*
X189327525Y-100528354D01*
X189286824Y-100480670D01*
X189277396Y-100411439D01*
X189306893Y-100348102D01*
X189326865Y-100330796D01*
X189326541Y-100330380D01*
X189392105Y-100279349D01*
X189512308Y-100185792D01*
X189668269Y-100016373D01*
X189794217Y-99823595D01*
X189886717Y-99612716D01*
X189943246Y-99389488D01*
X189962129Y-99161606D01*
X189962262Y-99160005D01*
X189962262Y-99159994D01*
X189943246Y-98930515D01*
X189943246Y-98930512D01*
X189886717Y-98707284D01*
X189794217Y-98496405D01*
X189762170Y-98447353D01*
X189668271Y-98303629D01*
X189617432Y-98248403D01*
X189512308Y-98134208D01*
X189383831Y-98034211D01*
X189326541Y-97989620D01*
X189327525Y-97988354D01*
X189286824Y-97940670D01*
X189277396Y-97871439D01*
X189306893Y-97808102D01*
X189326865Y-97790796D01*
X189326541Y-97790380D01*
X189418210Y-97719031D01*
X189512308Y-97645792D01*
X189668269Y-97476373D01*
X189794217Y-97283595D01*
X189886717Y-97072716D01*
X189943246Y-96849488D01*
X189955093Y-96706514D01*
X189962262Y-96620005D01*
X189962262Y-96619994D01*
X189943246Y-96390515D01*
X189943246Y-96390512D01*
X189886717Y-96167284D01*
X189794217Y-95956405D01*
X189755596Y-95897291D01*
X189668271Y-95763629D01*
X189595232Y-95684288D01*
X189512308Y-95594208D01*
X189383831Y-95494211D01*
X189326541Y-95449620D01*
X189327525Y-95448354D01*
X189286824Y-95400670D01*
X189277396Y-95331439D01*
X189306893Y-95268102D01*
X189326865Y-95250796D01*
X189326541Y-95250380D01*
X189431866Y-95168402D01*
X189512308Y-95105792D01*
X189668269Y-94936373D01*
X189794217Y-94743595D01*
X189886717Y-94532716D01*
X189943246Y-94309488D01*
X189957775Y-94134149D01*
X189962262Y-94080005D01*
X189962262Y-94079994D01*
X189943246Y-93850515D01*
X189943246Y-93850512D01*
X189886717Y-93627284D01*
X189794217Y-93416405D01*
X189762275Y-93367514D01*
X189668271Y-93223629D01*
X189595232Y-93144288D01*
X189512308Y-93054208D01*
X189444036Y-93001070D01*
X189330591Y-92912772D01*
X189128069Y-92803172D01*
X189128061Y-92803169D01*
X188910274Y-92728402D01*
X188739920Y-92699975D01*
X188683137Y-92690500D01*
X188452863Y-92690500D01*
X188407436Y-92698080D01*
X188225725Y-92728402D01*
X188007938Y-92803169D01*
X188007930Y-92803172D01*
X187805408Y-92912772D01*
X187623694Y-93054206D01*
X187623689Y-93054211D01*
X187467728Y-93223629D01*
X187341782Y-93416405D01*
X187249282Y-93627285D01*
X187192753Y-93850515D01*
X187173738Y-94079994D01*
X187173738Y-94080005D01*
X187192753Y-94309484D01*
X187249282Y-94532714D01*
X187341782Y-94743594D01*
X187467728Y-94936370D01*
X187467731Y-94936373D01*
X187623692Y-95105792D01*
X187655437Y-95130500D01*
X187809459Y-95250380D01*
X187808476Y-95251641D01*
X187849183Y-95299349D01*
X187858600Y-95368581D01*
X187829092Y-95431914D01*
X187809136Y-95449205D01*
X187809459Y-95449620D01*
X187623694Y-95594206D01*
X187623689Y-95594211D01*
X187467728Y-95763629D01*
X187341782Y-95956405D01*
X187249282Y-96167285D01*
X187192753Y-96390515D01*
X187173738Y-96619994D01*
X187173738Y-96620005D01*
X187192753Y-96849484D01*
X187249282Y-97072714D01*
X187341782Y-97283594D01*
X187467728Y-97476370D01*
X187467731Y-97476373D01*
X187623692Y-97645792D01*
X187717790Y-97719031D01*
X187809459Y-97790380D01*
X187808476Y-97791641D01*
X187849183Y-97839349D01*
X187858600Y-97908581D01*
X187829092Y-97971914D01*
X187809136Y-97989205D01*
X187809459Y-97989620D01*
X187623694Y-98134206D01*
X187623689Y-98134211D01*
X187467728Y-98303629D01*
X187341782Y-98496405D01*
X187249282Y-98707285D01*
X187192753Y-98930515D01*
X187173738Y-99159994D01*
X187173738Y-99160005D01*
X187192753Y-99389484D01*
X187249282Y-99612714D01*
X187341782Y-99823594D01*
X187467728Y-100016370D01*
X187467731Y-100016373D01*
X187623692Y-100185792D01*
X187682599Y-100231641D01*
X187809459Y-100330380D01*
X187808476Y-100331641D01*
X187849183Y-100379349D01*
X187858600Y-100448581D01*
X187829092Y-100511914D01*
X187809136Y-100529205D01*
X187809459Y-100529620D01*
X187623694Y-100674206D01*
X187623689Y-100674211D01*
X187467728Y-100843629D01*
X187341782Y-101036405D01*
X187249282Y-101247285D01*
X187192753Y-101470515D01*
X187173738Y-101699994D01*
X187173738Y-101700005D01*
X187192753Y-101929484D01*
X187249282Y-102152714D01*
X187341782Y-102363594D01*
X187467728Y-102556370D01*
X187467731Y-102556373D01*
X187623692Y-102725792D01*
X187680979Y-102770380D01*
X187809459Y-102870380D01*
X187808476Y-102871641D01*
X187849183Y-102919349D01*
X187858600Y-102988581D01*
X187829092Y-103051914D01*
X187809136Y-103069205D01*
X187809459Y-103069620D01*
X187623694Y-103214206D01*
X187623689Y-103214211D01*
X187467728Y-103383629D01*
X187341782Y-103576405D01*
X187249282Y-103787285D01*
X187192753Y-104010515D01*
X187173738Y-104239994D01*
X187173738Y-104240005D01*
X164562262Y-104240005D01*
X164562262Y-104240000D01*
X164543246Y-104010512D01*
X164486717Y-103787284D01*
X164394217Y-103576405D01*
X164328884Y-103476405D01*
X164268271Y-103383629D01*
X164176214Y-103283629D01*
X164112308Y-103214208D01*
X163983831Y-103114211D01*
X163926541Y-103069620D01*
X163927525Y-103068354D01*
X163886824Y-103020670D01*
X163877396Y-102951439D01*
X163906893Y-102888102D01*
X163926865Y-102870796D01*
X163926541Y-102870380D01*
X163992105Y-102819349D01*
X164112308Y-102725792D01*
X164268269Y-102556373D01*
X164394217Y-102363595D01*
X164486717Y-102152716D01*
X164543246Y-101929488D01*
X164562262Y-101700000D01*
X164543246Y-101470512D01*
X164486717Y-101247284D01*
X164394217Y-101036405D01*
X164328884Y-100936405D01*
X164268271Y-100843629D01*
X164176214Y-100743629D01*
X164112308Y-100674208D01*
X163983831Y-100574211D01*
X163926541Y-100529620D01*
X163927525Y-100528354D01*
X163886824Y-100480670D01*
X163877396Y-100411439D01*
X163906893Y-100348102D01*
X163926865Y-100330796D01*
X163926541Y-100330380D01*
X163992105Y-100279349D01*
X164112308Y-100185792D01*
X164268269Y-100016373D01*
X164394217Y-99823595D01*
X164486717Y-99612716D01*
X164543246Y-99389488D01*
X164562129Y-99161606D01*
X164562262Y-99160005D01*
X164562262Y-99159994D01*
X164543246Y-98930515D01*
X164543246Y-98930512D01*
X164486717Y-98707284D01*
X164394217Y-98496405D01*
X164362170Y-98447353D01*
X164268271Y-98303629D01*
X164217432Y-98248403D01*
X164112308Y-98134208D01*
X163983831Y-98034211D01*
X163926541Y-97989620D01*
X163927525Y-97988354D01*
X163886824Y-97940670D01*
X163877396Y-97871439D01*
X163906893Y-97808102D01*
X163926865Y-97790796D01*
X163926541Y-97790380D01*
X164018210Y-97719031D01*
X164112308Y-97645792D01*
X164268269Y-97476373D01*
X164394217Y-97283595D01*
X164486717Y-97072716D01*
X164543246Y-96849488D01*
X164555093Y-96706514D01*
X164562262Y-96620005D01*
X164562262Y-96619994D01*
X164543246Y-96390515D01*
X164543246Y-96390512D01*
X164486717Y-96167284D01*
X164394217Y-95956405D01*
X164355596Y-95897291D01*
X164268271Y-95763629D01*
X164195232Y-95684288D01*
X164112308Y-95594208D01*
X163983831Y-95494211D01*
X163926541Y-95449620D01*
X163927525Y-95448354D01*
X163886824Y-95400670D01*
X163877396Y-95331439D01*
X163906893Y-95268102D01*
X163926865Y-95250796D01*
X163926541Y-95250380D01*
X164031866Y-95168402D01*
X164112308Y-95105792D01*
X164268269Y-94936373D01*
X164394217Y-94743595D01*
X164486717Y-94532716D01*
X164543246Y-94309488D01*
X164557775Y-94134149D01*
X164562262Y-94080005D01*
X164562262Y-94079994D01*
X164543246Y-93850515D01*
X164543246Y-93850512D01*
X164486717Y-93627284D01*
X164394217Y-93416405D01*
X164362275Y-93367514D01*
X164268271Y-93223629D01*
X164195232Y-93144288D01*
X164112308Y-93054208D01*
X164044036Y-93001070D01*
X163930591Y-92912772D01*
X163728069Y-92803172D01*
X163728061Y-92803169D01*
X163510274Y-92728402D01*
X163339920Y-92699975D01*
X163283137Y-92690500D01*
X163052863Y-92690500D01*
X163007436Y-92698080D01*
X162825725Y-92728402D01*
X162607938Y-92803169D01*
X162607930Y-92803172D01*
X162405408Y-92912772D01*
X162223694Y-93054206D01*
X162223689Y-93054211D01*
X162067728Y-93223629D01*
X161941782Y-93416405D01*
X161849282Y-93627285D01*
X161792753Y-93850515D01*
X161773738Y-94079994D01*
X161773738Y-94080005D01*
X161792753Y-94309484D01*
X161849282Y-94532714D01*
X161941782Y-94743594D01*
X162067728Y-94936370D01*
X162067731Y-94936373D01*
X162223692Y-95105792D01*
X162255437Y-95130500D01*
X162409459Y-95250380D01*
X162408476Y-95251641D01*
X162449183Y-95299349D01*
X162458600Y-95368581D01*
X162429092Y-95431914D01*
X162409136Y-95449205D01*
X162409459Y-95449620D01*
X162223694Y-95594206D01*
X162223689Y-95594211D01*
X162067728Y-95763629D01*
X161941782Y-95956405D01*
X161849282Y-96167285D01*
X161792753Y-96390515D01*
X161773738Y-96619994D01*
X161773738Y-96620005D01*
X161792753Y-96849484D01*
X161849282Y-97072714D01*
X161941782Y-97283594D01*
X162067728Y-97476370D01*
X162067731Y-97476373D01*
X162223692Y-97645792D01*
X162317790Y-97719031D01*
X162409459Y-97790380D01*
X162408476Y-97791641D01*
X162449183Y-97839349D01*
X162458600Y-97908581D01*
X162429092Y-97971914D01*
X162409136Y-97989205D01*
X162409459Y-97989620D01*
X162223694Y-98134206D01*
X162223689Y-98134211D01*
X162067728Y-98303629D01*
X161941782Y-98496405D01*
X161849282Y-98707285D01*
X161792753Y-98930515D01*
X161773738Y-99159994D01*
X161773738Y-99160005D01*
X161792753Y-99389484D01*
X161849282Y-99612714D01*
X161941782Y-99823594D01*
X162067728Y-100016370D01*
X162067731Y-100016373D01*
X162223692Y-100185792D01*
X162282599Y-100231641D01*
X162409459Y-100330380D01*
X162408476Y-100331641D01*
X162449183Y-100379349D01*
X162458600Y-100448581D01*
X162429092Y-100511914D01*
X162409136Y-100529205D01*
X162409459Y-100529620D01*
X162223694Y-100674206D01*
X162223689Y-100674211D01*
X162067728Y-100843629D01*
X161941782Y-101036405D01*
X161849282Y-101247285D01*
X161792753Y-101470515D01*
X161773738Y-101699994D01*
X161773738Y-101700005D01*
X161792753Y-101929484D01*
X161847597Y-102146060D01*
X161844972Y-102215880D01*
X161805015Y-102273198D01*
X161740414Y-102299814D01*
X161727391Y-102300500D01*
X145595625Y-102300500D01*
X145528586Y-102280815D01*
X145482831Y-102228011D01*
X145472887Y-102158853D01*
X145482069Y-102126690D01*
X145499170Y-102087703D01*
X145514517Y-102052716D01*
X145571046Y-101829488D01*
X145590062Y-101600000D01*
X145571046Y-101370512D01*
X145514517Y-101147284D01*
X145422017Y-100936405D01*
X145296071Y-100743629D01*
X145232164Y-100674208D01*
X145140108Y-100574208D01*
X144958389Y-100432771D01*
X144958390Y-100432771D01*
X144954341Y-100429620D01*
X144955325Y-100428354D01*
X144914624Y-100380670D01*
X144905196Y-100311439D01*
X144934693Y-100248102D01*
X144954665Y-100230796D01*
X144954341Y-100230380D01*
X145005491Y-100190568D01*
X145140108Y-100085792D01*
X145296069Y-99916373D01*
X145422017Y-99723595D01*
X145514517Y-99512716D01*
X145571046Y-99289488D01*
X145590062Y-99060000D01*
X145571046Y-98830512D01*
X145514517Y-98607284D01*
X145422017Y-98396405D01*
X145296071Y-98203629D01*
X145269155Y-98174390D01*
X145140108Y-98034208D01*
X145005490Y-97929431D01*
X144954341Y-97889620D01*
X144955325Y-97888354D01*
X144914624Y-97840670D01*
X144905196Y-97771439D01*
X144934693Y-97708102D01*
X144954665Y-97690796D01*
X144954341Y-97690380D01*
X145011627Y-97645792D01*
X145140108Y-97545792D01*
X145296069Y-97376373D01*
X145422017Y-97183595D01*
X145514517Y-96972716D01*
X145571046Y-96749488D01*
X145581317Y-96625538D01*
X145590062Y-96520005D01*
X145590062Y-96519994D01*
X145571046Y-96290515D01*
X145571046Y-96290512D01*
X145514517Y-96067284D01*
X145422017Y-95856405D01*
X145363444Y-95766752D01*
X145296071Y-95663629D01*
X145232164Y-95594208D01*
X145140108Y-95494208D01*
X144978702Y-95368581D01*
X144958391Y-95352772D01*
X144755869Y-95243172D01*
X144755861Y-95243169D01*
X144538074Y-95168402D01*
X144367720Y-95139975D01*
X144310937Y-95130500D01*
X144080663Y-95130500D01*
X144035236Y-95138080D01*
X143853525Y-95168402D01*
X143635738Y-95243169D01*
X143635730Y-95243172D01*
X143433208Y-95352772D01*
X143251494Y-95494206D01*
X143251489Y-95494211D01*
X143095528Y-95663629D01*
X142969582Y-95856405D01*
X142877082Y-96067285D01*
X142820553Y-96290515D01*
X142801538Y-96519994D01*
X142801538Y-96520005D01*
X142820553Y-96749484D01*
X142877082Y-96972714D01*
X142969582Y-97183594D01*
X143095528Y-97376370D01*
X143095531Y-97376373D01*
X143251492Y-97545792D01*
X143279000Y-97567202D01*
X143437259Y-97690380D01*
X143436276Y-97691641D01*
X143476983Y-97739349D01*
X143486400Y-97808581D01*
X143456892Y-97871914D01*
X143436936Y-97889205D01*
X143437259Y-97889620D01*
X143251494Y-98034206D01*
X143251489Y-98034211D01*
X143095528Y-98203629D01*
X142969582Y-98396405D01*
X142877082Y-98607285D01*
X142820553Y-98830515D01*
X142801538Y-99059994D01*
X142801538Y-99060005D01*
X142820553Y-99289484D01*
X142877082Y-99512714D01*
X142969582Y-99723594D01*
X143095528Y-99916370D01*
X143095531Y-99916373D01*
X143251492Y-100085792D01*
X143368391Y-100176778D01*
X143437259Y-100230380D01*
X143436276Y-100231641D01*
X143476983Y-100279349D01*
X143486400Y-100348581D01*
X143456892Y-100411914D01*
X143436936Y-100429205D01*
X143437259Y-100429620D01*
X143251494Y-100574206D01*
X143251489Y-100574211D01*
X143095528Y-100743629D01*
X142969582Y-100936405D01*
X142877082Y-101147285D01*
X142820553Y-101370515D01*
X142801538Y-101599994D01*
X142801538Y-101600005D01*
X142820553Y-101829484D01*
X142877082Y-102052714D01*
X142969582Y-102263595D01*
X143016965Y-102336120D01*
X143037153Y-102403010D01*
X143017972Y-102470195D01*
X143008696Y-102482985D01*
X142994570Y-102500059D01*
X142986711Y-102508696D01*
X142292228Y-103203181D01*
X142230905Y-103236666D01*
X142204547Y-103239500D01*
X142145354Y-103239500D01*
X142112897Y-103246398D01*
X141960197Y-103278855D01*
X141960192Y-103278857D01*
X141787270Y-103355848D01*
X141787265Y-103355851D01*
X141634129Y-103467111D01*
X141507466Y-103607785D01*
X141412821Y-103771715D01*
X141412818Y-103771722D01*
X141367723Y-103910512D01*
X141354326Y-103951744D01*
X141334540Y-104140000D01*
X141354326Y-104328256D01*
X141354327Y-104328259D01*
X141412818Y-104508277D01*
X141412821Y-104508284D01*
X141507467Y-104672216D01*
X141625761Y-104803594D01*
X141634129Y-104812888D01*
X141787265Y-104924148D01*
X141787270Y-104924151D01*
X141960192Y-105001142D01*
X141960197Y-105001144D01*
X142145354Y-105040500D01*
X142145355Y-105040500D01*
X142334644Y-105040500D01*
X142334646Y-105040500D01*
X142519803Y-105001144D01*
X142692730Y-104924151D01*
X142828460Y-104825537D01*
X142894262Y-104802059D01*
X142962316Y-104817884D01*
X143005151Y-104858036D01*
X143095528Y-104996370D01*
X143095531Y-104996373D01*
X143251492Y-105165792D01*
X143368391Y-105256778D01*
X143437259Y-105310380D01*
X143436276Y-105311641D01*
X143476983Y-105359349D01*
X143486400Y-105428581D01*
X143456892Y-105491914D01*
X143436936Y-105509205D01*
X143437259Y-105509620D01*
X143251494Y-105654206D01*
X143251489Y-105654211D01*
X143095528Y-105823629D01*
X142969582Y-106016405D01*
X142877082Y-106227285D01*
X142820553Y-106450515D01*
X142801538Y-106679994D01*
X142801538Y-106680005D01*
X142820553Y-106909484D01*
X142877082Y-107132714D01*
X142909531Y-107206690D01*
X142918434Y-107275990D01*
X142888457Y-107339102D01*
X142829117Y-107375989D01*
X142795975Y-107380500D01*
X130592252Y-107380500D01*
X130525213Y-107360815D01*
X130504571Y-107344181D01*
X125248094Y-102087703D01*
X125214609Y-102026380D01*
X125215569Y-101969581D01*
X125225723Y-101929484D01*
X125251046Y-101829488D01*
X125251047Y-101829479D01*
X125270062Y-101600005D01*
X125270062Y-101599994D01*
X125251046Y-101370515D01*
X125251046Y-101370512D01*
X125194517Y-101147284D01*
X125102017Y-100936405D01*
X124976071Y-100743629D01*
X124912164Y-100674208D01*
X124820108Y-100574208D01*
X124638389Y-100432771D01*
X124638390Y-100432771D01*
X124634341Y-100429620D01*
X124635325Y-100428354D01*
X124594624Y-100380670D01*
X124585196Y-100311439D01*
X124614693Y-100248102D01*
X124634665Y-100230796D01*
X124634341Y-100230380D01*
X124685491Y-100190568D01*
X124820108Y-100085792D01*
X124976069Y-99916373D01*
X125102017Y-99723595D01*
X125194517Y-99512716D01*
X125251046Y-99289488D01*
X125270062Y-99060000D01*
X125259332Y-98930512D01*
X125251047Y-98830520D01*
X125251045Y-98830508D01*
X125215569Y-98690416D01*
X125218194Y-98620596D01*
X125248092Y-98572297D01*
X125473588Y-98346801D01*
X125485842Y-98336986D01*
X125485659Y-98336764D01*
X125491668Y-98331791D01*
X125491677Y-98331786D01*
X125537749Y-98282722D01*
X125540366Y-98280023D01*
X125559920Y-98260471D01*
X125562376Y-98257303D01*
X125569956Y-98248427D01*
X125599862Y-98216582D01*
X125609513Y-98199024D01*
X125620196Y-98182761D01*
X125632473Y-98166936D01*
X125649821Y-98126844D01*
X125654951Y-98116371D01*
X125675997Y-98078092D01*
X125680980Y-98058680D01*
X125687281Y-98040280D01*
X125695237Y-98021896D01*
X125702070Y-97978748D01*
X125704433Y-97967338D01*
X125715300Y-97925019D01*
X125715300Y-97904983D01*
X125716827Y-97885582D01*
X125717292Y-97882648D01*
X125719960Y-97865804D01*
X125715850Y-97822324D01*
X125715300Y-97810655D01*
X125715300Y-96099881D01*
X125717024Y-96084267D01*
X125716738Y-96084240D01*
X125717472Y-96076477D01*
X125715361Y-96009287D01*
X125715300Y-96005393D01*
X125715300Y-95977795D01*
X125715300Y-95977794D01*
X125714797Y-95973814D01*
X125713880Y-95962165D01*
X125713816Y-95960137D01*
X125712509Y-95918516D01*
X125706920Y-95899281D01*
X125702974Y-95880228D01*
X125700464Y-95860352D01*
X125684378Y-95819725D01*
X125680603Y-95808698D01*
X125668417Y-95766754D01*
X125658221Y-95749513D01*
X125649660Y-95732037D01*
X125642286Y-95713413D01*
X125642285Y-95713411D01*
X125620059Y-95682819D01*
X125616609Y-95678070D01*
X125610212Y-95668334D01*
X125587970Y-95630723D01*
X125587967Y-95630720D01*
X125587965Y-95630717D01*
X125573805Y-95616557D01*
X125561170Y-95601764D01*
X125549393Y-95585556D01*
X125515745Y-95557720D01*
X125507104Y-95549857D01*
X119948259Y-89991012D01*
X119938436Y-89978750D01*
X119938215Y-89978934D01*
X119933242Y-89972922D01*
X119884232Y-89926899D01*
X119881433Y-89924186D01*
X119861933Y-89904685D01*
X119861927Y-89904680D01*
X119858742Y-89902209D01*
X119849890Y-89894648D01*
X119818038Y-89864738D01*
X119818036Y-89864736D01*
X119818033Y-89864735D01*
X119800485Y-89855088D01*
X119784219Y-89844404D01*
X119768388Y-89832124D01*
X119728305Y-89814778D01*
X119717819Y-89809641D01*
X119679550Y-89788603D01*
X119679548Y-89788602D01*
X119660149Y-89783622D01*
X119641737Y-89777318D01*
X119623354Y-89769362D01*
X119623348Y-89769360D01*
X119580216Y-89762529D01*
X119568778Y-89760161D01*
X119526476Y-89749300D01*
X119526475Y-89749300D01*
X119506440Y-89749300D01*
X119487042Y-89747773D01*
X119479618Y-89746597D01*
X119467261Y-89744640D01*
X119467260Y-89744640D01*
X119423781Y-89748750D01*
X119412112Y-89749300D01*
X105282011Y-89749300D01*
X105214972Y-89729615D01*
X105178202Y-89693121D01*
X105064071Y-89518429D01*
X105037155Y-89489190D01*
X104908108Y-89349008D01*
X104726389Y-89207571D01*
X104726390Y-89207571D01*
X104722341Y-89204420D01*
X104723325Y-89203154D01*
X104682624Y-89155470D01*
X104673196Y-89086239D01*
X104702693Y-89022902D01*
X104722665Y-89005596D01*
X104722341Y-89005180D01*
X104758974Y-88976666D01*
X104908108Y-88860592D01*
X105064069Y-88691173D01*
X105190017Y-88498395D01*
X105282517Y-88287516D01*
X105339046Y-88064288D01*
X105358062Y-87834800D01*
X105339046Y-87605312D01*
X105282517Y-87382084D01*
X105190017Y-87171205D01*
X105064071Y-86978429D01*
X105037155Y-86949190D01*
X104908108Y-86809008D01*
X104726389Y-86667571D01*
X104726390Y-86667571D01*
X104722341Y-86664420D01*
X104723325Y-86663154D01*
X104682624Y-86615470D01*
X104673196Y-86546239D01*
X104702693Y-86482902D01*
X104722665Y-86465596D01*
X104722341Y-86465180D01*
X104758974Y-86436666D01*
X104908108Y-86320592D01*
X105064069Y-86151173D01*
X105190017Y-85958395D01*
X105282517Y-85747516D01*
X105339046Y-85524288D01*
X105358062Y-85294800D01*
X105339046Y-85065312D01*
X105282517Y-84842084D01*
X105190017Y-84631205D01*
X105064071Y-84438429D01*
X105037155Y-84409190D01*
X104908108Y-84269008D01*
X104801896Y-84186340D01*
X104726391Y-84127572D01*
X104523869Y-84017972D01*
X104523861Y-84017969D01*
X104306074Y-83943202D01*
X104135720Y-83914775D01*
X104078937Y-83905300D01*
X103848663Y-83905300D01*
X103803236Y-83912880D01*
X103621525Y-83943202D01*
X103403738Y-84017969D01*
X103403730Y-84017972D01*
X103201208Y-84127572D01*
X103019494Y-84269006D01*
X103019489Y-84269011D01*
X102863528Y-84438429D01*
X102737582Y-84631205D01*
X102645082Y-84842085D01*
X102588553Y-85065315D01*
X102569538Y-85294794D01*
X102569538Y-85294805D01*
X102588553Y-85524284D01*
X102645082Y-85747514D01*
X102737582Y-85958394D01*
X102863528Y-86151170D01*
X102863531Y-86151173D01*
X103019492Y-86320592D01*
X103136391Y-86411578D01*
X103205259Y-86465180D01*
X103204276Y-86466441D01*
X103244983Y-86514149D01*
X103254400Y-86583381D01*
X103224892Y-86646714D01*
X103204936Y-86664005D01*
X103205259Y-86664420D01*
X103019494Y-86809006D01*
X103019489Y-86809011D01*
X102863528Y-86978429D01*
X102737582Y-87171205D01*
X102645082Y-87382085D01*
X102588553Y-87605315D01*
X102569538Y-87834794D01*
X102569538Y-87834805D01*
X102588553Y-88064284D01*
X102645082Y-88287514D01*
X102737582Y-88498394D01*
X102863528Y-88691170D01*
X102863531Y-88691173D01*
X103019492Y-88860592D01*
X103136391Y-88951578D01*
X103205259Y-89005180D01*
X103204276Y-89006441D01*
X103244983Y-89054149D01*
X103254400Y-89123381D01*
X103224892Y-89186714D01*
X103204936Y-89204005D01*
X103205259Y-89204420D01*
X103019494Y-89349006D01*
X103019489Y-89349011D01*
X102863528Y-89518429D01*
X102737582Y-89711205D01*
X102645082Y-89922085D01*
X102588553Y-90145315D01*
X102569538Y-90374794D01*
X102569538Y-90374805D01*
X102588553Y-90604284D01*
X102645082Y-90827514D01*
X102737582Y-91038394D01*
X102863528Y-91231170D01*
X102863531Y-91231173D01*
X103019492Y-91400592D01*
X103136391Y-91491578D01*
X103205259Y-91545180D01*
X103204276Y-91546441D01*
X103244983Y-91594149D01*
X103254400Y-91663381D01*
X103224892Y-91726714D01*
X103204936Y-91744005D01*
X103205259Y-91744420D01*
X103019494Y-91889006D01*
X103019489Y-91889011D01*
X102863528Y-92058429D01*
X102737582Y-92251205D01*
X102645082Y-92462085D01*
X102588553Y-92685315D01*
X102569538Y-92914794D01*
X102569538Y-92914805D01*
X102588553Y-93144284D01*
X102645082Y-93367514D01*
X102737582Y-93578394D01*
X102863528Y-93771170D01*
X102863531Y-93771173D01*
X103019492Y-93940592D01*
X103136391Y-94031578D01*
X103205259Y-94085180D01*
X103204276Y-94086441D01*
X103244983Y-94134149D01*
X103254400Y-94203381D01*
X103224892Y-94266714D01*
X103204936Y-94284005D01*
X103205259Y-94284420D01*
X103019494Y-94429006D01*
X103019489Y-94429011D01*
X102863528Y-94598429D01*
X102737582Y-94791205D01*
X102645082Y-95002085D01*
X102588553Y-95225315D01*
X102569538Y-95454794D01*
X102569538Y-95454805D01*
X102588553Y-95684284D01*
X102645082Y-95907514D01*
X102737582Y-96118394D01*
X102863528Y-96311170D01*
X102863531Y-96311173D01*
X103019492Y-96480592D01*
X103070116Y-96519994D01*
X103205259Y-96625180D01*
X103204370Y-96626321D01*
X103245432Y-96674424D01*
X103254863Y-96743655D01*
X103225368Y-96806994D01*
X103205229Y-96824451D01*
X103205533Y-96824841D01*
X103172840Y-96850285D01*
X103172840Y-96850287D01*
X103795196Y-97472643D01*
X103677388Y-97523815D01*
X103560938Y-97618554D01*
X103474367Y-97741197D01*
X103443498Y-97828052D01*
X102820559Y-97205113D01*
X102738024Y-97331444D01*
X102645557Y-97542246D01*
X102589049Y-97765391D01*
X102589047Y-97765403D01*
X102570040Y-97994794D01*
X102570040Y-97994805D01*
X102589047Y-98224196D01*
X102589049Y-98224208D01*
X102645557Y-98447353D01*
X102738023Y-98658152D01*
X102820560Y-98784485D01*
X103441168Y-98163876D01*
X103444394Y-98179397D01*
X103513458Y-98312686D01*
X103615923Y-98422398D01*
X103744188Y-98500398D01*
X103796966Y-98515186D01*
X103172840Y-99139312D01*
X103172840Y-99139314D01*
X103201477Y-99161603D01*
X103201483Y-99161607D01*
X103403931Y-99271167D01*
X103403940Y-99271170D01*
X103621649Y-99345910D01*
X103848705Y-99383800D01*
X104078895Y-99383800D01*
X104305950Y-99345910D01*
X104523659Y-99271170D01*
X104523668Y-99271167D01*
X104726115Y-99161607D01*
X104726116Y-99161606D01*
X104754758Y-99139313D01*
X104754759Y-99139311D01*
X104132404Y-98516956D01*
X104250212Y-98465785D01*
X104366662Y-98371046D01*
X104453233Y-98248403D01*
X104484100Y-98161547D01*
X105107038Y-98784485D01*
X105189572Y-98658159D01*
X105189577Y-98658151D01*
X105282042Y-98447353D01*
X105338550Y-98224208D01*
X105338552Y-98224196D01*
X105357560Y-97994805D01*
X105357560Y-97994794D01*
X105338552Y-97765403D01*
X105338550Y-97765391D01*
X105282042Y-97542246D01*
X105189574Y-97331442D01*
X105107038Y-97205113D01*
X104486430Y-97825721D01*
X104483206Y-97810203D01*
X104414142Y-97676914D01*
X104311677Y-97567202D01*
X104183412Y-97489202D01*
X104130632Y-97474413D01*
X104754758Y-96850286D01*
X104754758Y-96850284D01*
X104722067Y-96824840D01*
X104723009Y-96823629D01*
X104682155Y-96775747D01*
X104672741Y-96706514D01*
X104702250Y-96643182D01*
X104722620Y-96625538D01*
X104722341Y-96625180D01*
X104758974Y-96596666D01*
X104908108Y-96480592D01*
X105064069Y-96311173D01*
X105190017Y-96118395D01*
X105282517Y-95907516D01*
X105339046Y-95684288D01*
X105349534Y-95557720D01*
X105358062Y-95454805D01*
X105358062Y-95454794D01*
X105340526Y-95243172D01*
X105339046Y-95225312D01*
X105282517Y-95002084D01*
X105190017Y-94791205D01*
X105158911Y-94743594D01*
X105064071Y-94598429D01*
X105003576Y-94532714D01*
X104908108Y-94429008D01*
X104726389Y-94287571D01*
X104726390Y-94287571D01*
X104722341Y-94284420D01*
X104723325Y-94283154D01*
X104682624Y-94235470D01*
X104673196Y-94166239D01*
X104702693Y-94102902D01*
X104722665Y-94085596D01*
X104722341Y-94085180D01*
X104758974Y-94056666D01*
X104908108Y-93940592D01*
X105064069Y-93771173D01*
X105178202Y-93596478D01*
X105231348Y-93551122D01*
X105282011Y-93540300D01*
X119960148Y-93540300D01*
X120027187Y-93559985D01*
X120047829Y-93576619D01*
X122154029Y-95682819D01*
X122187514Y-95744142D01*
X122182530Y-95813834D01*
X122140658Y-95869767D01*
X122075194Y-95894184D01*
X122066348Y-95894500D01*
X114382737Y-95894500D01*
X114367120Y-95892776D01*
X114367093Y-95893062D01*
X114359331Y-95892327D01*
X114292144Y-95894439D01*
X114288250Y-95894500D01*
X114260650Y-95894500D01*
X114256962Y-95894965D01*
X114256649Y-95895005D01*
X114245031Y-95895918D01*
X114201372Y-95897290D01*
X114201369Y-95897291D01*
X114182126Y-95902881D01*
X114163083Y-95906825D01*
X114143204Y-95909336D01*
X114143203Y-95909337D01*
X114102593Y-95925415D01*
X114091548Y-95929197D01*
X114049608Y-95941383D01*
X114049604Y-95941385D01*
X114032365Y-95951580D01*
X114014898Y-95960137D01*
X113996269Y-95967512D01*
X113996267Y-95967514D01*
X113960926Y-95993189D01*
X113951168Y-95999599D01*
X113913580Y-96021828D01*
X113899408Y-96036000D01*
X113884623Y-96048628D01*
X113868412Y-96060407D01*
X113840571Y-96094059D01*
X113832711Y-96102696D01*
X112249861Y-97685546D01*
X112188538Y-97719031D01*
X112121917Y-97715146D01*
X112102273Y-97708402D01*
X111950848Y-97683134D01*
X111875137Y-97670500D01*
X111644863Y-97670500D01*
X111606426Y-97676914D01*
X111417725Y-97708402D01*
X111199938Y-97783169D01*
X111199930Y-97783172D01*
X110997408Y-97892772D01*
X110815694Y-98034206D01*
X110815689Y-98034211D01*
X110659728Y-98203629D01*
X110533782Y-98396405D01*
X110441282Y-98607285D01*
X110384753Y-98830515D01*
X110365738Y-99059994D01*
X110365738Y-99060005D01*
X110384753Y-99289484D01*
X110441282Y-99512714D01*
X110533782Y-99723594D01*
X110659728Y-99916370D01*
X110659731Y-99916373D01*
X110815692Y-100085792D01*
X110929139Y-100174091D01*
X110944172Y-100185792D01*
X110997411Y-100227229D01*
X111199931Y-100336828D01*
X111283357Y-100365468D01*
X111417725Y-100411597D01*
X111417727Y-100411597D01*
X111417729Y-100411598D01*
X111644863Y-100449500D01*
X111644864Y-100449500D01*
X111875136Y-100449500D01*
X111875137Y-100449500D01*
X112102271Y-100411598D01*
X112320069Y-100336828D01*
X112522589Y-100227229D01*
X112704308Y-100085792D01*
X112860269Y-99916373D01*
X112986217Y-99723595D01*
X113078717Y-99512716D01*
X113135246Y-99289488D01*
X113154262Y-99060000D01*
X113143532Y-98930512D01*
X113135247Y-98830520D01*
X113135245Y-98830508D01*
X113099769Y-98690416D01*
X113102394Y-98620596D01*
X113132292Y-98572297D01*
X114522772Y-97181819D01*
X114584095Y-97148334D01*
X114610453Y-97145500D01*
X122557589Y-97145500D01*
X122624628Y-97165185D01*
X122661397Y-97201678D01*
X122675575Y-97223379D01*
X122775528Y-97376370D01*
X122775531Y-97376373D01*
X122931492Y-97545792D01*
X122959000Y-97567202D01*
X123117259Y-97690380D01*
X123116276Y-97691641D01*
X123156983Y-97739349D01*
X123166400Y-97808581D01*
X123136892Y-97871914D01*
X123116936Y-97889205D01*
X123117259Y-97889620D01*
X122931494Y-98034206D01*
X122931489Y-98034211D01*
X122775528Y-98203629D01*
X122661398Y-98378321D01*
X122608252Y-98423678D01*
X122557589Y-98434500D01*
X118689188Y-98434500D01*
X118622149Y-98414815D01*
X118587613Y-98381623D01*
X118475045Y-98220858D01*
X118314141Y-98059954D01*
X118127734Y-97929432D01*
X118127732Y-97929431D01*
X117921497Y-97833261D01*
X117921488Y-97833258D01*
X117701697Y-97774366D01*
X117701693Y-97774365D01*
X117701692Y-97774365D01*
X117701691Y-97774364D01*
X117701686Y-97774364D01*
X117475002Y-97754532D01*
X117474998Y-97754532D01*
X117248313Y-97774364D01*
X117248302Y-97774366D01*
X117028511Y-97833258D01*
X117028502Y-97833261D01*
X116822267Y-97929431D01*
X116822265Y-97929432D01*
X116635858Y-98059954D01*
X116474954Y-98220858D01*
X116344432Y-98407265D01*
X116344431Y-98407267D01*
X116248261Y-98613502D01*
X116248258Y-98613511D01*
X116189366Y-98833302D01*
X116189364Y-98833313D01*
X116169532Y-99059998D01*
X116169532Y-99060001D01*
X116189364Y-99286686D01*
X116189366Y-99286697D01*
X116248258Y-99506488D01*
X116248261Y-99506497D01*
X116344431Y-99712732D01*
X116344432Y-99712734D01*
X116474954Y-99899141D01*
X116635858Y-100060045D01*
X116635861Y-100060047D01*
X116822266Y-100190568D01*
X117028504Y-100286739D01*
X117248308Y-100345635D01*
X117410230Y-100359801D01*
X117474998Y-100365468D01*
X117475000Y-100365468D01*
X117475002Y-100365468D01*
X117531673Y-100360509D01*
X117701692Y-100345635D01*
X117921496Y-100286739D01*
X118127734Y-100190568D01*
X118314139Y-100060047D01*
X118475047Y-99899139D01*
X118587613Y-99738377D01*
X118642189Y-99694752D01*
X118689188Y-99685500D01*
X122557589Y-99685500D01*
X122624628Y-99705185D01*
X122661398Y-99741679D01*
X122775528Y-99916370D01*
X122775531Y-99916373D01*
X122931492Y-100085792D01*
X123048391Y-100176778D01*
X123117259Y-100230380D01*
X123116276Y-100231641D01*
X123156983Y-100279349D01*
X123166400Y-100348581D01*
X123136892Y-100411914D01*
X123116936Y-100429205D01*
X123117259Y-100429620D01*
X122931494Y-100574206D01*
X122931489Y-100574211D01*
X122775528Y-100743629D01*
X122649582Y-100936405D01*
X122557082Y-101147285D01*
X122500553Y-101370515D01*
X122481538Y-101599994D01*
X122481538Y-101600005D01*
X122500553Y-101829484D01*
X122557082Y-102052714D01*
X122649582Y-102263594D01*
X122775528Y-102456370D01*
X122775531Y-102456373D01*
X122931492Y-102625792D01*
X123048391Y-102716778D01*
X123117259Y-102770380D01*
X123116276Y-102771641D01*
X123156983Y-102819349D01*
X123166400Y-102888581D01*
X123136892Y-102951914D01*
X123116936Y-102969205D01*
X123117259Y-102969620D01*
X122931494Y-103114206D01*
X122931489Y-103114211D01*
X122775528Y-103283629D01*
X122649582Y-103476405D01*
X122557082Y-103687285D01*
X122500553Y-103910515D01*
X122481538Y-104139994D01*
X122481538Y-104140005D01*
X122500553Y-104369484D01*
X122557082Y-104592714D01*
X122649582Y-104803594D01*
X122775528Y-104996370D01*
X122775531Y-104996373D01*
X122931492Y-105165792D01*
X123048391Y-105256778D01*
X123117259Y-105310380D01*
X123116276Y-105311641D01*
X123156983Y-105359349D01*
X123166400Y-105428581D01*
X123136892Y-105491914D01*
X123116936Y-105509205D01*
X123117259Y-105509620D01*
X122931494Y-105654206D01*
X122931489Y-105654211D01*
X122775528Y-105823629D01*
X122649582Y-106016405D01*
X122557082Y-106227285D01*
X122500553Y-106450515D01*
X122481538Y-106679994D01*
X122481538Y-106680005D01*
X122500553Y-106909484D01*
X122557082Y-107132714D01*
X122649582Y-107343594D01*
X122775528Y-107536370D01*
X122775531Y-107536373D01*
X122931492Y-107705792D01*
X123048391Y-107796778D01*
X123117259Y-107850380D01*
X123116276Y-107851641D01*
X123156983Y-107899349D01*
X123166400Y-107968581D01*
X123136892Y-108031914D01*
X123116936Y-108049205D01*
X123117259Y-108049620D01*
X122931494Y-108194206D01*
X122931489Y-108194211D01*
X122775528Y-108363629D01*
X122649582Y-108556405D01*
X122557082Y-108767285D01*
X122500553Y-108990515D01*
X122481538Y-109219994D01*
X122481538Y-109220005D01*
X122500553Y-109449484D01*
X122557082Y-109672714D01*
X122649582Y-109883594D01*
X122775528Y-110076370D01*
X122775531Y-110076373D01*
X122931492Y-110245792D01*
X123048391Y-110336778D01*
X123117259Y-110390380D01*
X123116276Y-110391641D01*
X123156983Y-110439349D01*
X123166400Y-110508581D01*
X123136892Y-110571914D01*
X123116936Y-110589205D01*
X123117259Y-110589620D01*
X122931494Y-110734206D01*
X122931489Y-110734211D01*
X122775528Y-110903629D01*
X122649582Y-111096405D01*
X122557082Y-111307285D01*
X122500553Y-111530515D01*
X122481538Y-111759994D01*
X122481538Y-111760005D01*
X122500553Y-111989484D01*
X122557082Y-112212714D01*
X122649582Y-112423594D01*
X122775528Y-112616370D01*
X122775531Y-112616373D01*
X122931492Y-112785792D01*
X123048391Y-112876778D01*
X123117259Y-112930380D01*
X123116276Y-112931641D01*
X123156983Y-112979349D01*
X123166400Y-113048581D01*
X123136892Y-113111914D01*
X123116936Y-113129205D01*
X123117259Y-113129620D01*
X122931494Y-113274206D01*
X122931489Y-113274211D01*
X122775528Y-113443629D01*
X122649582Y-113636405D01*
X122557082Y-113847285D01*
X122500553Y-114070515D01*
X122481538Y-114299994D01*
X122481538Y-114300005D01*
X122500553Y-114529484D01*
X122557082Y-114752714D01*
X122649582Y-114963594D01*
X122775528Y-115156370D01*
X122775531Y-115156373D01*
X122931492Y-115325792D01*
X123014162Y-115390136D01*
X123117259Y-115470380D01*
X123116276Y-115471641D01*
X123156983Y-115519349D01*
X123166400Y-115588581D01*
X123136892Y-115651914D01*
X123116936Y-115669205D01*
X123117259Y-115669620D01*
X122931494Y-115814206D01*
X122931489Y-115814211D01*
X122775528Y-115983629D01*
X122649582Y-116176405D01*
X122557082Y-116387285D01*
X122500553Y-116610515D01*
X122481538Y-116839994D01*
X122481538Y-116840005D01*
X122500553Y-117069484D01*
X122557082Y-117292714D01*
X122649582Y-117503594D01*
X122775528Y-117696370D01*
X122775531Y-117696373D01*
X122931492Y-117865792D01*
X123048391Y-117956778D01*
X123117259Y-118010380D01*
X123116370Y-118011521D01*
X123157432Y-118059624D01*
X123166863Y-118128855D01*
X123137368Y-118192194D01*
X123117229Y-118209651D01*
X123117533Y-118210041D01*
X123084840Y-118235485D01*
X123084840Y-118235487D01*
X123707196Y-118857843D01*
X123589388Y-118909015D01*
X123472938Y-119003754D01*
X123386367Y-119126397D01*
X123355498Y-119213252D01*
X122732559Y-118590313D01*
X122650024Y-118716644D01*
X122557557Y-118927446D01*
X122501049Y-119150591D01*
X122501047Y-119150603D01*
X122482040Y-119379994D01*
X122482040Y-119380005D01*
X122501047Y-119609396D01*
X122501049Y-119609408D01*
X122557557Y-119832553D01*
X122650023Y-120043352D01*
X122732560Y-120169685D01*
X123353168Y-119549076D01*
X123356394Y-119564597D01*
X123425458Y-119697886D01*
X123527923Y-119807598D01*
X123656188Y-119885598D01*
X123708966Y-119900386D01*
X123084840Y-120524512D01*
X123084840Y-120524514D01*
X123117533Y-120549960D01*
X123116589Y-120551172D01*
X123157439Y-120599043D01*
X123166860Y-120668274D01*
X123137356Y-120731609D01*
X123116981Y-120749263D01*
X123117259Y-120749620D01*
X122931494Y-120894206D01*
X122931489Y-120894211D01*
X122775528Y-121063629D01*
X122649582Y-121256405D01*
X122557082Y-121467285D01*
X122500553Y-121690515D01*
X122481538Y-121919994D01*
X122481538Y-121920005D01*
X122500553Y-122149484D01*
X122557082Y-122372713D01*
X122564968Y-122390692D01*
X122573869Y-122459992D01*
X122543892Y-122523104D01*
X122484552Y-122559989D01*
X122451411Y-122564500D01*
X98049653Y-122564500D01*
X97982614Y-122544815D01*
X97961972Y-122528181D01*
X97562094Y-122128303D01*
X97528609Y-122066980D01*
X97529569Y-122010181D01*
X97565046Y-121870088D01*
X97572025Y-121785865D01*
X97584062Y-121640605D01*
X97584062Y-121640594D01*
X97569701Y-121467285D01*
X97565046Y-121411112D01*
X97555362Y-121372870D01*
X107767000Y-121372870D01*
X107767001Y-121372876D01*
X107773408Y-121432483D01*
X107823702Y-121567328D01*
X107823706Y-121567335D01*
X107909952Y-121682544D01*
X107909955Y-121682547D01*
X108025164Y-121768793D01*
X108025171Y-121768797D01*
X108160017Y-121819091D01*
X108160016Y-121819091D01*
X108166944Y-121819835D01*
X108219627Y-121825500D01*
X110220372Y-121825499D01*
X110279983Y-121819091D01*
X110414831Y-121768796D01*
X110530046Y-121682546D01*
X110616296Y-121567331D01*
X110627725Y-121536687D01*
X110669594Y-121480755D01*
X110735058Y-121456336D01*
X110803331Y-121471186D01*
X110820069Y-121482167D01*
X110962552Y-121593066D01*
X110962558Y-121593070D01*
X110962561Y-121593072D01*
X111127891Y-121682544D01*
X111173478Y-121707215D01*
X111174336Y-121707679D01*
X111292598Y-121748278D01*
X111402083Y-121785865D01*
X111402085Y-121785865D01*
X111402087Y-121785866D01*
X111639601Y-121825500D01*
X111639602Y-121825500D01*
X111880398Y-121825500D01*
X111880399Y-121825500D01*
X112117913Y-121785866D01*
X112345664Y-121707679D01*
X112557439Y-121593072D01*
X112747463Y-121445171D01*
X112910551Y-121268010D01*
X112926489Y-121243613D01*
X112979631Y-121198258D01*
X113048862Y-121188831D01*
X113112199Y-121218330D01*
X113134106Y-121243611D01*
X113149847Y-121267704D01*
X113149851Y-121267710D01*
X113312873Y-121444797D01*
X113312883Y-121444806D01*
X113502831Y-121592649D01*
X113502840Y-121592655D01*
X113714531Y-121707215D01*
X113714545Y-121707221D01*
X113942207Y-121785379D01*
X114050000Y-121803366D01*
X114050000Y-120816683D01*
X114078819Y-120834209D01*
X114224404Y-120875000D01*
X114337622Y-120875000D01*
X114449783Y-120859584D01*
X114550000Y-120816053D01*
X114550000Y-121803365D01*
X114657792Y-121785379D01*
X114885454Y-121707221D01*
X114885468Y-121707215D01*
X115097159Y-121592655D01*
X115097168Y-121592649D01*
X115287116Y-121444806D01*
X115287126Y-121444797D01*
X115450148Y-121267710D01*
X115450156Y-121267699D01*
X115581813Y-121066184D01*
X115678508Y-120845740D01*
X115737599Y-120612395D01*
X115737599Y-120612394D01*
X115740697Y-120575000D01*
X114794852Y-120575000D01*
X114843559Y-120437953D01*
X114853877Y-120287114D01*
X114823116Y-120139085D01*
X114789910Y-120075000D01*
X115740697Y-120075000D01*
X115737599Y-120037605D01*
X115737599Y-120037604D01*
X115678508Y-119804259D01*
X115581813Y-119583815D01*
X115450156Y-119382300D01*
X115450148Y-119382289D01*
X115287126Y-119205202D01*
X115287116Y-119205193D01*
X115097168Y-119057350D01*
X115097159Y-119057344D01*
X114885468Y-118942784D01*
X114885454Y-118942778D01*
X114657791Y-118864619D01*
X114550000Y-118846633D01*
X114550000Y-119833316D01*
X114521181Y-119815791D01*
X114375596Y-119775000D01*
X114262378Y-119775000D01*
X114150217Y-119790416D01*
X114050000Y-119833946D01*
X114050000Y-118846633D01*
X114049999Y-118846633D01*
X113942208Y-118864619D01*
X113714545Y-118942778D01*
X113714531Y-118942784D01*
X113502840Y-119057344D01*
X113502831Y-119057350D01*
X113312883Y-119205193D01*
X113312873Y-119205202D01*
X113149851Y-119382289D01*
X113149846Y-119382297D01*
X113134104Y-119406390D01*
X113080955Y-119451745D01*
X113011724Y-119461165D01*
X112948389Y-119431660D01*
X112926489Y-119406384D01*
X112910555Y-119381994D01*
X112817896Y-119281340D01*
X112747463Y-119204829D01*
X112613358Y-119100451D01*
X112557441Y-119056929D01*
X112345665Y-118942321D01*
X112345656Y-118942318D01*
X112117916Y-118864134D01*
X111918800Y-118830908D01*
X111880399Y-118824500D01*
X111639601Y-118824500D01*
X111601200Y-118830908D01*
X111402083Y-118864134D01*
X111174343Y-118942318D01*
X111174334Y-118942321D01*
X110962559Y-119056929D01*
X110820069Y-119167833D01*
X110755075Y-119193475D01*
X110686535Y-119179908D01*
X110636210Y-119131440D01*
X110627725Y-119113311D01*
X110616298Y-119082673D01*
X110616293Y-119082664D01*
X110530047Y-118967455D01*
X110530044Y-118967452D01*
X110414835Y-118881206D01*
X110414828Y-118881202D01*
X110279982Y-118830908D01*
X110279983Y-118830908D01*
X110220383Y-118824501D01*
X110220381Y-118824500D01*
X110220373Y-118824500D01*
X110220364Y-118824500D01*
X108219629Y-118824500D01*
X108219623Y-118824501D01*
X108160016Y-118830908D01*
X108025171Y-118881202D01*
X108025164Y-118881206D01*
X107909955Y-118967452D01*
X107909952Y-118967455D01*
X107823706Y-119082664D01*
X107823702Y-119082671D01*
X107773408Y-119217517D01*
X107767001Y-119277116D01*
X107767000Y-119277135D01*
X107767000Y-121372870D01*
X97555362Y-121372870D01*
X97508517Y-121187884D01*
X97416017Y-120977005D01*
X97349374Y-120875000D01*
X97290071Y-120784229D01*
X97213149Y-120700670D01*
X97134108Y-120614808D01*
X97018097Y-120524513D01*
X96952391Y-120473372D01*
X96749869Y-120363772D01*
X96749861Y-120363769D01*
X96532074Y-120289002D01*
X96361720Y-120260575D01*
X96304937Y-120251100D01*
X96074663Y-120251100D01*
X96029236Y-120258680D01*
X95847525Y-120289002D01*
X95629738Y-120363769D01*
X95629730Y-120363772D01*
X95427208Y-120473372D01*
X95245494Y-120614806D01*
X95245489Y-120614811D01*
X95089528Y-120784229D01*
X94963582Y-120977005D01*
X94871082Y-121187885D01*
X94814553Y-121411115D01*
X94795538Y-121640594D01*
X94795538Y-121640605D01*
X94814553Y-121870084D01*
X94871082Y-122093314D01*
X94963582Y-122304194D01*
X95089528Y-122496970D01*
X95089531Y-122496973D01*
X95245492Y-122666392D01*
X95362391Y-122757378D01*
X95431259Y-122810980D01*
X95430370Y-122812121D01*
X95471432Y-122860224D01*
X95480863Y-122929455D01*
X95451368Y-122992794D01*
X95431229Y-123010251D01*
X95431533Y-123010641D01*
X95398840Y-123036085D01*
X95398840Y-123036087D01*
X96021196Y-123658443D01*
X95903388Y-123709615D01*
X95786938Y-123804354D01*
X95700367Y-123926997D01*
X95669498Y-124013852D01*
X95046559Y-123390913D01*
X94964024Y-123517244D01*
X94871557Y-123728046D01*
X94815049Y-123951191D01*
X94815047Y-123951203D01*
X94796040Y-124180594D01*
X94796040Y-124180605D01*
X94815047Y-124409996D01*
X94815049Y-124410008D01*
X94871557Y-124633153D01*
X94964023Y-124843952D01*
X95046560Y-124970285D01*
X95667168Y-124349676D01*
X95670394Y-124365197D01*
X95739458Y-124498486D01*
X95841923Y-124608198D01*
X95970188Y-124686198D01*
X96022966Y-124700986D01*
X95398840Y-125325112D01*
X95398840Y-125325114D01*
X95431533Y-125350560D01*
X95430589Y-125351772D01*
X95471439Y-125399643D01*
X95480860Y-125468874D01*
X95451356Y-125532209D01*
X95430981Y-125549863D01*
X95431259Y-125550220D01*
X95245494Y-125694806D01*
X95245489Y-125694811D01*
X95089528Y-125864229D01*
X94963582Y-126057005D01*
X94871082Y-126267885D01*
X94814553Y-126491115D01*
X94795538Y-126720594D01*
X94795538Y-126720605D01*
X50800500Y-126720605D01*
X50800500Y-117424205D01*
X61623144Y-117424205D01*
X61642148Y-117726274D01*
X61642149Y-117726281D01*
X61654430Y-117790661D01*
X61696423Y-118010796D01*
X61698868Y-118023610D01*
X61759172Y-118209205D01*
X61792401Y-118311474D01*
X61921277Y-118585350D01*
X61921279Y-118585353D01*
X61921280Y-118585355D01*
X62083458Y-118840908D01*
X62083461Y-118840912D01*
X62083462Y-118840913D01*
X62276399Y-119074134D01*
X62415963Y-119205193D01*
X62497043Y-119281332D01*
X62497053Y-119281340D01*
X62741908Y-119459238D01*
X62741913Y-119459240D01*
X62741920Y-119459246D01*
X63007163Y-119605065D01*
X63007168Y-119605067D01*
X63007170Y-119605068D01*
X63007171Y-119605069D01*
X63288586Y-119716489D01*
X63288589Y-119716490D01*
X63576513Y-119790416D01*
X63581763Y-119791764D01*
X63644760Y-119799722D01*
X63882047Y-119829699D01*
X63882056Y-119829699D01*
X63882059Y-119829700D01*
X63882061Y-119829700D01*
X64184739Y-119829700D01*
X64184741Y-119829700D01*
X64184744Y-119829699D01*
X64184752Y-119829699D01*
X64386128Y-119804259D01*
X64485037Y-119791764D01*
X64778210Y-119716490D01*
X64778213Y-119716489D01*
X65059628Y-119605069D01*
X65059629Y-119605068D01*
X65059627Y-119605068D01*
X65059637Y-119605065D01*
X65324880Y-119459246D01*
X65569755Y-119281334D01*
X65790401Y-119074134D01*
X65983338Y-118840913D01*
X66145523Y-118585350D01*
X66274399Y-118311474D01*
X66367933Y-118023606D01*
X66424650Y-117726285D01*
X66443656Y-117424205D01*
X91569744Y-117424205D01*
X91588748Y-117726274D01*
X91588749Y-117726281D01*
X91601030Y-117790661D01*
X91643023Y-118010796D01*
X91645468Y-118023610D01*
X91705772Y-118209205D01*
X91739001Y-118311474D01*
X91867877Y-118585350D01*
X91867879Y-118585353D01*
X91867880Y-118585355D01*
X92030058Y-118840908D01*
X92030061Y-118840912D01*
X92030062Y-118840913D01*
X92222999Y-119074134D01*
X92362563Y-119205193D01*
X92443643Y-119281332D01*
X92443653Y-119281340D01*
X92688508Y-119459238D01*
X92688513Y-119459240D01*
X92688520Y-119459246D01*
X92953763Y-119605065D01*
X92953768Y-119605067D01*
X92953770Y-119605068D01*
X92953771Y-119605069D01*
X93235186Y-119716489D01*
X93235189Y-119716490D01*
X93523113Y-119790416D01*
X93528363Y-119791764D01*
X93591360Y-119799722D01*
X93828647Y-119829699D01*
X93828656Y-119829699D01*
X93828659Y-119829700D01*
X93828661Y-119829700D01*
X94131339Y-119829700D01*
X94131341Y-119829700D01*
X94131344Y-119829699D01*
X94131352Y-119829699D01*
X94332728Y-119804259D01*
X94431637Y-119791764D01*
X94724810Y-119716490D01*
X94724813Y-119716489D01*
X95006228Y-119605069D01*
X95006229Y-119605068D01*
X95006227Y-119605068D01*
X95006237Y-119605065D01*
X95271480Y-119459246D01*
X95516355Y-119281334D01*
X95737001Y-119074134D01*
X95929938Y-118840913D01*
X96092123Y-118585350D01*
X96220999Y-118311474D01*
X96314533Y-118023606D01*
X96371250Y-117726285D01*
X96390256Y-117424200D01*
X96381983Y-117292714D01*
X96371251Y-117122125D01*
X96371250Y-117122118D01*
X96371250Y-117122115D01*
X96314533Y-116824794D01*
X96220999Y-116536926D01*
X96092123Y-116263050D01*
X96044421Y-116187885D01*
X95929941Y-116007491D01*
X95872688Y-115938284D01*
X95737001Y-115774266D01*
X95516355Y-115567066D01*
X95516352Y-115567064D01*
X95516346Y-115567059D01*
X95271491Y-115389161D01*
X95271484Y-115389156D01*
X95271480Y-115389154D01*
X95006237Y-115243335D01*
X95006234Y-115243333D01*
X95006229Y-115243331D01*
X95006228Y-115243330D01*
X94724813Y-115131910D01*
X94724810Y-115131909D01*
X94431640Y-115056636D01*
X94431627Y-115056634D01*
X94131352Y-115018700D01*
X94131341Y-115018700D01*
X93828659Y-115018700D01*
X93828647Y-115018700D01*
X93528372Y-115056634D01*
X93528359Y-115056636D01*
X93235189Y-115131909D01*
X93235186Y-115131910D01*
X92953771Y-115243330D01*
X92953770Y-115243331D01*
X92688520Y-115389154D01*
X92688508Y-115389161D01*
X92443653Y-115567059D01*
X92443643Y-115567067D01*
X92231080Y-115766677D01*
X92222999Y-115774266D01*
X92209916Y-115790081D01*
X92030058Y-116007491D01*
X91867880Y-116263044D01*
X91739000Y-116536928D01*
X91645468Y-116824789D01*
X91588749Y-117122118D01*
X91588748Y-117122125D01*
X91569744Y-117424194D01*
X91569744Y-117424205D01*
X66443656Y-117424205D01*
X66443656Y-117424200D01*
X66435383Y-117292714D01*
X66424651Y-117122125D01*
X66424650Y-117122118D01*
X66424650Y-117122115D01*
X66367933Y-116824794D01*
X66274399Y-116536926D01*
X66145523Y-116263050D01*
X66097821Y-116187885D01*
X65983341Y-116007491D01*
X65926088Y-115938284D01*
X65790401Y-115774266D01*
X65569755Y-115567066D01*
X65569752Y-115567064D01*
X65569746Y-115567059D01*
X65324891Y-115389161D01*
X65324884Y-115389156D01*
X65324880Y-115389154D01*
X65059637Y-115243335D01*
X65059634Y-115243333D01*
X65059629Y-115243331D01*
X65059628Y-115243330D01*
X64778213Y-115131910D01*
X64778210Y-115131909D01*
X64485040Y-115056636D01*
X64485027Y-115056634D01*
X64184752Y-115018700D01*
X64184741Y-115018700D01*
X63882059Y-115018700D01*
X63882047Y-115018700D01*
X63581772Y-115056634D01*
X63581759Y-115056636D01*
X63288589Y-115131909D01*
X63288586Y-115131910D01*
X63007171Y-115243330D01*
X63007170Y-115243331D01*
X62741920Y-115389154D01*
X62741908Y-115389161D01*
X62497053Y-115567059D01*
X62497043Y-115567067D01*
X62284480Y-115766677D01*
X62276399Y-115774266D01*
X62263316Y-115790081D01*
X62083458Y-116007491D01*
X61921280Y-116263044D01*
X61792400Y-116536928D01*
X61698868Y-116824789D01*
X61642149Y-117122118D01*
X61642148Y-117122125D01*
X61623144Y-117424194D01*
X61623144Y-117424205D01*
X50800500Y-117424205D01*
X50800500Y-114260001D01*
X107914532Y-114260001D01*
X107934364Y-114486686D01*
X107934366Y-114486697D01*
X107993258Y-114706488D01*
X107993261Y-114706497D01*
X108089431Y-114912732D01*
X108089432Y-114912734D01*
X108219954Y-115099141D01*
X108380858Y-115260045D01*
X108380861Y-115260047D01*
X108567266Y-115390568D01*
X108773504Y-115486739D01*
X108773509Y-115486740D01*
X108773511Y-115486741D01*
X108818875Y-115498896D01*
X108993308Y-115545635D01*
X109155230Y-115559801D01*
X109219998Y-115565468D01*
X109220000Y-115565468D01*
X109220002Y-115565468D01*
X109276673Y-115560509D01*
X109446692Y-115545635D01*
X109666496Y-115486739D01*
X109872734Y-115390568D01*
X110059139Y-115260047D01*
X110220047Y-115099139D01*
X110350568Y-114912734D01*
X110446739Y-114706496D01*
X110505635Y-114486692D01*
X110525468Y-114260000D01*
X110505635Y-114033308D01*
X110446739Y-113813504D01*
X110350568Y-113607266D01*
X110220047Y-113420861D01*
X110220045Y-113420858D01*
X110059141Y-113259954D01*
X109872734Y-113129432D01*
X109870422Y-113128354D01*
X109857614Y-113122381D01*
X109805176Y-113076211D01*
X109786023Y-113009018D01*
X109806238Y-112942136D01*
X109857614Y-112897618D01*
X109872734Y-112890568D01*
X110059139Y-112760047D01*
X110220047Y-112599139D01*
X110350568Y-112412734D01*
X110446739Y-112206496D01*
X110505635Y-111986692D01*
X110525468Y-111760001D01*
X114264532Y-111760001D01*
X114284364Y-111986686D01*
X114284366Y-111986697D01*
X114343258Y-112206488D01*
X114343261Y-112206497D01*
X114439431Y-112412732D01*
X114439432Y-112412734D01*
X114569954Y-112599141D01*
X114730858Y-112760045D01*
X114730861Y-112760047D01*
X114917266Y-112890568D01*
X114932975Y-112897893D01*
X114985414Y-112944064D01*
X115004567Y-113011257D01*
X114984352Y-113078138D01*
X114932979Y-113122656D01*
X114917514Y-113129867D01*
X114917512Y-113129868D01*
X114844526Y-113180973D01*
X114844526Y-113180974D01*
X115525599Y-113862046D01*
X115444852Y-113874835D01*
X115331955Y-113932359D01*
X115242359Y-114021955D01*
X115184835Y-114134852D01*
X115172046Y-114215598D01*
X114490974Y-113534526D01*
X114490973Y-113534526D01*
X114439868Y-113607512D01*
X114439866Y-113607516D01*
X114343734Y-113813673D01*
X114343730Y-113813682D01*
X114284860Y-114033389D01*
X114284858Y-114033400D01*
X114265034Y-114259997D01*
X114265034Y-114260002D01*
X114284858Y-114486599D01*
X114284860Y-114486610D01*
X114343730Y-114706317D01*
X114343735Y-114706331D01*
X114439863Y-114912478D01*
X114490974Y-114985472D01*
X115172046Y-114304400D01*
X115184835Y-114385148D01*
X115242359Y-114498045D01*
X115331955Y-114587641D01*
X115444852Y-114645165D01*
X115525599Y-114657953D01*
X114844526Y-115339025D01*
X114917513Y-115390132D01*
X114917521Y-115390136D01*
X115123668Y-115486264D01*
X115123682Y-115486269D01*
X115343389Y-115545139D01*
X115343400Y-115545141D01*
X115569998Y-115564966D01*
X115570002Y-115564966D01*
X115796599Y-115545141D01*
X115796610Y-115545139D01*
X116016317Y-115486269D01*
X116016331Y-115486264D01*
X116222478Y-115390136D01*
X116295471Y-115339024D01*
X115614400Y-114657953D01*
X115695148Y-114645165D01*
X115808045Y-114587641D01*
X115897641Y-114498045D01*
X115955165Y-114385148D01*
X115967953Y-114304400D01*
X116649024Y-114985471D01*
X116700136Y-114912478D01*
X116796264Y-114706331D01*
X116796269Y-114706317D01*
X116855139Y-114486610D01*
X116855141Y-114486599D01*
X116874966Y-114260002D01*
X116874966Y-114259997D01*
X116855141Y-114033400D01*
X116855139Y-114033389D01*
X116796269Y-113813682D01*
X116796264Y-113813668D01*
X116700136Y-113607521D01*
X116700132Y-113607513D01*
X116649025Y-113534526D01*
X115967953Y-114215598D01*
X115955165Y-114134852D01*
X115897641Y-114021955D01*
X115808045Y-113932359D01*
X115695148Y-113874835D01*
X115614401Y-113862046D01*
X116295472Y-113180974D01*
X116222480Y-113129864D01*
X116207024Y-113122657D01*
X116154585Y-113076484D01*
X116135433Y-113009290D01*
X116155649Y-112942409D01*
X116207023Y-112897893D01*
X116222734Y-112890568D01*
X116409139Y-112760047D01*
X116570047Y-112599139D01*
X116700568Y-112412734D01*
X116796739Y-112206496D01*
X116855635Y-111986692D01*
X116875468Y-111760000D01*
X116875467Y-111759994D01*
X116869801Y-111695230D01*
X116855635Y-111533308D01*
X116796739Y-111313504D01*
X116700568Y-111107266D01*
X116570047Y-110920861D01*
X116570045Y-110920858D01*
X116409141Y-110759954D01*
X116222734Y-110629432D01*
X116222732Y-110629431D01*
X116016497Y-110533261D01*
X116016488Y-110533258D01*
X115796697Y-110474366D01*
X115796693Y-110474365D01*
X115796692Y-110474365D01*
X115796691Y-110474364D01*
X115796686Y-110474364D01*
X115570002Y-110454532D01*
X115569998Y-110454532D01*
X115343313Y-110474364D01*
X115343302Y-110474366D01*
X115123511Y-110533258D01*
X115123502Y-110533261D01*
X114917267Y-110629431D01*
X114917265Y-110629432D01*
X114730858Y-110759954D01*
X114569954Y-110920858D01*
X114439432Y-111107265D01*
X114439431Y-111107267D01*
X114343261Y-111313502D01*
X114343258Y-111313511D01*
X114284366Y-111533302D01*
X114284364Y-111533313D01*
X114264532Y-111759998D01*
X114264532Y-111760001D01*
X110525468Y-111760001D01*
X110525468Y-111760000D01*
X110525467Y-111759994D01*
X110519801Y-111695230D01*
X110505635Y-111533308D01*
X110446739Y-111313504D01*
X110350568Y-111107266D01*
X110220047Y-110920861D01*
X110220045Y-110920858D01*
X110059141Y-110759954D01*
X109872734Y-110629432D01*
X109872732Y-110629431D01*
X109666497Y-110533261D01*
X109666488Y-110533258D01*
X109446697Y-110474366D01*
X109446693Y-110474365D01*
X109446692Y-110474365D01*
X109446691Y-110474364D01*
X109446686Y-110474364D01*
X109220002Y-110454532D01*
X109219998Y-110454532D01*
X108993313Y-110474364D01*
X108993302Y-110474366D01*
X108773511Y-110533258D01*
X108773502Y-110533261D01*
X108567267Y-110629431D01*
X108567265Y-110629432D01*
X108380858Y-110759954D01*
X108219954Y-110920858D01*
X108089432Y-111107265D01*
X108089431Y-111107267D01*
X107993261Y-111313502D01*
X107993258Y-111313511D01*
X107934366Y-111533302D01*
X107934364Y-111533313D01*
X107914532Y-111759998D01*
X107914532Y-111760001D01*
X107934364Y-111986686D01*
X107934366Y-111986697D01*
X107993258Y-112206488D01*
X107993261Y-112206497D01*
X108089431Y-112412732D01*
X108089432Y-112412734D01*
X108219954Y-112599141D01*
X108380858Y-112760045D01*
X108380861Y-112760047D01*
X108567266Y-112890568D01*
X108582387Y-112897619D01*
X108634825Y-112943791D01*
X108653976Y-113010985D01*
X108633760Y-113077866D01*
X108582387Y-113122380D01*
X108569578Y-113128354D01*
X108567264Y-113129433D01*
X108380858Y-113259954D01*
X108219954Y-113420858D01*
X108089432Y-113607265D01*
X108089431Y-113607267D01*
X107993261Y-113813502D01*
X107993258Y-113813511D01*
X107934366Y-114033302D01*
X107934364Y-114033313D01*
X107914532Y-114259998D01*
X107914532Y-114260001D01*
X50800500Y-114260001D01*
X50800500Y-106680005D01*
X110366240Y-106680005D01*
X110385247Y-106909396D01*
X110385249Y-106909408D01*
X110441757Y-107132553D01*
X110534223Y-107343352D01*
X110616760Y-107469685D01*
X111237368Y-106849076D01*
X111240594Y-106864597D01*
X111309658Y-106997886D01*
X111412123Y-107107598D01*
X111540388Y-107185598D01*
X111593166Y-107200386D01*
X110969040Y-107824512D01*
X110969040Y-107824514D01*
X110997677Y-107846803D01*
X110997683Y-107846807D01*
X111200131Y-107956367D01*
X111200140Y-107956370D01*
X111417849Y-108031110D01*
X111644905Y-108069000D01*
X111875095Y-108069000D01*
X112102150Y-108031110D01*
X112319859Y-107956370D01*
X112319868Y-107956367D01*
X112522315Y-107846807D01*
X112522316Y-107846806D01*
X112550958Y-107824513D01*
X112550959Y-107824511D01*
X111928604Y-107202156D01*
X112046412Y-107150985D01*
X112162862Y-107056246D01*
X112249433Y-106933603D01*
X112280300Y-106846747D01*
X112903238Y-107469685D01*
X112985772Y-107343359D01*
X112985777Y-107343351D01*
X113078242Y-107132553D01*
X113134750Y-106909408D01*
X113134752Y-106909396D01*
X113153760Y-106680005D01*
X116081240Y-106680005D01*
X116100247Y-106909396D01*
X116100249Y-106909408D01*
X116156757Y-107132553D01*
X116249223Y-107343352D01*
X116331760Y-107469685D01*
X116952368Y-106849076D01*
X116955594Y-106864597D01*
X117024658Y-106997886D01*
X117127123Y-107107598D01*
X117255388Y-107185598D01*
X117308166Y-107200386D01*
X116684040Y-107824512D01*
X116684040Y-107824514D01*
X116712677Y-107846803D01*
X116712683Y-107846807D01*
X116915131Y-107956367D01*
X116915140Y-107956370D01*
X117132849Y-108031110D01*
X117359905Y-108069000D01*
X117590095Y-108069000D01*
X117817150Y-108031110D01*
X118034859Y-107956370D01*
X118034868Y-107956367D01*
X118237315Y-107846807D01*
X118237316Y-107846806D01*
X118265958Y-107824513D01*
X118265959Y-107824511D01*
X117643604Y-107202156D01*
X117761412Y-107150985D01*
X117877862Y-107056246D01*
X117964433Y-106933603D01*
X117995300Y-106846747D01*
X118618238Y-107469685D01*
X118700772Y-107343359D01*
X118700777Y-107343351D01*
X118793242Y-107132553D01*
X118849750Y-106909408D01*
X118849752Y-106909396D01*
X118868760Y-106680005D01*
X118868760Y-106679994D01*
X118849752Y-106450603D01*
X118849750Y-106450591D01*
X118793242Y-106227446D01*
X118700774Y-106016642D01*
X118618238Y-105890313D01*
X117997630Y-106510921D01*
X117994406Y-106495403D01*
X117925342Y-106362114D01*
X117822877Y-106252402D01*
X117694612Y-106174402D01*
X117641832Y-106159613D01*
X118265958Y-105535486D01*
X118265958Y-105535484D01*
X118237322Y-105513196D01*
X118237316Y-105513192D01*
X118034868Y-105403632D01*
X118034859Y-105403629D01*
X117817150Y-105328889D01*
X117590095Y-105291000D01*
X117359905Y-105291000D01*
X117132849Y-105328889D01*
X116915140Y-105403629D01*
X116915132Y-105403632D01*
X116712681Y-105513194D01*
X116684040Y-105535485D01*
X116684040Y-105535487D01*
X117306396Y-106157843D01*
X117188588Y-106209015D01*
X117072138Y-106303754D01*
X116985567Y-106426397D01*
X116954698Y-106513252D01*
X116331759Y-105890313D01*
X116249224Y-106016644D01*
X116156757Y-106227446D01*
X116100249Y-106450591D01*
X116100247Y-106450603D01*
X116081240Y-106679994D01*
X116081240Y-106680005D01*
X113153760Y-106680005D01*
X113153760Y-106679994D01*
X113134752Y-106450603D01*
X113134750Y-106450591D01*
X113078242Y-106227446D01*
X112985774Y-106016642D01*
X112903238Y-105890313D01*
X112282630Y-106510921D01*
X112279406Y-106495403D01*
X112210342Y-106362114D01*
X112107877Y-106252402D01*
X111979612Y-106174402D01*
X111926832Y-106159613D01*
X112550958Y-105535486D01*
X112550958Y-105535484D01*
X112522322Y-105513196D01*
X112522316Y-105513192D01*
X112319868Y-105403632D01*
X112319859Y-105403629D01*
X112102150Y-105328889D01*
X111875095Y-105291000D01*
X111644905Y-105291000D01*
X111417849Y-105328889D01*
X111200140Y-105403629D01*
X111200132Y-105403632D01*
X110997681Y-105513194D01*
X110969040Y-105535485D01*
X110969040Y-105535487D01*
X111591396Y-106157843D01*
X111473588Y-106209015D01*
X111357138Y-106303754D01*
X111270567Y-106426397D01*
X111239698Y-106513252D01*
X110616759Y-105890313D01*
X110534224Y-106016644D01*
X110441757Y-106227446D01*
X110385249Y-106450591D01*
X110385247Y-106450603D01*
X110366240Y-106679994D01*
X110366240Y-106680005D01*
X50800500Y-106680005D01*
X50800500Y-81780845D01*
X116587944Y-81780845D01*
X116606948Y-82082914D01*
X116606949Y-82082921D01*
X116623294Y-82168603D01*
X116661276Y-82367714D01*
X116663668Y-82380250D01*
X116757200Y-82668111D01*
X116757201Y-82668114D01*
X116886077Y-82941990D01*
X116886079Y-82941993D01*
X116886080Y-82941995D01*
X117048258Y-83197548D01*
X117048261Y-83197552D01*
X117048262Y-83197553D01*
X117241199Y-83430774D01*
X117461843Y-83637972D01*
X117461853Y-83637980D01*
X117706708Y-83815878D01*
X117706713Y-83815880D01*
X117706720Y-83815886D01*
X117971963Y-83961705D01*
X117971968Y-83961707D01*
X117971970Y-83961708D01*
X117971971Y-83961709D01*
X118253386Y-84073129D01*
X118253389Y-84073130D01*
X118546559Y-84148403D01*
X118546563Y-84148404D01*
X118609560Y-84156362D01*
X118846847Y-84186339D01*
X118846856Y-84186339D01*
X118846859Y-84186340D01*
X118846861Y-84186340D01*
X119149539Y-84186340D01*
X119149541Y-84186340D01*
X119149544Y-84186339D01*
X119149552Y-84186339D01*
X119328739Y-84163702D01*
X119449837Y-84148404D01*
X119743010Y-84073130D01*
X119743013Y-84073129D01*
X120024428Y-83961709D01*
X120024429Y-83961708D01*
X120024427Y-83961708D01*
X120024437Y-83961705D01*
X120289680Y-83815886D01*
X120534555Y-83637974D01*
X120755201Y-83430774D01*
X120948138Y-83197553D01*
X121110323Y-82941990D01*
X121239199Y-82668114D01*
X121332733Y-82380246D01*
X121389450Y-82082925D01*
X121389451Y-82082914D01*
X121391836Y-82045005D01*
X122481240Y-82045005D01*
X122500247Y-82274396D01*
X122500249Y-82274408D01*
X122556757Y-82497553D01*
X122649223Y-82708352D01*
X122731760Y-82834685D01*
X123352368Y-82214076D01*
X123355594Y-82229597D01*
X123424658Y-82362886D01*
X123527123Y-82472598D01*
X123655388Y-82550598D01*
X123708166Y-82565386D01*
X123084040Y-83189512D01*
X123084040Y-83189514D01*
X123112677Y-83211803D01*
X123112683Y-83211807D01*
X123315131Y-83321367D01*
X123315140Y-83321370D01*
X123532849Y-83396110D01*
X123759905Y-83434000D01*
X123990095Y-83434000D01*
X124217150Y-83396110D01*
X124434859Y-83321370D01*
X124434868Y-83321367D01*
X124637315Y-83211807D01*
X124637316Y-83211806D01*
X124665958Y-83189513D01*
X124665959Y-83189511D01*
X124043604Y-82567156D01*
X124161412Y-82515985D01*
X124277862Y-82421246D01*
X124364433Y-82298603D01*
X124395300Y-82211747D01*
X125018238Y-82834685D01*
X125040892Y-82800012D01*
X125094038Y-82754656D01*
X125163269Y-82745232D01*
X125226605Y-82774734D01*
X125248509Y-82800013D01*
X125314728Y-82901370D01*
X125314731Y-82901373D01*
X125470692Y-83070792D01*
X125584139Y-83159091D01*
X125651868Y-83211807D01*
X125652411Y-83212229D01*
X125854931Y-83321828D01*
X125968025Y-83360653D01*
X126072725Y-83396597D01*
X126072727Y-83396597D01*
X126072729Y-83396598D01*
X126299863Y-83434500D01*
X126299864Y-83434500D01*
X126530136Y-83434500D01*
X126530137Y-83434500D01*
X126757271Y-83396598D01*
X126758693Y-83396110D01*
X126765662Y-83393717D01*
X126975069Y-83321828D01*
X127177589Y-83212229D01*
X127359308Y-83070792D01*
X127515269Y-82901373D01*
X127515271Y-82901370D01*
X127581191Y-82800472D01*
X127634337Y-82755115D01*
X127703569Y-82745691D01*
X127766905Y-82775193D01*
X127788809Y-82800472D01*
X127854728Y-82901370D01*
X127854731Y-82901373D01*
X128010692Y-83070792D01*
X128124139Y-83159091D01*
X128191868Y-83211807D01*
X128192411Y-83212229D01*
X128394931Y-83321828D01*
X128508025Y-83360653D01*
X128612725Y-83396597D01*
X128612727Y-83396597D01*
X128612729Y-83396598D01*
X128839863Y-83434500D01*
X128839864Y-83434500D01*
X129070136Y-83434500D01*
X129070137Y-83434500D01*
X129297271Y-83396598D01*
X129298693Y-83396110D01*
X129305662Y-83393717D01*
X129515069Y-83321828D01*
X129717589Y-83212229D01*
X129899308Y-83070792D01*
X130055269Y-82901373D01*
X130055271Y-82901370D01*
X130121191Y-82800472D01*
X130174337Y-82755115D01*
X130243569Y-82745691D01*
X130306905Y-82775193D01*
X130328809Y-82800472D01*
X130394728Y-82901370D01*
X130394731Y-82901373D01*
X130550692Y-83070792D01*
X130664139Y-83159091D01*
X130731868Y-83211807D01*
X130732411Y-83212229D01*
X130934931Y-83321828D01*
X131048025Y-83360653D01*
X131152725Y-83396597D01*
X131152727Y-83396597D01*
X131152729Y-83396598D01*
X131379863Y-83434500D01*
X131379864Y-83434500D01*
X131610136Y-83434500D01*
X131610137Y-83434500D01*
X131837271Y-83396598D01*
X131838693Y-83396110D01*
X131845662Y-83393717D01*
X132055069Y-83321828D01*
X132257589Y-83212229D01*
X132439308Y-83070792D01*
X132595269Y-82901373D01*
X132595271Y-82901370D01*
X132661191Y-82800472D01*
X132714337Y-82755115D01*
X132783569Y-82745691D01*
X132846905Y-82775193D01*
X132868809Y-82800472D01*
X132934728Y-82901370D01*
X132934731Y-82901373D01*
X133090692Y-83070792D01*
X133204139Y-83159091D01*
X133271868Y-83211807D01*
X133272411Y-83212229D01*
X133474931Y-83321828D01*
X133588025Y-83360653D01*
X133692725Y-83396597D01*
X133692727Y-83396597D01*
X133692729Y-83396598D01*
X133919863Y-83434500D01*
X133919864Y-83434500D01*
X134150136Y-83434500D01*
X134150137Y-83434500D01*
X134377271Y-83396598D01*
X134378693Y-83396110D01*
X134385662Y-83393717D01*
X134595069Y-83321828D01*
X134797589Y-83212229D01*
X134979308Y-83070792D01*
X135135269Y-82901373D01*
X135261217Y-82708595D01*
X135353717Y-82497716D01*
X135410246Y-82274488D01*
X135421018Y-82144488D01*
X135429262Y-82045005D01*
X135429262Y-82044994D01*
X135413966Y-81860403D01*
X135410246Y-81815512D01*
X135401467Y-81780845D01*
X136600604Y-81780845D01*
X136619608Y-82082914D01*
X136619609Y-82082921D01*
X136635954Y-82168603D01*
X136673936Y-82367714D01*
X136676328Y-82380250D01*
X136769860Y-82668111D01*
X136769861Y-82668114D01*
X136898737Y-82941990D01*
X136898739Y-82941993D01*
X136898740Y-82941995D01*
X137060918Y-83197548D01*
X137060921Y-83197552D01*
X137060922Y-83197553D01*
X137253859Y-83430774D01*
X137474503Y-83637972D01*
X137474513Y-83637980D01*
X137719368Y-83815878D01*
X137719373Y-83815880D01*
X137719380Y-83815886D01*
X137984623Y-83961705D01*
X137984628Y-83961707D01*
X137984630Y-83961708D01*
X137984631Y-83961709D01*
X138266046Y-84073129D01*
X138266049Y-84073130D01*
X138559219Y-84148403D01*
X138559223Y-84148404D01*
X138622220Y-84156362D01*
X138859507Y-84186339D01*
X138859516Y-84186339D01*
X138859519Y-84186340D01*
X138859521Y-84186340D01*
X139162199Y-84186340D01*
X139162201Y-84186340D01*
X139162204Y-84186339D01*
X139162212Y-84186339D01*
X139341399Y-84163702D01*
X139462497Y-84148404D01*
X139755670Y-84073130D01*
X139755673Y-84073129D01*
X140037088Y-83961709D01*
X140037089Y-83961708D01*
X140037087Y-83961708D01*
X140037097Y-83961705D01*
X140302340Y-83815886D01*
X140547215Y-83637974D01*
X140767861Y-83430774D01*
X140960798Y-83197553D01*
X141122983Y-82941990D01*
X141251859Y-82668114D01*
X141345393Y-82380246D01*
X141402110Y-82082925D01*
X141402111Y-82082914D01*
X141412675Y-81915005D01*
X155551240Y-81915005D01*
X155570247Y-82144396D01*
X155570249Y-82144408D01*
X155626757Y-82367553D01*
X155719223Y-82578352D01*
X155801760Y-82704685D01*
X156422368Y-82084076D01*
X156425594Y-82099597D01*
X156494658Y-82232886D01*
X156597123Y-82342598D01*
X156725388Y-82420598D01*
X156778166Y-82435386D01*
X156154040Y-83059512D01*
X156154040Y-83059514D01*
X156182677Y-83081803D01*
X156182683Y-83081807D01*
X156385131Y-83191367D01*
X156385140Y-83191370D01*
X156602849Y-83266110D01*
X156829905Y-83304000D01*
X157060095Y-83304000D01*
X157287150Y-83266110D01*
X157504859Y-83191370D01*
X157504868Y-83191367D01*
X157707315Y-83081807D01*
X157707316Y-83081806D01*
X157735958Y-83059513D01*
X157735959Y-83059511D01*
X157113604Y-82437156D01*
X157231412Y-82385985D01*
X157347862Y-82291246D01*
X157434433Y-82168603D01*
X157465300Y-82081747D01*
X158088238Y-82704685D01*
X158110892Y-82670012D01*
X158164038Y-82624656D01*
X158233269Y-82615232D01*
X158296605Y-82644734D01*
X158318509Y-82670013D01*
X158384728Y-82771370D01*
X158411095Y-82800012D01*
X158540692Y-82940792D01*
X158542238Y-82941995D01*
X158721868Y-83081807D01*
X158722411Y-83082229D01*
X158924931Y-83191828D01*
X159038025Y-83230653D01*
X159142725Y-83266597D01*
X159142727Y-83266597D01*
X159142729Y-83266598D01*
X159369863Y-83304500D01*
X159369864Y-83304500D01*
X159600136Y-83304500D01*
X159600137Y-83304500D01*
X159827271Y-83266598D01*
X159828693Y-83266110D01*
X159835662Y-83263717D01*
X160045069Y-83191828D01*
X160247589Y-83082229D01*
X160429308Y-82940792D01*
X160585269Y-82771373D01*
X160626443Y-82708352D01*
X160651191Y-82670472D01*
X160704337Y-82625115D01*
X160773569Y-82615691D01*
X160836905Y-82645193D01*
X160858809Y-82670472D01*
X160924728Y-82771370D01*
X160951095Y-82800012D01*
X161080692Y-82940792D01*
X161082238Y-82941995D01*
X161261868Y-83081807D01*
X161262411Y-83082229D01*
X161464931Y-83191828D01*
X161578025Y-83230653D01*
X161682725Y-83266597D01*
X161682727Y-83266597D01*
X161682729Y-83266598D01*
X161909863Y-83304500D01*
X161909864Y-83304500D01*
X162140136Y-83304500D01*
X162140137Y-83304500D01*
X162367271Y-83266598D01*
X162368693Y-83266110D01*
X162375662Y-83263717D01*
X162585069Y-83191828D01*
X162787589Y-83082229D01*
X162969308Y-82940792D01*
X163125269Y-82771373D01*
X163166443Y-82708352D01*
X163191191Y-82670472D01*
X163244337Y-82625115D01*
X163313569Y-82615691D01*
X163376905Y-82645193D01*
X163398809Y-82670472D01*
X163464728Y-82771370D01*
X163491095Y-82800012D01*
X163620692Y-82940792D01*
X163622238Y-82941995D01*
X163801868Y-83081807D01*
X163802411Y-83082229D01*
X164004931Y-83191828D01*
X164118025Y-83230653D01*
X164222725Y-83266597D01*
X164222727Y-83266597D01*
X164222729Y-83266598D01*
X164449863Y-83304500D01*
X164449864Y-83304500D01*
X164680136Y-83304500D01*
X164680137Y-83304500D01*
X164907271Y-83266598D01*
X164908693Y-83266110D01*
X164915662Y-83263717D01*
X165125069Y-83191828D01*
X165327589Y-83082229D01*
X165509308Y-82940792D01*
X165665269Y-82771373D01*
X165706443Y-82708352D01*
X165731191Y-82670472D01*
X165784337Y-82625115D01*
X165853569Y-82615691D01*
X165916905Y-82645193D01*
X165938809Y-82670472D01*
X166004728Y-82771370D01*
X166031095Y-82800012D01*
X166160692Y-82940792D01*
X166162238Y-82941995D01*
X166341868Y-83081807D01*
X166342411Y-83082229D01*
X166544931Y-83191828D01*
X166658025Y-83230653D01*
X166762725Y-83266597D01*
X166762727Y-83266597D01*
X166762729Y-83266598D01*
X166989863Y-83304500D01*
X166989864Y-83304500D01*
X167220136Y-83304500D01*
X167220137Y-83304500D01*
X167447271Y-83266598D01*
X167448693Y-83266110D01*
X167455662Y-83263717D01*
X167665069Y-83191828D01*
X167867589Y-83082229D01*
X168049308Y-82940792D01*
X168205269Y-82771373D01*
X168331217Y-82578595D01*
X168423717Y-82367716D01*
X168480246Y-82144488D01*
X168499262Y-81915000D01*
X168491018Y-81815515D01*
X168483693Y-81727114D01*
X168480246Y-81685512D01*
X168423717Y-81462284D01*
X168331217Y-81251405D01*
X168301123Y-81205343D01*
X168205271Y-81058629D01*
X168168979Y-81019206D01*
X168049308Y-80889208D01*
X167896775Y-80770487D01*
X167867591Y-80747772D01*
X167665069Y-80638172D01*
X167665061Y-80638169D01*
X167447274Y-80563402D01*
X167276920Y-80534975D01*
X167220137Y-80525500D01*
X166989863Y-80525500D01*
X166944436Y-80533080D01*
X166762725Y-80563402D01*
X166544938Y-80638169D01*
X166544930Y-80638172D01*
X166342408Y-80747772D01*
X166160694Y-80889206D01*
X166160689Y-80889211D01*
X166004727Y-81058630D01*
X165938808Y-81159528D01*
X165885662Y-81204884D01*
X165816431Y-81214308D01*
X165753095Y-81184806D01*
X165731192Y-81159528D01*
X165665272Y-81058630D01*
X165628104Y-81018256D01*
X165509308Y-80889208D01*
X165356775Y-80770487D01*
X165327591Y-80747772D01*
X165125069Y-80638172D01*
X165125061Y-80638169D01*
X164907274Y-80563402D01*
X164736920Y-80534975D01*
X164680137Y-80525500D01*
X164449863Y-80525500D01*
X164404436Y-80533080D01*
X164222725Y-80563402D01*
X164004938Y-80638169D01*
X164004930Y-80638172D01*
X163802408Y-80747772D01*
X163620694Y-80889206D01*
X163620689Y-80889211D01*
X163464727Y-81058630D01*
X163398808Y-81159528D01*
X163345662Y-81204884D01*
X163276431Y-81214308D01*
X163213095Y-81184806D01*
X163191192Y-81159528D01*
X163125272Y-81058630D01*
X163088104Y-81018256D01*
X162969308Y-80889208D01*
X162816775Y-80770487D01*
X162787591Y-80747772D01*
X162585069Y-80638172D01*
X162585061Y-80638169D01*
X162367274Y-80563402D01*
X162196920Y-80534975D01*
X162140137Y-80525500D01*
X161909863Y-80525500D01*
X161864436Y-80533080D01*
X161682725Y-80563402D01*
X161464938Y-80638169D01*
X161464930Y-80638172D01*
X161262408Y-80747772D01*
X161080694Y-80889206D01*
X161080689Y-80889211D01*
X160924727Y-81058630D01*
X160858808Y-81159528D01*
X160805662Y-81204884D01*
X160736431Y-81214308D01*
X160673095Y-81184806D01*
X160651192Y-81159528D01*
X160585272Y-81058630D01*
X160548104Y-81018256D01*
X160429308Y-80889208D01*
X160276775Y-80770487D01*
X160247591Y-80747772D01*
X160045069Y-80638172D01*
X160045061Y-80638169D01*
X159827274Y-80563402D01*
X159656920Y-80534975D01*
X159600137Y-80525500D01*
X159369863Y-80525500D01*
X159324436Y-80533080D01*
X159142725Y-80563402D01*
X158924938Y-80638169D01*
X158924930Y-80638172D01*
X158722408Y-80747772D01*
X158540694Y-80889206D01*
X158540689Y-80889211D01*
X158384727Y-81058631D01*
X158318508Y-81159987D01*
X158265362Y-81205343D01*
X158196131Y-81214767D01*
X158132795Y-81185265D01*
X158110892Y-81159987D01*
X158088238Y-81125313D01*
X157467630Y-81745921D01*
X157464406Y-81730403D01*
X157395342Y-81597114D01*
X157292877Y-81487402D01*
X157164612Y-81409402D01*
X157111832Y-81394613D01*
X157735958Y-80770486D01*
X157735958Y-80770484D01*
X157707322Y-80748196D01*
X157707316Y-80748192D01*
X157504868Y-80638632D01*
X157504859Y-80638629D01*
X157287150Y-80563889D01*
X157060095Y-80526000D01*
X156829905Y-80526000D01*
X156602849Y-80563889D01*
X156385140Y-80638629D01*
X156385132Y-80638632D01*
X156182681Y-80748194D01*
X156154040Y-80770485D01*
X156154040Y-80770487D01*
X156776396Y-81392843D01*
X156658588Y-81444015D01*
X156542138Y-81538754D01*
X156455567Y-81661397D01*
X156424698Y-81748252D01*
X155801759Y-81125313D01*
X155719224Y-81251644D01*
X155626757Y-81462446D01*
X155570249Y-81685591D01*
X155570247Y-81685603D01*
X155551240Y-81914994D01*
X155551240Y-81915005D01*
X141412675Y-81915005D01*
X141421116Y-81780845D01*
X141421116Y-81780834D01*
X141402111Y-81478765D01*
X141402110Y-81478758D01*
X141402110Y-81478755D01*
X141345393Y-81181434D01*
X141251859Y-80893566D01*
X141122983Y-80619690D01*
X140960798Y-80364127D01*
X140767861Y-80130906D01*
X140547215Y-79923706D01*
X140547212Y-79923704D01*
X140547206Y-79923699D01*
X140302351Y-79745801D01*
X140302344Y-79745796D01*
X140302340Y-79745794D01*
X140037097Y-79599975D01*
X140037094Y-79599973D01*
X140037089Y-79599971D01*
X140037088Y-79599970D01*
X139755673Y-79488550D01*
X139755670Y-79488549D01*
X139462500Y-79413276D01*
X139462487Y-79413274D01*
X139162212Y-79375340D01*
X139162201Y-79375340D01*
X138859519Y-79375340D01*
X138859507Y-79375340D01*
X138559232Y-79413274D01*
X138559219Y-79413276D01*
X138266049Y-79488549D01*
X138266046Y-79488550D01*
X137984631Y-79599970D01*
X137984630Y-79599971D01*
X137719380Y-79745794D01*
X137719368Y-79745801D01*
X137474513Y-79923699D01*
X137474503Y-79923707D01*
X137253861Y-80130904D01*
X137060918Y-80364131D01*
X136898740Y-80619684D01*
X136898737Y-80619688D01*
X136898737Y-80619690D01*
X136802080Y-80825097D01*
X136769860Y-80893568D01*
X136676328Y-81181429D01*
X136676327Y-81181433D01*
X136676327Y-81181434D01*
X136674954Y-81188630D01*
X136619609Y-81478758D01*
X136619608Y-81478765D01*
X136600604Y-81780834D01*
X136600604Y-81780845D01*
X135401467Y-81780845D01*
X135353717Y-81592284D01*
X135261217Y-81381405D01*
X135231123Y-81335343D01*
X135135271Y-81188629D01*
X135015598Y-81058630D01*
X134979308Y-81019208D01*
X134826775Y-80900487D01*
X134797591Y-80877772D01*
X134595069Y-80768172D01*
X134595061Y-80768169D01*
X134377274Y-80693402D01*
X134206920Y-80664975D01*
X134150137Y-80655500D01*
X133919863Y-80655500D01*
X133874436Y-80663080D01*
X133692725Y-80693402D01*
X133474938Y-80768169D01*
X133474930Y-80768172D01*
X133272408Y-80877772D01*
X133090694Y-81019206D01*
X133090689Y-81019211D01*
X132934727Y-81188630D01*
X132868808Y-81289528D01*
X132815662Y-81334884D01*
X132746431Y-81344308D01*
X132683095Y-81314806D01*
X132661192Y-81289528D01*
X132595272Y-81188630D01*
X132475598Y-81058630D01*
X132439308Y-81019208D01*
X132286775Y-80900487D01*
X132257591Y-80877772D01*
X132055069Y-80768172D01*
X132055061Y-80768169D01*
X131837274Y-80693402D01*
X131666920Y-80664975D01*
X131610137Y-80655500D01*
X131379863Y-80655500D01*
X131334436Y-80663080D01*
X131152725Y-80693402D01*
X130934938Y-80768169D01*
X130934930Y-80768172D01*
X130732408Y-80877772D01*
X130550694Y-81019206D01*
X130550689Y-81019211D01*
X130394727Y-81188630D01*
X130328808Y-81289528D01*
X130275662Y-81334884D01*
X130206431Y-81344308D01*
X130143095Y-81314806D01*
X130121192Y-81289528D01*
X130055272Y-81188630D01*
X129935598Y-81058630D01*
X129899308Y-81019208D01*
X129746775Y-80900487D01*
X129717591Y-80877772D01*
X129515069Y-80768172D01*
X129515061Y-80768169D01*
X129297274Y-80693402D01*
X129126920Y-80664975D01*
X129070137Y-80655500D01*
X128839863Y-80655500D01*
X128794436Y-80663080D01*
X128612725Y-80693402D01*
X128394938Y-80768169D01*
X128394930Y-80768172D01*
X128192408Y-80877772D01*
X128010694Y-81019206D01*
X128010689Y-81019211D01*
X127854727Y-81188630D01*
X127788808Y-81289528D01*
X127735662Y-81334884D01*
X127666431Y-81344308D01*
X127603095Y-81314806D01*
X127581192Y-81289528D01*
X127515272Y-81188630D01*
X127395598Y-81058630D01*
X127359308Y-81019208D01*
X127206775Y-80900487D01*
X127177591Y-80877772D01*
X126975069Y-80768172D01*
X126975061Y-80768169D01*
X126757274Y-80693402D01*
X126586920Y-80664975D01*
X126530137Y-80655500D01*
X126299863Y-80655500D01*
X126254436Y-80663080D01*
X126072725Y-80693402D01*
X125854938Y-80768169D01*
X125854930Y-80768172D01*
X125652408Y-80877772D01*
X125470694Y-81019206D01*
X125470689Y-81019211D01*
X125314727Y-81188631D01*
X125248508Y-81289987D01*
X125195362Y-81335343D01*
X125126131Y-81344767D01*
X125062795Y-81315265D01*
X125040892Y-81289987D01*
X125018238Y-81255313D01*
X124397630Y-81875921D01*
X124394406Y-81860403D01*
X124325342Y-81727114D01*
X124222877Y-81617402D01*
X124094612Y-81539402D01*
X124041832Y-81524613D01*
X124665958Y-80900486D01*
X124665958Y-80900484D01*
X124637322Y-80878196D01*
X124637316Y-80878192D01*
X124434868Y-80768632D01*
X124434859Y-80768629D01*
X124217150Y-80693889D01*
X123990095Y-80656000D01*
X123759905Y-80656000D01*
X123532849Y-80693889D01*
X123315140Y-80768629D01*
X123315132Y-80768632D01*
X123112681Y-80878194D01*
X123084040Y-80900485D01*
X123084040Y-80900487D01*
X123706396Y-81522843D01*
X123588588Y-81574015D01*
X123472138Y-81668754D01*
X123385567Y-81791397D01*
X123354698Y-81878252D01*
X122731759Y-81255313D01*
X122649224Y-81381644D01*
X122556757Y-81592446D01*
X122500249Y-81815591D01*
X122500247Y-81815603D01*
X122481240Y-82044994D01*
X122481240Y-82045005D01*
X121391836Y-82045005D01*
X121408456Y-81780845D01*
X121408456Y-81780834D01*
X121389451Y-81478765D01*
X121389450Y-81478758D01*
X121389450Y-81478755D01*
X121332733Y-81181434D01*
X121239199Y-80893566D01*
X121110323Y-80619690D01*
X120948138Y-80364127D01*
X120755201Y-80130906D01*
X120534555Y-79923706D01*
X120534552Y-79923704D01*
X120534546Y-79923699D01*
X120289691Y-79745801D01*
X120289684Y-79745796D01*
X120289680Y-79745794D01*
X120024437Y-79599975D01*
X120024434Y-79599973D01*
X120024429Y-79599971D01*
X120024428Y-79599970D01*
X119743013Y-79488550D01*
X119743010Y-79488549D01*
X119449840Y-79413276D01*
X119449827Y-79413274D01*
X119149552Y-79375340D01*
X119149541Y-79375340D01*
X118846859Y-79375340D01*
X118846847Y-79375340D01*
X118546572Y-79413274D01*
X118546559Y-79413276D01*
X118253389Y-79488549D01*
X118253386Y-79488550D01*
X117971971Y-79599970D01*
X117971970Y-79599971D01*
X117706720Y-79745794D01*
X117706708Y-79745801D01*
X117461853Y-79923699D01*
X117461843Y-79923707D01*
X117241201Y-80130904D01*
X117048258Y-80364131D01*
X116886080Y-80619684D01*
X116886077Y-80619688D01*
X116886077Y-80619690D01*
X116789420Y-80825097D01*
X116757200Y-80893568D01*
X116663668Y-81181429D01*
X116663667Y-81181433D01*
X116663667Y-81181434D01*
X116662294Y-81188630D01*
X116606949Y-81478758D01*
X116606948Y-81478765D01*
X116587944Y-81780834D01*
X116587944Y-81780845D01*
X50800500Y-81780845D01*
X50800500Y-67945004D01*
X152629535Y-67945004D01*
X152649363Y-68209609D01*
X152649364Y-68209614D01*
X152708410Y-68468313D01*
X152708412Y-68468322D01*
X152708414Y-68468327D01*
X152805361Y-68715345D01*
X152938042Y-68945155D01*
X153103492Y-69152623D01*
X153298016Y-69333114D01*
X153517268Y-69482598D01*
X153756350Y-69597734D01*
X154009922Y-69675950D01*
X154009923Y-69675950D01*
X154009926Y-69675951D01*
X154272311Y-69715499D01*
X154272316Y-69715499D01*
X154272319Y-69715500D01*
X154272320Y-69715500D01*
X154537680Y-69715500D01*
X154537681Y-69715500D01*
X154537688Y-69715499D01*
X154800073Y-69675951D01*
X154800074Y-69675950D01*
X154800078Y-69675950D01*
X155053650Y-69597734D01*
X155292733Y-69482598D01*
X155511984Y-69333114D01*
X155706508Y-69152623D01*
X155871958Y-68945155D01*
X156004639Y-68715345D01*
X156101586Y-68468327D01*
X156160635Y-68209619D01*
X156180465Y-67945004D01*
X166599535Y-67945004D01*
X166619363Y-68209609D01*
X166619364Y-68209614D01*
X166678410Y-68468313D01*
X166678412Y-68468322D01*
X166678414Y-68468327D01*
X166775361Y-68715345D01*
X166908042Y-68945155D01*
X167073492Y-69152623D01*
X167268016Y-69333114D01*
X167487268Y-69482598D01*
X167726350Y-69597734D01*
X167979922Y-69675950D01*
X167979923Y-69675950D01*
X167979926Y-69675951D01*
X168242311Y-69715499D01*
X168242316Y-69715499D01*
X168242319Y-69715500D01*
X168242320Y-69715500D01*
X168507680Y-69715500D01*
X168507681Y-69715500D01*
X168507688Y-69715499D01*
X168770073Y-69675951D01*
X168770074Y-69675950D01*
X168770078Y-69675950D01*
X169023650Y-69597734D01*
X169262733Y-69482598D01*
X169481984Y-69333114D01*
X169676508Y-69152623D01*
X169841958Y-68945155D01*
X169974639Y-68715345D01*
X170071586Y-68468327D01*
X170130635Y-68209619D01*
X170150465Y-67945000D01*
X170130635Y-67680381D01*
X170071586Y-67421673D01*
X169974639Y-67174655D01*
X169841958Y-66944845D01*
X169676508Y-66737377D01*
X169481984Y-66556886D01*
X169403297Y-66503238D01*
X169262736Y-66407404D01*
X169262725Y-66407397D01*
X169023655Y-66292268D01*
X169023636Y-66292261D01*
X168770083Y-66214051D01*
X168770073Y-66214048D01*
X168507688Y-66174500D01*
X168507681Y-66174500D01*
X168242319Y-66174500D01*
X168242311Y-66174500D01*
X167979926Y-66214048D01*
X167979916Y-66214051D01*
X167726363Y-66292261D01*
X167726344Y-66292268D01*
X167487276Y-66407397D01*
X167487274Y-66407398D01*
X167268015Y-66556886D01*
X167073494Y-66737375D01*
X167073492Y-66737377D01*
X166908042Y-66944845D01*
X166775361Y-67174654D01*
X166678416Y-67421667D01*
X166678410Y-67421686D01*
X166619364Y-67680385D01*
X166619363Y-67680390D01*
X166599535Y-67944995D01*
X166599535Y-67945004D01*
X156180465Y-67945004D01*
X156180465Y-67945000D01*
X156160635Y-67680381D01*
X156101586Y-67421673D01*
X156004639Y-67174655D01*
X155871958Y-66944845D01*
X155706508Y-66737377D01*
X155511984Y-66556886D01*
X155433297Y-66503238D01*
X155292736Y-66407404D01*
X155292725Y-66407397D01*
X155053655Y-66292268D01*
X155053636Y-66292261D01*
X154800083Y-66214051D01*
X154800073Y-66214048D01*
X154537688Y-66174500D01*
X154537681Y-66174500D01*
X154272319Y-66174500D01*
X154272311Y-66174500D01*
X154009926Y-66214048D01*
X154009916Y-66214051D01*
X153756363Y-66292261D01*
X153756344Y-66292268D01*
X153517276Y-66407397D01*
X153517274Y-66407398D01*
X153298015Y-66556886D01*
X153103494Y-66737375D01*
X153103492Y-66737377D01*
X152938042Y-66944845D01*
X152805361Y-67174654D01*
X152708416Y-67421667D01*
X152708410Y-67421686D01*
X152649364Y-67680385D01*
X152649363Y-67680390D01*
X152629535Y-67944995D01*
X152629535Y-67945004D01*
X50800500Y-67945004D01*
X50800500Y-62801500D01*
X54117156Y-62801500D01*
X54137318Y-63186223D01*
X54197584Y-63566722D01*
X54197584Y-63566724D01*
X54297297Y-63938858D01*
X54435357Y-64298515D01*
X54610257Y-64641776D01*
X54820071Y-64964862D01*
X54820073Y-64964864D01*
X54820076Y-64964868D01*
X54820077Y-64964869D01*
X55062523Y-65264265D01*
X55334935Y-65536677D01*
X55334939Y-65536680D01*
X55634335Y-65779126D01*
X55634337Y-65779128D01*
X55957423Y-65988942D01*
X55957428Y-65988945D01*
X56300688Y-66163844D01*
X56431482Y-66214051D01*
X56635238Y-66292266D01*
X56660349Y-66301905D01*
X57032472Y-66401615D01*
X57412978Y-66461882D01*
X57776421Y-66480928D01*
X57797699Y-66482044D01*
X57797700Y-66482044D01*
X57797701Y-66482044D01*
X57817863Y-66480987D01*
X58182422Y-66461882D01*
X58562928Y-66401615D01*
X58935051Y-66301905D01*
X59294712Y-66163844D01*
X59637972Y-65988945D01*
X59798175Y-65884908D01*
X59961062Y-65779128D01*
X59961064Y-65779126D01*
X59961069Y-65779123D01*
X60260465Y-65536677D01*
X60532877Y-65264265D01*
X60775323Y-64964869D01*
X60985145Y-64641772D01*
X61160044Y-64298512D01*
X61298105Y-63938851D01*
X61397815Y-63566728D01*
X61458082Y-63186222D01*
X61478244Y-62801500D01*
X68112556Y-62801500D01*
X68132718Y-63186223D01*
X68192984Y-63566722D01*
X68192984Y-63566724D01*
X68292697Y-63938858D01*
X68430757Y-64298515D01*
X68605657Y-64641776D01*
X68815471Y-64964862D01*
X68815473Y-64964864D01*
X68815476Y-64964868D01*
X68815477Y-64964869D01*
X69057923Y-65264265D01*
X69330335Y-65536677D01*
X69330339Y-65536680D01*
X69629735Y-65779126D01*
X69629737Y-65779128D01*
X69952823Y-65988942D01*
X69952828Y-65988945D01*
X70296088Y-66163844D01*
X70426882Y-66214051D01*
X70630638Y-66292266D01*
X70655749Y-66301905D01*
X71027872Y-66401615D01*
X71408378Y-66461882D01*
X71771821Y-66480928D01*
X71793099Y-66482044D01*
X71793100Y-66482044D01*
X71793101Y-66482044D01*
X71813263Y-66480987D01*
X72177822Y-66461882D01*
X72558328Y-66401615D01*
X72930451Y-66301905D01*
X73290112Y-66163844D01*
X73633372Y-65988945D01*
X73793575Y-65884908D01*
X73956462Y-65779128D01*
X73956464Y-65779126D01*
X73956469Y-65779123D01*
X74255865Y-65536677D01*
X74528277Y-65264265D01*
X74770723Y-64964869D01*
X74980545Y-64641772D01*
X75068981Y-64468205D01*
X116587944Y-64468205D01*
X116606948Y-64770274D01*
X116606949Y-64770281D01*
X116606950Y-64770285D01*
X116663667Y-65067606D01*
X116757201Y-65355474D01*
X116886077Y-65629350D01*
X116886079Y-65629353D01*
X116886080Y-65629355D01*
X117048258Y-65884908D01*
X117048261Y-65884912D01*
X117048262Y-65884913D01*
X117241199Y-66118134D01*
X117436896Y-66301905D01*
X117461843Y-66325332D01*
X117461853Y-66325340D01*
X117706708Y-66503238D01*
X117706713Y-66503240D01*
X117706720Y-66503246D01*
X117971963Y-66649065D01*
X117971968Y-66649067D01*
X117971970Y-66649068D01*
X117971971Y-66649069D01*
X118253386Y-66760489D01*
X118253389Y-66760490D01*
X118546559Y-66835763D01*
X118546563Y-66835764D01*
X118609560Y-66843722D01*
X118846847Y-66873699D01*
X118846856Y-66873699D01*
X118846859Y-66873700D01*
X118846861Y-66873700D01*
X119149539Y-66873700D01*
X119149541Y-66873700D01*
X119149544Y-66873699D01*
X119149552Y-66873699D01*
X119328739Y-66851062D01*
X119449837Y-66835764D01*
X119743010Y-66760490D01*
X119801392Y-66737375D01*
X120024428Y-66649069D01*
X120024429Y-66649068D01*
X120024427Y-66649068D01*
X120024437Y-66649065D01*
X120289680Y-66503246D01*
X120534555Y-66325334D01*
X120755201Y-66118134D01*
X120948138Y-65884913D01*
X121110323Y-65629350D01*
X121239199Y-65355474D01*
X121332733Y-65067606D01*
X121389450Y-64770285D01*
X121389451Y-64770274D01*
X121408456Y-64468205D01*
X136600604Y-64468205D01*
X136619608Y-64770274D01*
X136619609Y-64770281D01*
X136619610Y-64770285D01*
X136676327Y-65067606D01*
X136769861Y-65355474D01*
X136898737Y-65629350D01*
X136898739Y-65629353D01*
X136898740Y-65629355D01*
X137060918Y-65884908D01*
X137060921Y-65884912D01*
X137060922Y-65884913D01*
X137253859Y-66118134D01*
X137449556Y-66301905D01*
X137474503Y-66325332D01*
X137474513Y-66325340D01*
X137719368Y-66503238D01*
X137719373Y-66503240D01*
X137719380Y-66503246D01*
X137984623Y-66649065D01*
X137984628Y-66649067D01*
X137984630Y-66649068D01*
X137984631Y-66649069D01*
X138266046Y-66760489D01*
X138266049Y-66760490D01*
X138559219Y-66835763D01*
X138559223Y-66835764D01*
X138622220Y-66843722D01*
X138859507Y-66873699D01*
X138859516Y-66873699D01*
X138859519Y-66873700D01*
X138859521Y-66873700D01*
X139162199Y-66873700D01*
X139162201Y-66873700D01*
X139162204Y-66873699D01*
X139162212Y-66873699D01*
X139341399Y-66851062D01*
X139462497Y-66835764D01*
X139755670Y-66760490D01*
X139814052Y-66737375D01*
X140037088Y-66649069D01*
X140037089Y-66649068D01*
X140037087Y-66649068D01*
X140037097Y-66649065D01*
X140302340Y-66503246D01*
X140547215Y-66325334D01*
X140767861Y-66118134D01*
X140960798Y-65884913D01*
X141122983Y-65629350D01*
X141251859Y-65355474D01*
X141345393Y-65067606D01*
X141402110Y-64770285D01*
X141402111Y-64770274D01*
X141421116Y-64468205D01*
X141421116Y-64468194D01*
X141402111Y-64166125D01*
X141402110Y-64166118D01*
X141402110Y-64166115D01*
X141345393Y-63868794D01*
X141251859Y-63580926D01*
X141122983Y-63307050D01*
X140960798Y-63051487D01*
X140767861Y-62818266D01*
X140750007Y-62801500D01*
X186120956Y-62801500D01*
X186141118Y-63186223D01*
X186201384Y-63566722D01*
X186201384Y-63566724D01*
X186301097Y-63938858D01*
X186439157Y-64298515D01*
X186614057Y-64641776D01*
X186823871Y-64964862D01*
X186823873Y-64964864D01*
X186823876Y-64964868D01*
X186823877Y-64964869D01*
X187066323Y-65264265D01*
X187338735Y-65536677D01*
X187338739Y-65536680D01*
X187638135Y-65779126D01*
X187638137Y-65779128D01*
X187961223Y-65988942D01*
X187961228Y-65988945D01*
X188304488Y-66163844D01*
X188435282Y-66214051D01*
X188639038Y-66292266D01*
X188664149Y-66301905D01*
X189036272Y-66401615D01*
X189416778Y-66461882D01*
X189780221Y-66480928D01*
X189801499Y-66482044D01*
X189801500Y-66482044D01*
X189801501Y-66482044D01*
X189821663Y-66480987D01*
X190186222Y-66461882D01*
X190566728Y-66401615D01*
X190938851Y-66301905D01*
X191298512Y-66163844D01*
X191641772Y-65988945D01*
X191801975Y-65884908D01*
X191964862Y-65779128D01*
X191964864Y-65779126D01*
X191964869Y-65779123D01*
X192264265Y-65536677D01*
X192536677Y-65264265D01*
X192779123Y-64964869D01*
X192988945Y-64641772D01*
X193163844Y-64298512D01*
X193301905Y-63938851D01*
X193401615Y-63566728D01*
X193461882Y-63186222D01*
X193482044Y-62801500D01*
X193461882Y-62416778D01*
X193401615Y-62036272D01*
X193301905Y-61664149D01*
X193163844Y-61304488D01*
X192988945Y-60961228D01*
X192988942Y-60961223D01*
X192779128Y-60638137D01*
X192779126Y-60638135D01*
X192536680Y-60338739D01*
X192536677Y-60338735D01*
X192264265Y-60066323D01*
X191964869Y-59823877D01*
X191964868Y-59823876D01*
X191964864Y-59823873D01*
X191964862Y-59823871D01*
X191641776Y-59614057D01*
X191298515Y-59439157D01*
X190938858Y-59301097D01*
X190938851Y-59301095D01*
X190566728Y-59201385D01*
X190566724Y-59201384D01*
X190566723Y-59201384D01*
X190186223Y-59141118D01*
X189801501Y-59120956D01*
X189801499Y-59120956D01*
X189416776Y-59141118D01*
X189036277Y-59201384D01*
X189036275Y-59201384D01*
X188664141Y-59301097D01*
X188304484Y-59439157D01*
X187961223Y-59614057D01*
X187638137Y-59823871D01*
X187638135Y-59823873D01*
X187338739Y-60066319D01*
X187338731Y-60066326D01*
X187066326Y-60338731D01*
X187066319Y-60338739D01*
X186823873Y-60638135D01*
X186823871Y-60638137D01*
X186614057Y-60961223D01*
X186439157Y-61304484D01*
X186301097Y-61664141D01*
X186201384Y-62036275D01*
X186201384Y-62036277D01*
X186141118Y-62416776D01*
X186120956Y-62801499D01*
X186120956Y-62801500D01*
X140750007Y-62801500D01*
X140547215Y-62611066D01*
X140547212Y-62611064D01*
X140547206Y-62611059D01*
X140302351Y-62433161D01*
X140302344Y-62433156D01*
X140302340Y-62433154D01*
X140037097Y-62287335D01*
X140037094Y-62287333D01*
X140037089Y-62287331D01*
X140037088Y-62287330D01*
X139755673Y-62175910D01*
X139755670Y-62175909D01*
X139462500Y-62100636D01*
X139462487Y-62100634D01*
X139162212Y-62062700D01*
X139162201Y-62062700D01*
X138859519Y-62062700D01*
X138859507Y-62062700D01*
X138559232Y-62100634D01*
X138559219Y-62100636D01*
X138266049Y-62175909D01*
X138266046Y-62175910D01*
X137984631Y-62287330D01*
X137984630Y-62287331D01*
X137719380Y-62433154D01*
X137719368Y-62433161D01*
X137474513Y-62611059D01*
X137474503Y-62611067D01*
X137253861Y-62818264D01*
X137060918Y-63051491D01*
X136898740Y-63307044D01*
X136769860Y-63580928D01*
X136676328Y-63868789D01*
X136619609Y-64166118D01*
X136619608Y-64166125D01*
X136600604Y-64468194D01*
X136600604Y-64468205D01*
X121408456Y-64468205D01*
X121408456Y-64468194D01*
X121389451Y-64166125D01*
X121389450Y-64166118D01*
X121389450Y-64166115D01*
X121332733Y-63868794D01*
X121239199Y-63580926D01*
X121110323Y-63307050D01*
X120948138Y-63051487D01*
X120755201Y-62818266D01*
X120534555Y-62611066D01*
X120534552Y-62611064D01*
X120534546Y-62611059D01*
X120289691Y-62433161D01*
X120289684Y-62433156D01*
X120289680Y-62433154D01*
X120024437Y-62287335D01*
X120024434Y-62287333D01*
X120024429Y-62287331D01*
X120024428Y-62287330D01*
X119743013Y-62175910D01*
X119743010Y-62175909D01*
X119449840Y-62100636D01*
X119449827Y-62100634D01*
X119149552Y-62062700D01*
X119149541Y-62062700D01*
X118846859Y-62062700D01*
X118846847Y-62062700D01*
X118546572Y-62100634D01*
X118546559Y-62100636D01*
X118253389Y-62175909D01*
X118253386Y-62175910D01*
X117971971Y-62287330D01*
X117971970Y-62287331D01*
X117706720Y-62433154D01*
X117706708Y-62433161D01*
X117461853Y-62611059D01*
X117461843Y-62611067D01*
X117241201Y-62818264D01*
X117048258Y-63051491D01*
X116886080Y-63307044D01*
X116757200Y-63580928D01*
X116663668Y-63868789D01*
X116606949Y-64166118D01*
X116606948Y-64166125D01*
X116587944Y-64468194D01*
X116587944Y-64468205D01*
X75068981Y-64468205D01*
X75155444Y-64298512D01*
X75293505Y-63938851D01*
X75393215Y-63566728D01*
X75453482Y-63186222D01*
X75473644Y-62801500D01*
X75453482Y-62416778D01*
X75393215Y-62036272D01*
X75293505Y-61664149D01*
X75155444Y-61304488D01*
X74980545Y-60961228D01*
X74980542Y-60961223D01*
X74770728Y-60638137D01*
X74770726Y-60638135D01*
X74528280Y-60338739D01*
X74528277Y-60338735D01*
X74255865Y-60066323D01*
X73956469Y-59823877D01*
X73956468Y-59823876D01*
X73956464Y-59823873D01*
X73956462Y-59823871D01*
X73633376Y-59614057D01*
X73290115Y-59439157D01*
X72930458Y-59301097D01*
X72930451Y-59301095D01*
X72558328Y-59201385D01*
X72558324Y-59201384D01*
X72558323Y-59201384D01*
X72177823Y-59141118D01*
X71793101Y-59120956D01*
X71793099Y-59120956D01*
X71408376Y-59141118D01*
X71027877Y-59201384D01*
X71027875Y-59201384D01*
X70655741Y-59301097D01*
X70296084Y-59439157D01*
X69952823Y-59614057D01*
X69629737Y-59823871D01*
X69629735Y-59823873D01*
X69330339Y-60066319D01*
X69330331Y-60066326D01*
X69057926Y-60338731D01*
X69057919Y-60338739D01*
X68815473Y-60638135D01*
X68815471Y-60638137D01*
X68605657Y-60961223D01*
X68430757Y-61304484D01*
X68292697Y-61664141D01*
X68192984Y-62036275D01*
X68192984Y-62036277D01*
X68132718Y-62416776D01*
X68112556Y-62801499D01*
X68112556Y-62801500D01*
X61478244Y-62801500D01*
X61458082Y-62416778D01*
X61397815Y-62036272D01*
X61298105Y-61664149D01*
X61160044Y-61304488D01*
X60985145Y-60961228D01*
X60985142Y-60961223D01*
X60775328Y-60638137D01*
X60775326Y-60638135D01*
X60532880Y-60338739D01*
X60532877Y-60338735D01*
X60260465Y-60066323D01*
X59961069Y-59823877D01*
X59961068Y-59823876D01*
X59961064Y-59823873D01*
X59961062Y-59823871D01*
X59637976Y-59614057D01*
X59294715Y-59439157D01*
X58935058Y-59301097D01*
X58935051Y-59301095D01*
X58562928Y-59201385D01*
X58562924Y-59201384D01*
X58562923Y-59201384D01*
X58182423Y-59141118D01*
X57797701Y-59120956D01*
X57797699Y-59120956D01*
X57412976Y-59141118D01*
X57032477Y-59201384D01*
X57032475Y-59201384D01*
X56660341Y-59301097D01*
X56300684Y-59439157D01*
X55957423Y-59614057D01*
X55634337Y-59823871D01*
X55634335Y-59823873D01*
X55334939Y-60066319D01*
X55334931Y-60066326D01*
X55062526Y-60338731D01*
X55062519Y-60338739D01*
X54820073Y-60638135D01*
X54820071Y-60638137D01*
X54610257Y-60961223D01*
X54435357Y-61304484D01*
X54297297Y-61664141D01*
X54197584Y-62036275D01*
X54197584Y-62036277D01*
X54137318Y-62416776D01*
X54117156Y-62801499D01*
X54117156Y-62801500D01*
X50800500Y-62801500D01*
X50800500Y-50924500D01*
X50820185Y-50857461D01*
X50872989Y-50811706D01*
X50924500Y-50800500D01*
X195455500Y-50800500D01*
X195522539Y-50820185D01*
G37*
%TD.AperFunction*%
%TD*%
M02*
