%TF.GenerationSoftware,KiCad,Pcbnew,7.0.10*%
%TF.CreationDate,2024-02-29T23:41:44-05:00*%
%TF.ProjectId,blue-bike-air-pollution-monitor,626c7565-2d62-4696-9b65-2d6169722d70,rev?*%
%TF.SameCoordinates,Original*%
%TF.FileFunction,Legend,Top*%
%TF.FilePolarity,Positive*%
%FSLAX46Y46*%
G04 Gerber Fmt 4.6, Leading zero omitted, Abs format (unit mm)*
G04 Created by KiCad (PCBNEW 7.0.10) date 2024-02-29 23:41:44*
%MOMM*%
%LPD*%
G01*
G04 APERTURE LIST*
%ADD10C,0.254000*%
%ADD11C,0.150000*%
%ADD12C,0.127000*%
%ADD13C,0.100000*%
%ADD14C,0.120000*%
G04 APERTURE END LIST*
D10*
X82959009Y-148494544D02*
X84410438Y-148494544D01*
X83684724Y-151034544D02*
X83684724Y-148494544D01*
X86224723Y-150913592D02*
X85982819Y-151034544D01*
X85982819Y-151034544D02*
X85499009Y-151034544D01*
X85499009Y-151034544D02*
X85257104Y-150913592D01*
X85257104Y-150913592D02*
X85136152Y-150671687D01*
X85136152Y-150671687D02*
X85136152Y-149704068D01*
X85136152Y-149704068D02*
X85257104Y-149462163D01*
X85257104Y-149462163D02*
X85499009Y-149341211D01*
X85499009Y-149341211D02*
X85982819Y-149341211D01*
X85982819Y-149341211D02*
X86224723Y-149462163D01*
X86224723Y-149462163D02*
X86345676Y-149704068D01*
X86345676Y-149704068D02*
X86345676Y-149945972D01*
X86345676Y-149945972D02*
X85136152Y-150187877D01*
X88522819Y-151034544D02*
X88522819Y-149704068D01*
X88522819Y-149704068D02*
X88401866Y-149462163D01*
X88401866Y-149462163D02*
X88159962Y-149341211D01*
X88159962Y-149341211D02*
X87676152Y-149341211D01*
X87676152Y-149341211D02*
X87434247Y-149462163D01*
X88522819Y-150913592D02*
X88280914Y-151034544D01*
X88280914Y-151034544D02*
X87676152Y-151034544D01*
X87676152Y-151034544D02*
X87434247Y-150913592D01*
X87434247Y-150913592D02*
X87313295Y-150671687D01*
X87313295Y-150671687D02*
X87313295Y-150429782D01*
X87313295Y-150429782D02*
X87434247Y-150187877D01*
X87434247Y-150187877D02*
X87676152Y-150066925D01*
X87676152Y-150066925D02*
X88280914Y-150066925D01*
X88280914Y-150066925D02*
X88522819Y-149945972D01*
X89732342Y-151034544D02*
X89732342Y-149341211D01*
X89732342Y-149583115D02*
X89853295Y-149462163D01*
X89853295Y-149462163D02*
X90095200Y-149341211D01*
X90095200Y-149341211D02*
X90458057Y-149341211D01*
X90458057Y-149341211D02*
X90699961Y-149462163D01*
X90699961Y-149462163D02*
X90820914Y-149704068D01*
X90820914Y-149704068D02*
X90820914Y-151034544D01*
X90820914Y-149704068D02*
X90941866Y-149462163D01*
X90941866Y-149462163D02*
X91183771Y-149341211D01*
X91183771Y-149341211D02*
X91546628Y-149341211D01*
X91546628Y-149341211D02*
X91788533Y-149462163D01*
X91788533Y-149462163D02*
X91909485Y-149704068D01*
X91909485Y-149704068D02*
X91909485Y-151034544D01*
X95175200Y-151034544D02*
X95659009Y-151034544D01*
X95659009Y-151034544D02*
X95900914Y-150913592D01*
X95900914Y-150913592D02*
X96021866Y-150792639D01*
X96021866Y-150792639D02*
X96263771Y-150429782D01*
X96263771Y-150429782D02*
X96384724Y-149945972D01*
X96384724Y-149945972D02*
X96384724Y-148978353D01*
X96384724Y-148978353D02*
X96263771Y-148736449D01*
X96263771Y-148736449D02*
X96142819Y-148615496D01*
X96142819Y-148615496D02*
X95900914Y-148494544D01*
X95900914Y-148494544D02*
X95417105Y-148494544D01*
X95417105Y-148494544D02*
X95175200Y-148615496D01*
X95175200Y-148615496D02*
X95054247Y-148736449D01*
X95054247Y-148736449D02*
X94933295Y-148978353D01*
X94933295Y-148978353D02*
X94933295Y-149583115D01*
X94933295Y-149583115D02*
X95054247Y-149825020D01*
X95054247Y-149825020D02*
X95175200Y-149945972D01*
X95175200Y-149945972D02*
X95417105Y-150066925D01*
X95417105Y-150066925D02*
X95900914Y-150066925D01*
X95900914Y-150066925D02*
X96142819Y-149945972D01*
X96142819Y-149945972D02*
X96263771Y-149825020D01*
X96263771Y-149825020D02*
X96384724Y-149583115D01*
X82959009Y-152583944D02*
X83805676Y-155123944D01*
X83805676Y-155123944D02*
X84652343Y-152583944D01*
X86829486Y-155123944D02*
X85378057Y-155123944D01*
X86103771Y-155123944D02*
X86103771Y-152583944D01*
X86103771Y-152583944D02*
X85861867Y-152946801D01*
X85861867Y-152946801D02*
X85619962Y-153188706D01*
X85619962Y-153188706D02*
X85378057Y-153309658D01*
X89732343Y-152825849D02*
X89853295Y-152704896D01*
X89853295Y-152704896D02*
X90095200Y-152583944D01*
X90095200Y-152583944D02*
X90699962Y-152583944D01*
X90699962Y-152583944D02*
X90941867Y-152704896D01*
X90941867Y-152704896D02*
X91062819Y-152825849D01*
X91062819Y-152825849D02*
X91183772Y-153067753D01*
X91183772Y-153067753D02*
X91183772Y-153309658D01*
X91183772Y-153309658D02*
X91062819Y-153672515D01*
X91062819Y-153672515D02*
X89611391Y-155123944D01*
X89611391Y-155123944D02*
X91183772Y-155123944D01*
X94086629Y-152462992D02*
X91909486Y-155728706D01*
X94812343Y-152825849D02*
X94933295Y-152704896D01*
X94933295Y-152704896D02*
X95175200Y-152583944D01*
X95175200Y-152583944D02*
X95779962Y-152583944D01*
X95779962Y-152583944D02*
X96021867Y-152704896D01*
X96021867Y-152704896D02*
X96142819Y-152825849D01*
X96142819Y-152825849D02*
X96263772Y-153067753D01*
X96263772Y-153067753D02*
X96263772Y-153309658D01*
X96263772Y-153309658D02*
X96142819Y-153672515D01*
X96142819Y-153672515D02*
X94691391Y-155123944D01*
X94691391Y-155123944D02*
X96263772Y-155123944D01*
X97473296Y-155123944D02*
X97957105Y-155123944D01*
X97957105Y-155123944D02*
X98199010Y-155002992D01*
X98199010Y-155002992D02*
X98319962Y-154882039D01*
X98319962Y-154882039D02*
X98561867Y-154519182D01*
X98561867Y-154519182D02*
X98682820Y-154035372D01*
X98682820Y-154035372D02*
X98682820Y-153067753D01*
X98682820Y-153067753D02*
X98561867Y-152825849D01*
X98561867Y-152825849D02*
X98440915Y-152704896D01*
X98440915Y-152704896D02*
X98199010Y-152583944D01*
X98199010Y-152583944D02*
X97715201Y-152583944D01*
X97715201Y-152583944D02*
X97473296Y-152704896D01*
X97473296Y-152704896D02*
X97352343Y-152825849D01*
X97352343Y-152825849D02*
X97231391Y-153067753D01*
X97231391Y-153067753D02*
X97231391Y-153672515D01*
X97231391Y-153672515D02*
X97352343Y-153914420D01*
X97352343Y-153914420D02*
X97473296Y-154035372D01*
X97473296Y-154035372D02*
X97715201Y-154156325D01*
X97715201Y-154156325D02*
X98199010Y-154156325D01*
X98199010Y-154156325D02*
X98440915Y-154035372D01*
X98440915Y-154035372D02*
X98561867Y-153914420D01*
X98561867Y-153914420D02*
X98682820Y-153672515D01*
X101585677Y-152462992D02*
X99408534Y-155728706D01*
X102311391Y-152825849D02*
X102432343Y-152704896D01*
X102432343Y-152704896D02*
X102674248Y-152583944D01*
X102674248Y-152583944D02*
X103279010Y-152583944D01*
X103279010Y-152583944D02*
X103520915Y-152704896D01*
X103520915Y-152704896D02*
X103641867Y-152825849D01*
X103641867Y-152825849D02*
X103762820Y-153067753D01*
X103762820Y-153067753D02*
X103762820Y-153309658D01*
X103762820Y-153309658D02*
X103641867Y-153672515D01*
X103641867Y-153672515D02*
X102190439Y-155123944D01*
X102190439Y-155123944D02*
X103762820Y-155123944D01*
X105939963Y-153430611D02*
X105939963Y-155123944D01*
X105335201Y-152462992D02*
X104730439Y-154277277D01*
X104730439Y-154277277D02*
X106302820Y-154277277D01*
D11*
X71031195Y-148764519D02*
X71031195Y-147764519D01*
X71031195Y-148240709D02*
X71602623Y-148240709D01*
X71602623Y-148764519D02*
X71602623Y-147764519D01*
X72507385Y-147764519D02*
X72316909Y-147764519D01*
X72316909Y-147764519D02*
X72221671Y-147812138D01*
X72221671Y-147812138D02*
X72174052Y-147859757D01*
X72174052Y-147859757D02*
X72078814Y-148002614D01*
X72078814Y-148002614D02*
X72031195Y-148193090D01*
X72031195Y-148193090D02*
X72031195Y-148574042D01*
X72031195Y-148574042D02*
X72078814Y-148669280D01*
X72078814Y-148669280D02*
X72126433Y-148716900D01*
X72126433Y-148716900D02*
X72221671Y-148764519D01*
X72221671Y-148764519D02*
X72412147Y-148764519D01*
X72412147Y-148764519D02*
X72507385Y-148716900D01*
X72507385Y-148716900D02*
X72555004Y-148669280D01*
X72555004Y-148669280D02*
X72602623Y-148574042D01*
X72602623Y-148574042D02*
X72602623Y-148335947D01*
X72602623Y-148335947D02*
X72555004Y-148240709D01*
X72555004Y-148240709D02*
X72507385Y-148193090D01*
X72507385Y-148193090D02*
X72412147Y-148145471D01*
X72412147Y-148145471D02*
X72221671Y-148145471D01*
X72221671Y-148145471D02*
X72126433Y-148193090D01*
X72126433Y-148193090D02*
X72078814Y-148240709D01*
X72078814Y-148240709D02*
X72031195Y-148335947D01*
X71031195Y-57756319D02*
X71031195Y-56756319D01*
X71031195Y-57232509D02*
X71602623Y-57232509D01*
X71602623Y-57756319D02*
X71602623Y-56756319D01*
X72555004Y-56756319D02*
X72078814Y-56756319D01*
X72078814Y-56756319D02*
X72031195Y-57232509D01*
X72031195Y-57232509D02*
X72078814Y-57184890D01*
X72078814Y-57184890D02*
X72174052Y-57137271D01*
X72174052Y-57137271D02*
X72412147Y-57137271D01*
X72412147Y-57137271D02*
X72507385Y-57184890D01*
X72507385Y-57184890D02*
X72555004Y-57232509D01*
X72555004Y-57232509D02*
X72602623Y-57327747D01*
X72602623Y-57327747D02*
X72602623Y-57565842D01*
X72602623Y-57565842D02*
X72555004Y-57661080D01*
X72555004Y-57661080D02*
X72507385Y-57708700D01*
X72507385Y-57708700D02*
X72412147Y-57756319D01*
X72412147Y-57756319D02*
X72174052Y-57756319D01*
X72174052Y-57756319D02*
X72078814Y-57708700D01*
X72078814Y-57708700D02*
X72031195Y-57661080D01*
D10*
X75479514Y-67285692D02*
X75842371Y-67406644D01*
X75842371Y-67406644D02*
X76447133Y-67406644D01*
X76447133Y-67406644D02*
X76689038Y-67285692D01*
X76689038Y-67285692D02*
X76809990Y-67164739D01*
X76809990Y-67164739D02*
X76930943Y-66922834D01*
X76930943Y-66922834D02*
X76930943Y-66680930D01*
X76930943Y-66680930D02*
X76809990Y-66439025D01*
X76809990Y-66439025D02*
X76689038Y-66318072D01*
X76689038Y-66318072D02*
X76447133Y-66197120D01*
X76447133Y-66197120D02*
X75963324Y-66076168D01*
X75963324Y-66076168D02*
X75721419Y-65955215D01*
X75721419Y-65955215D02*
X75600466Y-65834263D01*
X75600466Y-65834263D02*
X75479514Y-65592358D01*
X75479514Y-65592358D02*
X75479514Y-65350453D01*
X75479514Y-65350453D02*
X75600466Y-65108549D01*
X75600466Y-65108549D02*
X75721419Y-64987596D01*
X75721419Y-64987596D02*
X75963324Y-64866644D01*
X75963324Y-64866644D02*
X76568085Y-64866644D01*
X76568085Y-64866644D02*
X76930943Y-64987596D01*
X78019514Y-66076168D02*
X78866181Y-66076168D01*
X79229038Y-67406644D02*
X78019514Y-67406644D01*
X78019514Y-67406644D02*
X78019514Y-64866644D01*
X78019514Y-64866644D02*
X79229038Y-64866644D01*
X80317609Y-67406644D02*
X80317609Y-64866644D01*
X80317609Y-64866644D02*
X81769038Y-67406644D01*
X81769038Y-67406644D02*
X81769038Y-64866644D01*
X84188085Y-64866644D02*
X82978561Y-64866644D01*
X82978561Y-64866644D02*
X82857609Y-66076168D01*
X82857609Y-66076168D02*
X82978561Y-65955215D01*
X82978561Y-65955215D02*
X83220466Y-65834263D01*
X83220466Y-65834263D02*
X83825228Y-65834263D01*
X83825228Y-65834263D02*
X84067133Y-65955215D01*
X84067133Y-65955215D02*
X84188085Y-66076168D01*
X84188085Y-66076168D02*
X84309038Y-66318072D01*
X84309038Y-66318072D02*
X84309038Y-66922834D01*
X84309038Y-66922834D02*
X84188085Y-67164739D01*
X84188085Y-67164739D02*
X84067133Y-67285692D01*
X84067133Y-67285692D02*
X83825228Y-67406644D01*
X83825228Y-67406644D02*
X83220466Y-67406644D01*
X83220466Y-67406644D02*
X82978561Y-67285692D01*
X82978561Y-67285692D02*
X82857609Y-67164739D01*
X86607133Y-64866644D02*
X85397609Y-64866644D01*
X85397609Y-64866644D02*
X85276657Y-66076168D01*
X85276657Y-66076168D02*
X85397609Y-65955215D01*
X85397609Y-65955215D02*
X85639514Y-65834263D01*
X85639514Y-65834263D02*
X86244276Y-65834263D01*
X86244276Y-65834263D02*
X86486181Y-65955215D01*
X86486181Y-65955215D02*
X86607133Y-66076168D01*
X86607133Y-66076168D02*
X86728086Y-66318072D01*
X86728086Y-66318072D02*
X86728086Y-66922834D01*
X86728086Y-66922834D02*
X86607133Y-67164739D01*
X86607133Y-67164739D02*
X86486181Y-67285692D01*
X86486181Y-67285692D02*
X86244276Y-67406644D01*
X86244276Y-67406644D02*
X85639514Y-67406644D01*
X85639514Y-67406644D02*
X85397609Y-67285692D01*
X85397609Y-67285692D02*
X85276657Y-67164739D01*
D11*
X106381009Y-135405714D02*
X106428628Y-135262857D01*
X106428628Y-135262857D02*
X106476247Y-135215238D01*
X106476247Y-135215238D02*
X106571485Y-135167619D01*
X106571485Y-135167619D02*
X106714342Y-135167619D01*
X106714342Y-135167619D02*
X106809580Y-135215238D01*
X106809580Y-135215238D02*
X106857200Y-135262857D01*
X106857200Y-135262857D02*
X106904819Y-135358095D01*
X106904819Y-135358095D02*
X106904819Y-135739047D01*
X106904819Y-135739047D02*
X105904819Y-135739047D01*
X105904819Y-135739047D02*
X105904819Y-135405714D01*
X105904819Y-135405714D02*
X105952438Y-135310476D01*
X105952438Y-135310476D02*
X106000057Y-135262857D01*
X106000057Y-135262857D02*
X106095295Y-135215238D01*
X106095295Y-135215238D02*
X106190533Y-135215238D01*
X106190533Y-135215238D02*
X106285771Y-135262857D01*
X106285771Y-135262857D02*
X106333390Y-135310476D01*
X106333390Y-135310476D02*
X106381009Y-135405714D01*
X106381009Y-135405714D02*
X106381009Y-135739047D01*
X105904819Y-134881904D02*
X105904819Y-134310476D01*
X106904819Y-134596190D02*
X105904819Y-134596190D01*
X106904819Y-133453333D02*
X106904819Y-134024761D01*
X106904819Y-133739047D02*
X105904819Y-133739047D01*
X105904819Y-133739047D02*
X106047676Y-133834285D01*
X106047676Y-133834285D02*
X106142914Y-133929523D01*
X106142914Y-133929523D02*
X106190533Y-134024761D01*
D12*
X115769922Y-104986666D02*
X115165160Y-105410000D01*
X115769922Y-105712381D02*
X114499922Y-105712381D01*
X114499922Y-105712381D02*
X114499922Y-105228571D01*
X114499922Y-105228571D02*
X114560398Y-105107619D01*
X114560398Y-105107619D02*
X114620874Y-105047142D01*
X114620874Y-105047142D02*
X114741826Y-104986666D01*
X114741826Y-104986666D02*
X114923255Y-104986666D01*
X114923255Y-104986666D02*
X115044207Y-105047142D01*
X115044207Y-105047142D02*
X115104684Y-105107619D01*
X115104684Y-105107619D02*
X115165160Y-105228571D01*
X115165160Y-105228571D02*
X115165160Y-105712381D01*
X115769922Y-103777142D02*
X115769922Y-104502857D01*
X115769922Y-104140000D02*
X114499922Y-104140000D01*
X114499922Y-104140000D02*
X114681350Y-104260952D01*
X114681350Y-104260952D02*
X114802303Y-104381904D01*
X114802303Y-104381904D02*
X114862779Y-104502857D01*
D11*
X113679580Y-113176666D02*
X113727200Y-113224285D01*
X113727200Y-113224285D02*
X113774819Y-113367142D01*
X113774819Y-113367142D02*
X113774819Y-113462380D01*
X113774819Y-113462380D02*
X113727200Y-113605237D01*
X113727200Y-113605237D02*
X113631961Y-113700475D01*
X113631961Y-113700475D02*
X113536723Y-113748094D01*
X113536723Y-113748094D02*
X113346247Y-113795713D01*
X113346247Y-113795713D02*
X113203390Y-113795713D01*
X113203390Y-113795713D02*
X113012914Y-113748094D01*
X113012914Y-113748094D02*
X112917676Y-113700475D01*
X112917676Y-113700475D02*
X112822438Y-113605237D01*
X112822438Y-113605237D02*
X112774819Y-113462380D01*
X112774819Y-113462380D02*
X112774819Y-113367142D01*
X112774819Y-113367142D02*
X112822438Y-113224285D01*
X112822438Y-113224285D02*
X112870057Y-113176666D01*
X112870057Y-112795713D02*
X112822438Y-112748094D01*
X112822438Y-112748094D02*
X112774819Y-112652856D01*
X112774819Y-112652856D02*
X112774819Y-112414761D01*
X112774819Y-112414761D02*
X112822438Y-112319523D01*
X112822438Y-112319523D02*
X112870057Y-112271904D01*
X112870057Y-112271904D02*
X112965295Y-112224285D01*
X112965295Y-112224285D02*
X113060533Y-112224285D01*
X113060533Y-112224285D02*
X113203390Y-112271904D01*
X113203390Y-112271904D02*
X113774819Y-112843332D01*
X113774819Y-112843332D02*
X113774819Y-112224285D01*
X57035795Y-148764519D02*
X57035795Y-147764519D01*
X57035795Y-148240709D02*
X57607223Y-148240709D01*
X57607223Y-148764519D02*
X57607223Y-147764519D01*
X57988176Y-147764519D02*
X58607223Y-147764519D01*
X58607223Y-147764519D02*
X58273890Y-148145471D01*
X58273890Y-148145471D02*
X58416747Y-148145471D01*
X58416747Y-148145471D02*
X58511985Y-148193090D01*
X58511985Y-148193090D02*
X58559604Y-148240709D01*
X58559604Y-148240709D02*
X58607223Y-148335947D01*
X58607223Y-148335947D02*
X58607223Y-148574042D01*
X58607223Y-148574042D02*
X58559604Y-148669280D01*
X58559604Y-148669280D02*
X58511985Y-148716900D01*
X58511985Y-148716900D02*
X58416747Y-148764519D01*
X58416747Y-148764519D02*
X58131033Y-148764519D01*
X58131033Y-148764519D02*
X58035795Y-148716900D01*
X58035795Y-148716900D02*
X57988176Y-148669280D01*
D12*
X110054922Y-105113666D02*
X109450160Y-105537000D01*
X110054922Y-105839381D02*
X108784922Y-105839381D01*
X108784922Y-105839381D02*
X108784922Y-105355571D01*
X108784922Y-105355571D02*
X108845398Y-105234619D01*
X108845398Y-105234619D02*
X108905874Y-105174142D01*
X108905874Y-105174142D02*
X109026826Y-105113666D01*
X109026826Y-105113666D02*
X109208255Y-105113666D01*
X109208255Y-105113666D02*
X109329207Y-105174142D01*
X109329207Y-105174142D02*
X109389684Y-105234619D01*
X109389684Y-105234619D02*
X109450160Y-105355571D01*
X109450160Y-105355571D02*
X109450160Y-105839381D01*
X108905874Y-104629857D02*
X108845398Y-104569381D01*
X108845398Y-104569381D02*
X108784922Y-104448428D01*
X108784922Y-104448428D02*
X108784922Y-104146047D01*
X108784922Y-104146047D02*
X108845398Y-104025095D01*
X108845398Y-104025095D02*
X108905874Y-103964619D01*
X108905874Y-103964619D02*
X109026826Y-103904142D01*
X109026826Y-103904142D02*
X109147779Y-103904142D01*
X109147779Y-103904142D02*
X109329207Y-103964619D01*
X109329207Y-103964619D02*
X110054922Y-104690333D01*
X110054922Y-104690333D02*
X110054922Y-103904142D01*
D11*
X107329580Y-113176666D02*
X107377200Y-113224285D01*
X107377200Y-113224285D02*
X107424819Y-113367142D01*
X107424819Y-113367142D02*
X107424819Y-113462380D01*
X107424819Y-113462380D02*
X107377200Y-113605237D01*
X107377200Y-113605237D02*
X107281961Y-113700475D01*
X107281961Y-113700475D02*
X107186723Y-113748094D01*
X107186723Y-113748094D02*
X106996247Y-113795713D01*
X106996247Y-113795713D02*
X106853390Y-113795713D01*
X106853390Y-113795713D02*
X106662914Y-113748094D01*
X106662914Y-113748094D02*
X106567676Y-113700475D01*
X106567676Y-113700475D02*
X106472438Y-113605237D01*
X106472438Y-113605237D02*
X106424819Y-113462380D01*
X106424819Y-113462380D02*
X106424819Y-113367142D01*
X106424819Y-113367142D02*
X106472438Y-113224285D01*
X106472438Y-113224285D02*
X106520057Y-113176666D01*
X107424819Y-112224285D02*
X107424819Y-112795713D01*
X107424819Y-112509999D02*
X106424819Y-112509999D01*
X106424819Y-112509999D02*
X106567676Y-112605237D01*
X106567676Y-112605237D02*
X106662914Y-112700475D01*
X106662914Y-112700475D02*
X106710533Y-112795713D01*
X189039595Y-57756319D02*
X189039595Y-56756319D01*
X189039595Y-57232509D02*
X189611023Y-57232509D01*
X189611023Y-57756319D02*
X189611023Y-56756319D01*
X190039595Y-56851557D02*
X190087214Y-56803938D01*
X190087214Y-56803938D02*
X190182452Y-56756319D01*
X190182452Y-56756319D02*
X190420547Y-56756319D01*
X190420547Y-56756319D02*
X190515785Y-56803938D01*
X190515785Y-56803938D02*
X190563404Y-56851557D01*
X190563404Y-56851557D02*
X190611023Y-56946795D01*
X190611023Y-56946795D02*
X190611023Y-57042033D01*
X190611023Y-57042033D02*
X190563404Y-57184890D01*
X190563404Y-57184890D02*
X189991976Y-57756319D01*
X189991976Y-57756319D02*
X190611023Y-57756319D01*
D10*
X129727666Y-150745468D02*
X130574333Y-150745468D01*
X130937190Y-152075944D02*
X129727666Y-152075944D01*
X129727666Y-152075944D02*
X129727666Y-149535944D01*
X129727666Y-149535944D02*
X130937190Y-149535944D01*
X131904809Y-151954992D02*
X132267666Y-152075944D01*
X132267666Y-152075944D02*
X132872428Y-152075944D01*
X132872428Y-152075944D02*
X133114333Y-151954992D01*
X133114333Y-151954992D02*
X133235285Y-151834039D01*
X133235285Y-151834039D02*
X133356238Y-151592134D01*
X133356238Y-151592134D02*
X133356238Y-151350230D01*
X133356238Y-151350230D02*
X133235285Y-151108325D01*
X133235285Y-151108325D02*
X133114333Y-150987372D01*
X133114333Y-150987372D02*
X132872428Y-150866420D01*
X132872428Y-150866420D02*
X132388619Y-150745468D01*
X132388619Y-150745468D02*
X132146714Y-150624515D01*
X132146714Y-150624515D02*
X132025761Y-150503563D01*
X132025761Y-150503563D02*
X131904809Y-150261658D01*
X131904809Y-150261658D02*
X131904809Y-150019753D01*
X131904809Y-150019753D02*
X132025761Y-149777849D01*
X132025761Y-149777849D02*
X132146714Y-149656896D01*
X132146714Y-149656896D02*
X132388619Y-149535944D01*
X132388619Y-149535944D02*
X132993380Y-149535944D01*
X132993380Y-149535944D02*
X133356238Y-149656896D01*
X134444809Y-152075944D02*
X134444809Y-149535944D01*
X134444809Y-149535944D02*
X135412428Y-149535944D01*
X135412428Y-149535944D02*
X135654333Y-149656896D01*
X135654333Y-149656896D02*
X135775286Y-149777849D01*
X135775286Y-149777849D02*
X135896238Y-150019753D01*
X135896238Y-150019753D02*
X135896238Y-150382611D01*
X135896238Y-150382611D02*
X135775286Y-150624515D01*
X135775286Y-150624515D02*
X135654333Y-150745468D01*
X135654333Y-150745468D02*
X135412428Y-150866420D01*
X135412428Y-150866420D02*
X134444809Y-150866420D01*
X136742905Y-149535944D02*
X138315286Y-149535944D01*
X138315286Y-149535944D02*
X137468619Y-150503563D01*
X137468619Y-150503563D02*
X137831476Y-150503563D01*
X137831476Y-150503563D02*
X138073381Y-150624515D01*
X138073381Y-150624515D02*
X138194333Y-150745468D01*
X138194333Y-150745468D02*
X138315286Y-150987372D01*
X138315286Y-150987372D02*
X138315286Y-151592134D01*
X138315286Y-151592134D02*
X138194333Y-151834039D01*
X138194333Y-151834039D02*
X138073381Y-151954992D01*
X138073381Y-151954992D02*
X137831476Y-152075944D01*
X137831476Y-152075944D02*
X137105762Y-152075944D01*
X137105762Y-152075944D02*
X136863857Y-151954992D01*
X136863857Y-151954992D02*
X136742905Y-151834039D01*
X139282905Y-149777849D02*
X139403857Y-149656896D01*
X139403857Y-149656896D02*
X139645762Y-149535944D01*
X139645762Y-149535944D02*
X140250524Y-149535944D01*
X140250524Y-149535944D02*
X140492429Y-149656896D01*
X140492429Y-149656896D02*
X140613381Y-149777849D01*
X140613381Y-149777849D02*
X140734334Y-150019753D01*
X140734334Y-150019753D02*
X140734334Y-150261658D01*
X140734334Y-150261658D02*
X140613381Y-150624515D01*
X140613381Y-150624515D02*
X139161953Y-152075944D01*
X139161953Y-152075944D02*
X140734334Y-152075944D01*
X71561666Y-144176544D02*
X71561666Y-141636544D01*
X71561666Y-141636544D02*
X72408333Y-143450830D01*
X72408333Y-143450830D02*
X73255000Y-141636544D01*
X73255000Y-141636544D02*
X73255000Y-144176544D01*
X75432142Y-144055592D02*
X75190238Y-144176544D01*
X75190238Y-144176544D02*
X74706428Y-144176544D01*
X74706428Y-144176544D02*
X74464523Y-144055592D01*
X74464523Y-144055592D02*
X74343571Y-143813687D01*
X74343571Y-143813687D02*
X74343571Y-142846068D01*
X74343571Y-142846068D02*
X74464523Y-142604163D01*
X74464523Y-142604163D02*
X74706428Y-142483211D01*
X74706428Y-142483211D02*
X75190238Y-142483211D01*
X75190238Y-142483211D02*
X75432142Y-142604163D01*
X75432142Y-142604163D02*
X75553095Y-142846068D01*
X75553095Y-142846068D02*
X75553095Y-143087972D01*
X75553095Y-143087972D02*
X74343571Y-143329877D01*
X76278809Y-142483211D02*
X77246428Y-142483211D01*
X76641666Y-141636544D02*
X76641666Y-143813687D01*
X76641666Y-143813687D02*
X76762619Y-144055592D01*
X76762619Y-144055592D02*
X77004524Y-144176544D01*
X77004524Y-144176544D02*
X77246428Y-144176544D01*
X78093095Y-144176544D02*
X78093095Y-141636544D01*
X79181667Y-144176544D02*
X79181667Y-142846068D01*
X79181667Y-142846068D02*
X79060714Y-142604163D01*
X79060714Y-142604163D02*
X78818810Y-142483211D01*
X78818810Y-142483211D02*
X78455953Y-142483211D01*
X78455953Y-142483211D02*
X78214048Y-142604163D01*
X78214048Y-142604163D02*
X78093095Y-142725115D01*
X81479762Y-144176544D02*
X81479762Y-142846068D01*
X81479762Y-142846068D02*
X81358809Y-142604163D01*
X81358809Y-142604163D02*
X81116905Y-142483211D01*
X81116905Y-142483211D02*
X80633095Y-142483211D01*
X80633095Y-142483211D02*
X80391190Y-142604163D01*
X81479762Y-144055592D02*
X81237857Y-144176544D01*
X81237857Y-144176544D02*
X80633095Y-144176544D01*
X80633095Y-144176544D02*
X80391190Y-144055592D01*
X80391190Y-144055592D02*
X80270238Y-143813687D01*
X80270238Y-143813687D02*
X80270238Y-143571782D01*
X80270238Y-143571782D02*
X80391190Y-143329877D01*
X80391190Y-143329877D02*
X80633095Y-143208925D01*
X80633095Y-143208925D02*
X81237857Y-143208925D01*
X81237857Y-143208925D02*
X81479762Y-143087972D01*
X82689285Y-142483211D02*
X82689285Y-144176544D01*
X82689285Y-142725115D02*
X82810238Y-142604163D01*
X82810238Y-142604163D02*
X83052143Y-142483211D01*
X83052143Y-142483211D02*
X83415000Y-142483211D01*
X83415000Y-142483211D02*
X83656904Y-142604163D01*
X83656904Y-142604163D02*
X83777857Y-142846068D01*
X83777857Y-142846068D02*
X83777857Y-144176544D01*
X85954999Y-144055592D02*
X85713095Y-144176544D01*
X85713095Y-144176544D02*
X85229285Y-144176544D01*
X85229285Y-144176544D02*
X84987380Y-144055592D01*
X84987380Y-144055592D02*
X84866428Y-143813687D01*
X84866428Y-143813687D02*
X84866428Y-142846068D01*
X84866428Y-142846068D02*
X84987380Y-142604163D01*
X84987380Y-142604163D02*
X85229285Y-142483211D01*
X85229285Y-142483211D02*
X85713095Y-142483211D01*
X85713095Y-142483211D02*
X85954999Y-142604163D01*
X85954999Y-142604163D02*
X86075952Y-142846068D01*
X86075952Y-142846068D02*
X86075952Y-143087972D01*
X86075952Y-143087972D02*
X84866428Y-143329877D01*
X156325914Y-64355230D02*
X157535438Y-64355230D01*
X156084009Y-65080944D02*
X156930676Y-62540944D01*
X156930676Y-62540944D02*
X157777343Y-65080944D01*
X159712581Y-64959992D02*
X159470676Y-65080944D01*
X159470676Y-65080944D02*
X158986867Y-65080944D01*
X158986867Y-65080944D02*
X158744962Y-64959992D01*
X158744962Y-64959992D02*
X158624009Y-64839039D01*
X158624009Y-64839039D02*
X158503057Y-64597134D01*
X158503057Y-64597134D02*
X158503057Y-63871420D01*
X158503057Y-63871420D02*
X158624009Y-63629515D01*
X158624009Y-63629515D02*
X158744962Y-63508563D01*
X158744962Y-63508563D02*
X158986867Y-63387611D01*
X158986867Y-63387611D02*
X159470676Y-63387611D01*
X159470676Y-63387611D02*
X159712581Y-63508563D01*
X161889724Y-64959992D02*
X161647819Y-65080944D01*
X161647819Y-65080944D02*
X161164010Y-65080944D01*
X161164010Y-65080944D02*
X160922105Y-64959992D01*
X160922105Y-64959992D02*
X160801152Y-64839039D01*
X160801152Y-64839039D02*
X160680200Y-64597134D01*
X160680200Y-64597134D02*
X160680200Y-63871420D01*
X160680200Y-63871420D02*
X160801152Y-63629515D01*
X160801152Y-63629515D02*
X160922105Y-63508563D01*
X160922105Y-63508563D02*
X161164010Y-63387611D01*
X161164010Y-63387611D02*
X161647819Y-63387611D01*
X161647819Y-63387611D02*
X161889724Y-63508563D01*
X163945914Y-64959992D02*
X163704010Y-65080944D01*
X163704010Y-65080944D02*
X163220200Y-65080944D01*
X163220200Y-65080944D02*
X162978295Y-64959992D01*
X162978295Y-64959992D02*
X162857343Y-64718087D01*
X162857343Y-64718087D02*
X162857343Y-63750468D01*
X162857343Y-63750468D02*
X162978295Y-63508563D01*
X162978295Y-63508563D02*
X163220200Y-63387611D01*
X163220200Y-63387611D02*
X163704010Y-63387611D01*
X163704010Y-63387611D02*
X163945914Y-63508563D01*
X163945914Y-63508563D02*
X164066867Y-63750468D01*
X164066867Y-63750468D02*
X164066867Y-63992372D01*
X164066867Y-63992372D02*
X162857343Y-64234277D01*
X165518296Y-65080944D02*
X165276391Y-64959992D01*
X165276391Y-64959992D02*
X165155438Y-64718087D01*
X165155438Y-64718087D02*
X165155438Y-62540944D01*
D11*
X110998095Y-115509819D02*
X110998095Y-116319342D01*
X110998095Y-116319342D02*
X111045714Y-116414580D01*
X111045714Y-116414580D02*
X111093333Y-116462200D01*
X111093333Y-116462200D02*
X111188571Y-116509819D01*
X111188571Y-116509819D02*
X111379047Y-116509819D01*
X111379047Y-116509819D02*
X111474285Y-116462200D01*
X111474285Y-116462200D02*
X111521904Y-116414580D01*
X111521904Y-116414580D02*
X111569523Y-116319342D01*
X111569523Y-116319342D02*
X111569523Y-115509819D01*
X112569523Y-116509819D02*
X111998095Y-116509819D01*
X112283809Y-116509819D02*
X112283809Y-115509819D01*
X112283809Y-115509819D02*
X112188571Y-115652676D01*
X112188571Y-115652676D02*
X112093333Y-115747914D01*
X112093333Y-115747914D02*
X111998095Y-115795533D01*
X57035795Y-57756319D02*
X57035795Y-56756319D01*
X57035795Y-57232509D02*
X57607223Y-57232509D01*
X57607223Y-57756319D02*
X57607223Y-56756319D01*
X58607223Y-57756319D02*
X58035795Y-57756319D01*
X58321509Y-57756319D02*
X58321509Y-56756319D01*
X58321509Y-56756319D02*
X58226271Y-56899176D01*
X58226271Y-56899176D02*
X58131033Y-56994414D01*
X58131033Y-56994414D02*
X58035795Y-57042033D01*
X154973333Y-154354819D02*
X154497143Y-154354819D01*
X154497143Y-154354819D02*
X154449524Y-154831009D01*
X154449524Y-154831009D02*
X154497143Y-154783390D01*
X154497143Y-154783390D02*
X154592381Y-154735771D01*
X154592381Y-154735771D02*
X154830476Y-154735771D01*
X154830476Y-154735771D02*
X154925714Y-154783390D01*
X154925714Y-154783390D02*
X154973333Y-154831009D01*
X154973333Y-154831009D02*
X155020952Y-154926247D01*
X155020952Y-154926247D02*
X155020952Y-155164342D01*
X155020952Y-155164342D02*
X154973333Y-155259580D01*
X154973333Y-155259580D02*
X154925714Y-155307200D01*
X154925714Y-155307200D02*
X154830476Y-155354819D01*
X154830476Y-155354819D02*
X154592381Y-155354819D01*
X154592381Y-155354819D02*
X154497143Y-155307200D01*
X154497143Y-155307200D02*
X154449524Y-155259580D01*
X155306667Y-154354819D02*
X155640000Y-155354819D01*
X155640000Y-155354819D02*
X155973333Y-154354819D01*
X156830476Y-155354819D02*
X156259048Y-155354819D01*
X156544762Y-155354819D02*
X156544762Y-154354819D01*
X156544762Y-154354819D02*
X156449524Y-154497676D01*
X156449524Y-154497676D02*
X156354286Y-154592914D01*
X156354286Y-154592914D02*
X156259048Y-154640533D01*
D10*
X170277343Y-151026896D02*
X170035438Y-150905944D01*
X170035438Y-150905944D02*
X169672581Y-150905944D01*
X169672581Y-150905944D02*
X169309724Y-151026896D01*
X169309724Y-151026896D02*
X169067819Y-151268801D01*
X169067819Y-151268801D02*
X168946866Y-151510706D01*
X168946866Y-151510706D02*
X168825914Y-151994515D01*
X168825914Y-151994515D02*
X168825914Y-152357372D01*
X168825914Y-152357372D02*
X168946866Y-152841182D01*
X168946866Y-152841182D02*
X169067819Y-153083087D01*
X169067819Y-153083087D02*
X169309724Y-153324992D01*
X169309724Y-153324992D02*
X169672581Y-153445944D01*
X169672581Y-153445944D02*
X169914485Y-153445944D01*
X169914485Y-153445944D02*
X170277343Y-153324992D01*
X170277343Y-153324992D02*
X170398295Y-153204039D01*
X170398295Y-153204039D02*
X170398295Y-152357372D01*
X170398295Y-152357372D02*
X169914485Y-152357372D01*
X171486866Y-153445944D02*
X171486866Y-150905944D01*
X171486866Y-150905944D02*
X172454485Y-150905944D01*
X172454485Y-150905944D02*
X172696390Y-151026896D01*
X172696390Y-151026896D02*
X172817343Y-151147849D01*
X172817343Y-151147849D02*
X172938295Y-151389753D01*
X172938295Y-151389753D02*
X172938295Y-151752611D01*
X172938295Y-151752611D02*
X172817343Y-151994515D01*
X172817343Y-151994515D02*
X172696390Y-152115468D01*
X172696390Y-152115468D02*
X172454485Y-152236420D01*
X172454485Y-152236420D02*
X171486866Y-152236420D01*
X173905914Y-153324992D02*
X174268771Y-153445944D01*
X174268771Y-153445944D02*
X174873533Y-153445944D01*
X174873533Y-153445944D02*
X175115438Y-153324992D01*
X175115438Y-153324992D02*
X175236390Y-153204039D01*
X175236390Y-153204039D02*
X175357343Y-152962134D01*
X175357343Y-152962134D02*
X175357343Y-152720230D01*
X175357343Y-152720230D02*
X175236390Y-152478325D01*
X175236390Y-152478325D02*
X175115438Y-152357372D01*
X175115438Y-152357372D02*
X174873533Y-152236420D01*
X174873533Y-152236420D02*
X174389724Y-152115468D01*
X174389724Y-152115468D02*
X174147819Y-151994515D01*
X174147819Y-151994515D02*
X174026866Y-151873563D01*
X174026866Y-151873563D02*
X173905914Y-151631658D01*
X173905914Y-151631658D02*
X173905914Y-151389753D01*
X173905914Y-151389753D02*
X174026866Y-151147849D01*
X174026866Y-151147849D02*
X174147819Y-151026896D01*
X174147819Y-151026896D02*
X174389724Y-150905944D01*
X174389724Y-150905944D02*
X174994485Y-150905944D01*
X174994485Y-150905944D02*
X175357343Y-151026896D01*
X175309390Y-91215944D02*
X174099866Y-91215944D01*
X174099866Y-91215944D02*
X174099866Y-88675944D01*
X176518914Y-91215944D02*
X176277009Y-91094992D01*
X176277009Y-91094992D02*
X176156056Y-90974039D01*
X176156056Y-90974039D02*
X176035104Y-90732134D01*
X176035104Y-90732134D02*
X176035104Y-90006420D01*
X176035104Y-90006420D02*
X176156056Y-89764515D01*
X176156056Y-89764515D02*
X176277009Y-89643563D01*
X176277009Y-89643563D02*
X176518914Y-89522611D01*
X176518914Y-89522611D02*
X176881771Y-89522611D01*
X176881771Y-89522611D02*
X177123675Y-89643563D01*
X177123675Y-89643563D02*
X177244628Y-89764515D01*
X177244628Y-89764515D02*
X177365580Y-90006420D01*
X177365580Y-90006420D02*
X177365580Y-90732134D01*
X177365580Y-90732134D02*
X177244628Y-90974039D01*
X177244628Y-90974039D02*
X177123675Y-91094992D01*
X177123675Y-91094992D02*
X176881771Y-91215944D01*
X176881771Y-91215944D02*
X176518914Y-91215944D01*
X178454151Y-91215944D02*
X178454151Y-89522611D01*
X178454151Y-90006420D02*
X178575104Y-89764515D01*
X178575104Y-89764515D02*
X178696056Y-89643563D01*
X178696056Y-89643563D02*
X178937961Y-89522611D01*
X178937961Y-89522611D02*
X179179866Y-89522611D01*
X181115104Y-91215944D02*
X181115104Y-89885468D01*
X181115104Y-89885468D02*
X180994151Y-89643563D01*
X180994151Y-89643563D02*
X180752247Y-89522611D01*
X180752247Y-89522611D02*
X180268437Y-89522611D01*
X180268437Y-89522611D02*
X180026532Y-89643563D01*
X181115104Y-91094992D02*
X180873199Y-91215944D01*
X180873199Y-91215944D02*
X180268437Y-91215944D01*
X180268437Y-91215944D02*
X180026532Y-91094992D01*
X180026532Y-91094992D02*
X179905580Y-90853087D01*
X179905580Y-90853087D02*
X179905580Y-90611182D01*
X179905580Y-90611182D02*
X180026532Y-90369277D01*
X180026532Y-90369277D02*
X180268437Y-90248325D01*
X180268437Y-90248325D02*
X180873199Y-90248325D01*
X180873199Y-90248325D02*
X181115104Y-90127372D01*
X182082723Y-88675944D02*
X182687485Y-91215944D01*
X182687485Y-91215944D02*
X183171294Y-89401658D01*
X183171294Y-89401658D02*
X183655104Y-91215944D01*
X183655104Y-91215944D02*
X184259866Y-88675944D01*
X185106532Y-90490230D02*
X186316056Y-90490230D01*
X184864627Y-91215944D02*
X185711294Y-88675944D01*
X185711294Y-88675944D02*
X186557961Y-91215944D01*
X187404627Y-91215944D02*
X187404627Y-88675944D01*
X187404627Y-88675944D02*
X188856056Y-91215944D01*
X188856056Y-91215944D02*
X188856056Y-88675944D01*
D11*
X189039595Y-148764519D02*
X189039595Y-147764519D01*
X189039595Y-148240709D02*
X189611023Y-148240709D01*
X189611023Y-148764519D02*
X189611023Y-147764519D01*
X190515785Y-148097852D02*
X190515785Y-148764519D01*
X190277690Y-147716900D02*
X190039595Y-148431185D01*
X190039595Y-148431185D02*
X190658642Y-148431185D01*
X146067619Y-154354819D02*
X146686666Y-154354819D01*
X146686666Y-154354819D02*
X146353333Y-154735771D01*
X146353333Y-154735771D02*
X146496190Y-154735771D01*
X146496190Y-154735771D02*
X146591428Y-154783390D01*
X146591428Y-154783390D02*
X146639047Y-154831009D01*
X146639047Y-154831009D02*
X146686666Y-154926247D01*
X146686666Y-154926247D02*
X146686666Y-155164342D01*
X146686666Y-155164342D02*
X146639047Y-155259580D01*
X146639047Y-155259580D02*
X146591428Y-155307200D01*
X146591428Y-155307200D02*
X146496190Y-155354819D01*
X146496190Y-155354819D02*
X146210476Y-155354819D01*
X146210476Y-155354819D02*
X146115238Y-155307200D01*
X146115238Y-155307200D02*
X146067619Y-155259580D01*
X147115238Y-155259580D02*
X147162857Y-155307200D01*
X147162857Y-155307200D02*
X147115238Y-155354819D01*
X147115238Y-155354819D02*
X147067619Y-155307200D01*
X147067619Y-155307200D02*
X147115238Y-155259580D01*
X147115238Y-155259580D02*
X147115238Y-155354819D01*
X147496190Y-154354819D02*
X148115237Y-154354819D01*
X148115237Y-154354819D02*
X147781904Y-154735771D01*
X147781904Y-154735771D02*
X147924761Y-154735771D01*
X147924761Y-154735771D02*
X148019999Y-154783390D01*
X148019999Y-154783390D02*
X148067618Y-154831009D01*
X148067618Y-154831009D02*
X148115237Y-154926247D01*
X148115237Y-154926247D02*
X148115237Y-155164342D01*
X148115237Y-155164342D02*
X148067618Y-155259580D01*
X148067618Y-155259580D02*
X148019999Y-155307200D01*
X148019999Y-155307200D02*
X147924761Y-155354819D01*
X147924761Y-155354819D02*
X147639047Y-155354819D01*
X147639047Y-155354819D02*
X147543809Y-155307200D01*
X147543809Y-155307200D02*
X147496190Y-155259580D01*
X148400952Y-154354819D02*
X148734285Y-155354819D01*
X148734285Y-155354819D02*
X149067618Y-154354819D01*
X149924761Y-155354819D02*
X149353333Y-155354819D01*
X149639047Y-155354819D02*
X149639047Y-154354819D01*
X149639047Y-154354819D02*
X149543809Y-154497676D01*
X149543809Y-154497676D02*
X149448571Y-154592914D01*
X149448571Y-154592914D02*
X149353333Y-154640533D01*
D10*
X127201190Y-60993939D02*
X127080238Y-61114892D01*
X127080238Y-61114892D02*
X126717380Y-61235844D01*
X126717380Y-61235844D02*
X126475476Y-61235844D01*
X126475476Y-61235844D02*
X126112619Y-61114892D01*
X126112619Y-61114892D02*
X125870714Y-60872987D01*
X125870714Y-60872987D02*
X125749761Y-60631082D01*
X125749761Y-60631082D02*
X125628809Y-60147272D01*
X125628809Y-60147272D02*
X125628809Y-59784415D01*
X125628809Y-59784415D02*
X125749761Y-59300606D01*
X125749761Y-59300606D02*
X125870714Y-59058701D01*
X125870714Y-59058701D02*
X126112619Y-58816796D01*
X126112619Y-58816796D02*
X126475476Y-58695844D01*
X126475476Y-58695844D02*
X126717380Y-58695844D01*
X126717380Y-58695844D02*
X127080238Y-58816796D01*
X127080238Y-58816796D02*
X127201190Y-58937749D01*
X128773571Y-58695844D02*
X129257380Y-58695844D01*
X129257380Y-58695844D02*
X129499285Y-58816796D01*
X129499285Y-58816796D02*
X129741190Y-59058701D01*
X129741190Y-59058701D02*
X129862142Y-59542511D01*
X129862142Y-59542511D02*
X129862142Y-60389177D01*
X129862142Y-60389177D02*
X129741190Y-60872987D01*
X129741190Y-60872987D02*
X129499285Y-61114892D01*
X129499285Y-61114892D02*
X129257380Y-61235844D01*
X129257380Y-61235844D02*
X128773571Y-61235844D01*
X128773571Y-61235844D02*
X128531666Y-61114892D01*
X128531666Y-61114892D02*
X128289761Y-60872987D01*
X128289761Y-60872987D02*
X128168809Y-60389177D01*
X128168809Y-60389177D02*
X128168809Y-59542511D01*
X128168809Y-59542511D02*
X128289761Y-59058701D01*
X128289761Y-59058701D02*
X128531666Y-58816796D01*
X128531666Y-58816796D02*
X128773571Y-58695844D01*
X130829761Y-58937749D02*
X130950713Y-58816796D01*
X130950713Y-58816796D02*
X131192618Y-58695844D01*
X131192618Y-58695844D02*
X131797380Y-58695844D01*
X131797380Y-58695844D02*
X132039285Y-58816796D01*
X132039285Y-58816796D02*
X132160237Y-58937749D01*
X132160237Y-58937749D02*
X132281190Y-59179653D01*
X132281190Y-59179653D02*
X132281190Y-59421558D01*
X132281190Y-59421558D02*
X132160237Y-59784415D01*
X132160237Y-59784415D02*
X130708809Y-61235844D01*
X130708809Y-61235844D02*
X132281190Y-61235844D01*
D11*
X151861904Y-146782438D02*
X151766666Y-146734819D01*
X151766666Y-146734819D02*
X151623809Y-146734819D01*
X151623809Y-146734819D02*
X151480952Y-146782438D01*
X151480952Y-146782438D02*
X151385714Y-146877676D01*
X151385714Y-146877676D02*
X151338095Y-146972914D01*
X151338095Y-146972914D02*
X151290476Y-147163390D01*
X151290476Y-147163390D02*
X151290476Y-147306247D01*
X151290476Y-147306247D02*
X151338095Y-147496723D01*
X151338095Y-147496723D02*
X151385714Y-147591961D01*
X151385714Y-147591961D02*
X151480952Y-147687200D01*
X151480952Y-147687200D02*
X151623809Y-147734819D01*
X151623809Y-147734819D02*
X151719047Y-147734819D01*
X151719047Y-147734819D02*
X151861904Y-147687200D01*
X151861904Y-147687200D02*
X151909523Y-147639580D01*
X151909523Y-147639580D02*
X151909523Y-147306247D01*
X151909523Y-147306247D02*
X151719047Y-147306247D01*
X152338095Y-147734819D02*
X152338095Y-146734819D01*
X152338095Y-146734819D02*
X152909523Y-147734819D01*
X152909523Y-147734819D02*
X152909523Y-146734819D01*
X153385714Y-147734819D02*
X153385714Y-146734819D01*
X153385714Y-146734819D02*
X153623809Y-146734819D01*
X153623809Y-146734819D02*
X153766666Y-146782438D01*
X153766666Y-146782438D02*
X153861904Y-146877676D01*
X153861904Y-146877676D02*
X153909523Y-146972914D01*
X153909523Y-146972914D02*
X153957142Y-147163390D01*
X153957142Y-147163390D02*
X153957142Y-147306247D01*
X153957142Y-147306247D02*
X153909523Y-147496723D01*
X153909523Y-147496723D02*
X153861904Y-147591961D01*
X153861904Y-147591961D02*
X153766666Y-147687200D01*
X153766666Y-147687200D02*
X153623809Y-147734819D01*
X153623809Y-147734819D02*
X153385714Y-147734819D01*
X154909523Y-147734819D02*
X154338095Y-147734819D01*
X154623809Y-147734819D02*
X154623809Y-146734819D01*
X154623809Y-146734819D02*
X154528571Y-146877676D01*
X154528571Y-146877676D02*
X154433333Y-146972914D01*
X154433333Y-146972914D02*
X154338095Y-147020533D01*
D13*
%TO.C,SEN55*%
X106503800Y-110694800D02*
X54332200Y-110694800D01*
X54332200Y-110694800D02*
X54332200Y-67921200D01*
X54332200Y-67921200D02*
X106503800Y-67921200D01*
X106503800Y-67921200D02*
X106503800Y-110694800D01*
D14*
%TO.C,BT1*%
X110490000Y-135950000D02*
X113090000Y-135950000D01*
X110490000Y-135950000D02*
X110490000Y-133290000D01*
X113090000Y-135950000D02*
X113090000Y-133290000D01*
X107890000Y-134620000D02*
X107890000Y-133290000D01*
X107890000Y-133290000D02*
X109220000Y-133290000D01*
X110490000Y-133290000D02*
X113090000Y-133290000D01*
%TO.C,R1*%
X116105000Y-106140000D02*
X116105000Y-99600000D01*
X116435000Y-106140000D02*
X116105000Y-106140000D01*
X118515000Y-106140000D02*
X118845000Y-106140000D01*
X118845000Y-106140000D02*
X118845000Y-99600000D01*
X116105000Y-99600000D02*
X116435000Y-99600000D01*
X118845000Y-99600000D02*
X118515000Y-99600000D01*
%TO.C,C2*%
X114450000Y-114630000D02*
X114515000Y-114630000D01*
X114450000Y-114630000D02*
X114450000Y-111390000D01*
X116625000Y-114630000D02*
X116690000Y-114630000D01*
X116690000Y-114630000D02*
X116690000Y-111390000D01*
X114450000Y-111390000D02*
X114515000Y-111390000D01*
X116625000Y-111390000D02*
X116690000Y-111390000D01*
%TO.C,R2*%
X110390000Y-106140000D02*
X110390000Y-99600000D01*
X110720000Y-106140000D02*
X110390000Y-106140000D01*
X112800000Y-106140000D02*
X113130000Y-106140000D01*
X113130000Y-106140000D02*
X113130000Y-99600000D01*
X110390000Y-99600000D02*
X110720000Y-99600000D01*
X113130000Y-99600000D02*
X112800000Y-99600000D01*
%TO.C,C1*%
X108100000Y-114630000D02*
X108165000Y-114630000D01*
X108100000Y-114630000D02*
X108100000Y-111390000D01*
X110275000Y-114630000D02*
X110340000Y-114630000D01*
X110340000Y-114630000D02*
X110340000Y-111390000D01*
X108100000Y-111390000D02*
X108165000Y-111390000D01*
X110275000Y-111390000D02*
X110340000Y-111390000D01*
D13*
%TO.C,ESP32-WROOM-32E1*%
X122605800Y-88900000D02*
X145465800Y-88900000D01*
X145465800Y-88900000D02*
X145465800Y-148844000D01*
X145465800Y-148844000D02*
X122605800Y-148844000D01*
X122605800Y-148844000D02*
X122605800Y-88900000D01*
%TO.C,Methane1*%
X60629800Y-114020600D02*
X97383600Y-114020600D01*
X97383600Y-114020600D02*
X97383600Y-140563600D01*
X97383600Y-140563600D02*
X60629800Y-140563600D01*
X60629800Y-140563600D02*
X60629800Y-114020600D01*
%TO.C,Accelerometer1*%
X151865000Y-65405000D02*
X170915000Y-65405000D01*
X170915000Y-65405000D02*
X170915000Y-84455000D01*
X170915000Y-84455000D02*
X151865000Y-84455000D01*
X151865000Y-84455000D02*
X151865000Y-65405000D01*
D14*
%TO.C,U1*%
X106640000Y-117055000D02*
X106640000Y-121696000D01*
X106640000Y-117055000D02*
X116880000Y-117055000D01*
X106640000Y-118565000D02*
X116880000Y-118565000D01*
X106640000Y-121696000D02*
X116880000Y-121696000D01*
X109910000Y-117055000D02*
X109910000Y-118565000D01*
X113611000Y-117055000D02*
X113611000Y-118565000D01*
X116880000Y-117055000D02*
X116880000Y-121696000D01*
%TO.C,5V1*%
X156640000Y-152400000D02*
G75*
G03*
X153240000Y-152400000I-1700000J0D01*
G01*
X153240000Y-152400000D02*
G75*
G03*
X156640000Y-152400000I1700000J0D01*
G01*
D13*
%TO.C,GPS1*%
X184685000Y-122020000D02*
X158015000Y-122020000D01*
X158015000Y-122020000D02*
X158015000Y-149960000D01*
X158015000Y-149960000D02*
X184685000Y-149960000D01*
X184685000Y-149960000D02*
X184685000Y-122020000D01*
%TO.C,LoraWAN1*%
X160628000Y-91540000D02*
X190092000Y-91540000D01*
X190092000Y-91540000D02*
X190092000Y-116940000D01*
X190092000Y-116940000D02*
X160628000Y-116940000D01*
X160628000Y-116940000D02*
X160628000Y-91540000D01*
D14*
%TO.C,3.3V1*%
X149020000Y-152400000D02*
G75*
G03*
X145620000Y-152400000I-1700000J0D01*
G01*
X145620000Y-152400000D02*
G75*
G03*
X149020000Y-152400000I1700000J0D01*
G01*
D13*
%TO.C,CO2*%
X116255000Y-61725000D02*
X141755000Y-61725000D01*
X141755000Y-61725000D02*
X141755000Y-84525000D01*
X141755000Y-84525000D02*
X116255000Y-84525000D01*
X116255000Y-84525000D02*
X116255000Y-61725000D01*
D14*
%TO.C,GND1*%
X154100000Y-144780000D02*
G75*
G03*
X150700000Y-144780000I-1700000J0D01*
G01*
X150700000Y-144780000D02*
G75*
G03*
X154100000Y-144780000I1700000J0D01*
G01*
%TD*%
M02*
