M48
; DRILL file {KiCad 7.0.10} date Thu Feb 29 23:41:46 2024
; FORMAT={-:-/ absolute / inch / decimal}
; #@! TF.CreationDate,2024-02-29T23:41:46-05:00
; #@! TF.GenerationSoftware,Kicad,Pcbnew,7.0.10
; #@! TF.FileFunction,Plated,1,2,PTH
FMAT,2
INCH
; #@! TA.AperFunction,Plated,PTH,ViaDrill
T1C0.0157
; #@! TA.AperFunction,Plated,PTH,ComponentDrill
T2C0.0315
; #@! TA.AperFunction,Plated,PTH,ComponentDrill
T3C0.0394
; #@! TA.AperFunction,Plated,PTH,ComponentDrill
T4C0.0430
; #@! TA.AperFunction,Plated,PTH,ComponentDrill
T5C0.0433
; #@! TA.AperFunction,Plated,PTH,ComponentDrill
T6C0.0591
; #@! TA.AperFunction,Plated,PTH,ComponentDrill
T7C0.0800
; #@! TA.AperFunction,Plated,PTH,ComponentDrill
T8C0.1150
; #@! TA.AperFunction,Plated,PTH,ComponentDrill
T9C0.1170
; #@! TA.AperFunction,Plated,PTH,ComponentDrill
T10C0.1220
; #@! TA.AperFunction,Plated,PTH,ComponentDrill
T11C0.1772
%
G90
G05
T1
X5.4Y-4.45
X5.5Y-4.55
X5.6Y-4.1
T2
X4.3Y-4.4
X4.3Y-4.4984
X4.55Y-4.4
X4.55Y-4.4984
X4.625Y-3.9
T3
X4.3Y-5.3
X4.4Y-5.3
T4
X3.787Y-4.789
X3.787Y-4.889
X3.787Y-4.989
X4.0931Y-3.3581
X4.0931Y-3.4581
X4.0931Y-3.5581
X4.0931Y-3.6581
X4.0931Y-3.7581
X4.0931Y-3.8581
X4.4Y-3.9
X4.4Y-4.2
X4.625Y-4.2
X4.877Y-3.2301
X4.877Y-3.8
X4.877Y-3.9
X4.877Y-4.0
X4.877Y-4.1
X4.877Y-4.2
X4.877Y-4.3
X4.877Y-4.4
X4.877Y-4.5
X4.877Y-4.6
X4.877Y-4.7
X4.877Y-4.8
X4.877Y-4.9
X4.977Y-3.2301
X5.077Y-3.2301
X5.177Y-3.2301
X5.277Y-3.2301
X5.677Y-3.8
X5.677Y-3.9
X5.677Y-4.0
X5.677Y-4.1
X5.677Y-4.2
X5.677Y-4.3
X5.677Y-4.4
X5.677Y-4.5
X5.677Y-4.6
X5.677Y-4.7
X5.677Y-4.8
X5.677Y-4.9
X5.677Y-5.0
X5.677Y-5.1
X5.677Y-5.2
X5.677Y-5.3
X6.1789Y-3.225
X6.2761Y-5.1539
X6.2761Y-5.2539
X6.2761Y-5.3539
X6.2761Y-5.4539
X6.2761Y-5.5539
X6.2789Y-3.225
X6.3789Y-3.225
X6.4239Y-3.7039
X6.4239Y-3.8039
X6.4239Y-3.9039
X6.4239Y-4.0039
X6.4239Y-4.1039
X6.4239Y-4.2039
X6.4239Y-4.3039
X6.4239Y-4.4039
X6.4239Y-4.5039
X6.4789Y-3.225
X6.5789Y-3.225
X7.4239Y-3.7039
X7.4239Y-3.8039
X7.4239Y-3.9039
X7.4239Y-4.0039
X7.4239Y-4.1039
T5
X4.3Y-4.7372
X4.4Y-4.7372
X4.5Y-4.7372
T6
X5.8Y-6.0
X6.0Y-5.7
X6.1Y-6.0
T7
X6.0789Y-2.675
X6.6289Y-2.675
T8
X4.685Y-2.5381
X4.685Y-3.2197
X5.4729Y-2.5381
X5.4729Y-3.2197
X7.1246Y-5.7134
T9
X4.9385Y-5.7485
X5.6155Y-5.7485
T10
X2.521Y-4.623
X2.521Y-5.4
X3.7Y-4.623
X3.7Y-5.4
T11
X2.2755Y-2.4725
X2.2755Y-6.0555
X2.8265Y-2.4725
X2.8265Y-6.0555
X7.4725Y-2.4725
X7.4725Y-6.0555
M30
